<?xml version="1.0" encoding="UTF-8" standalone="no"?><svg xmlns="http://www.w3.org/2000/svg" xmlns:xlink="http://www.w3.org/1999/xlink" contentScriptType="application/ecmascript" contentStyleType="text/css" height="320px" preserveAspectRatio="none" style="width:336px;height:320px;" version="1.1" viewBox="0 0 336 320"
    width="336px" zoomAndPan="magnify"><defs><filter height="300%" id="f10sja48wz9mv3" width="300%" x="-1" y="-1"><feGaussianBlur result="blurOut" stdDeviation="2.0"/><feColorMatrix in="blurOut" result="blurOut2" type="matrix" values="0 0 0 0 0 0 0 0 0 0 0 0 0 0 0 0 0 0 .4 0"/><feOffset dx="4.0" dy="4.0" in="blurOut2" result="blurOut3"/><feBlend in="SourceGraphic" in2="blurOut3" mode="normal"/></filter></defs><g><!--MD5=[19d16784bb5a3b3b7f2ed42a6c2fedf0]
entity Actor--><ellipse cx="50" cy="18" fill="#FEFECE" filter="url(#f10sja48wz9mv3)" rx="8" ry="8" style="stroke: #A80036; stroke-width: 2.0;"/><path d="M50,26 L50,53 M37,34 L63,34 M50,53 L37,68 M50,53 L63,68 " fill="none" filter="url(#f10sja48wz9mv3)" style="stroke: #A80036; stroke-width: 2.0;"/><text fill="#000000" font-family="sans-serif" font-size="14" lengthAdjust="spacingAndGlyphs" textLength="37" x="31.5" y="88.5352">Actor</text><!--MD5=[7dba778accb06d0be5db53cb6f17f7df]
entity Cloud--><path d="M113.0059,35.4851 C116.4923,29.3839 122.6442,29.4701 126.5315,35.0198 C128.2164,27.3205 134.5907,27.2703 139.443,31.628 C144.8625,26.1509 152.152,25.7754 154.8491,34.5673 C159.1185,27.2988 164.2834,27.9387 168.4435,34.6735 C178.0101,38.541 178.6659,46.0558 170.1156,51.7023 C176.7775,57.2744 174.158,62.8471 167.3182,65.7259 C164.599,73.3714 159.0318,75.8267 152.8497,69.2482 C149.8723,75.5128 145.7176,76.5014 140.1683,72.3923 C134.2369,76.9321 129.6573,76.6325 126.6209,69.1343 C121.6255,76.502 114.6253,74.447 111.8023,66.9663 C100.4171,65.7944 98.7539,60.046 103.6493,50.7093 C98.3946,41.8467 103.9306,35.5407 113.0059,35.4851 " fill="#FEFECE" style="stroke: #000000; stroke-width: 1.5;"/><text fill="#000000" font-family="sans-serif" font-size="14" lengthAdjust="spacingAndGlyphs" textLength="41" x="118.5" y="55.0352">Cloud</text><!--MD5=[6d03f57f00a2a252783d3e7615029fd6]
entity Folder--><polygon fill="#FEFECE" filter="url(#f10sja48wz9mv3)" points="210,21.5,256,21.5,263,42.5,284,42.5,284,77.4766,210,77.4766,210,21.5" style="stroke: #000000; stroke-width: 1.5;"/><line style="stroke: #000000; stroke-width: 1.5;" x1="210" x2="263" y1="42.5" y2="42.5"/><text fill="#000000" font-family="sans-serif" font-size="14" lengthAdjust="spacingAndGlyphs" textLength="44" x="220" y="63.0352">Folder</text><!--MD5=[ffec6a9efb9cc25dae0a2c0a0b7068f5]
entity Frame--><rect fill="#FEFECE" filter="url(#f10sja48wz9mv3)" height="46.4883" style="stroke: #000000; stroke-width: 1.5;" width="83" x="8.5" y="157"/><path d="M36.1667,158 L36.1667,162 L29.1667,169 L8.5,169 " fill="none" style="stroke: #000000; stroke-width: 1.5;"/><text fill="#000000" font-family="sans-serif" font-size="14" lengthAdjust="spacingAndGlyphs" textLength="43" x="23.5" y="190.5352">Frame</text><!--MD5=[01662713e0c01d293b5fbfc799a74846]
entity Interface--><ellipse cx="165" cy="180" fill="#FEFECE" filter="url(#f10sja48wz9mv3)" rx="8" ry="8" style="stroke: #A80036; stroke-width: 2.0;"/><text fill="#000000" font-family="sans-serif" font-size="14" lengthAdjust="spacingAndGlyphs" textLength="60" x="135" y="210.5352">Interface</text><!--MD5=[ed3747ad05e6730ca3536a40b62ba942]
entity Node--><polygon fill="#FEFECE" filter="url(#f10sja48wz9mv3)" points="238,167,248,157,314,157,314,193.4883,304,203.4883,238,203.4883,238,167" style="stroke: #000000; stroke-width: 1.5;"/><line style="stroke: #000000; stroke-width: 1.5;" x1="304" x2="313" y1="167" y2="158"/><line style="stroke: #000000; stroke-width: 1.5;" x1="238" x2="304" y1="167" y2="167"/><line style="stroke: #000000; stroke-width: 1.5;" x1="304" x2="304" y1="167" y2="203.4883"/><text fill="#000000" font-family="sans-serif" font-size="14" lengthAdjust="spacingAndGlyphs" textLength="36" x="253" y="190.5352">Node</text><!--MD5=[76e9058266bc8316d4f8460a5a541ec3]
entity Package--><polygon fill="#FEFECE" filter="url(#f10sja48wz9mv3)" points="6,269,70,269,77,291.4883,94,291.4883,94,308.4883,6,308.4883,6,269" style="stroke: #000000; stroke-width: 1.5;"/><line style="stroke: #000000; stroke-width: 1.5;" x1="6" x2="77" y1="291.4883" y2="291.4883"/><text fill="#000000" font-family="sans-serif" font-size="14" font-weight="bold" lengthAdjust="spacingAndGlyphs" textLength="58" x="10" y="285.5352">Package</text><!--MD5=[4b6b5958b923e86579435b414c2faebd]
link Actor to Cloud--><!--MD5=[9c3538ea0e61dcc9a38ed38fb584b76c]
link Cloud to Folder--><!--MD5=[3eb3822e8aacd82c0a32c0ab2b7481ca]
link Actor to Frame--><!--MD5=[ff3bdf6d50fdbcfbeb625aab3df3437d]
link Frame to Interface--><!--MD5=[c739cb65f1e2896e05edf291be8299f6]
link Interface to Node--><!--MD5=[e65268f127ebe01f44d0efba26813217]
link Frame to Package--><!--MD5=[f6e625c8ef80d7d1a9f4b24495fdb406]
@startuml
actor Actor
cloud Cloud
folder Folder
frame Frame
interface Interface
node Node
package Package
@enduml

PlantUML version 1.2019.10(Fri Sep 13 16:53:03 EDT 2019)
(GPL source distribution)
Java Runtime: Java(TM) SE Runtime Environment
JVM: Java HotSpot(TM) 64-Bit Server VM
Java Version: 1.8.0_102-b14
Operating System: Mac OS X
Default Encoding: UTF-8
Language: en
Country: US
--></g></svg>