<?xml version="1.0" encoding="UTF-8" standalone="no"?><svg xmlns="http://www.w3.org/2000/svg" xmlns:xlink="http://www.w3.org/1999/xlink" contentScriptType="application/ecmascript" contentStyleType="text/css" height="297px" preserveAspectRatio="none" style="width:1099px;height:297px;" version="1.1" viewBox="0 0 1099 297"
    width="1099px" zoomAndPan="magnify"><defs><filter height="300%" id="f1r3sccgow3ej0" width="300%" x="-1" y="-1"><feGaussianBlur result="blurOut" stdDeviation="2.0"/><feColorMatrix in="blurOut" result="blurOut2" type="matrix" values="0 0 0 0 0 0 0 0 0 0 0 0 0 0 0 0 0 0 .4 0"/><feOffset dx="4.0" dy="4.0" in="blurOut2" result="blurOut3"/><feBlend in="SourceGraphic" in2="blurOut3" mode="normal"/></filter></defs><g><text fill="#888888" font-family="sans-serif" font-size="10" lengthAdjust="spacingAndGlyphs" textLength="69" x="1018" y="9.668">ArchivesSpace</text><!--MD5=[76bdce9c527e58b3c1d4a2d9d1038352]
cluster ArchivesSpace--><path d="M199.3917,40.645 C204.6936,26.6088 213.9645,25.663 224.5274,34.9832 C230.5502,26.1259 237.758,23.3877 244.7255,34.0033 C251.3443,20.4949 260.583,19.6023 269.2769,32.0396 C276.6995,22.0656 284.7997,22.9822 290.5293,33.7723 C296.3994,19.4474 307.3675,20.4325 315.4595,31.5994 C320.2168,19.7153 331.1391,19.4234 338.4184,28.8871 C343.7892,18.9516 353.6343,20.3008 359.0709,28.8134 C366.9732,17.303 375.009,17.1772 382.4218,29.297 C391.0984,16.8944 401.0548,20.6237 406.9506,32.1479 C415.2645,21.1572 424.9225,19.8818 431.5784,33.7879 C437.0053,21.483 445.6832,21.0057 453.2652,31.7611 C461.7792,22.912 470.9508,25.0647 474.8037,36.6694 C481.6505,24.7872 489.5533,27.2772 496.4442,36.6244 C507.6363,25.3736 520.9955,27.0394 526,43.2773 C527.9736,42.6396 529.1368,44.0413 528.7817,45.8864 C537.6904,50.407 539.6688,57.7926 532.2821,65.2578 C545.2292,67.8025 550.7596,77.2151 541.5411,88.5652 C547.0368,98.4339 542.6343,105.8327 532.0763,107.8035 C543.0728,122.0533 536.171,134.434 519,135.2773 C520.0515,134.2019 521.2215,134.6128 521.3855,136.1026 C516.8467,148.0934 508.3484,148.9376 499.2807,141.169 C493.7145,151.1285 483.4374,152.3831 476.7831,142.3962 C472.015,152.2274 461.0382,156.4609 454.1639,144.5916 C446.9051,155.1562 434.6836,158.5991 427.896,144.0978 C422.7839,156.3011 413.1886,157.4352 405.7485,146.3078 C400.8016,157.7282 390.6104,156.0968 384.7903,147.209 C377.3429,160.558 369.1019,159.9191 360.0737,148.8062 C352.9043,158.0498 344.9728,160.6034 337.5321,149.101 C330.1386,160.1585 319.2086,157.7183 313.3461,147.3711 C304.9776,156.4315 295.735,156.3466 290.686,143.8772 C283.8562,153.3708 274.5117,155.501 267.5869,143.9817 C259.3329,150.4114 252.5709,150.9785 248.1629,139.7509 C241.1448,151.7064 228.4308,150.7414 222.4231,138.6685 C209.596,149.5344 195.0159,146.1368 192,128.2773 C193.9934,127.1044 194.937,128.0411 195.3575,129.9764 C176.4793,119.7271 177.1911,99.0585 195.0589,88.5444 C167.7577,70.9231 173.116,49.8884 199,36.2773 C200.9051,37.4768 201.4648,39.0888 199.3917,40.645 " fill="#FFFFFF" style="stroke: #000000; stroke-width: 1.5;"/><text fill="#000000" font-family="sans-serif" font-size="14" font-weight="bold" lengthAdjust="spacingAndGlyphs" textLength="101" x="308.5" y="54.8125">ArchivesSpace</text><!--MD5=[b4e09d266be9964199f2622adcc056fa]
cluster Backend--><rect fill="#FFFFFF" filter="url(#f1r3sccgow3ej0)" height="80" style="stroke: #000000; stroke-width: 1.5;" width="84" x="442" y="55.2773"/><rect fill="#FFFFFF" height="10" style="stroke: #000000; stroke-width: 1.5;" width="15" x="506" y="60.2773"/><rect fill="#FFFFFF" height="2" style="stroke: #000000; stroke-width: 1.5;" width="4" x="504" y="62.2773"/><rect fill="#FFFFFF" height="2" style="stroke: #000000; stroke-width: 1.5;" width="4" x="504" y="66.2773"/><text fill="#000000" font-family="sans-serif" font-size="14" font-weight="bold" lengthAdjust="spacingAndGlyphs" textLength="59" x="454.5" y="81.8125">Backend</text><!--MD5=[cef38effc2f77e0661e698fd25070bd2]
cluster BitCurator--><polygon fill="#FFFFFF" filter="url(#f1r3sccgow3ej0)" points="826,56.2773,836,46.2773,1061,46.2773,1061,129.2773,1051,139.2773,826,139.2773,826,56.2773" style="stroke: #000000; stroke-width: 1.5;"/><line style="stroke: #000000; stroke-width: 1.5;" x1="1051" x2="1060" y1="56.2773" y2="47.2773"/><line style="stroke: #000000; stroke-width: 1.5;" x1="826" x2="1051" y1="56.2773" y2="56.2773"/><line style="stroke: #000000; stroke-width: 1.5;" x1="1051" x2="1051" y1="56.2773" y2="139.2773"/><text fill="#000000" font-family="sans-serif" font-size="14" font-weight="bold" lengthAdjust="spacingAndGlyphs" textLength="74" x="902.5" y="72.8125">BitCurator</text><!--MD5=[d0e927ff02502d946d308c34580a81c8]
entity Front-End--><rect fill="#FEFECE" filter="url(#f1r3sccgow3ej0)" height="36.4883" style="stroke: #A80036; stroke-width: 1.5;" width="91" x="288.5" y="86.7773"/><rect fill="#FEFECE" height="5" style="stroke: #A80036; stroke-width: 1.5;" width="10" x="283.5" y="91.7773"/><rect fill="#FEFECE" height="5" style="stroke: #A80036; stroke-width: 1.5;" width="10" x="283.5" y="113.2656"/><text fill="#000000" font-family="sans-serif" font-size="14" lengthAdjust="spacingAndGlyphs" textLength="71" x="298.5" y="110.3125">Front-End</text><!--MD5=[dfc67d2811e0e5a7552fb581a15d28e4]
entity Public--><rect fill="#FEFECE" filter="url(#f1r3sccgow3ej0)" height="36.4883" style="stroke: #A80036; stroke-width: 1.5;" width="61" x="192.5" y="86.7773"/><rect fill="#FEFECE" height="5" style="stroke: #A80036; stroke-width: 1.5;" width="10" x="187.5" y="91.7773"/><rect fill="#FEFECE" height="5" style="stroke: #A80036; stroke-width: 1.5;" width="10" x="187.5" y="113.2656"/><text fill="#000000" font-family="sans-serif" font-size="14" lengthAdjust="spacingAndGlyphs" textLength="41" x="202.5" y="110.3125">Public</text><!--MD5=[c9cdec996607f0db33d5cd5e2148af87]
entity RDBMS--><path d="M450.5,92.2773 C450.5,82.2773 484,82.2773 484,82.2773 C484,82.2773 517.5,82.2773 517.5,92.2773 L517.5,117.7656 C517.5,127.7656 484,127.7656 484,127.7656 C484,127.7656 450.5,127.7656 450.5,117.7656 L450.5,92.2773 " fill="#FEFECE" filter="url(#f1r3sccgow3ej0)" style="stroke: #000000; stroke-width: 1.5;"/><path d="M450.5,92.2773 C450.5,102.2773 484,102.2773 484,102.2773 C484,102.2773 517.5,102.2773 517.5,92.2773 " fill="none" style="stroke: #000000; stroke-width: 1.5;"/><text fill="#000000" font-family="sans-serif" font-size="14" lengthAdjust="spacingAndGlyphs" textLength="47" x="460.5" y="119.8125">RDBMS</text><!--MD5=[828c0c877375f3b9259f871dda18dab1]
entity Checksums--><rect fill="#FEFECE" filter="url(#f1r3sccgow3ej0)" height="36.4883" style="stroke: #A80036; stroke-width: 1.5;" width="98" x="955" y="86.7773"/><rect fill="#FEFECE" height="5" style="stroke: #A80036; stroke-width: 1.5;" width="10" x="950" y="91.7773"/><rect fill="#FEFECE" height="5" style="stroke: #A80036; stroke-width: 1.5;" width="10" x="950" y="113.2656"/><text fill="#000000" font-family="sans-serif" font-size="14" lengthAdjust="spacingAndGlyphs" textLength="78" x="965" y="110.3125">Checksums</text><!--MD5=[c57f0c00710bbe7c333e3103d4bd9133]
entity Digital\nForensics--><rect fill="#FEFECE" filter="url(#f1r3sccgow3ej0)" height="52.9766" style="stroke: #A80036; stroke-width: 1.5;" width="85" x="834.5" y="78.2773"/><rect fill="#FEFECE" height="5" style="stroke: #A80036; stroke-width: 1.5;" width="10" x="829.5" y="83.2773"/><rect fill="#FEFECE" height="5" style="stroke: #A80036; stroke-width: 1.5;" width="10" x="829.5" y="121.2539"/><text fill="#000000" font-family="sans-serif" font-size="14" lengthAdjust="spacingAndGlyphs" textLength="44" x="844.5" y="101.8125">Digital</text><text fill="#000000" font-family="sans-serif" font-size="14" lengthAdjust="spacingAndGlyphs" textLength="65" x="844.5" y="118.3008">Forensics</text><!--MD5=[1ef3a0bb95f35db556e73004b367a5c6]
entity rarebooks.library.nd.edu--><polygon fill="#FEFECE" filter="url(#f1r3sccgow3ej0)" points="6,234.2773,184,234.2773,191,256.7656,208,256.7656,208,273.7656,6,273.7656,6,234.2773" style="stroke: #000000; stroke-width: 1.5;"/><line style="stroke: #000000; stroke-width: 1.5;" x1="6" x2="191" y1="256.7656" y2="256.7656"/><text fill="#000000" font-family="sans-serif" font-size="14" font-weight="bold" lengthAdjust="spacingAndGlyphs" textLength="172" x="10" y="250.8125">rarebooks.library.nd.edu</text><!--MD5=[3d00eebf725fe092d4e4fc1773d85cfc]
entity FurtherDescription--><ellipse cx="315" cy="253.7773" fill="#FEFECE" filter="url(#f1r3sccgow3ej0)" rx="8" ry="8" style="stroke: #A80036; stroke-width: 2.0;"/><text fill="#000000" font-family="sans-serif" font-size="14" lengthAdjust="spacingAndGlyphs" textLength="129" x="250.5" y="284.3125">further description</text><!--MD5=[6581bb77afafb02426a8a123e3b0f304]
entity LoadingDock--><polygon fill="#FEFECE" filter="url(#f1r3sccgow3ej0)" points="552.5,76.7773,598.5,76.7773,605.5,97.7773,671.5,97.7773,671.5,132.7539,552.5,132.7539,552.5,76.7773" style="stroke: #000000; stroke-width: 1.5;"/><line style="stroke: #000000; stroke-width: 1.5;" x1="552.5" x2="605.5" y1="97.7773" y2="97.7773"/><text fill="#000000" font-family="sans-serif" font-size="14" lengthAdjust="spacingAndGlyphs" textLength="89" x="562.5" y="118.3125">LoadingDock</text><!--MD5=[646b978bccffc891330493b991b9ead2]
entity Oxygen--><polygon fill="#FEFECE" filter="url(#f1r3sccgow3ej0)" points="706.5,91.7773,716.5,81.7773,799.5,81.7773,799.5,118.2656,789.5,128.2656,706.5,128.2656,706.5,91.7773" style="stroke: #000000; stroke-width: 1.5;"/><line style="stroke: #000000; stroke-width: 1.5;" x1="789.5" x2="798.5" y1="91.7773" y2="82.7773"/><line style="stroke: #000000; stroke-width: 1.5;" x1="706.5" x2="789.5" y1="91.7773" y2="91.7773"/><line style="stroke: #000000; stroke-width: 1.5;" x1="789.5" x2="789.5" y1="91.7773" y2="128.2656"/><text fill="#000000" font-family="sans-serif" font-size="14" lengthAdjust="spacingAndGlyphs" textLength="53" x="721.5" y="115.3125">Oxygen</text><!--MD5=[f6f8ef91e07bbb6fed98395ad13ca68b]
entity collections.library.nd.edu--><ellipse cx="516" cy="253.7773" fill="#FEFECE" filter="url(#f1r3sccgow3ej0)" rx="8" ry="8" style="stroke: #A80036; stroke-width: 2.0;"/><text fill="#000000" font-family="sans-serif" font-size="14" lengthAdjust="spacingAndGlyphs" textLength="173" x="429.5" y="284.3125">collections.library.nd.edu</text><!--MD5=[14cc6840e33a70f5e66434e88e5e85ee]
entity curate.nd.edu--><ellipse cx="700" cy="253.7773" fill="#FEFECE" filter="url(#f1r3sccgow3ej0)" rx="8" ry="8" style="stroke: #A80036; stroke-width: 2.0;"/><text fill="#000000" font-family="sans-serif" font-size="14" lengthAdjust="spacingAndGlyphs" textLength="95" x="652.5" y="284.3125">curate.nd.edu</text><!--MD5=[ade7fb0103c635fb039b449bebacdba7]
link ArchivesSpace to rarebooks.library.nd.edu--><path d="M397,143.2773 C332.2875,189.602 292.4342,132.1 219,162.7773 C182.5051,178.0231 148.4293,209.0712 127.6674,230.6344 " fill="none" id="ArchivesSpace-&gt;rarebooks.library.nd.edu" style="stroke: #A80036; stroke-width: 1.0; stroke-dasharray: 7.0,7.0;"/><polygon fill="#A80036" points="124.1999,234.2766,133.3026,230.5162,127.6474,230.6553,127.5084,225.0001,124.1999,234.2766" style="stroke: #A80036; stroke-width: 1.0;"/><text fill="#000000" font-family="sans-serif" font-size="13" lengthAdjust="spacingAndGlyphs" textLength="55" x="260" y="176.3457">For links</text><text fill="#000000" font-family="sans-serif" font-size="13" lengthAdjust="spacingAndGlyphs" textLength="135" x="220" y="191.6563">to further description</text><ellipse cx="219" cy="162.7773" fill="#FFFFFF" rx="10" ry="10" style="stroke: #FFFFFF; stroke-width: 1.0;"/><path d="M209.7497,158.9784 A10,10 0 0 0 215.2011 172.0276" fill="#FFFFFF" style="stroke: #A80036; stroke-width: 1.5;"/><path d="M228.2503,166.5763 A10,10 0 0 0 222.7989 153.527" fill="#FFFFFF" style="stroke: #A80036; stroke-width: 1.5;"/><ellipse cx="219" cy="162.7773" fill="#FFFFFF" rx="6" ry="6" style="stroke: #A80036; stroke-width: 1.5;"/><!--MD5=[dc31c41695b74f2965224353a6bb329b]
link ArchivesSpace to collections.library.nd.edu--><path d="M434,143.2773 C456.6736,180.3897 488.5677,220.5996 505.1019,240.7333 " fill="none" id="ArchivesSpace-&gt;collections.library.nd.edu" style="stroke: #A80036; stroke-width: 1.0; stroke-dasharray: 7.0,7.0;"/><polygon fill="#A80036" points="508.3882,244.7165,505.7461,235.2287,505.2062,240.8597,499.5752,240.3198,508.3882,244.7165" style="stroke: #A80036; stroke-width: 1.0;"/><text fill="#000000" font-family="sans-serif" font-size="13" lengthAdjust="spacingAndGlyphs" textLength="55" x="509" y="176.3457">For links</text><text fill="#000000" font-family="sans-serif" font-size="13" lengthAdjust="spacingAndGlyphs" textLength="135" x="469" y="191.6563">to further description</text><ellipse cx="471.8532" cy="198.3724" fill="#FFFFFF" rx="10" ry="10" style="stroke: #FFFFFF; stroke-width: 1.0;"/><path d="M470.4273,208.2702 A10,10 0 0 0 481.751 199.7982" fill="#FFFFFF" style="stroke: #A80036; stroke-width: 1.5;"/><path d="M473.2791,188.4745 A10,10 0 0 0 461.9554 196.9465" fill="#FFFFFF" style="stroke: #A80036; stroke-width: 1.5;"/><ellipse cx="471.8532" cy="198.3724" fill="#FFFFFF" rx="6" ry="6" style="stroke: #A80036; stroke-width: 1.5;"/><!--MD5=[addda4dea1ed15e0119ba4bcb3b3dfd2]
link ArchivesSpace to curate.nd.edu--><path d="M434,143.2773 C499.5734,189.1502 541.2281,127.3798 613,162.7773 C648.9019,180.4839 677.963,219.4317 691.5957,240.165 " fill="none" id="ArchivesSpace-&gt;curate.nd.edu" style="stroke: #A80036; stroke-width: 1.0; stroke-dasharray: 7.0,7.0;"/><polygon fill="#A80036" points="694.4203,244.5395,692.8985,234.809,691.708,240.3391,686.1779,239.1486,694.4203,244.5395" style="stroke: #A80036; stroke-width: 1.0;"/><text fill="#000000" font-family="sans-serif" font-size="13" lengthAdjust="spacingAndGlyphs" textLength="55" x="695" y="176.3457">For links</text><text fill="#000000" font-family="sans-serif" font-size="13" lengthAdjust="spacingAndGlyphs" textLength="135" x="655" y="191.6563">to further description</text><ellipse cx="521.1756" cy="156.9556" fill="#FFFFFF" rx="10" ry="10" style="stroke: #FFFFFF; stroke-width: 1.0;"/><path d="M529.4507,162.57 A10,10 0 0 0 526.7899 148.6804" fill="#FFFFFF" style="stroke: #A80036; stroke-width: 1.5;"/><path d="M512.9004,151.3412 A10,10 0 0 0 515.5612 165.2308" fill="#FFFFFF" style="stroke: #A80036; stroke-width: 1.5;"/><ellipse cx="521.1756" cy="156.9556" fill="#FFFFFF" rx="6" ry="6" style="stroke: #A80036; stroke-width: 1.5;"/><!--MD5=[4b555a0fe42ca6917db3c8b2dad3b869]
link ArchivesSpace to FurtherDescription--><path d="M397,143.2773 C376.0244,178.439 346.3817,216.047 329.078,237.0663 " fill="none" id="ArchivesSpace-&gt;FurtherDescription" style="stroke: #A80036; stroke-width: 1.0; stroke-dasharray: 7.0,7.0;"/><path d="M331.155,247.7984 A9,9 0 0 0 318.1471 236.9867" fill="none" style="stroke: #A80036; stroke-width: 1.5;"/><!--MD5=[44ea3a4c15ca3abee51589e67d73cd0d]
@startuml

header ArchivesSpace


cloud "ArchivesSpace" {
  component "Front-End"
  component "Public"
  component "Backend" {
    database "RDBMS"
  }
}

package "rarebooks.library.nd.edu"

interface "further description" as FurtherDescription

folder "LoadingDock"
node "Oxygen"
node "BitCurator" {
  component "Checksums"
  component "Digital\nForensics"
}

ArchivesSpace .(0).> rarebooks.library.nd.edu : "For links\nto further description"
ArchivesSpace .(0).> collections.library.nd.edu : "For links\nto further description"
ArchivesSpace .(0).> curate.nd.edu : "For links\nto further description"
ArchivesSpace ..( FurtherDescription
@enduml

PlantUML version 1.2019.10(Fri Sep 13 16:53:03 EDT 2019)
(GPL source distribution)
Java Runtime: Java(TM) SE Runtime Environment
JVM: Java HotSpot(TM) 64-Bit Server VM
Java Version: 1.8.0_102-b14
Operating System: Mac OS X
Default Encoding: UTF-8
Language: en
Country: US
--></g></svg>