<?xml version="1.0" encoding="UTF-8" standalone="no"?><svg xmlns="http://www.w3.org/2000/svg" xmlns:xlink="http://www.w3.org/1999/xlink" contentScriptType="application/ecmascript" contentStyleType="text/css" height="286px" preserveAspectRatio="none" style="width:905px;height:286px;" version="1.1" viewBox="0 0 905 286"
    width="905px" zoomAndPan="magnify"><defs><filter height="300%" id="f3sjuils4r5ku" width="300%" x="-1" y="-1"><feGaussianBlur result="blurOut" stdDeviation="2.0"/><feColorMatrix in="blurOut" result="blurOut2" type="matrix" values="0 0 0 0 0 0 0 0 0 0 0 0 0 0 0 0 0 0 .4 0"/><feOffset dx="4.0" dy="4.0" in="blurOut2" result="blurOut3"/><feBlend in="SourceGraphic" in2="blurOut3" mode="normal"/></filter></defs><g><!--MD5=[76bdce9c527e58b3c1d4a2d9d1038352]
cluster ArchivesSpace--><path d="M29.3917,28.8677 C34.6936,14.8314 43.9645,13.8857 54.5274,23.2058 C60.5502,14.3485 67.758,11.6103 74.7255,22.2259 C81.3443,8.7176 90.583,7.825 99.2769,20.2622 C106.6995,10.2883 114.7997,11.2048 120.5293,21.995 C126.3994,7.6701 137.3675,8.6551 145.4595,19.8221 C150.2168,7.9379 161.1391,7.646 168.4184,17.1098 C173.7892,7.1743 183.6343,8.5235 189.0709,17.036 C196.9732,5.5257 205.009,5.3998 212.4218,17.5197 C221.0984,5.1171 231.0548,8.8463 236.9506,20.3705 C245.2645,9.3799 254.9225,8.1045 261.5784,22.0106 C267.0053,9.7056 275.6832,9.2284 283.2652,19.9838 C291.7792,11.1347 300.9508,13.2874 304.8037,24.892 C311.6505,13.0098 319.5533,15.4999 326.4442,24.8471 C337.6363,13.5963 350.9955,15.262 356,31.5 C357.9736,30.8622 359.1368,32.264 358.7817,34.109 C367.6904,38.6297 369.6688,46.0153 362.2821,53.4805 C375.2292,56.0252 380.7596,65.4377 371.5411,76.7878 C377.0368,86.6566 372.6343,94.0554 362.0763,96.0261 C373.0728,110.2759 366.171,122.6566 349,123.5 C350.0515,122.4245 351.2215,122.8355 351.3855,124.3253 C346.8467,136.3161 338.3484,137.1603 329.2807,129.3916 C323.7145,139.3512 313.4374,140.6057 306.7831,130.6189 C302.015,140.4501 291.0382,144.6835 284.1639,132.8143 C276.9051,143.3788 264.6836,146.8217 257.896,132.3205 C252.7839,144.5238 243.1886,145.6579 235.7485,134.5304 C230.8016,145.9509 220.6104,144.3194 214.7903,135.4316 C207.3429,148.7807 199.1019,148.1418 190.0737,137.0289 C182.9043,146.2724 174.9728,148.8261 167.5321,137.3237 C160.1386,148.3812 149.2086,145.9409 143.3461,135.5937 C134.9776,144.6541 125.735,144.5692 120.686,132.0998 C113.8562,141.5935 104.5117,143.7236 97.5869,132.2044 C89.3329,138.634 82.5709,139.2011 78.1629,127.9736 C71.1448,139.929 58.4308,138.9641 52.4231,126.8912 C39.596,137.757 25.0159,134.3594 22,116.5 C23.9934,115.3271 24.937,116.2638 25.3575,118.199 C6.4793,107.9498 7.1911,87.2812 25.0589,76.7671 C-2.2423,59.1457 3.116,38.111 29,24.5 C30.9051,25.6995 31.4648,27.3114 29.3917,28.8677 " fill="#FFFFFF" style="stroke: #000000; stroke-width: 1.5;"/><text fill="#000000" font-family="sans-serif" font-size="14" font-weight="bold" lengthAdjust="spacingAndGlyphs" textLength="101" x="138.5" y="43.0352">ArchivesSpace</text><!--MD5=[b4e09d266be9964199f2622adcc056fa]
cluster Backend--><rect fill="#FFFFFF" filter="url(#f3sjuils4r5ku)" height="80" style="stroke: #000000; stroke-width: 1.5;" width="84" x="272" y="43.5"/><rect fill="#FFFFFF" height="10" style="stroke: #000000; stroke-width: 1.5;" width="15" x="336" y="48.5"/><rect fill="#FFFFFF" height="2" style="stroke: #000000; stroke-width: 1.5;" width="4" x="334" y="50.5"/><rect fill="#FFFFFF" height="2" style="stroke: #000000; stroke-width: 1.5;" width="4" x="334" y="54.5"/><text fill="#000000" font-family="sans-serif" font-size="14" font-weight="bold" lengthAdjust="spacingAndGlyphs" textLength="59" x="284.5" y="70.0352">Backend</text><!--MD5=[cef38effc2f77e0661e698fd25070bd2]
cluster BitCurator--><polygon fill="#FFFFFF" filter="url(#f3sjuils4r5ku)" points="648,39.5,728,39.5,735,61.9883,883,61.9883,883,127.5,648,127.5,648,39.5" style="stroke: #000000; stroke-width: 1.5;"/><line style="stroke: #000000; stroke-width: 1.5;" x1="648" x2="735" y1="61.9883" y2="61.9883"/><text fill="#000000" font-family="sans-serif" font-size="14" font-weight="bold" lengthAdjust="spacingAndGlyphs" textLength="74" x="652" y="55.0352">BitCurator</text><!--MD5=[d0e927ff02502d946d308c34580a81c8]
entity Front-End--><rect fill="#FEFECE" filter="url(#f3sjuils4r5ku)" height="36.4883" style="stroke: #A80036; stroke-width: 1.5;" width="91" x="118.5" y="75"/><rect fill="#FEFECE" height="5" style="stroke: #A80036; stroke-width: 1.5;" width="10" x="113.5" y="80"/><rect fill="#FEFECE" height="5" style="stroke: #A80036; stroke-width: 1.5;" width="10" x="113.5" y="101.4883"/><text fill="#000000" font-family="sans-serif" font-size="14" lengthAdjust="spacingAndGlyphs" textLength="71" x="128.5" y="98.5352">Front-End</text><!--MD5=[dfc67d2811e0e5a7552fb581a15d28e4]
entity Public--><rect fill="#FEFECE" filter="url(#f3sjuils4r5ku)" height="36.4883" style="stroke: #A80036; stroke-width: 1.5;" width="61" x="22.5" y="75"/><rect fill="#FEFECE" height="5" style="stroke: #A80036; stroke-width: 1.5;" width="10" x="17.5" y="80"/><rect fill="#FEFECE" height="5" style="stroke: #A80036; stroke-width: 1.5;" width="10" x="17.5" y="101.4883"/><text fill="#000000" font-family="sans-serif" font-size="14" lengthAdjust="spacingAndGlyphs" textLength="41" x="32.5" y="98.5352">Public</text><!--MD5=[c9cdec996607f0db33d5cd5e2148af87]
entity RDBMS--><path d="M280.5,80.5 C280.5,70.5 314,70.5 314,70.5 C314,70.5 347.5,70.5 347.5,80.5 L347.5,105.9883 C347.5,115.9883 314,115.9883 314,115.9883 C314,115.9883 280.5,115.9883 280.5,105.9883 L280.5,80.5 " fill="#FEFECE" filter="url(#f3sjuils4r5ku)" style="stroke: #000000; stroke-width: 1.5;"/><path d="M280.5,80.5 C280.5,90.5 314,90.5 314,90.5 C314,90.5 347.5,90.5 347.5,80.5 " fill="none" style="stroke: #000000; stroke-width: 1.5;"/><text fill="#000000" font-family="sans-serif" font-size="14" lengthAdjust="spacingAndGlyphs" textLength="47" x="290.5" y="108.0352">RDBMS</text><!--MD5=[828c0c877375f3b9259f871dda18dab1]
entity Checksums--><rect fill="#FEFECE" filter="url(#f3sjuils4r5ku)" height="36.4883" style="stroke: #A80036; stroke-width: 1.5;" width="98" x="777" y="75"/><rect fill="#FEFECE" height="5" style="stroke: #A80036; stroke-width: 1.5;" width="10" x="772" y="80"/><rect fill="#FEFECE" height="5" style="stroke: #A80036; stroke-width: 1.5;" width="10" x="772" y="101.4883"/><text fill="#000000" font-family="sans-serif" font-size="14" lengthAdjust="spacingAndGlyphs" textLength="78" x="787" y="98.5352">Checksums</text><!--MD5=[c57f0c00710bbe7c333e3103d4bd9133]
entity Digital\nForensics--><rect fill="#FEFECE" filter="url(#f3sjuils4r5ku)" height="52.9766" style="stroke: #A80036; stroke-width: 1.5;" width="85" x="656.5" y="66.5"/><rect fill="#FEFECE" height="5" style="stroke: #A80036; stroke-width: 1.5;" width="10" x="651.5" y="71.5"/><rect fill="#FEFECE" height="5" style="stroke: #A80036; stroke-width: 1.5;" width="10" x="651.5" y="109.4766"/><text fill="#000000" font-family="sans-serif" font-size="14" lengthAdjust="spacingAndGlyphs" textLength="44" x="666.5" y="90.0352">Digital</text><text fill="#000000" font-family="sans-serif" font-size="14" lengthAdjust="spacingAndGlyphs" textLength="65" x="666.5" y="106.5234">Forensics</text><!--MD5=[1ef3a0bb95f35db556e73004b367a5c6]
entity rarebooks.library.nd.edu--><polygon fill="#FEFECE" filter="url(#f3sjuils4r5ku)" points="40,222.5,218,222.5,225,244.9883,242,244.9883,242,261.9883,40,261.9883,40,222.5" style="stroke: #000000; stroke-width: 1.5;"/><line style="stroke: #000000; stroke-width: 1.5;" x1="40" x2="225" y1="244.9883" y2="244.9883"/><text fill="#000000" font-family="sans-serif" font-size="14" font-weight="bold" lengthAdjust="spacingAndGlyphs" textLength="172" x="44" y="239.0352">rarebooks.library.nd.edu</text><!--MD5=[3d00eebf725fe092d4e4fc1773d85cfc]
entity FurtherDescription--><ellipse cx="349" cy="242" fill="#FEFECE" filter="url(#f3sjuils4r5ku)" rx="8" ry="8" style="stroke: #A80036; stroke-width: 2.0;"/><text fill="#000000" font-family="sans-serif" font-size="14" lengthAdjust="spacingAndGlyphs" textLength="129" x="284.5" y="272.5352">further description</text><!--MD5=[6581bb77afafb02426a8a123e3b0f304]
entity LoadingDock--><polygon fill="#FEFECE" filter="url(#f3sjuils4r5ku)" points="382.5,65,428.5,65,435.5,86,501.5,86,501.5,120.9766,382.5,120.9766,382.5,65" style="stroke: #000000; stroke-width: 1.5;"/><line style="stroke: #000000; stroke-width: 1.5;" x1="382.5" x2="435.5" y1="86" y2="86"/><text fill="#000000" font-family="sans-serif" font-size="14" lengthAdjust="spacingAndGlyphs" textLength="89" x="392.5" y="106.5352">LoadingDock</text><!--MD5=[646b978bccffc891330493b991b9ead2]
entity Oxygen--><polygon fill="#FEFECE" filter="url(#f3sjuils4r5ku)" points="537,73.5,597,73.5,604,95.9883,621,95.9883,621,112.9883,537,112.9883,537,73.5" style="stroke: #000000; stroke-width: 1.5;"/><line style="stroke: #000000; stroke-width: 1.5;" x1="537" x2="604" y1="95.9883" y2="95.9883"/><text fill="#000000" font-family="sans-serif" font-size="14" font-weight="bold" lengthAdjust="spacingAndGlyphs" textLength="54" x="541" y="90.0352">Oxygen</text><!--MD5=[ade7fb0103c635fb039b449bebacdba7]
link ArchivesSpace to rarebooks.library.nd.edu--><path d="M227,131.5 C212.7791,145.8152 200.3769,136.8414 186,151 C167.2461,169.4692 155.0587,197.3591 148.1587,217.3926 " fill="none" id="ArchivesSpace-&gt;rarebooks.library.nd.edu" style="stroke: #A80036; stroke-width: 1.0; stroke-dasharray: 7.0,7.0;"/><polygon fill="#A80036" points="146.5176,222.306,153.163,215.037,148.1017,217.5636,145.5751,212.5023,146.5176,222.306" style="stroke: #A80036; stroke-width: 1.0;"/><text fill="#000000" font-family="sans-serif" font-size="13" lengthAdjust="spacingAndGlyphs" textLength="55" x="227" y="164.5684">For links</text><text fill="#000000" font-family="sans-serif" font-size="13" lengthAdjust="spacingAndGlyphs" textLength="135" x="187" y="179.8789">to further description</text><ellipse cx="186" cy="151" fill="#FFFFFF" rx="10" ry="10" style="stroke: #FFFFFF; stroke-width: 1.0;"/><path d="M176.0003,150.9235 A10,10 0 0 0 185.9235 160.9997" fill="#FFFFFF" style="stroke: #A80036; stroke-width: 1.5;"/><path d="M195.9997,151.0765 A10,10 0 0 0 186.0765 141.0003" fill="#FFFFFF" style="stroke: #A80036; stroke-width: 1.5;"/><ellipse cx="186" cy="151" fill="#FFFFFF" rx="6" ry="6" style="stroke: #A80036; stroke-width: 1.5;"/><!--MD5=[4b555a0fe42ca6917db3c8b2dad3b869]
link ArchivesSpace to FurtherDescription--><path d="M264,131.5 C286.2993,150.5225 306.9369,129.6322 327,151 C345.2205,170.4054 349.1322,202.2241 349.5858,222.6323 " fill="none" id="ArchivesSpace-&gt;FurtherDescription" style="stroke: #A80036; stroke-width: 1.0; stroke-dasharray: 7.0,7.0;"/><path d="M358.0133,229.8546 A9,9 0 0 0 341.0989 229.7843" fill="none" style="stroke: #A80036; stroke-width: 1.5;"/><!--MD5=[94d3116d23b158e23de8c7c703b1678d]
@startuml


cloud "ArchivesSpace" {
  component "Front-End"
  component "Public"
  component "Backend" {
    database "RDBMS"
  }
}

package "rarebooks.library.nd.edu"

interface "further description" as FurtherDescription

folder "LoadingDock"
package "Oxygen"
package "BitCurator" {
  component "Checksums"
  component "Digital\nForensics"
}

ArchivesSpace .(0).> rarebooks.library.nd.edu : "For links\nto further description"
ArchivesSpace ..( FurtherDescription
@enduml

PlantUML version 1.2019.10(Fri Sep 13 16:53:03 EDT 2019)
(GPL source distribution)
Java Runtime: Java(TM) SE Runtime Environment
JVM: Java HotSpot(TM) 64-Bit Server VM
Java Version: 1.8.0_102-b14
Operating System: Mac OS X
Default Encoding: UTF-8
Language: en
Country: US
--></g></svg>