<?xml version="1.0" encoding="UTF-8" standalone="no"?><svg xmlns="http://www.w3.org/2000/svg" xmlns:xlink="http://www.w3.org/1999/xlink" contentScriptType="application/ecmascript" contentStyleType="text/css" height="431px" preserveAspectRatio="none" style="width:923px;height:431px;" version="1.1" viewBox="0 0 923 431"
    width="923px" zoomAndPan="magnify"><defs><filter height="300%" id="f1ccj54gdazap5" width="300%" x="-1" y="-1"><feGaussianBlur result="blurOut" stdDeviation="2.0"/><feColorMatrix in="blurOut" result="blurOut2" type="matrix" values="0 0 0 0 0 0 0 0 0 0 0 0 0 0 0 0 0 0 .4 0"/><feOffset dx="4.0" dy="4.0" in="blurOut2" result="blurOut3"/><feBlend in="SourceGraphic" in2="blurOut3" mode="normal"/></filter></defs><g><!--MD5=[76bdce9c527e58b3c1d4a2d9d1038352]
cluster ArchivesSpace--><path d="M286.8917,173.8677 C292.1936,159.8314 301.4645,158.8857 312.0274,168.2058 C318.0502,159.3485 325.258,156.6103 332.2255,167.2259 C338.8443,153.7176 348.083,152.825 356.7769,165.2622 C364.1995,155.2883 372.2997,156.2048 378.0293,166.995 C383.8994,152.6701 394.8675,153.6551 402.9595,164.8221 C407.7168,152.9379 418.6391,152.646 425.9184,162.1098 C431.2892,152.1743 441.1343,153.5235 446.5709,162.036 C454.4732,150.5257 462.509,150.3998 469.9218,162.5197 C478.5984,150.1171 488.5548,153.8463 494.4506,165.3705 C502.7645,154.3799 512.4225,153.1045 519.0784,167.0106 C524.5053,154.7056 533.1832,154.2284 540.7652,164.9838 C549.2792,156.1347 558.4508,158.2874 562.3037,169.892 C569.1505,158.0098 577.0533,160.4999 583.9442,169.8471 C595.1363,158.5963 608.4955,160.262 613.5,176.5 C615.4736,175.8622 616.6368,177.264 616.2817,179.109 C625.1904,183.6297 627.1688,191.0153 619.7821,198.4805 C632.7292,201.0252 638.2596,210.4377 629.0411,221.7878 C634.5368,231.6566 630.1343,239.0554 619.5763,241.0261 C630.5728,255.2759 623.671,267.6566 606.5,268.5 C607.5515,267.4245 608.7215,267.8355 608.8855,269.3253 C604.3467,281.3161 595.8484,282.1603 586.7807,274.3916 C581.2145,284.3512 570.9374,285.6057 564.2831,275.6189 C559.515,285.4501 548.5382,289.6835 541.6639,277.8143 C534.4051,288.3788 522.1836,291.8217 515.396,277.3205 C510.2839,289.5238 500.6886,290.6579 493.2485,279.5304 C488.3016,290.9509 478.1104,289.3194 472.2903,280.4316 C464.8429,293.7807 456.6019,293.1418 447.5737,282.0289 C440.4043,291.2724 432.4728,293.8261 425.0321,282.3237 C417.6386,293.3812 406.7086,290.9409 400.8461,280.5937 C392.4776,289.6541 383.235,289.5692 378.186,277.0998 C371.3562,286.5935 362.0117,288.7236 355.0869,277.2044 C346.8329,283.634 340.0709,284.2011 335.6629,272.9736 C328.6448,284.929 315.9308,283.9641 309.9231,271.8912 C297.096,282.757 282.5159,279.3594 279.5,261.5 C281.4934,260.3271 282.437,261.2638 282.8575,263.199 C263.9793,252.9498 264.6911,232.2812 282.5589,221.7671 C255.2577,204.1457 260.616,183.111 286.5,169.5 C288.4051,170.6995 288.9648,172.3114 286.8917,173.8677 " fill="#FFFFFF" style="stroke: #000000; stroke-width: 1.5;"/><text fill="#000000" font-family="sans-serif" font-size="14" font-weight="bold" lengthAdjust="spacingAndGlyphs" textLength="101" x="396" y="188.0352">ArchivesSpace</text><!--MD5=[b4e09d266be9964199f2622adcc056fa]
cluster Backend--><rect fill="#FFFFFF" filter="url(#f1ccj54gdazap5)" height="80" style="stroke: #000000; stroke-width: 1.5;" width="84" x="529.5" y="188.5"/><rect fill="#FFFFFF" height="10" style="stroke: #000000; stroke-width: 1.5;" width="15" x="593.5" y="193.5"/><rect fill="#FFFFFF" height="2" style="stroke: #000000; stroke-width: 1.5;" width="4" x="591.5" y="195.5"/><rect fill="#FFFFFF" height="2" style="stroke: #000000; stroke-width: 1.5;" width="4" x="591.5" y="199.5"/><text fill="#000000" font-family="sans-serif" font-size="14" font-weight="bold" lengthAdjust="spacingAndGlyphs" textLength="59" x="542" y="215.0352">Backend</text><!--MD5=[cef38effc2f77e0661e698fd25070bd2]
cluster BitCurator--><polygon fill="#FFFFFF" filter="url(#f1ccj54gdazap5)" points="631.5,184.5,711.5,184.5,718.5,206.9883,901.5,206.9883,901.5,272.5,631.5,272.5,631.5,184.5" style="stroke: #000000; stroke-width: 1.5;"/><line style="stroke: #000000; stroke-width: 1.5;" x1="631.5" x2="718.5" y1="206.9883" y2="206.9883"/><text fill="#000000" font-family="sans-serif" font-size="14" font-weight="bold" lengthAdjust="spacingAndGlyphs" textLength="74" x="635.5" y="200.0352">BitCurator</text><!--MD5=[d0e927ff02502d946d308c34580a81c8]
entity Front-End--><rect fill="#FEFECE" filter="url(#f1ccj54gdazap5)" height="36.4883" style="stroke: #A80036; stroke-width: 1.5;" width="91" x="376" y="220"/><rect fill="#FEFECE" height="5" style="stroke: #A80036; stroke-width: 1.5;" width="10" x="371" y="225"/><rect fill="#FEFECE" height="5" style="stroke: #A80036; stroke-width: 1.5;" width="10" x="371" y="246.4883"/><text fill="#000000" font-family="sans-serif" font-size="14" lengthAdjust="spacingAndGlyphs" textLength="71" x="386" y="243.5352">Front-End</text><!--MD5=[dfc67d2811e0e5a7552fb581a15d28e4]
entity Public--><rect fill="#FEFECE" filter="url(#f1ccj54gdazap5)" height="36.4883" style="stroke: #A80036; stroke-width: 1.5;" width="61" x="280" y="220"/><rect fill="#FEFECE" height="5" style="stroke: #A80036; stroke-width: 1.5;" width="10" x="275" y="225"/><rect fill="#FEFECE" height="5" style="stroke: #A80036; stroke-width: 1.5;" width="10" x="275" y="246.4883"/><text fill="#000000" font-family="sans-serif" font-size="14" lengthAdjust="spacingAndGlyphs" textLength="41" x="290" y="243.5352">Public</text><!--MD5=[c9cdec996607f0db33d5cd5e2148af87]
entity RDBMS--><path d="M538,225.5 C538,215.5 571.5,215.5 571.5,215.5 C571.5,215.5 605,215.5 605,225.5 L605,250.9883 C605,260.9883 571.5,260.9883 571.5,260.9883 C571.5,260.9883 538,260.9883 538,250.9883 L538,225.5 " fill="#FEFECE" filter="url(#f1ccj54gdazap5)" style="stroke: #000000; stroke-width: 1.5;"/><path d="M538,225.5 C538,235.5 571.5,235.5 571.5,235.5 C571.5,235.5 605,235.5 605,225.5 " fill="none" style="stroke: #000000; stroke-width: 1.5;"/><text fill="#000000" font-family="sans-serif" font-size="14" lengthAdjust="spacingAndGlyphs" textLength="47" x="548" y="253.0352">RDBMS</text><!--MD5=[828c0c877375f3b9259f871dda18dab1]
entity Checksums--><rect fill="#FEFECE" filter="url(#f1ccj54gdazap5)" height="36.4883" style="stroke: #A80036; stroke-width: 1.5;" width="98" x="760.5" y="220"/><rect fill="#FEFECE" height="5" style="stroke: #A80036; stroke-width: 1.5;" width="10" x="755.5" y="225"/><rect fill="#FEFECE" height="5" style="stroke: #A80036; stroke-width: 1.5;" width="10" x="755.5" y="246.4883"/><text fill="#000000" font-family="sans-serif" font-size="14" lengthAdjust="spacingAndGlyphs" textLength="78" x="770.5" y="243.5352">Checksums</text><!--MD5=[c57f0c00710bbe7c333e3103d4bd9133]
entity Digital\nForensics--><rect fill="#FEFECE" filter="url(#f1ccj54gdazap5)" height="52.9766" style="stroke: #A80036; stroke-width: 1.5;" width="85" x="640" y="211.5"/><rect fill="#FEFECE" height="5" style="stroke: #A80036; stroke-width: 1.5;" width="10" x="635" y="216.5"/><rect fill="#FEFECE" height="5" style="stroke: #A80036; stroke-width: 1.5;" width="10" x="635" y="254.4766"/><text fill="#000000" font-family="sans-serif" font-size="14" lengthAdjust="spacingAndGlyphs" textLength="44" x="650" y="235.0352">Digital</text><text fill="#000000" font-family="sans-serif" font-size="14" lengthAdjust="spacingAndGlyphs" textLength="65" x="650" y="251.5234">Forensics</text><!--MD5=[1ef3a0bb95f35db556e73004b367a5c6]
entity rarebooks.library.nd.edu--><polygon fill="#FEFECE" filter="url(#f1ccj54gdazap5)" points="297.5,367.5,475.5,367.5,482.5,389.9883,499.5,389.9883,499.5,406.9883,297.5,406.9883,297.5,367.5" style="stroke: #000000; stroke-width: 1.5;"/><line style="stroke: #000000; stroke-width: 1.5;" x1="297.5" x2="482.5" y1="389.9883" y2="389.9883"/><text fill="#000000" font-family="sans-serif" font-size="14" font-weight="bold" lengthAdjust="spacingAndGlyphs" textLength="172" x="301.5" y="384.0352">rarebooks.library.nd.edu</text><!--MD5=[3d00eebf725fe092d4e4fc1773d85cfc]
entity FurtherDescription--><ellipse cx="606.5" cy="387" fill="#FEFECE" filter="url(#f1ccj54gdazap5)" rx="8" ry="8" style="stroke: #A80036; stroke-width: 2.0;"/><text fill="#000000" font-family="sans-serif" font-size="14" lengthAdjust="spacingAndGlyphs" textLength="129" x="542" y="417.5352">further description</text><!--MD5=[433854bbb7162153e04f0d54d50913b2]
entity Archivist--><ellipse cx="239.5" cy="18.5" fill="#FEFECE" filter="url(#f1ccj54gdazap5)" rx="8" ry="8" style="stroke: #A80036; stroke-width: 2.0;"/><path d="M239.5,26.5 L239.5,53.5 M226.5,34.5 L252.5,34.5 M239.5,53.5 L226.5,68.5 M239.5,53.5 L252.5,68.5 " fill="none" filter="url(#f1ccj54gdazap5)" style="stroke: #A80036; stroke-width: 2.0;"/><text fill="#000000" font-family="sans-serif" font-size="14" lengthAdjust="spacingAndGlyphs" textLength="59" x="210" y="89.0352">Archivist</text><!--MD5=[6581bb77afafb02426a8a123e3b0f304]
entity LoadingDock--><polygon fill="#FEFECE" filter="url(#f1ccj54gdazap5)" points="6,210,52,210,59,231,125,231,125,265.9766,6,265.9766,6,210" style="stroke: #000000; stroke-width: 1.5;"/><line style="stroke: #000000; stroke-width: 1.5;" x1="6" x2="59" y1="231" y2="231"/><text fill="#000000" font-family="sans-serif" font-size="14" lengthAdjust="spacingAndGlyphs" textLength="89" x="16" y="251.5352">LoadingDock</text><!--MD5=[646b978bccffc891330493b991b9ead2]
entity Oxygen--><polygon fill="#FEFECE" filter="url(#f1ccj54gdazap5)" points="160.5,218.5,220.5,218.5,227.5,240.9883,244.5,240.9883,244.5,257.9883,160.5,257.9883,160.5,218.5" style="stroke: #000000; stroke-width: 1.5;"/><line style="stroke: #000000; stroke-width: 1.5;" x1="160.5" x2="227.5" y1="240.9883" y2="240.9883"/><text fill="#000000" font-family="sans-serif" font-size="14" font-weight="bold" lengthAdjust="spacingAndGlyphs" textLength="54" x="164.5" y="235.0352">Oxygen</text><!--MD5=[c8fa266e1c04de31a159b94410b4846f]
link Archivist to ArchivesSpace--><path d="M269.1322,54.8067 C295.0957,59.8253 334.8895,69.387 375.2165,86.2499 C395.38,94.6813 415.6768,104.9381 434.4448,117.3648 C443.8287,123.5782 452.8305,130.3341 461.2423,137.6756 C465.4482,141.3463 469.5066,145.1635 473.3916,149.1324 C475.334,151.1169 477.2331,153.1393 479.0856,155.2004 C480.0119,156.2309 480.9265,157.271 481.829,158.321 C482.2802,158.8459 482.7285,159.3733 483.1737,159.9031 C483.3963,160.1681 483.6181,160.4336 483.8392,160.6997 " fill="none" id="Archivist-&gt;ArchivesSpace" style="stroke: #A80036; stroke-width: 1.0;"/><polygon fill="#A80036" points="483.8392,160.6997,481.1658,151.2207,480.6445,156.8534,475.0117,156.3321,483.8392,160.6997" style="stroke: #A80036; stroke-width: 1.0;"/><!--MD5=[12cebb6c7069c0187245a7a0851b29bd]
link Archivist to LoadingDock--><path d="M209.9833,81.8916 C177.8955,116.5611 126.9246,171.6331 94.8877,206.2478 " fill="none" id="Archivist-&gt;LoadingDock" style="stroke: #A80036; stroke-width: 1.0;"/><polygon fill="#A80036" points="91.4629,209.9481,100.5118,206.0599,94.8592,206.2786,94.6405,200.6259,91.4629,209.9481" style="stroke: #A80036; stroke-width: 1.0;"/><!--MD5=[d00c2eb3d3c5c6fda8544e2aaa2531c6]
link Archivist to Oxygen--><path d="M231.2885,91.7233 C223.9627,128.9461 213.481,182.2048 207.394,213.1331 " fill="none" id="Archivist-&gt;Oxygen" style="stroke: #A80036; stroke-width: 1.0;"/><polygon fill="#A80036" points="206.3832,218.2692,212.0459,210.2111,207.3488,213.3633,204.1965,208.6662,206.3832,218.2692" style="stroke: #A80036; stroke-width: 1.0;"/><text fill="#000000" font-family="sans-serif" font-size="13" lengthAdjust="spacingAndGlyphs" textLength="50" x="226.5" y="135.0684">For XML</text><text fill="#000000" font-family="sans-serif" font-size="13" lengthAdjust="spacingAndGlyphs" textLength="44" x="229.5" y="150.3789">Editing</text><!--MD5=[85f9fa4c733f26a77c4dd5941c09e60c]
link Archivist to BitCurator--><path d="M269.2225,50.9619 C382.7927,55.2532 787.417,76.371 876.5,161.5 C882.4017,167.1398 886.4708,174.3381 889.2422,182.0547 C889.4154,182.537 889.5835,183.0214 889.7467,183.5074 C889.8283,183.7505 889.9087,200.7444 889.9879,200.9883 " fill="none" id="Archivist-&gt;BitCurator" style="stroke: #A80036; stroke-width: 1.0;"/><polygon fill="#A80036" points="889.9879,184.2379,891.0145,174.4427,888.4445,179.482,883.4051,176.912,889.9879,184.2379" style="stroke: #A80036; stroke-width: 1.0;"/><!--MD5=[ade7fb0103c635fb039b449bebacdba7]
link ArchivesSpace to rarebooks.library.nd.edu--><path d="M484.5,276.5 C470.2791,290.8152 457.8769,281.8414 443.5,296 C424.7461,314.4692 412.5587,342.3591 405.6587,362.3926 " fill="none" id="ArchivesSpace-&gt;rarebooks.library.nd.edu" style="stroke: #A80036; stroke-width: 1.0; stroke-dasharray: 7.0,7.0;"/><polygon fill="#A80036" points="404.0176,367.306,410.663,360.037,405.6017,362.5636,403.0751,357.5023,404.0176,367.306" style="stroke: #A80036; stroke-width: 1.0;"/><text fill="#000000" font-family="sans-serif" font-size="13" lengthAdjust="spacingAndGlyphs" textLength="55" x="484.5" y="309.5684">For links</text><text fill="#000000" font-family="sans-serif" font-size="13" lengthAdjust="spacingAndGlyphs" textLength="135" x="444.5" y="324.8789">to further description</text><!--MD5=[4b555a0fe42ca6917db3c8b2dad3b869]
link ArchivesSpace to FurtherDescription--><path d="M521.5,276.5 C543.7993,295.5225 564.4369,274.6322 584.5,296 C604.3306,317.1203 607.2118,352.9448 607.1326,372.7591 " fill="none" id="ArchivesSpace-&gt;FurtherDescription" style="stroke: #A80036; stroke-width: 1.0; stroke-dasharray: 7.0,7.0;"/><polygon fill="#A80036" points="607.0433,377.8976,611.199,368.9684,607.1302,372.8984,603.2002,368.8295,607.0433,377.8976" style="stroke: #A80036; stroke-width: 1.0;"/><!--MD5=[f092b7320a1b21958b4bab2a2d62eaad]
@startuml


cloud "ArchivesSpace" {
  component "Front-End"
  component "Public"
  component "Backend" {
    database "RDBMS"
  }
}

package "rarebooks.library.nd.edu"

interface "further description" as FurtherDescription

actor "Archivist"
folder "LoadingDock"
package "Oxygen"
package "BitCurator" {
  component "Checksums"
  component "Digital\nForensics"
}
Archivist - -> ArchivesSpace
Archivist - -> LoadingDock
Archivist - -> Oxygen : "For XML\nEditing"
Archivist - -> BitCurator

ArchivesSpace ..> rarebooks.library.nd.edu : "For links\nto further description"
ArchivesSpace ..> FurtherDescription
@enduml

PlantUML version 1.2019.10(Fri Sep 13 16:53:03 EDT 2019)
(GPL source distribution)
Java Runtime: Java(TM) SE Runtime Environment
JVM: Java HotSpot(TM) 64-Bit Server VM
Java Version: 1.8.0_102-b14
Operating System: Mac OS X
Default Encoding: UTF-8
Language: en
Country: US
--></g></svg>