<?xml version="1.0" encoding="UTF-8" standalone="no"?><svg xmlns="http://www.w3.org/2000/svg" xmlns:xlink="http://www.w3.org/1999/xlink" contentScriptType="application/ecmascript" contentStyleType="text/css" height="286px" preserveAspectRatio="none" style="width:1075px;height:286px;" version="1.1" viewBox="0 0 1075 286"
    width="1075px" zoomAndPan="magnify"><defs><filter height="300%" id="fnde1wecbz8qm" width="300%" x="-1" y="-1"><feGaussianBlur result="blurOut" stdDeviation="2.0"/><feColorMatrix in="blurOut" result="blurOut2" type="matrix" values="0 0 0 0 0 0 0 0 0 0 0 0 0 0 0 0 0 0 .4 0"/><feOffset dx="4.0" dy="4.0" in="blurOut2" result="blurOut3"/><feBlend in="SourceGraphic" in2="blurOut3" mode="normal"/></filter></defs><g><!--MD5=[76bdce9c527e58b3c1d4a2d9d1038352]
cluster ArchivesSpace--><path d="M199.3917,28.8677 C204.6936,14.8314 213.9645,13.8857 224.5274,23.2058 C230.5502,14.3485 237.758,11.6103 244.7255,22.2259 C251.3443,8.7176 260.583,7.825 269.2769,20.2622 C276.6995,10.2883 284.7997,11.2048 290.5293,21.995 C296.3994,7.6701 307.3675,8.6551 315.4595,19.8221 C320.2168,7.9379 331.1391,7.646 338.4184,17.1098 C343.7892,7.1743 353.6343,8.5235 359.0709,17.036 C366.9732,5.5257 375.009,5.3998 382.4218,17.5197 C391.0984,5.1171 401.0548,8.8463 406.9506,20.3705 C415.2645,9.3799 424.9225,8.1045 431.5784,22.0106 C437.0053,9.7056 445.6832,9.2284 453.2652,19.9838 C461.7792,11.1347 470.9508,13.2874 474.8037,24.892 C481.6505,13.0098 489.5533,15.4999 496.4442,24.8471 C507.6363,13.5963 520.9955,15.262 526,31.5 C527.9736,30.8622 529.1368,32.264 528.7817,34.109 C537.6904,38.6297 539.6688,46.0153 532.2821,53.4805 C545.2292,56.0252 550.7596,65.4377 541.5411,76.7878 C547.0368,86.6566 542.6343,94.0554 532.0763,96.0261 C543.0728,110.2759 536.171,122.6566 519,123.5 C520.0515,122.4245 521.2215,122.8355 521.3855,124.3253 C516.8467,136.3161 508.3484,137.1603 499.2807,129.3916 C493.7145,139.3512 483.4374,140.6057 476.7831,130.6189 C472.015,140.4501 461.0382,144.6835 454.1639,132.8143 C446.9051,143.3788 434.6836,146.8217 427.896,132.3205 C422.7839,144.5238 413.1886,145.6579 405.7485,134.5304 C400.8016,145.9509 390.6104,144.3194 384.7903,135.4316 C377.3429,148.7807 369.1019,148.1418 360.0737,137.0289 C352.9043,146.2724 344.9728,148.8261 337.5321,137.3237 C330.1386,148.3812 319.2086,145.9409 313.3461,135.5937 C304.9776,144.6541 295.735,144.5692 290.686,132.0998 C283.8562,141.5935 274.5117,143.7236 267.5869,132.2044 C259.3329,138.634 252.5709,139.2011 248.1629,127.9736 C241.1448,139.929 228.4308,138.9641 222.4231,126.8912 C209.596,137.757 195.0159,134.3594 192,116.5 C193.9934,115.3271 194.937,116.2638 195.3575,118.199 C176.4793,107.9498 177.1911,87.2812 195.0589,76.7671 C167.7577,59.1457 173.116,38.111 199,24.5 C200.9051,25.6995 201.4648,27.3114 199.3917,28.8677 " fill="#FFFFFF" style="stroke: #000000; stroke-width: 1.5;"/><text fill="#000000" font-family="sans-serif" font-size="14" font-weight="bold" lengthAdjust="spacingAndGlyphs" textLength="101" x="308.5" y="43.0352">ArchivesSpace</text><!--MD5=[b4e09d266be9964199f2622adcc056fa]
cluster Backend--><rect fill="#FFFFFF" filter="url(#fnde1wecbz8qm)" height="80" style="stroke: #000000; stroke-width: 1.5;" width="84" x="442" y="43.5"/><rect fill="#FFFFFF" height="10" style="stroke: #000000; stroke-width: 1.5;" width="15" x="506" y="48.5"/><rect fill="#FFFFFF" height="2" style="stroke: #000000; stroke-width: 1.5;" width="4" x="504" y="50.5"/><rect fill="#FFFFFF" height="2" style="stroke: #000000; stroke-width: 1.5;" width="4" x="504" y="54.5"/><text fill="#000000" font-family="sans-serif" font-size="14" font-weight="bold" lengthAdjust="spacingAndGlyphs" textLength="59" x="454.5" y="70.0352">Backend</text><!--MD5=[cef38effc2f77e0661e698fd25070bd2]
cluster BitCurator--><polygon fill="#FFFFFF" filter="url(#fnde1wecbz8qm)" points="818,39.5,898,39.5,905,61.9883,1053,61.9883,1053,127.5,818,127.5,818,39.5" style="stroke: #000000; stroke-width: 1.5;"/><line style="stroke: #000000; stroke-width: 1.5;" x1="818" x2="905" y1="61.9883" y2="61.9883"/><text fill="#000000" font-family="sans-serif" font-size="14" font-weight="bold" lengthAdjust="spacingAndGlyphs" textLength="74" x="822" y="55.0352">BitCurator</text><!--MD5=[d0e927ff02502d946d308c34580a81c8]
entity Front-End--><rect fill="#FEFECE" filter="url(#fnde1wecbz8qm)" height="36.4883" style="stroke: #A80036; stroke-width: 1.5;" width="91" x="288.5" y="75"/><rect fill="#FEFECE" height="5" style="stroke: #A80036; stroke-width: 1.5;" width="10" x="283.5" y="80"/><rect fill="#FEFECE" height="5" style="stroke: #A80036; stroke-width: 1.5;" width="10" x="283.5" y="101.4883"/><text fill="#000000" font-family="sans-serif" font-size="14" lengthAdjust="spacingAndGlyphs" textLength="71" x="298.5" y="98.5352">Front-End</text><!--MD5=[dfc67d2811e0e5a7552fb581a15d28e4]
entity Public--><rect fill="#FEFECE" filter="url(#fnde1wecbz8qm)" height="36.4883" style="stroke: #A80036; stroke-width: 1.5;" width="61" x="192.5" y="75"/><rect fill="#FEFECE" height="5" style="stroke: #A80036; stroke-width: 1.5;" width="10" x="187.5" y="80"/><rect fill="#FEFECE" height="5" style="stroke: #A80036; stroke-width: 1.5;" width="10" x="187.5" y="101.4883"/><text fill="#000000" font-family="sans-serif" font-size="14" lengthAdjust="spacingAndGlyphs" textLength="41" x="202.5" y="98.5352">Public</text><!--MD5=[c9cdec996607f0db33d5cd5e2148af87]
entity RDBMS--><path d="M450.5,80.5 C450.5,70.5 484,70.5 484,70.5 C484,70.5 517.5,70.5 517.5,80.5 L517.5,105.9883 C517.5,115.9883 484,115.9883 484,115.9883 C484,115.9883 450.5,115.9883 450.5,105.9883 L450.5,80.5 " fill="#FEFECE" filter="url(#fnde1wecbz8qm)" style="stroke: #000000; stroke-width: 1.5;"/><path d="M450.5,80.5 C450.5,90.5 484,90.5 484,90.5 C484,90.5 517.5,90.5 517.5,80.5 " fill="none" style="stroke: #000000; stroke-width: 1.5;"/><text fill="#000000" font-family="sans-serif" font-size="14" lengthAdjust="spacingAndGlyphs" textLength="47" x="460.5" y="108.0352">RDBMS</text><!--MD5=[828c0c877375f3b9259f871dda18dab1]
entity Checksums--><rect fill="#FEFECE" filter="url(#fnde1wecbz8qm)" height="36.4883" style="stroke: #A80036; stroke-width: 1.5;" width="98" x="947" y="75"/><rect fill="#FEFECE" height="5" style="stroke: #A80036; stroke-width: 1.5;" width="10" x="942" y="80"/><rect fill="#FEFECE" height="5" style="stroke: #A80036; stroke-width: 1.5;" width="10" x="942" y="101.4883"/><text fill="#000000" font-family="sans-serif" font-size="14" lengthAdjust="spacingAndGlyphs" textLength="78" x="957" y="98.5352">Checksums</text><!--MD5=[c57f0c00710bbe7c333e3103d4bd9133]
entity Digital\nForensics--><rect fill="#FEFECE" filter="url(#fnde1wecbz8qm)" height="52.9766" style="stroke: #A80036; stroke-width: 1.5;" width="85" x="826.5" y="66.5"/><rect fill="#FEFECE" height="5" style="stroke: #A80036; stroke-width: 1.5;" width="10" x="821.5" y="71.5"/><rect fill="#FEFECE" height="5" style="stroke: #A80036; stroke-width: 1.5;" width="10" x="821.5" y="109.4766"/><text fill="#000000" font-family="sans-serif" font-size="14" lengthAdjust="spacingAndGlyphs" textLength="44" x="836.5" y="90.0352">Digital</text><text fill="#000000" font-family="sans-serif" font-size="14" lengthAdjust="spacingAndGlyphs" textLength="65" x="836.5" y="106.5234">Forensics</text><!--MD5=[1ef3a0bb95f35db556e73004b367a5c6]
entity rarebooks.library.nd.edu--><polygon fill="#FEFECE" filter="url(#fnde1wecbz8qm)" points="6,222.5,184,222.5,191,244.9883,208,244.9883,208,261.9883,6,261.9883,6,222.5" style="stroke: #000000; stroke-width: 1.5;"/><line style="stroke: #000000; stroke-width: 1.5;" x1="6" x2="191" y1="244.9883" y2="244.9883"/><text fill="#000000" font-family="sans-serif" font-size="14" font-weight="bold" lengthAdjust="spacingAndGlyphs" textLength="172" x="10" y="239.0352">rarebooks.library.nd.edu</text><!--MD5=[3d00eebf725fe092d4e4fc1773d85cfc]
entity FurtherDescription--><ellipse cx="315" cy="242" fill="#FEFECE" filter="url(#fnde1wecbz8qm)" rx="8" ry="8" style="stroke: #A80036; stroke-width: 2.0;"/><text fill="#000000" font-family="sans-serif" font-size="14" lengthAdjust="spacingAndGlyphs" textLength="129" x="250.5" y="272.5352">further description</text><!--MD5=[6581bb77afafb02426a8a123e3b0f304]
entity LoadingDock--><polygon fill="#FEFECE" filter="url(#fnde1wecbz8qm)" points="552.5,65,598.5,65,605.5,86,671.5,86,671.5,120.9766,552.5,120.9766,552.5,65" style="stroke: #000000; stroke-width: 1.5;"/><line style="stroke: #000000; stroke-width: 1.5;" x1="552.5" x2="605.5" y1="86" y2="86"/><text fill="#000000" font-family="sans-serif" font-size="14" lengthAdjust="spacingAndGlyphs" textLength="89" x="562.5" y="106.5352">LoadingDock</text><!--MD5=[646b978bccffc891330493b991b9ead2]
entity Oxygen--><polygon fill="#FEFECE" filter="url(#fnde1wecbz8qm)" points="707,73.5,767,73.5,774,95.9883,791,95.9883,791,112.9883,707,112.9883,707,73.5" style="stroke: #000000; stroke-width: 1.5;"/><line style="stroke: #000000; stroke-width: 1.5;" x1="707" x2="774" y1="95.9883" y2="95.9883"/><text fill="#000000" font-family="sans-serif" font-size="14" font-weight="bold" lengthAdjust="spacingAndGlyphs" textLength="54" x="711" y="90.0352">Oxygen</text><!--MD5=[f6f8ef91e07bbb6fed98395ad13ca68b]
entity collections.library.nd.edu--><ellipse cx="516" cy="242" fill="#FEFECE" filter="url(#fnde1wecbz8qm)" rx="8" ry="8" style="stroke: #A80036; stroke-width: 2.0;"/><text fill="#000000" font-family="sans-serif" font-size="14" lengthAdjust="spacingAndGlyphs" textLength="173" x="429.5" y="272.5352">collections.library.nd.edu</text><!--MD5=[14cc6840e33a70f5e66434e88e5e85ee]
entity curate.nd.edu--><ellipse cx="700" cy="242" fill="#FEFECE" filter="url(#fnde1wecbz8qm)" rx="8" ry="8" style="stroke: #A80036; stroke-width: 2.0;"/><text fill="#000000" font-family="sans-serif" font-size="14" lengthAdjust="spacingAndGlyphs" textLength="95" x="652.5" y="272.5352">curate.nd.edu</text><!--MD5=[ade7fb0103c635fb039b449bebacdba7]
link ArchivesSpace to rarebooks.library.nd.edu--><path d="M397,131.5 C332.2875,177.8247 292.4342,120.3227 219,151 C182.5051,166.2458 148.4293,197.2939 127.6674,218.8571 " fill="none" id="ArchivesSpace-&gt;rarebooks.library.nd.edu" style="stroke: #A80036; stroke-width: 1.0; stroke-dasharray: 7.0,7.0;"/><polygon fill="#A80036" points="124.1999,222.4993,133.3026,218.7388,127.6474,218.8779,127.5084,213.2228,124.1999,222.4993" style="stroke: #A80036; stroke-width: 1.0;"/><text fill="#000000" font-family="sans-serif" font-size="13" lengthAdjust="spacingAndGlyphs" textLength="55" x="260" y="164.5684">For links</text><text fill="#000000" font-family="sans-serif" font-size="13" lengthAdjust="spacingAndGlyphs" textLength="135" x="220" y="179.8789">to further description</text><ellipse cx="219" cy="151" fill="#FFFFFF" rx="10" ry="10" style="stroke: #FFFFFF; stroke-width: 1.0;"/><path d="M209.7497,147.2011 A10,10 0 0 0 215.2011 160.2503" fill="#FFFFFF" style="stroke: #A80036; stroke-width: 1.5;"/><path d="M228.2503,154.7989 A10,10 0 0 0 222.7989 141.7497" fill="#FFFFFF" style="stroke: #A80036; stroke-width: 1.5;"/><ellipse cx="219" cy="151" fill="#FFFFFF" rx="6" ry="6" style="stroke: #A80036; stroke-width: 1.5;"/><!--MD5=[dc31c41695b74f2965224353a6bb329b]
link ArchivesSpace to collections.library.nd.edu--><path d="M434,131.5 C456.6736,168.6124 488.5677,208.8223 505.1019,228.956 " fill="none" id="ArchivesSpace-&gt;collections.library.nd.edu" style="stroke: #A80036; stroke-width: 1.0; stroke-dasharray: 7.0,7.0;"/><polygon fill="#A80036" points="508.3882,232.9392,505.7461,223.4513,505.2062,229.0824,499.5752,228.5425,508.3882,232.9392" style="stroke: #A80036; stroke-width: 1.0;"/><text fill="#000000" font-family="sans-serif" font-size="13" lengthAdjust="spacingAndGlyphs" textLength="55" x="509" y="164.5684">For links</text><text fill="#000000" font-family="sans-serif" font-size="13" lengthAdjust="spacingAndGlyphs" textLength="135" x="469" y="179.8789">to further description</text><ellipse cx="471.8532" cy="186.595" fill="#FFFFFF" rx="10" ry="10" style="stroke: #FFFFFF; stroke-width: 1.0;"/><path d="M470.4273,196.4928 A10,10 0 0 0 481.751 188.0209" fill="#FFFFFF" style="stroke: #A80036; stroke-width: 1.5;"/><path d="M473.2791,176.6972 A10,10 0 0 0 461.9554 185.1691" fill="#FFFFFF" style="stroke: #A80036; stroke-width: 1.5;"/><ellipse cx="471.8532" cy="186.595" fill="#FFFFFF" rx="6" ry="6" style="stroke: #A80036; stroke-width: 1.5;"/><!--MD5=[addda4dea1ed15e0119ba4bcb3b3dfd2]
link ArchivesSpace to curate.nd.edu--><path d="M434,131.5 C499.5734,177.3729 541.2281,115.6025 613,151 C648.9019,168.7066 677.963,207.6544 691.5957,228.3877 " fill="none" id="ArchivesSpace-&gt;curate.nd.edu" style="stroke: #A80036; stroke-width: 1.0; stroke-dasharray: 7.0,7.0;"/><polygon fill="#A80036" points="694.4203,232.7622,692.8985,223.0316,691.708,228.5618,686.1779,227.3713,694.4203,232.7622" style="stroke: #A80036; stroke-width: 1.0;"/><text fill="#000000" font-family="sans-serif" font-size="13" lengthAdjust="spacingAndGlyphs" textLength="55" x="695" y="164.5684">For links</text><text fill="#000000" font-family="sans-serif" font-size="13" lengthAdjust="spacingAndGlyphs" textLength="135" x="655" y="179.8789">to further description</text><ellipse cx="521.1756" cy="145.1783" fill="#FFFFFF" rx="10" ry="10" style="stroke: #FFFFFF; stroke-width: 1.0;"/><path d="M529.4507,150.7927 A10,10 0 0 0 526.7899 136.9031" fill="#FFFFFF" style="stroke: #A80036; stroke-width: 1.5;"/><path d="M512.9004,139.5639 A10,10 0 0 0 515.5612 153.4535" fill="#FFFFFF" style="stroke: #A80036; stroke-width: 1.5;"/><ellipse cx="521.1756" cy="145.1783" fill="#FFFFFF" rx="6" ry="6" style="stroke: #A80036; stroke-width: 1.5;"/><!--MD5=[4b555a0fe42ca6917db3c8b2dad3b869]
link ArchivesSpace to FurtherDescription--><path d="M397,131.5 C376.0244,166.6617 346.3817,204.2697 329.078,225.289 " fill="none" id="ArchivesSpace-&gt;FurtherDescription" style="stroke: #A80036; stroke-width: 1.0; stroke-dasharray: 7.0,7.0;"/><path d="M331.155,236.0211 A9,9 0 0 0 318.1471 225.2094" fill="none" style="stroke: #A80036; stroke-width: 1.5;"/><!--MD5=[88fe908b7d2120142efdd31cc8a7a83a]
@startuml


cloud "ArchivesSpace" {
  component "Front-End"
  component "Public"
  component "Backend" {
    database "RDBMS"
  }
}

package "rarebooks.library.nd.edu"

interface "further description" as FurtherDescription

folder "LoadingDock"
package "Oxygen"
package "BitCurator" {
  component "Checksums"
  component "Digital\nForensics"
}

ArchivesSpace .(0).> rarebooks.library.nd.edu : "For links\nto further description"
ArchivesSpace .(0).> collections.library.nd.edu : "For links\nto further description"
ArchivesSpace .(0).> curate.nd.edu : "For links\nto further description"
ArchivesSpace ..( FurtherDescription
@enduml

PlantUML version 1.2019.10(Fri Sep 13 16:53:03 EDT 2019)
(GPL source distribution)
Java Runtime: Java(TM) SE Runtime Environment
JVM: Java HotSpot(TM) 64-Bit Server VM
Java Version: 1.8.0_102-b14
Operating System: Mac OS X
Default Encoding: UTF-8
Language: en
Country: US
--></g></svg>