<?xml version="1.0" encoding="UTF-8" standalone="no"?><svg xmlns="http://www.w3.org/2000/svg" xmlns:xlink="http://www.w3.org/1999/xlink" contentScriptType="application/ecmascript" contentStyleType="text/css" height="193px" preserveAspectRatio="none" style="width:1485px;height:193px;" version="1.1" viewBox="0 0 1485 193"
    width="1485px" zoomAndPan="magnify"><defs><filter height="300%" id="f1dvxlxp50qsrt" width="300%" x="-1" y="-1"><feGaussianBlur result="blurOut" stdDeviation="2.0"/><feColorMatrix in="blurOut" result="blurOut2" type="matrix" values="0 0 0 0 0 0 0 0 0 0 0 0 0 0 0 0 0 0 .4 0"/><feOffset dx="4.0" dy="4.0" in="blurOut2" result="blurOut3"/><feBlend in="SourceGraphic" in2="blurOut3" mode="normal"/></filter></defs><g><text fill="#888888" font-family="sans-serif" font-size="10" lengthAdjust="spacingAndGlyphs" textLength="19" x="1454" y="9.668">CDS</text><!--MD5=[1a416c3156d55d9446032ebbee093b81]
entity DS--><rect fill="#FEFECE" filter="url(#f1dvxlxp50qsrt)" height="32.4883" style="stroke: #000000; stroke-width: 1.5;" width="119" x="10" y="28.7773"/><rect fill="#FEFECE" height="32.4883" style="stroke: #000000; stroke-width: 1.5;" width="119" x="6" y="24.7773"/><text fill="#000000" font-family="sans-serif" font-size="14" lengthAdjust="spacingAndGlyphs" textLength="103" x="14" y="46.3125">Digital Signage</text><!--MD5=[36c179afd0391342d2ea187b096c7f2d]
entity EI--><rect fill="#FEFECE" filter="url(#f1dvxlxp50qsrt)" height="32.4883" style="stroke: #000000; stroke-width: 1.5;" width="143" x="168" y="28.7773"/><rect fill="#FEFECE" height="32.4883" style="stroke: #000000; stroke-width: 1.5;" width="143" x="164" y="24.7773"/><text fill="#000000" font-family="sans-serif" font-size="14" lengthAdjust="spacingAndGlyphs" textLength="127" x="172" y="46.3125">Equipment Images</text><!--MD5=[dee3e9b654f3d7f76e059372c4786d0b]
entity SI--><rect fill="#FEFECE" filter="url(#f1dvxlxp50qsrt)" height="32.4883" style="stroke: #000000; stroke-width: 1.5;" width="109" x="350" y="28.7773"/><rect fill="#FEFECE" height="32.4883" style="stroke: #000000; stroke-width: 1.5;" width="109" x="346" y="24.7773"/><text fill="#000000" font-family="sans-serif" font-size="14" lengthAdjust="spacingAndGlyphs" textLength="93" x="354" y="46.3125">Space Images</text><!--MD5=[ce2c25896b04328eee139e6ba849566a]
entity CDSW--><rect fill="#FEFECE" filter="url(#f1dvxlxp50qsrt)" height="32.4883" style="stroke: #000000; stroke-width: 1.5;" width="124" x="498.5" y="28.7773"/><rect fill="#FEFECE" height="32.4883" style="stroke: #000000; stroke-width: 1.5;" width="124" x="494.5" y="24.7773"/><text fill="#000000" font-family="sans-serif" font-size="14" lengthAdjust="spacingAndGlyphs" textLength="108" x="502.5" y="46.3125">CDS Workshops</text><!--MD5=[9aabfbb87dc007831f769c13c472bacb]
entity LDWP--><rect fill="#FEFECE" filter="url(#f1dvxlxp50qsrt)" height="32.4883" style="stroke: #000000; stroke-width: 1.5;" width="219" x="662" y="28.7773"/><rect fill="#FEFECE" height="32.4883" style="stroke: #000000; stroke-width: 1.5;" width="219" x="658" y="24.7773"/><text fill="#000000" font-family="sans-serif" font-size="14" lengthAdjust="spacingAndGlyphs" textLength="203" x="666" y="46.3125">Love Data Week Presentations</text><!--MD5=[63e32a3b762e53322fa756b6df4077c9]
entity LRA--><rect fill="#FEFECE" filter="url(#f1dvxlxp50qsrt)" height="32.4883" style="stroke: #000000; stroke-width: 1.5;" width="177" x="920" y="28.7773"/><rect fill="#FEFECE" height="32.4883" style="stroke: #000000; stroke-width: 1.5;" width="177" x="916" y="24.7773"/><text fill="#000000" font-family="sans-serif" font-size="14" lengthAdjust="spacingAndGlyphs" textLength="161" x="924" y="46.3125">Library Research Award</text><!--MD5=[c3ff2cde42cbc42bfd4da85ed55309c5]
entity CDSKB--><rect fill="#FEFECE" filter="url(#f1dvxlxp50qsrt)" height="32.4883" style="stroke: #000000; stroke-width: 1.5;" width="159" x="1176" y="28.7773"/><rect fill="#FEFECE" height="32.4883" style="stroke: #000000; stroke-width: 1.5;" width="159" x="1172" y="24.7773"/><text fill="#000000" font-family="sans-serif" font-size="14" lengthAdjust="spacingAndGlyphs" textLength="143" x="1180" y="46.3125">CDS Knowledge Base</text><!--MD5=[05246e38ea0abb0c8ec71a427895d0b8]
entity Box--><path d="M49.4548,135.673 C53.1698,124.6221 62.0405,123.514 69.1547,132.2966 C75.5048,124.4436 84.8081,123.5458 88.9711,134.5902 C99.1019,133.5093 103.9997,140.4988 98.2628,149.3841 C102.6658,158.7251 99.0722,163.3506 89.526,164.7714 C84.7949,175.9068 77.1063,178.4912 67.879,169.6415 C61.4898,177.9734 52.1109,175.6023 48.7221,166.3691 C38.8751,164.5271 35.9749,158.2844 40.9631,149.5844 C37.1134,141.1778 39.9836,135.9483 49.4548,135.673 " fill="#FEFECE" style="stroke: #000000; stroke-width: 1.5;"/><text fill="#000000" font-family="sans-serif" font-size="14" lengthAdjust="spacingAndGlyphs" textLength="26" x="54.5" y="154.3125">Box</text><!--MD5=[9d9b6460d9c172935a7f9e5b4e58fae0]
entity Github--><path d="M530.3789,133.8171 C534.3802,127.1255 539.4174,126.0087 544.3025,132.912 C549.0701,125.9088 555.0466,125.7882 560.4233,132.1789 C566.5186,125.4461 571.2061,125.7723 575.5002,133.9947 C579.6366,127.0281 584.8534,127.1867 588.5124,134.4318 C596.5517,137.7402 597.6268,143.1857 592.4034,149.8428 C598.6279,155.9224 598.8709,163.6191 588.8915,166.2252 C584.6651,172.6791 579.2821,172.2366 574.7693,166.5585 C571.9279,173.6011 566.0199,175.8941 560.4679,169.4282 C555.2222,175.941 548.5452,175.0145 545.5704,167.0856 C539.7276,175.0994 532.1894,173.0519 528.641,164.7106 C520.1145,162.7257 515.8914,157.2438 522.3986,149.2061 C517.0637,140.0552 520.7715,135.2194 530.3789,133.8171 " fill="#FEFECE" style="stroke: #000000; stroke-width: 1.5;"/><text fill="#000000" font-family="sans-serif" font-size="14" lengthAdjust="spacingAndGlyphs" textLength="46" x="535.5" y="154.3125">Github</text><!--MD5=[f610e5df83326142b25d66e5fd636ba3]
entity Tableau--><path d="M1379.7718,28.6579 C1382.823,23.6853 1386.7012,23.4198 1390.4641,27.8485 C1393.5281,21.7457 1397.8213,21.8399 1402.0188,26.6481 C1404.8929,21.3917 1409.1053,20.9169 1412.6433,25.9634 C1416.3455,21.0971 1420.1558,20.0086 1424.0967,25.7044 C1429.094,20.5096 1433.2775,20.6649 1436.074,27.836 C1440.0882,22.7281 1444.6936,23.0013 1448.3365,28.2745 C1455.7154,31.1388 1457.4552,38.5408 1451.097,43.8411 C1456.9415,50.2755 1456.7905,55.3893 1448.7511,59.7803 C1446.8327,65.8704 1441.3665,66.2846 1437.6536,61.6346 C1434.7603,69.8328 1430.3393,70.8741 1424.2619,64.5761 C1423.3678,70.2335 1418.7371,72.4151 1413.8875,69.2029 C1409.329,73.3419 1404.106,72.7937 1402.1835,66.3011 C1395.7118,71.0622 1392.5297,68.4427 1390.3706,61.8243 C1386.2026,66.2218 1381.194,65.7501 1378.5627,60.0308 C1368.856,59.0326 1365.6333,51.7644 1372.2799,44.2539 C1366.1106,35.2414 1369.2054,29.631 1379.7718,28.6579 " fill="#FEFECE" style="stroke: #000000; stroke-width: 1.5;"/><text fill="#000000" font-family="sans-serif" font-size="14" lengthAdjust="spacingAndGlyphs" textLength="55" x="1385" y="48.3125">Tableau</text><!--MD5=[ba04cb2c49dc955c688a5868a138bde8]
entity GoogleSites--><path d="M1100.9617,134.8976 C1104.6914,128.4369 1108.5998,129.0216 1112.8696,134.3521 C1116.1039,129.3969 1120.6039,128.8181 1124.1801,133.9693 C1127.7421,128.7407 1131.6081,126.921 1136.1999,132.861 C1140.175,126.9468 1143.8681,126.4616 1148.5217,132.1398 C1152.8572,127.1908 1157.1548,126.8939 1160.178,133.4673 C1164.3246,128.7919 1167.8147,128.6158 1171.7542,133.7125 C1175.2577,128.2158 1179.5107,127.5667 1183.0214,133.7055 C1187.3315,128.6566 1193.3111,128.1361 1196.1172,135.3162 C1205.0571,137.2697 1205.8451,144.6355 1199.6146,150.1627 C1206.038,156.3979 1204.1164,163.435 1195.8008,166.1552 C1192.8721,172.6704 1187.8511,172.832 1183.7192,167.3688 C1181.1067,172.4475 1176.1697,173.4493 1172.218,168.9824 C1168.9539,175.804 1164.6286,177.9118 1158.4877,172.1118 C1155.4021,178.4986 1151.9,178.004 1147.5457,173.3715 C1142.9707,178.4399 1139.0941,179.0879 1135.3665,172.487 C1130.5695,176.3268 1127.1578,175.8973 1124.1526,170.3473 C1119.1539,176.835 1114.2739,176.097 1111.2778,168.5148 C1106.391,173.6695 1101.5682,170.6018 1099.9878,165.0336 C1091.4156,161.8671 1090.1954,156.4045 1096.1888,149.6427 C1090.7357,143.3242 1091.9285,136.5269 1100.9617,134.8976 " fill="#FEFECE" style="stroke: #000000; stroke-width: 1.5;"/><text fill="#000000" font-family="sans-serif" font-size="14" lengthAdjust="spacingAndGlyphs" textLength="81" x="1106" y="154.3125">GoogleSites</text><!--MD5=[c9c84144562f02637ce26622b6d20e46]
entity OSF--><path d="M749.1278,134.7276 C755.0361,124.5418 761.168,120.7715 770.6757,130.9119 C779.1199,123.8864 785.0994,124.8653 790.5438,134.4912 C799.4346,134.709 803.0719,142.1475 798.0339,149.3749 C802.0038,158.1262 800.8414,163.4734 790.307,165.0958 C786.635,176.113 780.6845,178.0544 770.9421,171.9693 C761.242,179.9968 753.0639,176.5534 749.244,165.3387 C740.193,163.1103 738.095,157.7926 744.0981,150.384 C737.3601,143.8335 740.5531,136.3589 749.1278,134.7276 " fill="#FEFECE" style="stroke: #000000; stroke-width: 1.5;"/><text fill="#000000" font-family="sans-serif" font-size="14" lengthAdjust="spacingAndGlyphs" textLength="27" x="756" y="154.3125">OSF</text><!--MD5=[332a7ba02eb8ee657e2b7f7b6b10b792]
entity GoogleSuite--><path d="M1246.2157,134.5883 C1249.4218,129.5811 1254.9614,129.8198 1257.8776,134.9227 C1260.9232,128.332 1265.5983,128.3957 1269.9194,133.6231 C1273.3688,126.6869 1278.733,127.4769 1283.1478,132.5606 C1286.0062,127.0216 1291.8518,126.4292 1295.54,131.6004 C1298.8694,126.5939 1304.3248,127.1566 1306.4661,132.8173 C1310.3834,127.5673 1315.8996,127.9947 1319.328,133.4071 C1323.0809,128.0098 1327.9209,127.7316 1331.6248,133.4613 C1336.3793,128.9541 1339.7835,129.8958 1342.0606,135.917 C1350.1519,139.2062 1352.6949,143.6896 1346.1598,150.9636 C1350.3984,157.0822 1350.8282,161.5832 1342.5248,164.2777 C1339.3352,171.2947 1335.5695,172.3427 1330.1354,166.428 C1327.4183,172.1348 1322.3058,171.9384 1319.079,166.9552 C1316.1854,172.9536 1311.3299,173.0094 1307.4016,168.0588 C1304.6937,174.0663 1298.8448,174.6236 1294.7114,169.7161 C1290.0503,174.8731 1285.3314,173.8601 1282.0381,168.1247 C1278.5786,173.2937 1274.296,173.8565 1270.4945,168.4997 C1266.6222,173.6033 1260.5886,173.5886 1257.9809,167.1309 C1254.358,171.765 1248.336,172.2933 1246.1617,165.617 C1236.6961,164.3981 1232.7944,159.0632 1238.4737,150.2616 C1233.2591,141.4652 1235.6882,135.6087 1246.2157,134.5883 " fill="#FEFECE" style="stroke: #000000; stroke-width: 1.5;"/><text fill="#000000" font-family="sans-serif" font-size="14" lengthAdjust="spacingAndGlyphs" textLength="83" x="1252" y="154.3125">GoogleSuite</text><!--MD5=[f278ec8c8040f1972ff3360856b98eac]
entity LibCal--><path d="M291.8869,135.3985 C295.9692,127.3542 300.6354,128.4401 306.0184,134.0526 C309.2051,125.6708 314.2943,126.7779 319.9018,131.4848 C324.3719,125.5436 330.9047,127.211 333.696,133.3946 C339.4596,126.1924 344.1783,127.0621 348.6368,134.7079 C357.8712,137.9458 357.3353,143.2277 352.4524,149.9902 C359.6024,156.7055 358.7281,161.973 349.5983,165.7376 C347.6138,174.0323 340.3582,175.4066 334.4912,170.0269 C333.4515,178.634 326.988,180.0434 320.4695,176.1942 C312.9919,181.3283 308.7693,177.8252 306.9721,170.1899 C300.6369,175.6921 295.0251,175.0362 292.2861,166.443 C282.263,165.0763 281.7762,156.3094 287.2017,150.1282 C281.3261,143.4999 283.0008,137.3314 291.8869,135.3985 " fill="#FEFECE" style="stroke: #000000; stroke-width: 1.5;"/><text fill="#000000" font-family="sans-serif" font-size="14" lengthAdjust="spacingAndGlyphs" textLength="42" x="298.5" y="154.3125">LibCal</text><!--MD5=[b43e967606b105da0844e0dce872e0b3]
entity CurateND--><polygon fill="#FEFECE" filter="url(#f1dvxlxp50qsrt)" points="957,129.2773,1032,129.2773,1039,151.7656,1056,151.7656,1056,168.7656,957,168.7656,957,129.2773" style="stroke: #000000; stroke-width: 1.5;"/><line style="stroke: #000000; stroke-width: 1.5;" x1="957" x2="1039" y1="151.7656" y2="151.7656"/><text fill="#000000" font-family="sans-serif" font-size="14" font-weight="bold" lengthAdjust="spacingAndGlyphs" textLength="69" x="961" y="145.8125">CurateND</text><!--MD5=[6b7047a89e5ae34e938225291b2ce4d5]
link DS to Box--><path d="M67.5,61.2411 C67.5,77.615 67.5,101.7785 67.5,120.5722 " fill="none" id="DS-&gt;Box" style="stroke: #A80036; stroke-width: 1.0; stroke-dasharray: 7.0,7.0;"/><polygon fill="#A80036" points="67.5,125.7197,71.5,116.7197,67.5,120.7197,63.5,116.7197,67.5,125.7197" style="stroke: #A80036; stroke-width: 1.0;"/><!--MD5=[eb490b24740f7582ec2e2136da7c556b]
link CDSW to Github--><path d="M558.5,61.2411 C558.5,77.615 558.5,101.7785 558.5,120.5722 " fill="none" id="CDSW-&gt;Github" style="stroke: #A80036; stroke-width: 1.0; stroke-dasharray: 7.0,7.0;"/><polygon fill="#A80036" points="558.5,125.7197,562.5,116.7197,558.5,120.7197,554.5,116.7197,558.5,125.7197" style="stroke: #A80036; stroke-width: 1.0;"/><!--MD5=[ce61da562fc41864f15cbcabb1735a72]
link LRA to CurateND--><path d="M1006.5,61.2411 C1006.5,78.591 1006.5,104.6866 1006.5,123.8727 " fill="none" id="LRA-&gt;CurateND" style="stroke: #A80036; stroke-width: 1.0; stroke-dasharray: 7.0,7.0;"/><polygon fill="#A80036" points="1006.5,129.0879,1010.5,120.0879,1006.5,124.0879,1002.5,120.0879,1006.5,129.0879" style="stroke: #A80036; stroke-width: 1.0;"/><!--MD5=[e32f1c4b37dae784fb00633bd9d01ef0]
link LDWP to OSF--><path d="M769.5,61.2411 C769.5,77.615 769.5,101.7785 769.5,120.5722 " fill="none" id="LDWP-&gt;OSF" style="stroke: #A80036; stroke-width: 1.0; stroke-dasharray: 7.0,7.0;"/><polygon fill="#A80036" points="769.5,125.7197,773.5,116.7197,769.5,120.7197,765.5,116.7197,769.5,125.7197" style="stroke: #A80036; stroke-width: 1.0;"/><!--MD5=[6c9c19a083eedc57898136f5ef2c9981]
link CDSKB to GoogleSites--><path d="M1234.862,61.2411 C1217.9098,78.0349 1192.6862,103.0227 1173.5228,122.0071 " fill="none" id="CDSKB-&gt;GoogleSites" style="stroke: #A80036; stroke-width: 1.0; stroke-dasharray: 7.0,7.0;"/><polygon fill="#A80036" points="1169.7751,125.7197,1178.984,122.2273,1173.3272,122.2008,1173.3537,116.544,1169.7751,125.7197" style="stroke: #A80036; stroke-width: 1.0;"/><!--MD5=[6a3ab39ec05d2559c23654431b7c9f6f]
link CDSKB to GoogleSuite--><path d="M1260.4675,61.2411 C1266.6463,77.615 1275.7646,101.7785 1282.8566,120.5722 " fill="none" id="CDSKB-&gt;GoogleSuite" style="stroke: #A80036; stroke-width: 1.0; stroke-dasharray: 7.0,7.0;"/><polygon fill="#A80036" points="1284.799,125.7197,1285.3636,115.8871,1283.0336,121.0418,1277.8789,118.7117,1284.799,125.7197" style="stroke: #A80036; stroke-width: 1.0;"/><!--MD5=[986680c8eea771e1a90335e62ea04d8a]
link EI to LibCal--><path d="M251.7833,61.2411 C264.6665,77.8949 283.7832,102.6069 298.4229,121.5312 " fill="none" id="EI-&gt;LibCal" style="stroke: #A80036; stroke-width: 1.0; stroke-dasharray: 7.0,7.0;"/><polygon fill="#A80036" points="301.663,125.7197,299.32,116.1536,298.6036,121.765,292.9923,121.0486,301.663,125.7197" style="stroke: #A80036; stroke-width: 1.0;"/><!--MD5=[8e4435d567e30ef27e844ee856060696]
link SI to LibCal--><path d="M388.0425,61.2411 C375.0022,77.8949 355.6523,102.6069 340.8342,121.5312 " fill="none" id="SI-&gt;LibCal" style="stroke: #A80036; stroke-width: 1.0; stroke-dasharray: 7.0,7.0;"/><polygon fill="#A80036" points="337.5545,125.7197,346.2524,121.0996,340.637,121.783,339.9536,116.1676,337.5545,125.7197" style="stroke: #A80036; stroke-width: 1.0;"/><!--MD5=[c74ea70520f92c4f05f2b9659335e239]
@startuml

header CDS

collections "Digital Signage" as DS
collections "Equipment Images" as EI
collections "Space Images" as SI
collections "CDS Workshops" as CDSW
collections "Love Data Week Presentations" as LDWP
collections "Library Research Award" as LRA
collections "CDS Knowledge Base" as CDSKB

cloud Box
cloud Github
cloud Tableau
cloud GoogleSites
cloud OSF
cloud GoogleSuite
cloud LibCal
package CurateND

DS ..> Box
CDSW ..> Github
LRA ..> CurateND
LDWP ..> OSF
CDSKB ..> GoogleSites
CDSKB ..> GoogleSuite
EI ..> LibCal
SI ..> LibCal

@enduml

PlantUML version 1.2019.10(Fri Sep 13 16:53:03 EDT 2019)
(GPL source distribution)
Java Runtime: Java(TM) SE Runtime Environment
JVM: Java HotSpot(TM) 64-Bit Server VM
Java Version: 1.8.0_102-b14
Operating System: Mac OS X
Default Encoding: UTF-8
Language: en
Country: US
--></g></svg>