<?xml version="1.0" encoding="UTF-8" standalone="no"?><svg xmlns="http://www.w3.org/2000/svg" xmlns:xlink="http://www.w3.org/1999/xlink" contentScriptType="application/ecmascript" contentStyleType="text/css" height="290px" preserveAspectRatio="none" style="width:2739px;height:290px;" version="1.1" viewBox="0 0 2739 290"
    width="2739px" zoomAndPan="magnify"><defs><filter height="300%" id="f6wc1ax9wrlqy" width="300%" x="-1" y="-1"><feGaussianBlur result="blurOut" stdDeviation="2.0"/><feColorMatrix in="blurOut" result="blurOut2" type="matrix" values="0 0 0 0 0 0 0 0 0 0 0 0 0 0 0 0 0 0 .4 0"/><feOffset dx="4.0" dy="4.0" in="blurOut2" result="blurOut3"/><feBlend in="SourceGraphic" in2="blurOut3" mode="normal"/></filter></defs><g><text fill="#888888" font-family="sans-serif" font-size="10" lengthAdjust="spacingAndGlyphs" textLength="19" x="2708" y="9.668">CDS</text><!--MD5=[1a416c3156d55d9446032ebbee093b81]
entity DS--><rect fill="#FEFECE" filter="url(#f6wc1ax9wrlqy)" height="32.4883" style="stroke: #000000; stroke-width: 1.5;" width="119" x="587.5" y="28.7773"/><rect fill="#FEFECE" height="32.4883" style="stroke: #000000; stroke-width: 1.5;" width="119" x="583.5" y="24.7773"/><text fill="#000000" font-family="sans-serif" font-size="14" lengthAdjust="spacingAndGlyphs" textLength="103" x="591.5" y="46.3125">Digital Signage</text><!--MD5=[36c179afd0391342d2ea187b096c7f2d]
entity EI--><rect fill="#FEFECE" filter="url(#f6wc1ax9wrlqy)" height="32.4883" style="stroke: #000000; stroke-width: 1.5;" width="143" x="745.5" y="28.7773"/><rect fill="#FEFECE" height="32.4883" style="stroke: #000000; stroke-width: 1.5;" width="143" x="741.5" y="24.7773"/><text fill="#000000" font-family="sans-serif" font-size="14" lengthAdjust="spacingAndGlyphs" textLength="127" x="749.5" y="46.3125">Equipment Images</text><!--MD5=[dee3e9b654f3d7f76e059372c4786d0b]
entity SI--><rect fill="#FEFECE" filter="url(#f6wc1ax9wrlqy)" height="32.4883" style="stroke: #000000; stroke-width: 1.5;" width="109" x="927.5" y="28.7773"/><rect fill="#FEFECE" height="32.4883" style="stroke: #000000; stroke-width: 1.5;" width="109" x="923.5" y="24.7773"/><text fill="#000000" font-family="sans-serif" font-size="14" lengthAdjust="spacingAndGlyphs" textLength="93" x="931.5" y="46.3125">Space Images</text><!--MD5=[ce2c25896b04328eee139e6ba849566a]
entity CDSW--><rect fill="#FEFECE" filter="url(#f6wc1ax9wrlqy)" height="32.4883" style="stroke: #000000; stroke-width: 1.5;" width="124" x="1076" y="28.7773"/><rect fill="#FEFECE" height="32.4883" style="stroke: #000000; stroke-width: 1.5;" width="124" x="1072" y="24.7773"/><text fill="#000000" font-family="sans-serif" font-size="14" lengthAdjust="spacingAndGlyphs" textLength="108" x="1080" y="46.3125">CDS Workshops</text><!--MD5=[9aabfbb87dc007831f769c13c472bacb]
entity LDWP--><rect fill="#FEFECE" filter="url(#f6wc1ax9wrlqy)" height="32.4883" style="stroke: #000000; stroke-width: 1.5;" width="219" x="1239.5" y="28.7773"/><rect fill="#FEFECE" height="32.4883" style="stroke: #000000; stroke-width: 1.5;" width="219" x="1235.5" y="24.7773"/><text fill="#000000" font-family="sans-serif" font-size="14" lengthAdjust="spacingAndGlyphs" textLength="203" x="1243.5" y="46.3125">Love Data Week Presentations</text><!--MD5=[63e32a3b762e53322fa756b6df4077c9]
entity LRA--><rect fill="#FEFECE" filter="url(#f6wc1ax9wrlqy)" height="32.4883" style="stroke: #000000; stroke-width: 1.5;" width="177" x="1497.5" y="28.7773"/><rect fill="#FEFECE" height="32.4883" style="stroke: #000000; stroke-width: 1.5;" width="177" x="1493.5" y="24.7773"/><text fill="#000000" font-family="sans-serif" font-size="14" lengthAdjust="spacingAndGlyphs" textLength="161" x="1501.5" y="46.3125">Library Research Award</text><!--MD5=[c3ff2cde42cbc42bfd4da85ed55309c5]
entity CDSKB--><rect fill="#FEFECE" filter="url(#f6wc1ax9wrlqy)" height="32.4883" style="stroke: #000000; stroke-width: 1.5;" width="159" x="1713.5" y="28.7773"/><rect fill="#FEFECE" height="32.4883" style="stroke: #000000; stroke-width: 1.5;" width="159" x="1709.5" y="24.7773"/><text fill="#000000" font-family="sans-serif" font-size="14" lengthAdjust="spacingAndGlyphs" textLength="143" x="1717.5" y="46.3125">CDS Knowledge Base</text><!--MD5=[0f32d9eb3fd357fd857f47470ff3deb8]
entity DHW--><rect fill="#FEFECE" filter="url(#f6wc1ax9wrlqy)" height="32.4883" style="stroke: #000000; stroke-width: 1.5;" width="214" x="1941" y="28.7773"/><rect fill="#FEFECE" height="32.4883" style="stroke: #000000; stroke-width: 1.5;" width="214" x="1937" y="24.7773"/><text fill="#000000" font-family="sans-serif" font-size="14" lengthAdjust="spacingAndGlyphs" textLength="198" x="1945" y="46.3125">Digital Humanities Workshop</text><!--MD5=[527d4281eaa90cfea6d6a79bc2ce2fd3]
entity CSVs--><rect fill="#FEFECE" filter="url(#f6wc1ax9wrlqy)" height="32.4883" style="stroke: #000000; stroke-width: 1.5;" width="50" x="2489" y="134.7773"/><rect fill="#FEFECE" height="32.4883" style="stroke: #000000; stroke-width: 1.5;" width="50" x="2485" y="130.7773"/><text fill="#000000" font-family="sans-serif" font-size="14" lengthAdjust="spacingAndGlyphs" textLength="34" x="2493" y="152.3125">CSVs</text><!--MD5=[05246e38ea0abb0c8ec71a427895d0b8]
entity Box--><path d="M626.9548,135.673 C630.6698,124.6221 639.5405,123.514 646.6547,132.2966 C653.0048,124.4436 662.3081,123.5458 666.4711,134.5902 C676.6019,133.5093 681.4997,140.4988 675.7628,149.3841 C680.1658,158.7251 676.5722,163.3506 667.026,164.7714 C662.2949,175.9068 654.6063,178.4912 645.379,169.6415 C638.9898,177.9734 629.6109,175.6023 626.2221,166.3691 C616.3751,164.5271 613.4749,158.2844 618.4631,149.5844 C614.6134,141.1778 617.4836,135.9483 626.9548,135.673 " fill="#FEFECE" style="stroke: #000000; stroke-width: 1.5;"/><text fill="#000000" font-family="sans-serif" font-size="14" lengthAdjust="spacingAndGlyphs" textLength="26" x="632" y="154.3125">Box</text><!--MD5=[9d9b6460d9c172935a7f9e5b4e58fae0]
entity Github--><path d="M1107.8789,133.8171 C1111.8802,127.1255 1116.9174,126.0087 1121.8025,132.912 C1126.5701,125.9088 1132.5466,125.7882 1137.9233,132.1789 C1144.0186,125.4461 1148.7061,125.7723 1153.0002,133.9947 C1157.1366,127.0281 1162.3534,127.1867 1166.0124,134.4318 C1174.0517,137.7402 1175.1268,143.1857 1169.9034,149.8428 C1176.1279,155.9224 1176.3709,163.6191 1166.3915,166.2252 C1162.1651,172.6791 1156.7821,172.2366 1152.2693,166.5585 C1149.4279,173.6011 1143.5199,175.8941 1137.9679,169.4282 C1132.7222,175.941 1126.0452,175.0145 1123.0704,167.0856 C1117.2276,175.0994 1109.6894,173.0519 1106.141,164.7106 C1097.6145,162.7257 1093.3914,157.2438 1099.8986,149.2061 C1094.5637,140.0552 1098.2715,135.2194 1107.8789,133.8171 " fill="#FEFECE" style="stroke: #000000; stroke-width: 1.5;"/><text fill="#000000" font-family="sans-serif" font-size="14" lengthAdjust="spacingAndGlyphs" textLength="46" x="1113" y="154.3125">Github</text><!--MD5=[ba04cb2c49dc955c688a5868a138bde8]
entity GoogleSites--><path d="M1697.4617,134.8976 C1701.1914,128.4369 1705.0998,129.0216 1709.3696,134.3521 C1712.6039,129.3969 1717.1039,128.8181 1720.6801,133.9693 C1724.2421,128.7407 1728.1081,126.921 1732.6999,132.861 C1736.675,126.9468 1740.3681,126.4616 1745.0217,132.1398 C1749.3572,127.1908 1753.6548,126.8939 1756.678,133.4673 C1760.8246,128.7919 1764.3147,128.6158 1768.2542,133.7125 C1771.7577,128.2158 1776.0107,127.5667 1779.5214,133.7055 C1783.8315,128.6566 1789.8111,128.1361 1792.6172,135.3162 C1801.5571,137.2697 1802.3451,144.6355 1796.1146,150.1627 C1802.538,156.3979 1800.6164,163.435 1792.3008,166.1552 C1789.3721,172.6704 1784.3511,172.832 1780.2192,167.3688 C1777.6067,172.4475 1772.6697,173.4493 1768.718,168.9824 C1765.4539,175.804 1761.1286,177.9118 1754.9877,172.1118 C1751.9021,178.4986 1748.4,178.004 1744.0457,173.3715 C1739.4707,178.4399 1735.5941,179.0879 1731.8665,172.487 C1727.0695,176.3268 1723.6578,175.8973 1720.6526,170.3473 C1715.6539,176.835 1710.7739,176.097 1707.7778,168.5148 C1702.891,173.6695 1698.0682,170.6018 1696.4878,165.0336 C1687.9156,161.8671 1686.6954,156.4045 1692.6888,149.6427 C1687.2357,143.3242 1688.4285,136.5269 1697.4617,134.8976 " fill="#FEFECE" style="stroke: #000000; stroke-width: 1.5;"/><text fill="#000000" font-family="sans-serif" font-size="14" lengthAdjust="spacingAndGlyphs" textLength="81" x="1702.5" y="154.3125">GoogleSites</text><!--MD5=[332a7ba02eb8ee657e2b7f7b6b10b792]
entity GoogleSuite--><path d="M1842.7157,134.5883 C1845.9218,129.5811 1851.4614,129.8198 1854.3776,134.9227 C1857.4232,128.332 1862.0983,128.3957 1866.4194,133.6231 C1869.8688,126.6869 1875.233,127.4769 1879.6478,132.5606 C1882.5062,127.0216 1888.3518,126.4292 1892.04,131.6004 C1895.3694,126.5939 1900.8248,127.1566 1902.9661,132.8173 C1906.8834,127.5673 1912.3996,127.9947 1915.828,133.4071 C1919.5809,128.0098 1924.4209,127.7316 1928.1248,133.4613 C1932.8793,128.9541 1936.2835,129.8958 1938.5606,135.917 C1946.6519,139.2062 1949.1949,143.6896 1942.6598,150.9636 C1946.8984,157.0822 1947.3282,161.5832 1939.0248,164.2777 C1935.8352,171.2947 1932.0695,172.3427 1926.6354,166.428 C1923.9183,172.1348 1918.8058,171.9384 1915.579,166.9552 C1912.6854,172.9536 1907.8299,173.0094 1903.9016,168.0588 C1901.1937,174.0663 1895.3448,174.6236 1891.2114,169.7161 C1886.5503,174.8731 1881.8314,173.8601 1878.5381,168.1247 C1875.0786,173.2937 1870.796,173.8565 1866.9945,168.4997 C1863.1222,173.6033 1857.0886,173.5886 1854.4809,167.1309 C1850.858,171.765 1844.836,172.2933 1842.6617,165.617 C1833.1961,164.3981 1829.2944,159.0632 1834.9737,150.2616 C1829.7591,141.4652 1832.1882,135.6087 1842.7157,134.5883 " fill="#FEFECE" style="stroke: #000000; stroke-width: 1.5;"/><text fill="#000000" font-family="sans-serif" font-size="14" lengthAdjust="spacingAndGlyphs" textLength="83" x="1848.5" y="154.3125">GoogleSuite</text><!--MD5=[f278ec8c8040f1972ff3360856b98eac]
entity LibCal--><path d="M869.3869,135.3985 C873.4692,127.3542 878.1354,128.4401 883.5184,134.0526 C886.7051,125.6708 891.7943,126.7779 897.4018,131.4848 C901.8719,125.5436 908.4047,127.211 911.196,133.3946 C916.9596,126.1924 921.6783,127.0621 926.1368,134.7079 C935.3712,137.9458 934.8353,143.2277 929.9524,149.9902 C937.1024,156.7055 936.2281,161.973 927.0983,165.7376 C925.1138,174.0323 917.8582,175.4066 911.9912,170.0269 C910.9515,178.634 904.488,180.0434 897.9695,176.1942 C890.4919,181.3283 886.2693,177.8252 884.4721,170.1899 C878.1369,175.6921 872.5251,175.0362 869.7861,166.443 C859.763,165.0763 859.2762,156.3094 864.7017,150.1282 C858.8261,143.4999 860.5008,137.3314 869.3869,135.3985 " fill="#FEFECE" style="stroke: #000000; stroke-width: 1.5;"/><text fill="#000000" font-family="sans-serif" font-size="14" lengthAdjust="spacingAndGlyphs" textLength="42" x="876" y="154.3125">LibCal</text><!--MD5=[f6194fb04e8f4e47d30205f5ca7732c0]
entity Mendalay--><path d="M36.1578,28.0742 C39.9925,23.0725 45.0542,23.0509 48.4525,28.5835 C50.7371,21.8622 56.5836,19.8365 61.6054,25.7294 C65.8183,19.8459 71.455,17.9149 75.9244,25.4559 C80.1165,21.2079 85,21.5538 87.4284,27.455 C92.722,20.9228 96.9585,20.7223 101.05,28.592 C105.1868,23.1245 110.8373,23.0344 114.2951,29.3549 C123.3572,30.502 125.251,38.2133 120.2569,44.7897 C125.6058,52.0401 122.4508,57.3504 114.0585,58.293 C111.1193,64.8615 106.5236,66.8962 100.8943,61.1744 C97.4799,66.6378 93.9713,67.2626 89.1452,62.8546 C85.3772,69.9097 80.2172,71.396 74.3834,65.1467 C70.172,70.9922 65.7977,70.1697 62.8661,63.9272 C57.0782,69.9736 51.4756,70.0366 48.1119,61.4783 C43.9894,66.298 38.8004,64.5793 36.5548,59.325 C27.7279,57.8527 26.9139,51.0036 31.8983,45.0318 C25.9766,38.0298 27.6201,31.4441 36.1578,28.0742 " fill="#FEFECE" style="stroke: #000000; stroke-width: 1.5;"/><text fill="#000000" font-family="sans-serif" font-size="14" lengthAdjust="spacingAndGlyphs" textLength="65" x="41.5" y="48.3125">Mendalay</text><!--MD5=[c9c84144562f02637ce26622b6d20e46]
entity OSF--><path d="M1326.6278,134.7276 C1332.5361,124.5418 1338.668,120.7715 1348.1757,130.9119 C1356.6199,123.8864 1362.5994,124.8653 1368.0438,134.4912 C1376.9346,134.709 1380.5719,142.1475 1375.5339,149.3749 C1379.5038,158.1262 1378.3414,163.4734 1367.807,165.0958 C1364.135,176.113 1358.1845,178.0544 1348.4421,171.9693 C1338.742,179.9968 1330.5639,176.5534 1326.744,165.3387 C1317.693,163.1103 1315.595,157.7926 1321.5981,150.384 C1314.8601,143.8335 1318.0531,136.3589 1326.6278,134.7276 " fill="#FEFECE" style="stroke: #000000; stroke-width: 1.5;"/><text fill="#000000" font-family="sans-serif" font-size="14" lengthAdjust="spacingAndGlyphs" textLength="27" x="1333.5" y="154.3125">OSF</text><!--MD5=[967b3eb047981efb94e5ecf82b051bf1]
entity QUaltrics--><path d="M167.1828,28.6405 C169.4959,22.1851 175.7102,21.1661 179.6779,26.9516 C182.5283,21.0648 187.6615,20.9094 190.7148,26.7609 C193.9009,19.5304 199.6841,19.2874 204.6507,24.8163 C209.3682,19.7403 213.7447,21.6614 215.6992,27.5903 C219.8365,21.7691 226.1988,21.9025 230.0741,27.9086 C234.5513,21.8743 239.5238,24.0476 242.3026,29.6876 C250.1226,31.7026 252.1984,36.0575 248.2181,43.2278 C254.1367,50.937 251.6378,58.1535 241.7482,59.6254 C239.6867,67.2386 234.0419,68.3965 228.784,62.7506 C225.4447,68.4924 221.9683,70.0815 217.0943,64.3086 C214.8862,70.8428 208.9193,71.6223 204.6557,66.5025 C200.3466,73.0842 193.4643,72.6208 190.4532,65.1872 C185.8825,69.5359 180.2361,68.6821 178.2137,62.2848 C173.4625,68.2155 168.4195,67.3016 165.7157,60.3053 C155.2744,58.7548 151.5163,53.525 157.2116,43.7069 C153.6488,35.6474 156.4255,27.2229 167.1828,28.6405 " fill="#FEFECE" style="stroke: #000000; stroke-width: 1.5;"/><text fill="#000000" font-family="sans-serif" font-size="14" lengthAdjust="spacingAndGlyphs" textLength="62" x="172" y="48.3125">QUaltrics</text><!--MD5=[dcaa8c3c24e2e5de28ef95eba731723a]
entity ReclaimHosting--><path d="M292.0587,28.2964 C295.9412,22.748 300.8261,22.9358 304.6634,28.3483 C308.3565,22.5716 312.0624,22.4393 316.546,27.4799 C320.8818,22.0266 324.5329,21.2918 328.4633,27.8811 C332.1675,21.4441 336.6292,19.425 342.1226,26.0033 C345.0517,20.7339 349.3269,20.4331 352.9124,25.305 C356.5144,19.8255 362.1073,19.5483 364.8097,26.188 C368.8954,20.2672 373.2676,20.5404 377.19,26.3603 C380.6771,21.3463 386.3592,21.1742 389.0405,27.2235 C392.9343,21.1623 397.7245,20.8993 401.5433,27.2988 C405.5425,23.1209 408.7815,22.7409 412.095,28.0605 C420.1892,32.341 420.2744,37.3859 414.6468,43.8799 C421.9091,48.6941 421.0236,54.8961 413.7536,58.8429 C411.0209,64.4353 406.1247,65.474 401.5639,61.0725 C398.5229,67.8882 394.3827,68.6894 388.8569,63.761 C385.5706,71.0047 381.426,71.3214 376.3102,65.5206 C374.427,71.0373 369.1368,71.7626 365.6335,67.2444 C362.6884,73.4934 356.2546,73.8801 352.6952,67.894 C348.8893,73.6868 343.086,73.0146 341.0405,66.2589 C337.4614,72.0936 331.3212,72.1485 328.6767,65.3447 C324.6804,70.2121 320.0359,69.0786 317.8252,63.4914 C312.5725,68.7671 306.5711,68.0056 304.0875,60.5122 C299.9033,64.9035 295.9165,63.5749 293.855,58.2718 C283.8444,59.4114 278.4249,54.4026 282.7926,44.2215 C277.5844,35.7992 281.6194,27.6141 292.0587,28.2964 " fill="#FEFECE" style="stroke: #000000; stroke-width: 1.5;"/><text fill="#000000" font-family="sans-serif" font-size="14" lengthAdjust="spacingAndGlyphs" textLength="106" x="299" y="48.3125">ReclaimHosting</text><!--MD5=[d68911feb9a4cc9e5fb1cbb04522615c]
entity Refworks--><path d="M463.8558,29.8952 C467.6328,22.6227 472.0181,21.4133 477.8656,27.7664 C480.9916,21.2857 486.1872,20.6296 491.0285,25.8342 C494.6776,19.8366 499.078,19.0584 503.5518,24.9667 C508.2304,19.5445 513.0902,21.9024 514.8567,27.8597 C518.8876,21.7454 524.0018,22.5246 527.6884,28.2333 C531.5185,22.6555 537.9779,22.6298 540.8549,29.2609 C548.1642,33.9211 548.0509,38.5736 542.1925,44.3973 C548.2245,48.4691 549.9506,55.0411 542.0478,58.9747 C538.6071,65.6903 534.2383,67.0938 528.817,61.0243 C526.6251,67.1317 520.6494,69.6538 515.7989,63.9561 C512.316,71.3351 507.8405,72.8839 502.1226,66.1168 C496.9731,71.4746 493.3636,70.541 490.706,63.771 C485.4871,70.3006 480.1187,67.7781 477.1485,61.4077 C472.9553,67.1556 467.9782,67.0857 464.8662,60.3445 C456.022,57.2527 455.6426,50.7834 462.0161,44.8859 C456.138,38.9688 455.4272,34.0567 463.8558,29.8952 " fill="#FEFECE" style="stroke: #000000; stroke-width: 1.5;"/><text fill="#000000" font-family="sans-serif" font-size="14" lengthAdjust="spacingAndGlyphs" textLength="63" x="470.5" y="48.3125">Refworks</text><!--MD5=[f610e5df83326142b25d66e5fd636ba3]
entity Tableau--><path d="M41.2718,134.6579 C44.323,129.6853 48.2012,129.4198 51.9641,133.8485 C55.0281,127.7457 59.3213,127.8399 63.5188,132.6481 C66.3929,127.3917 70.6053,126.9169 74.1433,131.9634 C77.8455,127.0971 81.6558,126.0086 85.5967,131.7044 C90.594,126.5096 94.7775,126.6649 97.574,133.836 C101.5882,128.7281 106.1936,129.0013 109.8365,134.2745 C117.2154,137.1388 118.9552,144.5408 112.597,149.8411 C118.4415,156.2755 118.2905,161.3893 110.2511,165.7803 C108.3327,171.8704 102.8665,172.2846 99.1536,167.6346 C96.2603,175.8328 91.8393,176.8741 85.7619,170.5761 C84.8678,176.2335 80.2371,178.4151 75.3875,175.2029 C70.829,179.3419 65.606,178.7937 63.6835,172.3011 C57.2118,177.0622 54.0297,174.4427 51.8706,167.8243 C47.7026,172.2218 42.694,171.7501 40.0627,166.0308 C30.356,165.0326 27.1333,157.7644 33.7799,150.2539 C27.6106,141.2414 30.7054,135.631 41.2718,134.6579 " fill="#FEFECE" style="stroke: #000000; stroke-width: 1.5;"/><text fill="#000000" font-family="sans-serif" font-size="14" lengthAdjust="spacingAndGlyphs" textLength="55" x="46.5" y="154.3125">Tableau</text><!--MD5=[7ccef2e7b7ebcd56969e277d03852c8a]
entity Zotero--><path d="M160.2979,135.3811 C163.0356,126.8359 170.8058,125.8523 175.8155,133.1566 C179.0289,126.6546 186.4713,125.6504 190.9645,131.5994 C195.0089,125.5467 201.9828,125.4149 205.4534,132.2448 C210.7051,127.3889 217.0746,129.2431 219.319,135.8747 C227.1627,138.0248 230.3914,144.7317 223.2666,150.8322 C228.8234,157.3213 227.7123,162.1738 219.8114,165.4908 C216.1455,173.6228 211.5103,176.0209 204.1278,169.4572 C203.075,178.2036 198.8221,180.4323 191.1666,175.9037 C183.5418,181.916 177.2641,179.568 176.2192,169.7074 C169.2144,174.6249 163.9021,172.3496 161.3571,164.5112 C154.0362,161.2095 152.464,154.7361 158.6462,149.0646 C151.8355,144.0486 152.6032,138.6461 160.2979,135.3811 " fill="#FEFECE" style="stroke: #000000; stroke-width: 1.5;"/><text fill="#000000" font-family="sans-serif" font-size="14" lengthAdjust="spacingAndGlyphs" textLength="45" x="166.5" y="154.3125">Zotero</text><!--MD5=[df181aa576612a72703a6c867269837f]
entity NP--><polygon fill="#FEFECE" filter="url(#f6wc1ax9wrlqy)" points="262,135.7773,272,125.7773,382,125.7773,382,162.2656,372,172.2656,262,172.2656,262,135.7773" style="stroke: #000000; stroke-width: 1.5;"/><line style="stroke: #000000; stroke-width: 1.5;" x1="372" x2="381" y1="135.7773" y2="126.7773"/><line style="stroke: #000000; stroke-width: 1.5;" x1="262" x2="372" y1="135.7773" y2="135.7773"/><line style="stroke: #000000; stroke-width: 1.5;" x1="372" x2="372" y1="135.7773" y2="172.2656"/><text fill="#000000" font-family="sans-serif" font-size="14" lengthAdjust="spacingAndGlyphs" textLength="80" x="277" y="159.3125">Notepad++</text><!--MD5=[c4f5f21bee7e3c61d61da351dbdb2a2c]
entity OxygenXML--><polygon fill="#FEFECE" filter="url(#f6wc1ax9wrlqy)" points="417.5,135.7773,427.5,125.7773,538.5,125.7773,538.5,162.2656,528.5,172.2656,417.5,172.2656,417.5,135.7773" style="stroke: #000000; stroke-width: 1.5;"/><line style="stroke: #000000; stroke-width: 1.5;" x1="528.5" x2="537.5" y1="135.7773" y2="126.7773"/><line style="stroke: #000000; stroke-width: 1.5;" x1="417.5" x2="528.5" y1="135.7773" y2="135.7773"/><line style="stroke: #000000; stroke-width: 1.5;" x1="528.5" x2="528.5" y1="135.7773" y2="172.2656"/><text fill="#000000" font-family="sans-serif" font-size="14" lengthAdjust="spacingAndGlyphs" textLength="81" x="432.5" y="159.3125">OxygenXML</text><!--MD5=[78f8faef3fd0554b587e155ac47c93aa]
entity PDFAnnotator--><polygon fill="#FEFECE" filter="url(#f6wc1ax9wrlqy)" points="6,241.7773,16,231.7773,142,231.7773,142,268.2656,132,278.2656,6,278.2656,6,241.7773" style="stroke: #000000; stroke-width: 1.5;"/><line style="stroke: #000000; stroke-width: 1.5;" x1="132" x2="141" y1="241.7773" y2="232.7773"/><line style="stroke: #000000; stroke-width: 1.5;" x1="6" x2="132" y1="241.7773" y2="241.7773"/><line style="stroke: #000000; stroke-width: 1.5;" x1="132" x2="132" y1="241.7773" y2="278.2656"/><text fill="#000000" font-family="sans-serif" font-size="14" lengthAdjust="spacingAndGlyphs" textLength="96" x="21" y="265.3125">PDFAnnotator</text><!--MD5=[4410a6497a77038ffb56c75e6ffafee9]
entity VSCode--><polygon fill="#FEFECE" filter="url(#f6wc1ax9wrlqy)" points="177.5,241.7773,187.5,231.7773,270.5,231.7773,270.5,268.2656,260.5,278.2656,177.5,278.2656,177.5,241.7773" style="stroke: #000000; stroke-width: 1.5;"/><line style="stroke: #000000; stroke-width: 1.5;" x1="260.5" x2="269.5" y1="241.7773" y2="232.7773"/><line style="stroke: #000000; stroke-width: 1.5;" x1="177.5" x2="260.5" y1="241.7773" y2="241.7773"/><line style="stroke: #000000; stroke-width: 1.5;" x1="260.5" x2="260.5" y1="241.7773" y2="278.2656"/><text fill="#000000" font-family="sans-serif" font-size="14" lengthAdjust="spacingAndGlyphs" textLength="53" x="192.5" y="265.3125">VSCode</text><!--MD5=[5e28904cfe1c649a71fa9ba5e99b96e2]
entity Excel--><polygon fill="#FEFECE" filter="url(#f6wc1ax9wrlqy)" points="306,241.7773,316,231.7773,382,231.7773,382,268.2656,372,278.2656,306,278.2656,306,241.7773" style="stroke: #000000; stroke-width: 1.5;"/><line style="stroke: #000000; stroke-width: 1.5;" x1="372" x2="381" y1="241.7773" y2="232.7773"/><line style="stroke: #000000; stroke-width: 1.5;" x1="306" x2="372" y1="241.7773" y2="241.7773"/><line style="stroke: #000000; stroke-width: 1.5;" x1="372" x2="372" y1="241.7773" y2="278.2656"/><text fill="#000000" font-family="sans-serif" font-size="14" lengthAdjust="spacingAndGlyphs" textLength="36" x="321" y="265.3125">Excel</text><!--MD5=[b43e967606b105da0844e0dce872e0b3]
entity CurateND--><polygon fill="#FEFECE" filter="url(#f6wc1ax9wrlqy)" points="1534.5,129.2773,1609.5,129.2773,1616.5,151.7656,1633.5,151.7656,1633.5,168.7656,1534.5,168.7656,1534.5,129.2773" style="stroke: #000000; stroke-width: 1.5;"/><line style="stroke: #000000; stroke-width: 1.5;" x1="1534.5" x2="1616.5" y1="151.7656" y2="151.7656"/><text fill="#000000" font-family="sans-serif" font-size="14" font-weight="bold" lengthAdjust="spacingAndGlyphs" textLength="69" x="1538.5" y="145.8125">CurateND</text><!--MD5=[6e26648ed93134a0ab85a2dde79bf30b]
entity FilemakerProp--><polygon fill="#FEFECE" filter="url(#f6wc1ax9wrlqy)" points="417,235.2773,527,235.2773,534,257.7656,551,257.7656,551,274.7656,417,274.7656,417,235.2773" style="stroke: #000000; stroke-width: 1.5;"/><line style="stroke: #000000; stroke-width: 1.5;" x1="417" x2="534" y1="257.7656" y2="257.7656"/><text fill="#000000" font-family="sans-serif" font-size="14" font-weight="bold" lengthAdjust="spacingAndGlyphs" textLength="104" x="421" y="251.8125">FilemakerProp</text><!--MD5=[a690912e05a81cbb7670f6b8ac5b8622]
entity LibGuids--><polygon fill="#FEFECE" filter="url(#f6wc1ax9wrlqy)" points="1999.5,129.2773,2068.5,129.2773,2075.5,151.7656,2092.5,151.7656,2092.5,168.7656,1999.5,168.7656,1999.5,129.2773" style="stroke: #000000; stroke-width: 1.5;"/><line style="stroke: #000000; stroke-width: 1.5;" x1="1999.5" x2="2075.5" y1="151.7656" y2="151.7656"/><text fill="#000000" font-family="sans-serif" font-size="14" font-weight="bold" lengthAdjust="spacingAndGlyphs" textLength="63" x="2003.5" y="145.8125">LibGuids</text><!--MD5=[c66f656f509af12be99f130bde419e70]
entity SocialScienceSoftware--><polygon fill="#FEFECE" filter="url(#f6wc1ax9wrlqy)" points="2190.5,29.7773,2200.5,19.7773,2381.5,19.7773,2381.5,56.2656,2371.5,66.2656,2190.5,66.2656,2190.5,29.7773" style="stroke: #000000; stroke-width: 1.5;"/><line style="stroke: #000000; stroke-width: 1.5;" x1="2371.5" x2="2380.5" y1="29.7773" y2="20.7773"/><line style="stroke: #000000; stroke-width: 1.5;" x1="2190.5" x2="2371.5" y1="29.7773" y2="29.7773"/><line style="stroke: #000000; stroke-width: 1.5;" x1="2371.5" x2="2371.5" y1="29.7773" y2="66.2656"/><text fill="#000000" font-family="sans-serif" font-size="14" lengthAdjust="spacingAndGlyphs" textLength="151" x="2205.5" y="53.3125">SocialScienceSoftware</text><!--MD5=[3629bf4a7329bb885aa06fdb8ae3848f]
entity TopicModelingSoftare--><polygon fill="#FEFECE" filter="url(#f6wc1ax9wrlqy)" points="2416.5,29.7773,2426.5,19.7773,2607.5,19.7773,2607.5,56.2656,2597.5,66.2656,2416.5,66.2656,2416.5,29.7773" style="stroke: #000000; stroke-width: 1.5;"/><line style="stroke: #000000; stroke-width: 1.5;" x1="2597.5" x2="2606.5" y1="29.7773" y2="20.7773"/><line style="stroke: #000000; stroke-width: 1.5;" x1="2416.5" x2="2597.5" y1="29.7773" y2="29.7773"/><line style="stroke: #000000; stroke-width: 1.5;" x1="2597.5" x2="2597.5" y1="29.7773" y2="66.2656"/><text fill="#000000" font-family="sans-serif" font-size="14" lengthAdjust="spacingAndGlyphs" textLength="151" x="2431.5" y="53.3125">TopicModelingSoftare</text><!--MD5=[e305b94f00787b4c43625d19ed21af82]
entity JSTor--><path d="M2652.8409,29.0892 C2654.5575,22.3475 2660.4963,20.5872 2664.9764,26.4228 C2668.734,20.1485 2672.8,18.564 2677.8411,25.1377 C2682.2305,20.7185 2686.2607,21.5939 2688.8939,27.0946 C2693.6267,21.5472 2699.7735,22.5393 2701.5991,29.946 C2708.69,33.3339 2710.7146,37.3502 2705.377,44.0639 C2710.6322,49.5535 2709.3211,57.0174 2701.7517,59.4938 C2699.4636,66.9124 2695.7205,68.5818 2689.3521,63.5611 C2687.9187,70.0291 2683.2275,72.6283 2677.5703,68.0772 C2670.8905,74.5197 2666.5277,73.3782 2663.5729,64.6421 C2657.5152,68.811 2652.4584,66.7673 2652.1087,59.1092 C2642.3358,57.9346 2639.5345,52.3273 2643.2033,43.4892 C2638.9542,34.8768 2643.5139,28.6155 2652.8409,29.0892 " fill="#FEFECE" style="stroke: #000000; stroke-width: 1.5;"/><text fill="#000000" font-family="sans-serif" font-size="14" lengthAdjust="spacingAndGlyphs" textLength="36" x="2658" y="48.3125">JSTor</text><!--MD5=[a90d8e899f80d9bcc484bf52d64c4a20]
link JSTor to CSVs--><path d="M2642.8122,64.228 C2613.8492,82.9479 2572.1126,109.9241 2543.6223,128.3385 " fill="none" id="JSTor-&gt;CSVs" style="stroke: #A80036; stroke-width: 1.0; stroke-dasharray: 7.0,7.0;"/><polygon fill="#A80036" points="2539.1675,131.2178,2548.8974,129.6918,2543.3667,128.5037,2544.5548,122.9731,2539.1675,131.2178" style="stroke: #A80036; stroke-width: 1.0;"/><ellipse cx="2593.04" cy="96.3979" fill="#FFFFFF" rx="10" ry="10" style="stroke: #FFFFFF; stroke-width: 1.0;"/><path d="M2583.263,94.2976 A10,10 0 0 0 2590.9398 106.1748" fill="#FFFFFF" style="stroke: #A80036; stroke-width: 1.5;"/><path d="M2602.817,98.4981 A10,10 0 0 0 2595.1402 86.6209" fill="#FFFFFF" style="stroke: #A80036; stroke-width: 1.5;"/><ellipse cx="2593.04" cy="96.3979" fill="#FFFFFF" rx="6" ry="6" style="stroke: #A80036; stroke-width: 1.5;"/><!--MD5=[461c19747b5dee59417aa17cf0bd5fe6]
link TopicModelingSoftare to CSVs--><path d="M2512,65.7777 C2512,83.4357 2512,107.7181 2512,125.4557 " fill="none" id="TopicModelingSoftare-&gt;CSVs" style="stroke: #A80036; stroke-width: 1.0; stroke-dasharray: 7.0,7.0;"/><polygon fill="#A80036" points="2512,130.7358,2516,121.7358,2512,125.7358,2508,121.7358,2512,130.7358" style="stroke: #A80036; stroke-width: 1.0;"/><ellipse cx="2512" cy="95.5869" fill="#FFFFFF" rx="10" ry="10" style="stroke: #FFFFFF; stroke-width: 1.0;"/><path d="M2504.9289,102.658 A10,10 0 0 0 2519.0711 102.658" fill="#FFFFFF" style="stroke: #A80036; stroke-width: 1.5;"/><path d="M2519.0711,88.5158 A10,10 0 0 0 2504.9289 88.5158" fill="#FFFFFF" style="stroke: #A80036; stroke-width: 1.5;"/><ellipse cx="2512" cy="95.5869" fill="#FFFFFF" rx="6" ry="6" style="stroke: #A80036; stroke-width: 1.5;"/><!--MD5=[ec20e54166ecc63a2e85fe5ccef56699]
link SocialScienceSoftware to CSVs--><path d="M2335.0386,65.7777 C2379.0206,86.4064 2442.2784,116.076 2480.0453,133.7897 " fill="none" id="SocialScienceSoftware-&gt;CSVs" style="stroke: #A80036; stroke-width: 1.0; stroke-dasharray: 7.0,7.0;"/><polygon fill="#A80036" points="2484.9741,136.1014,2478.5245,128.6582,2480.4473,133.9782,2475.1273,135.901,2484.9741,136.1014" style="stroke: #A80036; stroke-width: 1.0;"/><ellipse cx="2409.8726" cy="100.8769" fill="#FFFFFF" rx="10" ry="10" style="stroke: #FFFFFF; stroke-width: 1.0;"/><path d="M2413.2718,110.2814 A10,10 0 0 0 2419.2771 97.4776" fill="#FFFFFF" style="stroke: #A80036; stroke-width: 1.5;"/><path d="M2406.4734,91.4723 A10,10 0 0 0 2400.4681 104.2761" fill="#FFFFFF" style="stroke: #A80036; stroke-width: 1.5;"/><ellipse cx="2409.8726" cy="100.8769" fill="#FFFFFF" rx="6" ry="6" style="stroke: #A80036; stroke-width: 1.5;"/><!--MD5=[6b7047a89e5ae34e938225291b2ce4d5]
link DS to Box--><path d="M645,61.2411 C645,77.615 645,101.7785 645,120.5722 " fill="none" id="DS-&gt;Box" style="stroke: #A80036; stroke-width: 1.0; stroke-dasharray: 7.0,7.0;"/><polygon fill="#A80036" points="645,125.7197,649,116.7197,645,120.7197,641,116.7197,645,125.7197" style="stroke: #A80036; stroke-width: 1.0;"/><!--MD5=[eb490b24740f7582ec2e2136da7c556b]
link CDSW to Github--><path d="M1136,61.2411 C1136,77.615 1136,101.7785 1136,120.5722 " fill="none" id="CDSW-&gt;Github" style="stroke: #A80036; stroke-width: 1.0; stroke-dasharray: 7.0,7.0;"/><polygon fill="#A80036" points="1136,125.7197,1140,116.7197,1136,120.7197,1132,116.7197,1136,125.7197" style="stroke: #A80036; stroke-width: 1.0;"/><!--MD5=[ce61da562fc41864f15cbcabb1735a72]
link LRA to CurateND--><path d="M1584,61.2411 C1584,78.591 1584,104.6866 1584,123.8727 " fill="none" id="LRA-&gt;CurateND" style="stroke: #A80036; stroke-width: 1.0; stroke-dasharray: 7.0,7.0;"/><polygon fill="#A80036" points="1584,129.0879,1588,120.0879,1584,124.0879,1580,120.0879,1584,129.0879" style="stroke: #A80036; stroke-width: 1.0;"/><!--MD5=[e32f1c4b37dae784fb00633bd9d01ef0]
link LDWP to OSF--><path d="M1347,61.2411 C1347,77.615 1347,101.7785 1347,120.5722 " fill="none" id="LDWP-&gt;OSF" style="stroke: #A80036; stroke-width: 1.0; stroke-dasharray: 7.0,7.0;"/><polygon fill="#A80036" points="1347,125.7197,1351,116.7197,1347,120.7197,1343,116.7197,1347,125.7197" style="stroke: #A80036; stroke-width: 1.0;"/><!--MD5=[6c9c19a083eedc57898136f5ef2c9981]
link CDSKB to GoogleSites--><path d="M1782.639,61.2411 C1775.161,77.755 1764.0952,102.1921 1755.5544,121.0529 " fill="none" id="CDSKB-&gt;GoogleSites" style="stroke: #A80036; stroke-width: 1.0; stroke-dasharray: 7.0,7.0;"/><polygon fill="#A80036" points="1753.4412,125.7197,1760.7977,119.1713,1755.5038,121.165,1753.5101,115.8711,1753.4412,125.7197" style="stroke: #A80036; stroke-width: 1.0;"/><!--MD5=[6a3ab39ec05d2559c23654431b7c9f6f]
link CDSKB to GoogleSuite--><path d="M1808.2445,61.2411 C1823.9293,78.0349 1847.267,103.0227 1864.9976,122.0071 " fill="none" id="CDSKB-&gt;GoogleSuite" style="stroke: #A80036; stroke-width: 1.0; stroke-dasharray: 7.0,7.0;"/><polygon fill="#A80036" points="1868.4651,125.7197,1865.2455,116.412,1865.0523,122.0656,1859.3988,121.8724,1868.4651,125.7197" style="stroke: #A80036; stroke-width: 1.0;"/><!--MD5=[986680c8eea771e1a90335e62ea04d8a]
link EI to LibCal--><path d="M829.2833,61.2411 C842.1665,77.8949 861.2832,102.6069 875.9229,121.5312 " fill="none" id="EI-&gt;LibCal" style="stroke: #A80036; stroke-width: 1.0; stroke-dasharray: 7.0,7.0;"/><polygon fill="#A80036" points="879.163,125.7197,876.82,116.1536,876.1036,121.765,870.4923,121.0486,879.163,125.7197" style="stroke: #A80036; stroke-width: 1.0;"/><!--MD5=[8e4435d567e30ef27e844ee856060696]
link SI to LibCal--><path d="M965.5425,61.2411 C952.5022,77.8949 933.1523,102.6069 918.3342,121.5312 " fill="none" id="SI-&gt;LibCal" style="stroke: #A80036; stroke-width: 1.0; stroke-dasharray: 7.0,7.0;"/><polygon fill="#A80036" points="915.0545,125.7197,923.7524,121.0996,918.137,121.783,917.4536,116.1676,915.0545,125.7197" style="stroke: #A80036; stroke-width: 1.0;"/><!--MD5=[5b7a2b9d0d740764b5877d23ff4a3293]
link DHW to LibGuids--><path d="M2046,61.2411 C2046,78.591 2046,104.6866 2046,123.8727 " fill="none" id="DHW-&gt;LibGuids" style="stroke: #A80036; stroke-width: 1.0; stroke-dasharray: 7.0,7.0;"/><polygon fill="#A80036" points="2046,129.0879,2050,120.0879,2046,124.0879,2042,120.0879,2046,129.0879" style="stroke: #A80036; stroke-width: 1.0;"/><!--MD5=[13a4675f79cd6656f69f5a48dd927015]
link Mendalay to QUaltrics--><!--MD5=[3fd0ca5be433c9d0f9de092b68517041]
link QUaltrics to ReclaimHosting--><!--MD5=[ad7e7e4e4e9249cbce4e8016a6f866b9]
link ReclaimHosting to Refworks--><!--MD5=[bc96378f6ecdef1289b8c4346fcf2b74]
link Mendalay to Tableau--><!--MD5=[30a56f4204dd79b18591c637ca69078a]
link Tableau to Zotero--><!--MD5=[1ad75b1156b938e4cda143823097b9f4]
link Zotero to NP--><!--MD5=[29a5c22146f59ce3d128b43019291eca]
link NP to OxygenXML--><!--MD5=[ae5c2ffd23ae60a13fae560d610f8f8a]
link Tableau to PDFAnnotator--><!--MD5=[9ec55bb619be81319a2d710e9eaae3ef]
link PDFAnnotator to VSCode--><!--MD5=[7e28acde1884ea5c4359b8c6e2042c49]
link VSCode to Excel--><!--MD5=[91223c0a31451174a94ee67ac359f6e2]
link Excel to FilemakerProp--><!--MD5=[2c2aa5f8b03f8133798a99b09141cd5c]
@startuml

header CDS

collections "Digital Signage" as DS
collections "Equipment Images" as EI
collections "Space Images" as SI
collections "CDS Workshops" as CDSW
collections "Love Data Week Presentations" as LDWP
collections "Library Research Award" as LRA
collections "CDS Knowledge Base" as CDSKB
collections "Digital Humanities Workshop" as DHW
collections "CSVs"

cloud Box
cloud Github
cloud GoogleSites
cloud GoogleSuite
cloud LibCal
cloud Mendalay
cloud OSF
cloud QUaltrics
cloud ReclaimHosting
cloud Refworks
cloud Tableau
cloud Zotero
node "Notepad++" as NP
node OxygenXML
node PDFAnnotator
node VSCode
node Excel
package CurateND
package FilemakerProp
package LibGuids
node SocialScienceSoftware
node TopicModelingSoftare
cloud JSTor

JSTor .(0).> CSVs
TopicModelingSoftare .(0).> CSVs
SocialScienceSoftware .(0).> CSVs

DS ..> Box
CDSW ..> Github
LRA ..> CurateND
LDWP ..> OSF
CDSKB ..> GoogleSites
CDSKB ..> GoogleSuite
EI ..> LibCal
SI ..> LibCal
DHW ..> LibGuids

@enduml

PlantUML version 1.2019.10(Fri Sep 13 16:53:03 EDT 2019)
(GPL source distribution)
Java Runtime: Java(TM) SE Runtime Environment
JVM: Java HotSpot(TM) 64-Bit Server VM
Java Version: 1.8.0_102-b14
Operating System: Mac OS X
Default Encoding: UTF-8
Language: en
Country: US
--></g></svg>