<?xml version="1.0" encoding="UTF-8" standalone="no"?><svg xmlns="http://www.w3.org/2000/svg" xmlns:xlink="http://www.w3.org/1999/xlink" contentScriptType="application/ecmascript" contentStyleType="text/css" height="445px" preserveAspectRatio="none" style="width:2891px;height:445px;" version="1.1" viewBox="0 0 2891 445"
    width="2891px" zoomAndPan="magnify"><defs><filter height="300%" id="ffodg87y9ned0" width="300%" x="-1" y="-1"><feGaussianBlur result="blurOut" stdDeviation="2.0"/><feColorMatrix in="blurOut" result="blurOut2" type="matrix" values="0 0 0 0 0 0 0 0 0 0 0 0 0 0 0 0 0 0 .4 0"/><feOffset dx="4.0" dy="4.0" in="blurOut2" result="blurOut3"/><feBlend in="SourceGraphic" in2="blurOut3" mode="normal"/></filter></defs><g><text fill="#888888" font-family="sans-serif" font-size="10" lengthAdjust="spacingAndGlyphs" textLength="19" x="2860" y="9.668">CDS</text><!--MD5=[1a416c3156d55d9446032ebbee093b81]
entity DS--><rect fill="#FEFECE" filter="url(#ffodg87y9ned0)" height="32.4883" style="stroke: #000000; stroke-width: 1.5;" width="119" x="580" y="28.7773"/><rect fill="#FEFECE" height="32.4883" style="stroke: #000000; stroke-width: 1.5;" width="119" x="576" y="24.7773"/><text fill="#000000" font-family="sans-serif" font-size="14" lengthAdjust="spacingAndGlyphs" textLength="103" x="584" y="46.3125">Digital Signage</text><!--MD5=[36c179afd0391342d2ea187b096c7f2d]
entity EI--><rect fill="#FEFECE" filter="url(#ffodg87y9ned0)" height="32.4883" style="stroke: #000000; stroke-width: 1.5;" width="143" x="738" y="28.7773"/><rect fill="#FEFECE" height="32.4883" style="stroke: #000000; stroke-width: 1.5;" width="143" x="734" y="24.7773"/><text fill="#000000" font-family="sans-serif" font-size="14" lengthAdjust="spacingAndGlyphs" textLength="127" x="742" y="46.3125">Equipment Images</text><!--MD5=[dee3e9b654f3d7f76e059372c4786d0b]
entity SI--><rect fill="#FEFECE" filter="url(#ffodg87y9ned0)" height="32.4883" style="stroke: #000000; stroke-width: 1.5;" width="109" x="920" y="28.7773"/><rect fill="#FEFECE" height="32.4883" style="stroke: #000000; stroke-width: 1.5;" width="109" x="916" y="24.7773"/><text fill="#000000" font-family="sans-serif" font-size="14" lengthAdjust="spacingAndGlyphs" textLength="93" x="924" y="46.3125">Space Images</text><!--MD5=[ce2c25896b04328eee139e6ba849566a]
entity CDSW--><rect fill="#FEFECE" filter="url(#ffodg87y9ned0)" height="32.4883" style="stroke: #000000; stroke-width: 1.5;" width="124" x="1068.5" y="28.7773"/><rect fill="#FEFECE" height="32.4883" style="stroke: #000000; stroke-width: 1.5;" width="124" x="1064.5" y="24.7773"/><text fill="#000000" font-family="sans-serif" font-size="14" lengthAdjust="spacingAndGlyphs" textLength="108" x="1072.5" y="46.3125">CDS Workshops</text><!--MD5=[9aabfbb87dc007831f769c13c472bacb]
entity LDWP--><rect fill="#FEFECE" filter="url(#ffodg87y9ned0)" height="32.4883" style="stroke: #000000; stroke-width: 1.5;" width="219" x="1232" y="28.7773"/><rect fill="#FEFECE" height="32.4883" style="stroke: #000000; stroke-width: 1.5;" width="219" x="1228" y="24.7773"/><text fill="#000000" font-family="sans-serif" font-size="14" lengthAdjust="spacingAndGlyphs" textLength="203" x="1236" y="46.3125">Love Data Week Presentations</text><!--MD5=[63e32a3b762e53322fa756b6df4077c9]
entity LRA--><rect fill="#FEFECE" filter="url(#ffodg87y9ned0)" height="32.4883" style="stroke: #000000; stroke-width: 1.5;" width="177" x="1490" y="28.7773"/><rect fill="#FEFECE" height="32.4883" style="stroke: #000000; stroke-width: 1.5;" width="177" x="1486" y="24.7773"/><text fill="#000000" font-family="sans-serif" font-size="14" lengthAdjust="spacingAndGlyphs" textLength="161" x="1494" y="46.3125">Library Research Award</text><!--MD5=[c3ff2cde42cbc42bfd4da85ed55309c5]
entity CDSKB--><rect fill="#FEFECE" filter="url(#ffodg87y9ned0)" height="32.4883" style="stroke: #000000; stroke-width: 1.5;" width="159" x="1706" y="28.7773"/><rect fill="#FEFECE" height="32.4883" style="stroke: #000000; stroke-width: 1.5;" width="159" x="1702" y="24.7773"/><text fill="#000000" font-family="sans-serif" font-size="14" lengthAdjust="spacingAndGlyphs" textLength="143" x="1710" y="46.3125">CDS Knowledge Base</text><!--MD5=[0f32d9eb3fd357fd857f47470ff3deb8]
entity DHW--><rect fill="#FEFECE" filter="url(#ffodg87y9ned0)" height="32.4883" style="stroke: #000000; stroke-width: 1.5;" width="214" x="1933.5" y="28.7773"/><rect fill="#FEFECE" height="32.4883" style="stroke: #000000; stroke-width: 1.5;" width="214" x="1929.5" y="24.7773"/><text fill="#000000" font-family="sans-serif" font-size="14" lengthAdjust="spacingAndGlyphs" textLength="198" x="1937.5" y="46.3125">Digital Humanities Workshop</text><!--MD5=[527d4281eaa90cfea6d6a79bc2ce2fd3]
entity CSVs--><rect fill="#FEFECE" filter="url(#ffodg87y9ned0)" height="32.4883" style="stroke: #000000; stroke-width: 1.5;" width="50" x="2356.5" y="140.7773"/><rect fill="#FEFECE" height="32.4883" style="stroke: #000000; stroke-width: 1.5;" width="50" x="2352.5" y="136.7773"/><text fill="#000000" font-family="sans-serif" font-size="14" lengthAdjust="spacingAndGlyphs" textLength="34" x="2360.5" y="158.3125">CSVs</text><!--MD5=[c16568e590649fdf03b8baed12c39504]
entity ArchivesSpace--><path d="M2091.9748,253.2591 C2094.4415,247.8422 2098.5232,248.2939 2101.7953,252.4313 C2105.9985,245.9123 2110.4778,247.1365 2114.803,252.2955 C2117.6167,246.0989 2120.9824,246.6936 2125.3549,250.6803 C2128.2101,244.1039 2133.998,244.2971 2137.4959,250.0471 C2139.9139,244.3149 2144.3437,243.6239 2147.9647,248.9034 C2152.6441,244.0502 2156.3178,245.5064 2158.8046,251.1646 C2162.559,246.7374 2165.7615,245.8173 2169.1035,251.5814 C2172.2195,246.4416 2177.6668,246.2508 2180.5844,251.7946 C2183.9106,246.8392 2189.9887,246.2173 2193.0466,252.1031 C2197.7237,247.0184 2201.3023,247.9627 2204.6404,253.5568 C2212.9941,256.8689 2213.9157,262.5861 2208.2503,269.1448 C2213.808,275.3057 2212.3048,281.8175 2203.8978,283.8432 C2200.2441,289.138 2196.3225,289.4887 2192.9194,283.5974 C2190.4997,289.2384 2185.0755,289.6465 2181.6195,284.7039 C2178.5712,289.3231 2174.0037,289.8775 2171.0965,284.5545 C2168.5863,291.7973 2162.8217,290.7424 2158.7015,286.256 C2155.6271,291.4703 2150.9249,292.4072 2146.8079,287.4787 C2143.0123,291.4286 2139.4628,292.0496 2136.6353,286.4476 C2132.4815,291.6264 2128.1111,291.8916 2124.9102,285.4833 C2122.2423,290.7698 2117.419,290.1765 2115.0009,285.2411 C2110.6536,290.1095 2106.004,289.5194 2103.0954,283.6465 C2099.208,288.5198 2093.5251,288.8083 2090.806,282.3765 C2083.6614,279.1156 2081.2345,272.4492 2088.8135,267.249 C2083.9857,261.0714 2083.8762,256.5158 2091.9748,253.2591 " fill="#FEFECE" style="stroke: #000000; stroke-width: 1.5;"/><text fill="#000000" font-family="sans-serif" font-size="14" lengthAdjust="spacingAndGlyphs" textLength="98" x="2097.5" y="272.3125">ArchivesSpace</text><!--MD5=[05246e38ea0abb0c8ec71a427895d0b8]
entity Box--><path d="M619.4548,141.673 C623.1698,130.6221 632.0405,129.514 639.1547,138.2966 C645.5048,130.4436 654.8081,129.5458 658.9711,140.5902 C669.1019,139.5093 673.9997,146.4988 668.2628,155.3841 C672.6658,164.7251 669.0722,169.3506 659.526,170.7714 C654.7949,181.9068 647.1063,184.4912 637.879,175.6415 C631.4898,183.9734 622.1109,181.6023 618.7221,172.3691 C608.8751,170.5271 605.9749,164.2844 610.9631,155.5844 C607.1134,147.1778 609.9836,141.9483 619.4548,141.673 " fill="#FEFECE" style="stroke: #000000; stroke-width: 1.5;"/><text fill="#000000" font-family="sans-serif" font-size="14" lengthAdjust="spacingAndGlyphs" textLength="26" x="624.5" y="160.3125">Box</text><!--MD5=[9d9b6460d9c172935a7f9e5b4e58fae0]
entity Github--><path d="M1100.3789,139.8171 C1104.3802,133.1255 1109.4174,132.0087 1114.3025,138.912 C1119.0701,131.9088 1125.0466,131.7882 1130.4233,138.1789 C1136.5186,131.4461 1141.2061,131.7723 1145.5002,139.9947 C1149.6366,133.0281 1154.8534,133.1867 1158.5124,140.4318 C1166.5517,143.7402 1167.6268,149.1857 1162.4034,155.8428 C1168.6279,161.9224 1168.8709,169.6191 1158.8915,172.2252 C1154.6651,178.6791 1149.2821,178.2366 1144.7693,172.5585 C1141.9279,179.6011 1136.0199,181.8941 1130.4679,175.4282 C1125.2222,181.941 1118.5452,181.0145 1115.5704,173.0856 C1109.7276,181.0994 1102.1894,179.0519 1098.641,170.7106 C1090.1145,168.7257 1085.8914,163.2438 1092.3986,155.2061 C1087.0637,146.0552 1090.7715,141.2194 1100.3789,139.8171 " fill="#FEFECE" style="stroke: #000000; stroke-width: 1.5;"/><text fill="#000000" font-family="sans-serif" font-size="14" lengthAdjust="spacingAndGlyphs" textLength="46" x="1105.5" y="160.3125">Github</text><!--MD5=[810d3db0f669efce0419c4627c04176f]
entity GoogleDrive--><path d="M2267.3807,390.2615 C2271.699,385.1616 2275.3071,384.3644 2279.3077,390.596 C2282.4728,383.3527 2288.0243,382.656 2292.4713,389.3887 C2295.8474,384.4193 2301.078,382.7061 2304.5281,389.3117 C2306.8307,381.999 2312.4861,380.3742 2317.4942,386.7488 C2321.2089,382.3732 2326.4729,382.0868 2328.7959,388.2422 C2333.1626,383.1098 2336.7693,382.5112 2340.2937,389.0706 C2345.6044,384.1199 2350.5403,384.4235 2354.0663,391.1717 C2357.8006,385.9311 2363.0011,384.7751 2366.402,391.5149 C2376.201,392.1986 2379.5652,396.6757 2375.5967,406.0615 C2378.3715,415.4203 2376.0492,421.831 2364.9146,421.6713 C2361.821,427.7601 2357.7045,428.471 2353.6449,422.58 C2351.2277,429.7269 2346.386,429.3902 2341.8264,424.7232 C2338.1424,431.5563 2333.9276,431.3928 2328.667,426.4913 C2325.4893,431.2353 2321.1405,432.018 2317.3973,427.1547 C2312.9374,432.977 2308.7239,433.216 2304.1091,427.3306 C2298.9467,433.0299 2294.0233,431.9102 2291.5396,424.7186 C2286.6807,429.2063 2283.0768,428.2569 2280.673,422.1908 C2276.1112,426.9425 2272.0832,427.1736 2268.3268,421.2585 C2260.5522,419.464 2257.7201,413.7311 2262.6615,406.9144 C2257.2566,399.6218 2258.2219,393.4269 2267.3807,390.2615 " fill="#FEFECE" style="stroke: #000000; stroke-width: 1.5;"/><text fill="#000000" font-family="sans-serif" font-size="14" lengthAdjust="spacingAndGlyphs" textLength="84" x="2273.5" y="410.3125">GoogleDrive</text><!--MD5=[ba04cb2c49dc955c688a5868a138bde8]
entity GoogleSites--><path d="M1689.9617,140.8976 C1693.6914,134.4369 1697.5998,135.0216 1701.8696,140.3521 C1705.1039,135.3969 1709.6039,134.8181 1713.1801,139.9693 C1716.7421,134.7407 1720.6081,132.921 1725.1999,138.861 C1729.175,132.9468 1732.8681,132.4616 1737.5217,138.1398 C1741.8572,133.1908 1746.1548,132.8939 1749.178,139.4673 C1753.3246,134.7919 1756.8147,134.6158 1760.7542,139.7125 C1764.2577,134.2158 1768.5107,133.5667 1772.0214,139.7055 C1776.3315,134.6566 1782.3111,134.1361 1785.1172,141.3162 C1794.0571,143.2697 1794.8451,150.6355 1788.6146,156.1627 C1795.038,162.3979 1793.1164,169.435 1784.8008,172.1552 C1781.8721,178.6704 1776.8511,178.832 1772.7192,173.3688 C1770.1067,178.4475 1765.1697,179.4493 1761.218,174.9824 C1757.9539,181.804 1753.6286,183.9118 1747.4877,178.1118 C1744.4021,184.4986 1740.9,184.004 1736.5457,179.3715 C1731.9707,184.4399 1728.0941,185.0879 1724.3665,178.487 C1719.5695,182.3268 1716.1578,181.8973 1713.1526,176.3473 C1708.1539,182.835 1703.2739,182.097 1700.2778,174.5148 C1695.391,179.6695 1690.5682,176.6018 1688.9878,171.0336 C1680.4156,167.8671 1679.1954,162.4045 1685.1888,155.6427 C1679.7357,149.3242 1680.9285,142.5269 1689.9617,140.8976 " fill="#FEFECE" style="stroke: #000000; stroke-width: 1.5;"/><text fill="#000000" font-family="sans-serif" font-size="14" lengthAdjust="spacingAndGlyphs" textLength="81" x="1695" y="160.3125">GoogleSites</text><!--MD5=[332a7ba02eb8ee657e2b7f7b6b10b792]
entity GoogleSuite--><path d="M1835.2157,140.5883 C1838.4218,135.5811 1843.9614,135.8198 1846.8776,140.9227 C1849.9232,134.332 1854.5983,134.3957 1858.9194,139.6231 C1862.3688,132.6869 1867.733,133.4769 1872.1478,138.5606 C1875.0062,133.0216 1880.8518,132.4292 1884.54,137.6004 C1887.8694,132.5939 1893.3248,133.1566 1895.4661,138.8173 C1899.3834,133.5673 1904.8996,133.9947 1908.328,139.4071 C1912.0809,134.0098 1916.9209,133.7316 1920.6248,139.4613 C1925.3793,134.9541 1928.7835,135.8958 1931.0606,141.917 C1939.1519,145.2062 1941.6949,149.6896 1935.1598,156.9636 C1939.3984,163.0822 1939.8282,167.5832 1931.5248,170.2777 C1928.3352,177.2947 1924.5695,178.3427 1919.1354,172.428 C1916.4183,178.1348 1911.3058,177.9384 1908.079,172.9552 C1905.1854,178.9536 1900.3299,179.0094 1896.4016,174.0588 C1893.6937,180.0663 1887.8448,180.6236 1883.7114,175.7161 C1879.0503,180.8731 1874.3314,179.8601 1871.0381,174.1247 C1867.5786,179.2937 1863.296,179.8565 1859.4945,174.4997 C1855.6222,179.6033 1849.5886,179.5886 1846.9809,173.1309 C1843.358,177.765 1837.336,178.2933 1835.1617,171.617 C1825.6961,170.3981 1821.7944,165.0632 1827.4737,156.2616 C1822.2591,147.4652 1824.6882,141.6087 1835.2157,140.5883 " fill="#FEFECE" style="stroke: #000000; stroke-width: 1.5;"/><text fill="#000000" font-family="sans-serif" font-size="14" lengthAdjust="spacingAndGlyphs" textLength="83" x="1841" y="160.3125">GoogleSuite</text><!--MD5=[e305b94f00787b4c43625d19ed21af82]
entity JSTor--><path d="M2192.3409,29.0892 C2194.0575,22.3475 2199.9963,20.5872 2204.4764,26.4228 C2208.234,20.1485 2212.3,18.564 2217.3411,25.1377 C2221.7305,20.7185 2225.7607,21.5939 2228.3939,27.0946 C2233.1267,21.5472 2239.2735,22.5393 2241.0991,29.946 C2248.19,33.3339 2250.2146,37.3502 2244.877,44.0639 C2250.1322,49.5535 2248.8211,57.0174 2241.2517,59.4938 C2238.9636,66.9124 2235.2205,68.5818 2228.8521,63.5611 C2227.4187,70.0291 2222.7275,72.6283 2217.0703,68.0772 C2210.3905,74.5197 2206.0277,73.3782 2203.0729,64.6421 C2197.0152,68.811 2191.9584,66.7673 2191.6087,59.1092 C2181.8358,57.9346 2179.0345,52.3273 2182.7033,43.4892 C2178.4542,34.8768 2183.0139,28.6155 2192.3409,29.0892 " fill="#FEFECE" style="stroke: #000000; stroke-width: 1.5;"/><text fill="#000000" font-family="sans-serif" font-size="14" lengthAdjust="spacingAndGlyphs" textLength="36" x="2197.5" y="48.3125">JSTor</text><!--MD5=[f278ec8c8040f1972ff3360856b98eac]
entity LibCal--><path d="M861.8869,141.3985 C865.9692,133.3542 870.6354,134.4401 876.0184,140.0526 C879.2051,131.6708 884.2943,132.7779 889.9018,137.4848 C894.3719,131.5436 900.9047,133.211 903.696,139.3946 C909.4596,132.1924 914.1783,133.0621 918.6368,140.7079 C927.8712,143.9458 927.3353,149.2277 922.4524,155.9902 C929.6024,162.7055 928.7281,167.973 919.5983,171.7376 C917.6138,180.0323 910.3582,181.4066 904.4912,176.0269 C903.4515,184.634 896.988,186.0434 890.4695,182.1942 C882.9919,187.3283 878.7693,183.8252 876.9721,176.1899 C870.6369,181.6921 865.0251,181.0362 862.2861,172.443 C852.263,171.0763 851.7762,162.3094 857.2017,156.1282 C851.3261,149.4999 853.0008,143.3314 861.8869,141.3985 " fill="#FEFECE" style="stroke: #000000; stroke-width: 1.5;"/><text fill="#000000" font-family="sans-serif" font-size="14" lengthAdjust="spacingAndGlyphs" textLength="42" x="868.5" y="160.3125">LibCal</text><!--MD5=[f6194fb04e8f4e47d30205f5ca7732c0]
entity Mendalay--><path d="M28.6578,28.0742 C32.4925,23.0725 37.5542,23.0509 40.9525,28.5835 C43.2371,21.8622 49.0836,19.8365 54.1054,25.7294 C58.3183,19.8459 63.955,17.9149 68.4244,25.4559 C72.6165,21.2079 77.5,21.5538 79.9284,27.455 C85.222,20.9228 89.4585,20.7223 93.55,28.592 C97.6868,23.1245 103.3373,23.0344 106.7951,29.3549 C115.8572,30.502 117.751,38.2133 112.7569,44.7897 C118.1058,52.0401 114.9508,57.3504 106.5585,58.293 C103.6193,64.8615 99.0236,66.8962 93.3943,61.1744 C89.9799,66.6378 86.4713,67.2626 81.6452,62.8546 C77.8772,69.9097 72.7172,71.396 66.8834,65.1467 C62.672,70.9922 58.2977,70.1697 55.3661,63.9272 C49.5782,69.9736 43.9756,70.0366 40.6119,61.4783 C36.4894,66.298 31.3004,64.5793 29.0548,59.325 C20.2279,57.8527 19.4139,51.0036 24.3983,45.0318 C18.4766,38.0298 20.1201,31.4441 28.6578,28.0742 " fill="#FEFECE" style="stroke: #000000; stroke-width: 1.5;"/><text fill="#000000" font-family="sans-serif" font-size="14" lengthAdjust="spacingAndGlyphs" textLength="65" x="34" y="48.3125">Mendalay</text><!--MD5=[c9c84144562f02637ce26622b6d20e46]
entity OSF--><path d="M1319.1278,140.7276 C1325.0361,130.5418 1331.168,126.7715 1340.6757,136.9119 C1349.1199,129.8864 1355.0994,130.8653 1360.5438,140.4912 C1369.4346,140.709 1373.0719,148.1475 1368.0339,155.3749 C1372.0038,164.1262 1370.8414,169.4734 1360.307,171.0958 C1356.635,182.113 1350.6845,184.0544 1340.9421,177.9693 C1331.242,185.9968 1323.0639,182.5534 1319.244,171.3387 C1310.193,169.1103 1308.095,163.7926 1314.0981,156.384 C1307.3601,149.8335 1310.5531,142.3589 1319.1278,140.7276 " fill="#FEFECE" style="stroke: #000000; stroke-width: 1.5;"/><text fill="#000000" font-family="sans-serif" font-size="14" lengthAdjust="spacingAndGlyphs" textLength="27" x="1326" y="160.3125">OSF</text><!--MD5=[967b3eb047981efb94e5ecf82b051bf1]
entity QUaltrics--><path d="M159.6828,28.6405 C161.9959,22.1851 168.2102,21.1661 172.1779,26.9516 C175.0283,21.0648 180.1615,20.9094 183.2148,26.7609 C186.4009,19.5304 192.1841,19.2874 197.1507,24.8163 C201.8682,19.7403 206.2447,21.6614 208.1992,27.5903 C212.3365,21.7691 218.6988,21.9025 222.5741,27.9086 C227.0513,21.8743 232.0238,24.0476 234.8026,29.6876 C242.6226,31.7026 244.6984,36.0575 240.7181,43.2278 C246.6367,50.937 244.1378,58.1535 234.2482,59.6254 C232.1867,67.2386 226.5419,68.3965 221.284,62.7506 C217.9447,68.4924 214.4683,70.0815 209.5943,64.3086 C207.3862,70.8428 201.4193,71.6223 197.1557,66.5025 C192.8466,73.0842 185.9643,72.6208 182.9532,65.1872 C178.3825,69.5359 172.7361,68.6821 170.7137,62.2848 C165.9625,68.2155 160.9195,67.3016 158.2157,60.3053 C147.7744,58.7548 144.0163,53.525 149.7116,43.7069 C146.1488,35.6474 148.9255,27.2229 159.6828,28.6405 " fill="#FEFECE" style="stroke: #000000; stroke-width: 1.5;"/><text fill="#000000" font-family="sans-serif" font-size="14" lengthAdjust="spacingAndGlyphs" textLength="62" x="164.5" y="48.3125">QUaltrics</text><!--MD5=[dcaa8c3c24e2e5de28ef95eba731723a]
entity ReclaimHosting--><path d="M284.5587,28.2964 C288.4412,22.748 293.3261,22.9358 297.1634,28.3483 C300.8565,22.5716 304.5624,22.4393 309.046,27.4799 C313.3818,22.0266 317.0329,21.2918 320.9633,27.8811 C324.6675,21.4441 329.1292,19.425 334.6226,26.0033 C337.5517,20.7339 341.8269,20.4331 345.4124,25.305 C349.0144,19.8255 354.6073,19.5483 357.3097,26.188 C361.3954,20.2672 365.7676,20.5404 369.69,26.3603 C373.1771,21.3463 378.8592,21.1742 381.5405,27.2235 C385.4343,21.1623 390.2245,20.8993 394.0433,27.2988 C398.0425,23.1209 401.2815,22.7409 404.595,28.0605 C412.6892,32.341 412.7744,37.3859 407.1468,43.8799 C414.4091,48.6941 413.5236,54.8961 406.2536,58.8429 C403.5209,64.4353 398.6247,65.474 394.0639,61.0725 C391.0229,67.8882 386.8827,68.6894 381.3569,63.761 C378.0706,71.0047 373.926,71.3214 368.8102,65.5206 C366.927,71.0373 361.6368,71.7626 358.1335,67.2444 C355.1884,73.4934 348.7546,73.8801 345.1952,67.894 C341.3893,73.6868 335.586,73.0146 333.5405,66.2589 C329.9614,72.0936 323.8212,72.1485 321.1767,65.3447 C317.1804,70.2121 312.5359,69.0786 310.3252,63.4914 C305.0725,68.7671 299.0711,68.0056 296.5875,60.5122 C292.4033,64.9035 288.4165,63.5749 286.355,58.2718 C276.3444,59.4114 270.9249,54.4026 275.2926,44.2215 C270.0844,35.7992 274.1194,27.6141 284.5587,28.2964 " fill="#FEFECE" style="stroke: #000000; stroke-width: 1.5;"/><text fill="#000000" font-family="sans-serif" font-size="14" lengthAdjust="spacingAndGlyphs" textLength="106" x="291.5" y="48.3125">ReclaimHosting</text><!--MD5=[d68911feb9a4cc9e5fb1cbb04522615c]
entity Refworks--><path d="M456.3558,29.8952 C460.1328,22.6227 464.5181,21.4133 470.3656,27.7664 C473.4916,21.2857 478.6872,20.6296 483.5285,25.8342 C487.1776,19.8366 491.578,19.0584 496.0518,24.9667 C500.7304,19.5445 505.5902,21.9024 507.3567,27.8597 C511.3876,21.7454 516.5018,22.5246 520.1884,28.2333 C524.0185,22.6555 530.4779,22.6298 533.3549,29.2609 C540.6642,33.9211 540.5509,38.5736 534.6925,44.3973 C540.7245,48.4691 542.4506,55.0411 534.5478,58.9747 C531.1071,65.6903 526.7383,67.0938 521.317,61.0243 C519.1251,67.1317 513.1494,69.6538 508.2989,63.9561 C504.816,71.3351 500.3405,72.8839 494.6226,66.1168 C489.4731,71.4746 485.8636,70.541 483.206,63.771 C477.9871,70.3006 472.6187,67.7781 469.6485,61.4077 C465.4553,67.1556 460.4782,67.0857 457.3662,60.3445 C448.522,57.2527 448.1426,50.7834 454.5161,44.8859 C448.638,38.9688 447.9272,34.0567 456.3558,29.8952 " fill="#FEFECE" style="stroke: #000000; stroke-width: 1.5;"/><text fill="#000000" font-family="sans-serif" font-size="14" lengthAdjust="spacingAndGlyphs" textLength="63" x="463" y="48.3125">Refworks</text><!--MD5=[f610e5df83326142b25d66e5fd636ba3]
entity Tableau--><path d="M33.7718,140.6579 C36.823,135.6853 40.7012,135.4198 44.4641,139.8485 C47.5281,133.7457 51.8213,133.8399 56.0188,138.6481 C58.8929,133.3917 63.1053,132.9169 66.6433,137.9634 C70.3455,133.0971 74.1558,132.0086 78.0967,137.7044 C83.094,132.5096 87.2775,132.6649 90.074,139.836 C94.0882,134.7281 98.6936,135.0013 102.3365,140.2745 C109.7154,143.1388 111.4552,150.5408 105.097,155.8411 C110.9415,162.2755 110.7905,167.3893 102.7511,171.7803 C100.8327,177.8704 95.3665,178.2846 91.6536,173.6346 C88.7603,181.8328 84.3393,182.8741 78.2619,176.5761 C77.3678,182.2335 72.7371,184.4151 67.8875,181.2029 C63.329,185.3419 58.106,184.7937 56.1835,178.3011 C49.7118,183.0622 46.5297,180.4427 44.3706,173.8243 C40.2026,178.2218 35.194,177.7501 32.5627,172.0308 C22.856,171.0326 19.6333,163.7644 26.2799,156.2539 C20.1106,147.2414 23.2054,141.631 33.7718,140.6579 " fill="#FEFECE" style="stroke: #000000; stroke-width: 1.5;"/><text fill="#000000" font-family="sans-serif" font-size="14" lengthAdjust="spacingAndGlyphs" textLength="55" x="39" y="160.3125">Tableau</text><!--MD5=[7ccef2e7b7ebcd56969e277d03852c8a]
entity Zotero--><path d="M152.7979,141.3811 C155.5356,132.8359 163.3058,131.8523 168.3155,139.1566 C171.5289,132.6546 178.9713,131.6504 183.4645,137.5994 C187.5089,131.5467 194.4828,131.4149 197.9534,138.2448 C203.2051,133.3889 209.5746,135.2431 211.819,141.8747 C219.6627,144.0248 222.8914,150.7317 215.7666,156.8322 C221.3234,163.3213 220.2123,168.1738 212.3114,171.4908 C208.6455,179.6228 204.0103,182.0209 196.6278,175.4572 C195.575,184.2036 191.3221,186.4323 183.6666,181.9037 C176.0418,187.916 169.7641,185.568 168.7192,175.7074 C161.7144,180.6249 156.4021,178.3496 153.8571,170.5112 C146.5362,167.2095 144.964,160.7361 151.1462,155.0646 C144.3355,150.0486 145.1032,144.6461 152.7979,141.3811 " fill="#FEFECE" style="stroke: #000000; stroke-width: 1.5;"/><text fill="#000000" font-family="sans-serif" font-size="14" lengthAdjust="spacingAndGlyphs" textLength="45" x="159" y="160.3125">Zotero</text><!--MD5=[6581bb77afafb02426a8a123e3b0f304]
entity LoadingDock--><polygon fill="#FEFECE" filter="url(#ffodg87y9ned0)" points="2739,126.7773,2785,126.7773,2792,147.7773,2858,147.7773,2858,182.7539,2739,182.7539,2739,126.7773" style="stroke: #000000; stroke-width: 1.5;"/><line style="stroke: #000000; stroke-width: 1.5;" x1="2739" x2="2792" y1="147.7773" y2="147.7773"/><text fill="#000000" font-family="sans-serif" font-size="14" lengthAdjust="spacingAndGlyphs" textLength="89" x="2749" y="168.3125">LoadingDock</text><!--MD5=[df181aa576612a72703a6c867269837f]
entity NP--><polygon fill="#FEFECE" filter="url(#ffodg87y9ned0)" points="254.5,141.7773,264.5,131.7773,374.5,131.7773,374.5,168.2656,364.5,178.2656,254.5,178.2656,254.5,141.7773" style="stroke: #000000; stroke-width: 1.5;"/><line style="stroke: #000000; stroke-width: 1.5;" x1="364.5" x2="373.5" y1="141.7773" y2="132.7773"/><line style="stroke: #000000; stroke-width: 1.5;" x1="254.5" x2="364.5" y1="141.7773" y2="141.7773"/><line style="stroke: #000000; stroke-width: 1.5;" x1="364.5" x2="364.5" y1="141.7773" y2="178.2656"/><text fill="#000000" font-family="sans-serif" font-size="14" lengthAdjust="spacingAndGlyphs" textLength="80" x="269.5" y="165.3125">Notepad++</text><!--MD5=[5e28904cfe1c649a71fa9ba5e99b96e2]
entity Excel--><polygon fill="#FEFECE" filter="url(#ffodg87y9ned0)" points="409.5,141.7773,419.5,131.7773,485.5,131.7773,485.5,168.2656,475.5,178.2656,409.5,178.2656,409.5,141.7773" style="stroke: #000000; stroke-width: 1.5;"/><line style="stroke: #000000; stroke-width: 1.5;" x1="475.5" x2="484.5" y1="141.7773" y2="132.7773"/><line style="stroke: #000000; stroke-width: 1.5;" x1="409.5" x2="475.5" y1="141.7773" y2="141.7773"/><line style="stroke: #000000; stroke-width: 1.5;" x1="475.5" x2="475.5" y1="141.7773" y2="178.2656"/><text fill="#000000" font-family="sans-serif" font-size="14" lengthAdjust="spacingAndGlyphs" textLength="36" x="424.5" y="165.3125">Excel</text><!--MD5=[c4f5f21bee7e3c61d61da351dbdb2a2c]
entity OxygenXML--><polygon fill="#FEFECE" filter="url(#ffodg87y9ned0)" points="6,253.7773,16,243.7773,127,243.7773,127,280.2656,117,290.2656,6,290.2656,6,253.7773" style="stroke: #000000; stroke-width: 1.5;"/><line style="stroke: #000000; stroke-width: 1.5;" x1="117" x2="126" y1="253.7773" y2="244.7773"/><line style="stroke: #000000; stroke-width: 1.5;" x1="6" x2="117" y1="253.7773" y2="253.7773"/><line style="stroke: #000000; stroke-width: 1.5;" x1="117" x2="117" y1="253.7773" y2="290.2656"/><text fill="#000000" font-family="sans-serif" font-size="14" lengthAdjust="spacingAndGlyphs" textLength="81" x="21" y="277.3125">OxygenXML</text><!--MD5=[78f8faef3fd0554b587e155ac47c93aa]
entity PDFAnnotator--><polygon fill="#FEFECE" filter="url(#ffodg87y9ned0)" points="162.5,253.7773,172.5,243.7773,298.5,243.7773,298.5,280.2656,288.5,290.2656,162.5,290.2656,162.5,253.7773" style="stroke: #000000; stroke-width: 1.5;"/><line style="stroke: #000000; stroke-width: 1.5;" x1="288.5" x2="297.5" y1="253.7773" y2="244.7773"/><line style="stroke: #000000; stroke-width: 1.5;" x1="162.5" x2="288.5" y1="253.7773" y2="253.7773"/><line style="stroke: #000000; stroke-width: 1.5;" x1="288.5" x2="288.5" y1="253.7773" y2="290.2656"/><text fill="#000000" font-family="sans-serif" font-size="14" lengthAdjust="spacingAndGlyphs" textLength="96" x="177.5" y="277.3125">PDFAnnotator</text><!--MD5=[c66f656f509af12be99f130bde419e70]
entity SocialScienceSoftware--><polygon fill="#FEFECE" filter="url(#ffodg87y9ned0)" points="2284,29.7773,2294,19.7773,2475,19.7773,2475,56.2656,2465,66.2656,2284,66.2656,2284,29.7773" style="stroke: #000000; stroke-width: 1.5;"/><line style="stroke: #000000; stroke-width: 1.5;" x1="2465" x2="2474" y1="29.7773" y2="20.7773"/><line style="stroke: #000000; stroke-width: 1.5;" x1="2284" x2="2465" y1="29.7773" y2="29.7773"/><line style="stroke: #000000; stroke-width: 1.5;" x1="2465" x2="2465" y1="29.7773" y2="66.2656"/><text fill="#000000" font-family="sans-serif" font-size="14" lengthAdjust="spacingAndGlyphs" textLength="151" x="2299" y="53.3125">SocialScienceSoftware</text><!--MD5=[3629bf4a7329bb885aa06fdb8ae3848f]
entity TopicModelingSoftare--><polygon fill="#FEFECE" filter="url(#ffodg87y9ned0)" points="2510,29.7773,2520,19.7773,2701,19.7773,2701,56.2656,2691,66.2656,2510,66.2656,2510,29.7773" style="stroke: #000000; stroke-width: 1.5;"/><line style="stroke: #000000; stroke-width: 1.5;" x1="2691" x2="2700" y1="29.7773" y2="20.7773"/><line style="stroke: #000000; stroke-width: 1.5;" x1="2510" x2="2691" y1="29.7773" y2="29.7773"/><line style="stroke: #000000; stroke-width: 1.5;" x1="2691" x2="2691" y1="29.7773" y2="66.2656"/><text fill="#000000" font-family="sans-serif" font-size="14" lengthAdjust="spacingAndGlyphs" textLength="151" x="2525" y="53.3125">TopicModelingSoftare</text><!--MD5=[4410a6497a77038ffb56c75e6ffafee9]
entity VSCode--><polygon fill="#FEFECE" filter="url(#ffodg87y9ned0)" points="334,253.7773,344,243.7773,427,243.7773,427,280.2656,417,290.2656,334,290.2656,334,253.7773" style="stroke: #000000; stroke-width: 1.5;"/><line style="stroke: #000000; stroke-width: 1.5;" x1="417" x2="426" y1="253.7773" y2="244.7773"/><line style="stroke: #000000; stroke-width: 1.5;" x1="334" x2="417" y1="253.7773" y2="253.7773"/><line style="stroke: #000000; stroke-width: 1.5;" x1="417" x2="417" y1="253.7773" y2="290.2656"/><text fill="#000000" font-family="sans-serif" font-size="14" lengthAdjust="spacingAndGlyphs" textLength="53" x="349" y="277.3125">VSCode</text><!--MD5=[1ceb51bac461b29dab95711899464a15]
entity Photoshop--><polygon fill="#FEFECE" filter="url(#ffodg87y9ned0)" points="462.5,253.7773,472.5,243.7773,576.5,243.7773,576.5,280.2656,566.5,290.2656,462.5,290.2656,462.5,253.7773" style="stroke: #000000; stroke-width: 1.5;"/><line style="stroke: #000000; stroke-width: 1.5;" x1="566.5" x2="575.5" y1="253.7773" y2="244.7773"/><line style="stroke: #000000; stroke-width: 1.5;" x1="462.5" x2="566.5" y1="253.7773" y2="253.7773"/><line style="stroke: #000000; stroke-width: 1.5;" x1="566.5" x2="566.5" y1="253.7773" y2="290.2656"/><text fill="#000000" font-family="sans-serif" font-size="14" lengthAdjust="spacingAndGlyphs" textLength="74" x="477.5" y="277.3125">Photoshop</text><!--MD5=[46d513d7332d7b50dbdb3694faff361d]
entity Illustrator--><polygon fill="#FEFECE" filter="url(#ffodg87y9ned0)" points="13,391.7773,23,381.7773,120,381.7773,120,418.2656,110,428.2656,13,428.2656,13,391.7773" style="stroke: #000000; stroke-width: 1.5;"/><line style="stroke: #000000; stroke-width: 1.5;" x1="110" x2="119" y1="391.7773" y2="382.7773"/><line style="stroke: #000000; stroke-width: 1.5;" x1="13" x2="110" y1="391.7773" y2="391.7773"/><line style="stroke: #000000; stroke-width: 1.5;" x1="110" x2="110" y1="391.7773" y2="428.2656"/><text fill="#000000" font-family="sans-serif" font-size="14" lengthAdjust="spacingAndGlyphs" textLength="67" x="28" y="415.3125">Illustrator</text><!--MD5=[b43e967606b105da0844e0dce872e0b3]
entity CurateND--><polygon fill="#FEFECE" filter="url(#ffodg87y9ned0)" points="1527,135.2773,1602,135.2773,1609,157.7656,1626,157.7656,1626,174.7656,1527,174.7656,1527,135.2773" style="stroke: #000000; stroke-width: 1.5;"/><line style="stroke: #000000; stroke-width: 1.5;" x1="1527" x2="1609" y1="157.7656" y2="157.7656"/><text fill="#000000" font-family="sans-serif" font-size="14" font-weight="bold" lengthAdjust="spacingAndGlyphs" textLength="69" x="1531" y="151.8125">CurateND</text><!--MD5=[1f076d9164310d22b1a1a4b6a9ac675c]
entity DEC--><polygon fill="#FEFECE" filter="url(#ffodg87y9ned0)" points="2350,247.2773,2385,247.2773,2392,269.7656,2409,269.7656,2409,286.7656,2350,286.7656,2350,247.2773" style="stroke: #000000; stroke-width: 1.5;"/><line style="stroke: #000000; stroke-width: 1.5;" x1="2350" x2="2392" y1="269.7656" y2="269.7656"/><text fill="#000000" font-family="sans-serif" font-size="14" font-weight="bold" lengthAdjust="spacingAndGlyphs" textLength="29" x="2354" y="263.8125">DEC</text><!--MD5=[05d6504756a690cb6bc53c00b3acd81a]
entity FilemakerPro--><polygon fill="#FEFECE" filter="url(#ffodg87y9ned0)" points="2736,23.2773,2837,23.2773,2844,45.7656,2861,45.7656,2861,62.7656,2736,62.7656,2736,23.2773" style="stroke: #000000; stroke-width: 1.5;"/><line style="stroke: #000000; stroke-width: 1.5;" x1="2736" x2="2844" y1="45.7656" y2="45.7656"/><text fill="#000000" font-family="sans-serif" font-size="14" font-weight="bold" lengthAdjust="spacingAndGlyphs" textLength="95" x="2740" y="39.8125">FilemakerPro</text><!--MD5=[a690912e05a81cbb7670f6b8ac5b8622]
entity LibGuids--><polygon fill="#FEFECE" filter="url(#ffodg87y9ned0)" points="1992,135.2773,2061,135.2773,2068,157.7656,2085,157.7656,2085,174.7656,1992,174.7656,1992,135.2773" style="stroke: #000000; stroke-width: 1.5;"/><line style="stroke: #000000; stroke-width: 1.5;" x1="1992" x2="2068" y1="157.7656" y2="157.7656"/><text fill="#000000" font-family="sans-serif" font-size="14" font-weight="bold" lengthAdjust="spacingAndGlyphs" textLength="63" x="1996" y="151.8125">LibGuids</text><!--MD5=[a90d8e899f80d9bcc484bf52d64c4a20]
link JSTor to CSVs--><path d="M2248.6878,65.4422 C2277.9173,85.4037 2320.1567,114.2502 2348.6609,133.7164 " fill="none" id="JSTor-&gt;CSVs" style="stroke: #A80036; stroke-width: 1.0; stroke-dasharray: 7.0,7.0;"/><polygon fill="#A80036" points="2353.1136,136.7573,2347.9373,128.3784,2348.9846,133.9375,2343.4256,134.9848,2353.1136,136.7573" style="stroke: #A80036; stroke-width: 1.0;"/><ellipse cx="2298.9463" cy="99.7651" fill="#FFFFFF" rx="10" ry="10" style="stroke: #FFFFFF; stroke-width: 1.0;"/><path d="M2300.7978,109.5922 A10,10 0 0 0 2308.7734 97.9136" fill="#FFFFFF" style="stroke: #A80036; stroke-width: 1.5;"/><path d="M2297.0949,89.938 A10,10 0 0 0 2289.1192 101.6166" fill="#FFFFFF" style="stroke: #A80036; stroke-width: 1.5;"/><ellipse cx="2298.9463" cy="99.7651" fill="#FFFFFF" rx="6" ry="6" style="stroke: #A80036; stroke-width: 1.5;"/><!--MD5=[461c19747b5dee59417aa17cf0bd5fe6]
link TopicModelingSoftare to CSVs--><path d="M2558.9467,65.848 C2514.7427,87.7543 2449.4989,120.0876 2411.0646,139.1347 " fill="none" id="TopicModelingSoftare-&gt;CSVs" style="stroke: #A80036; stroke-width: 1.0; stroke-dasharray: 7.0,7.0;"/><polygon fill="#A80036" points="2406.5136,141.39,2416.3538,140.9777,2410.9936,139.1698,2412.8015,133.8096,2406.5136,141.39" style="stroke: #A80036; stroke-width: 1.0;"/><ellipse cx="2482.842" cy="103.5636" fill="#FFFFFF" rx="10" ry="10" style="stroke: #FFFFFF; stroke-width: 1.0;"/><path d="M2473.3665,100.3677 A10,10 0 0 0 2479.6461 113.0392" fill="#FFFFFF" style="stroke: #A80036; stroke-width: 1.5;"/><path d="M2492.3176,106.7595 A10,10 0 0 0 2486.0379 94.088" fill="#FFFFFF" style="stroke: #A80036; stroke-width: 1.5;"/><ellipse cx="2482.842" cy="103.5636" fill="#FFFFFF" rx="6" ry="6" style="stroke: #A80036; stroke-width: 1.5;"/><!--MD5=[ec20e54166ecc63a2e85fe5ccef56699]
link SocialScienceSoftware to CSVs--><path d="M2379.5,65.9838 C2379.5,85.1937 2379.5,112.3528 2379.5,131.5645 " fill="none" id="SocialScienceSoftware-&gt;CSVs" style="stroke: #A80036; stroke-width: 1.0; stroke-dasharray: 7.0,7.0;"/><polygon fill="#A80036" points="2379.5,136.7592,2383.5,127.7592,2379.5,131.7592,2375.5,127.7592,2379.5,136.7592" style="stroke: #A80036; stroke-width: 1.0;"/><ellipse cx="2379.5" cy="98.7735" fill="#FFFFFF" rx="10" ry="10" style="stroke: #FFFFFF; stroke-width: 1.0;"/><path d="M2372.4289,105.8446 A10,10 0 0 0 2386.5711 105.8446" fill="#FFFFFF" style="stroke: #A80036; stroke-width: 1.5;"/><path d="M2386.5711,91.7025 A10,10 0 0 0 2372.4289 91.7025" fill="#FFFFFF" style="stroke: #A80036; stroke-width: 1.5;"/><ellipse cx="2379.5" cy="98.7735" fill="#FFFFFF" rx="6" ry="6" style="stroke: #A80036; stroke-width: 1.5;"/><!--MD5=[7ff785a83a278433d95ccd9d85692eae]
link FilemakerPro to LoadingDock--><path d="M2798.5,62.2862 C2798.5,78.5558 2798.5,102.1039 2798.5,121.3675 " fill="none" id="FilemakerPro-&gt;LoadingDock" style="stroke: #A80036; stroke-width: 1.0; stroke-dasharray: 7.0,7.0;"/><polygon fill="#A80036" points="2798.5,126.6776,2802.5,117.6776,2798.5,121.6776,2794.5,117.6776,2798.5,126.6776" style="stroke: #A80036; stroke-width: 1.0;"/><ellipse cx="2798.5" cy="90.7041" fill="#FFFFFF" rx="10" ry="10" style="stroke: #FFFFFF; stroke-width: 1.0;"/><path d="M2791.4289,97.7752 A10,10 0 0 0 2805.5711 97.7752" fill="#FFFFFF" style="stroke: #A80036; stroke-width: 1.5;"/><path d="M2805.5711,83.6331 A10,10 0 0 0 2791.4289 83.6331" fill="#FFFFFF" style="stroke: #A80036; stroke-width: 1.5;"/><ellipse cx="2798.5" cy="90.7041" fill="#FFFFFF" rx="6" ry="6" style="stroke: #A80036; stroke-width: 1.5;"/><!--MD5=[6a3b1ae935f556573f249c6a17f568d7]
link CSVs to DEC--><path d="M2379.5,173.2718 C2379.5,192.0587 2379.5,221.2683 2379.5,242.0373 " fill="none" id="CSVs-&gt;DEC" style="stroke: #A80036; stroke-width: 1.0; stroke-dasharray: 7.0,7.0;"/><polygon fill="#A80036" points="2379.5,247.1242,2383.5,238.1242,2379.5,242.1242,2375.5,238.1242,2379.5,247.1242" style="stroke: #A80036; stroke-width: 1.0;"/><ellipse cx="2379.5" cy="206.9113" fill="#FFFFFF" rx="10" ry="10" style="stroke: #FFFFFF; stroke-width: 1.0;"/><path d="M2372.4289,213.9824 A10,10 0 0 0 2386.5711 213.9824" fill="#FFFFFF" style="stroke: #A80036; stroke-width: 1.5;"/><path d="M2386.5711,199.8402 A10,10 0 0 0 2372.4289 199.8402" fill="#FFFFFF" style="stroke: #A80036; stroke-width: 1.5;"/><ellipse cx="2379.5" cy="206.9113" fill="#FFFFFF" rx="6" ry="6" style="stroke: #A80036; stroke-width: 1.5;"/><!--MD5=[94d43a37c90b84fe56815cfd1a98293e]
link DEC to GoogleDrive--><path d="M2349.7773,281.9727 C2335.7139,290.9002 2320.3183,303.624 2312.5,319.7773 C2304.0466,337.2427 2305.062,359.174 2308.0528,376.3846 " fill="none" id="DEC-&gt;GoogleDrive" style="stroke: #A80036; stroke-width: 1.0; stroke-dasharray: 7.0,7.0;"/><polygon fill="#A80036" points="2309.0361,381.564,2311.2873,371.9759,2308.1035,376.6518,2303.4277,373.468,2309.0361,381.564" style="stroke: #A80036; stroke-width: 1.0;"/><text fill="#000000" font-family="sans-serif" font-size="13" lengthAdjust="spacingAndGlyphs" textLength="62" x="2325.5" y="333.3457">For image</text><text fill="#000000" font-family="sans-serif" font-size="13" lengthAdjust="spacingAndGlyphs" textLength="86" x="2313.5" y="348.6563">URL reference</text><ellipse cx="2312.5" cy="319.7773" fill="#FFFFFF" rx="10" ry="10" style="stroke: #FFFFFF; stroke-width: 1.0;"/><path d="M2303.0547,323.0615 A10,10 0 0 0 2315.7842 329.2227" fill="#FFFFFF" style="stroke: #A80036; stroke-width: 1.5;"/><path d="M2321.9453,316.4932 A10,10 0 0 0 2309.2158 310.332" fill="#FFFFFF" style="stroke: #A80036; stroke-width: 1.5;"/><ellipse cx="2312.5" cy="319.7773" fill="#FFFFFF" rx="6" ry="6" style="stroke: #A80036; stroke-width: 1.5;"/><!--MD5=[94d43a37c90b84fe56815cfd1a98293e]
link DEC to GoogleDrive--><path d="M2393.605,286.3503 C2404.6314,304.2613 2416.2813,331.0494 2404.5,351.7773 C2398.0671,363.0953 2388.1557,372.2504 2377.2474,379.5608 " fill="none" id="DEC-&gt;GoogleDrive-1" style="stroke: #A80036; stroke-width: 1.0; stroke-dasharray: 7.0,7.0;"/><polygon fill="#A80036" points="2372.8565,382.3753,2382.5922,380.8864,2377.066,379.6772,2378.2752,374.1511,2372.8565,382.3753" style="stroke: #A80036; stroke-width: 1.0;"/><text fill="#000000" font-family="sans-serif" font-size="13" lengthAdjust="spacingAndGlyphs" textLength="52" x="2427.5" y="333.3457">For bulk</text><text fill="#000000" font-family="sans-serif" font-size="13" lengthAdjust="spacingAndGlyphs" textLength="86" x="2410.5" y="348.6563">image editing</text><ellipse cx="2407.6054" cy="318.0075" fill="#FFFFFF" rx="10" ry="10" style="stroke: #FFFFFF; stroke-width: 1.0;"/><path d="M2402.4159,326.5556 A10,10 0 0 0 2416.1534 323.197" fill="#FFFFFF" style="stroke: #A80036; stroke-width: 1.5;"/><path d="M2412.7949,309.4594 A10,10 0 0 0 2399.0573 312.818" fill="#FFFFFF" style="stroke: #A80036; stroke-width: 1.5;"/><ellipse cx="2407.6054" cy="318.0075" fill="#FFFFFF" rx="6" ry="6" style="stroke: #A80036; stroke-width: 1.5;"/><!--MD5=[d8d630a4c70f409e8b5d4709ff3330d1]
link ArchivesSpace to GoogleDrive--><path d="M2147.1155,290.1238 C2148.8211,308.9651 2154.0833,335.0086 2169.5,351.7773 C2191.1519,375.3279 2224.091,388.4331 2253.2059,395.7163 " fill="none" id="ArchivesSpace-&gt;GoogleDrive" style="stroke: #A80036; stroke-width: 1.0; stroke-dasharray: 7.0,7.0;"/><polygon fill="#A80036" points="2258.2175,396.9228,2250.4037,390.9274,2253.3564,395.7526,2248.5313,398.7052,2258.2175,396.9228" style="stroke: #A80036; stroke-width: 1.0;"/><text fill="#000000" font-family="sans-serif" font-size="13" lengthAdjust="spacingAndGlyphs" textLength="72" x="2198" y="333.3457">For work to</text><text fill="#000000" font-family="sans-serif" font-size="13" lengthAdjust="spacingAndGlyphs" textLength="127" x="2170.5" y="348.6563">import FilemakerPro</text><ellipse cx="2169.5" cy="351.7773" fill="#FFFFFF" rx="10" ry="10" style="stroke: #FFFFFF; stroke-width: 1.0;"/><path d="M2169.0803,361.7685 A10,10 0 0 0 2179.4912 352.197" fill="#FFFFFF" style="stroke: #A80036; stroke-width: 1.5;"/><path d="M2169.9197,341.7862 A10,10 0 0 0 2159.5088 351.3576" fill="#FFFFFF" style="stroke: #A80036; stroke-width: 1.5;"/><ellipse cx="2169.5" cy="351.7773" fill="#FFFFFF" rx="6" ry="6" style="stroke: #A80036; stroke-width: 1.5;"/><!--MD5=[6b7047a89e5ae34e938225291b2ce4d5]
link DS to Box--><path d="M637.5,61.2718 C637.5,79.0277 637.5,106.0938 637.5,126.5448 " fill="none" id="DS-&gt;Box" style="stroke: #A80036; stroke-width: 1.0; stroke-dasharray: 7.0,7.0;"/><polygon fill="#A80036" points="637.5,131.5921,641.5,122.5921,637.5,126.5921,633.5,122.5921,637.5,131.5921" style="stroke: #A80036; stroke-width: 1.0;"/><!--MD5=[eb490b24740f7582ec2e2136da7c556b]
link CDSW to Github--><path d="M1128.5,61.2718 C1128.5,79.0277 1128.5,106.0938 1128.5,126.5448 " fill="none" id="CDSW-&gt;Github" style="stroke: #A80036; stroke-width: 1.0; stroke-dasharray: 7.0,7.0;"/><polygon fill="#A80036" points="1128.5,131.5921,1132.5,122.5921,1128.5,126.5921,1124.5,122.5921,1128.5,131.5921" style="stroke: #A80036; stroke-width: 1.0;"/><!--MD5=[ce61da562fc41864f15cbcabb1735a72]
link LRA to CurateND--><path d="M1576.5,61.2718 C1576.5,80.0587 1576.5,109.2683 1576.5,130.0373 " fill="none" id="LRA-&gt;CurateND" style="stroke: #A80036; stroke-width: 1.0; stroke-dasharray: 7.0,7.0;"/><polygon fill="#A80036" points="1576.5,135.1242,1580.5,126.1242,1576.5,130.1242,1572.5,126.1242,1576.5,135.1242" style="stroke: #A80036; stroke-width: 1.0;"/><!--MD5=[e32f1c4b37dae784fb00633bd9d01ef0]
link LDWP to OSF--><path d="M1339.5,61.2718 C1339.5,79.0277 1339.5,106.0938 1339.5,126.5448 " fill="none" id="LDWP-&gt;OSF" style="stroke: #A80036; stroke-width: 1.0; stroke-dasharray: 7.0,7.0;"/><polygon fill="#A80036" points="1339.5,131.5921,1343.5,122.5921,1339.5,126.5921,1335.5,122.5921,1339.5,131.5921" style="stroke: #A80036; stroke-width: 1.0;"/><!--MD5=[6c9c19a083eedc57898136f5ef2c9981]
link CDSKB to GoogleSites--><path d="M1775.5738,61.2718 C1767.9319,79.103 1756.266,106.3233 1747.4884,126.8045 " fill="none" id="CDSKB-&gt;GoogleSites" style="stroke: #A80036; stroke-width: 1.0; stroke-dasharray: 7.0,7.0;"/><polygon fill="#A80036" points="1745.4365,131.5921,1752.6583,124.8955,1747.4061,126.9964,1745.3052,121.7442,1745.4365,131.5921" style="stroke: #A80036; stroke-width: 1.0;"/><!--MD5=[6a3ab39ec05d2559c23654431b7c9f6f]
link CDSKB to GoogleSuite--><path d="M1799.8478,61.2718 C1815.8753,79.4039 1840.4847,107.2448 1858.6855,127.8356 " fill="none" id="CDSKB-&gt;GoogleSuite" style="stroke: #A80036; stroke-width: 1.0; stroke-dasharray: 7.0,7.0;"/><polygon fill="#A80036" points="1862.0059,131.5921,1859.0424,122.1997,1858.6945,127.8459,1853.0483,127.498,1862.0059,131.5921" style="stroke: #A80036; stroke-width: 1.0;"/><!--MD5=[986680c8eea771e1a90335e62ea04d8a]
link EI to LibCal--><path d="M821.0406,61.2718 C834.2058,79.2534 854.3616,106.7834 869.3984,127.3215 " fill="none" id="EI-&gt;LibCal" style="stroke: #A80036; stroke-width: 1.0; stroke-dasharray: 7.0,7.0;"/><polygon fill="#A80036" points="872.5251,131.5921,870.436,121.9674,869.5714,127.5578,863.981,126.6932,872.5251,131.5921" style="stroke: #A80036; stroke-width: 1.0;"/><!--MD5=[8e4435d567e30ef27e844ee856060696]
link SI to LibCal--><path d="M958.7942,61.2718 C945.4686,79.2534 925.0669,106.7834 909.8467,127.3215 " fill="none" id="SI-&gt;LibCal" style="stroke: #A80036; stroke-width: 1.0; stroke-dasharray: 7.0,7.0;"/><polygon fill="#A80036" points="906.6819,131.5921,915.2542,126.7429,909.6589,127.575,908.8268,121.9797,906.6819,131.5921" style="stroke: #A80036; stroke-width: 1.0;"/><!--MD5=[5b7a2b9d0d740764b5877d23ff4a3293]
link DHW to LibGuids--><path d="M2038.5,61.2718 C2038.5,80.0587 2038.5,109.2683 2038.5,130.0373 " fill="none" id="DHW-&gt;LibGuids" style="stroke: #A80036; stroke-width: 1.0; stroke-dasharray: 7.0,7.0;"/><polygon fill="#A80036" points="2038.5,135.1242,2042.5,126.1242,2038.5,130.1242,2034.5,126.1242,2038.5,135.1242" style="stroke: #A80036; stroke-width: 1.0;"/><!--MD5=[13a4675f79cd6656f69f5a48dd927015]
link Mendalay to QUaltrics--><!--MD5=[3fd0ca5be433c9d0f9de092b68517041]
link QUaltrics to ReclaimHosting--><!--MD5=[ad7e7e4e4e9249cbce4e8016a6f866b9]
link ReclaimHosting to Refworks--><!--MD5=[bc96378f6ecdef1289b8c4346fcf2b74]
link Mendalay to Tableau--><!--MD5=[30a56f4204dd79b18591c637ca69078a]
link Tableau to Zotero--><!--MD5=[1ad75b1156b938e4cda143823097b9f4]
link Zotero to NP--><!--MD5=[fdc792226b7047f216dc7d13c965d58c]
link NP to Excel--><!--MD5=[c7b23e8c4e674ba9e64a49713f87c0e5]
link Tableau to OxygenXML--><!--MD5=[2c311229da9bce96e1817c41792dd0a8]
link OxygenXML to PDFAnnotator--><!--MD5=[9ec55bb619be81319a2d710e9eaae3ef]
link PDFAnnotator to VSCode--><!--MD5=[bbb2ec24920a5678ea050b2188ce9529]
link VSCode to Photoshop--><!--MD5=[9c470538fe5d50435dd9df8d6c71db72]
link OxygenXML to Illustrator--><!--MD5=[a15943969597fb55d5e942c2d09b8cd4]
@startuml

header CDS

collections "Digital Signage" as DS
collections "Equipment Images" as EI
collections "Space Images" as SI
collections "CDS Workshops" as CDSW
collections "Love Data Week Presentations" as LDWP
collections "Library Research Award" as LRA
collections "CDS Knowledge Base" as CDSKB
collections "Digital Humanities Workshop" as DHW
collections CSVs

cloud ArchivesSpace
cloud Box
cloud Github
cloud GoogleDrive
cloud GoogleSites
cloud GoogleSuite
cloud JSTor
cloud LibCal
cloud Mendalay
cloud OSF
cloud QUaltrics
cloud ReclaimHosting
cloud Refworks
cloud Tableau
cloud Zotero
folder LoadingDock
node "Notepad++" as NP
node Excel
node OxygenXML
node PDFAnnotator
node SocialScienceSoftware
node TopicModelingSoftare
node VSCode
node Photoshop
node Illustrator
package CurateND
package DEC
package FilemakerPro
package LibGuids

JSTor .(0).> CSVs
TopicModelingSoftare .(0).> CSVs
SocialScienceSoftware .(0).> CSVs
FilemakerPro .(0).> LoadingDock
CSVs .(0).> DEC
DEC .(0).> GoogleDrive : "For image\nURL reference"
DEC .(0).> GoogleDrive : "For bulk\nimage editing"
ArchivesSpace .(0).> GoogleDrive : "For work to\nimport FilemakerPro"

DS ..> Box
CDSW ..> Github
LRA ..> CurateND
LDWP ..> OSF
CDSKB ..> GoogleSites
CDSKB ..> GoogleSuite
EI ..> LibCal
SI ..> LibCal
DHW ..> LibGuids

@enduml

PlantUML version 1.2019.10(Fri Sep 13 16:53:03 EDT 2019)
(GPL source distribution)
Java Runtime: Java(TM) SE Runtime Environment
JVM: Java HotSpot(TM) 64-Bit Server VM
Java Version: 1.8.0_102-b14
Operating System: Mac OS X
Default Encoding: UTF-8
Language: en
Country: US
--></g></svg>