<?xml version="1.0" encoding="UTF-8" standalone="no"?><svg xmlns="http://www.w3.org/2000/svg" xmlns:xlink="http://www.w3.org/1999/xlink" contentScriptType="application/ecmascript" contentStyleType="text/css" height="595px" preserveAspectRatio="none" style="width:1540px;height:595px;" version="1.1" viewBox="0 0 1540 595"
    width="1540px" zoomAndPan="magnify"><defs><filter height="300%" id="fm4b7mm79r6yv" width="300%" x="-1" y="-1"><feGaussianBlur result="blurOut" stdDeviation="2.0"/><feColorMatrix in="blurOut" result="blurOut2" type="matrix" values="0 0 0 0 0 0 0 0 0 0 0 0 0 0 0 0 0 0 .4 0"/><feOffset dx="4.0" dy="4.0" in="blurOut2" result="blurOut3"/><feBlend in="SourceGraphic" in2="blurOut3" mode="normal"/></filter></defs><g><!--MD5=[c9d6f7fb1f0a669497366bbe6221095f]
cluster curate.nd.edu--><polygon fill="#FFFFFF" filter="url(#fm4b7mm79r6yv)" points="14,16,114,16,121,38.4883,350,38.4883,350,220.5,14,220.5,14,16" style="stroke: #000000; stroke-width: 1.5;"/><line style="stroke: #000000; stroke-width: 1.5;" x1="14" x2="121" y1="38.4883" y2="38.4883"/><text fill="#000000" font-family="sans-serif" font-size="14" font-weight="bold" lengthAdjust="spacingAndGlyphs" textLength="94" x="18" y="31.5352">curate.nd.edu</text><!--MD5=[7d014933b08cb0c1162e733cc176b719]
cluster Disadis--><polygon fill="#FFFFFF" filter="url(#fm4b7mm79r6yv)" points="358,135,418,135,425,157.4883,505,157.4883,505,226,358,226,358,135" style="stroke: #000000; stroke-width: 1.5;"/><line style="stroke: #000000; stroke-width: 1.5;" x1="358" x2="425" y1="157.4883" y2="157.4883"/><text fill="#000000" font-family="sans-serif" font-size="14" font-weight="bold" lengthAdjust="spacingAndGlyphs" textLength="54" x="362" y="150.5352">Disadis</text><!--MD5=[308df279a3acadc606e9b430cafa7df7]
cluster Fedora--><polygon fill="#FFFFFF" filter="url(#fm4b7mm79r6yv)" points="350,258.5,404,258.5,411,280.9883,658,280.9883,658,351.5,350,351.5,350,258.5" style="stroke: #000000; stroke-width: 1.5;"/><line style="stroke: #000000; stroke-width: 1.5;" x1="350" x2="411" y1="280.9883" y2="280.9883"/><text fill="#000000" font-family="sans-serif" font-size="14" font-weight="bold" lengthAdjust="spacingAndGlyphs" textLength="48" x="354" y="274.0352">Fedora</text><!--MD5=[9b75e51328caceb55a2eb72be0e161e7]
cluster Solr--><polygon fill="#FFFFFF" filter="url(#fm4b7mm79r6yv)" points="156,258.5,190,258.5,197,280.9883,323,280.9883,323,351.5,156,351.5,156,258.5" style="stroke: #000000; stroke-width: 1.5;"/><line style="stroke: #000000; stroke-width: 1.5;" x1="156" x2="197" y1="280.9883" y2="280.9883"/><text fill="#000000" font-family="sans-serif" font-size="14" font-weight="bold" lengthAdjust="spacingAndGlyphs" textLength="28" x="160" y="274.0352">Solr</text><!--MD5=[aa67b594d9c629de74c234d94f00fd81]
cluster Batch--><polygon fill="#FFFFFF" filter="url(#fm4b7mm79r6yv)" points="666,134,711,134,718,156.4883,847,156.4883,847,340.5,666,340.5,666,134" style="stroke: #000000; stroke-width: 1.5;"/><line style="stroke: #000000; stroke-width: 1.5;" x1="666" x2="718" y1="156.4883" y2="156.4883"/><text fill="#000000" font-family="sans-serif" font-size="14" font-weight="bold" lengthAdjust="spacingAndGlyphs" textLength="39" x="670" y="149.5352">Batch</text><!--MD5=[cbf4aac06c00b9b45ad288879e34ff12]
cluster Bendo--><polygon fill="#FFFFFF" filter="url(#fm4b7mm79r6yv)" points="855,234,905,234,912,256.4883,1301,256.4883,1301,357,855,357,855,234" style="stroke: #000000; stroke-width: 1.5;"/><line style="stroke: #000000; stroke-width: 1.5;" x1="855" x2="912" y1="256.4883" y2="256.4883"/><text fill="#000000" font-family="sans-serif" font-size="14" font-weight="bold" lengthAdjust="spacingAndGlyphs" textLength="44" x="859" y="249.5352">Bendo</text><!--MD5=[562ed55e840afc79d9783beef242227d]
cluster Storage--><rect fill="#FFFFFF" filter="url(#fm4b7mm79r6yv)" height="88" style="stroke: #000000; stroke-width: 1.5;" width="252" x="1041" y="261"/><rect fill="#FFFFFF" height="10" style="stroke: #000000; stroke-width: 1.5;" width="15" x="1273" y="266"/><rect fill="#FFFFFF" height="2" style="stroke: #000000; stroke-width: 1.5;" width="4" x="1271" y="268"/><rect fill="#FFFFFF" height="2" style="stroke: #000000; stroke-width: 1.5;" width="4" x="1271" y="272"/><text fill="#000000" font-family="sans-serif" font-size="14" font-weight="bold" lengthAdjust="spacingAndGlyphs" textLength="54" x="1140" y="287.5352">Storage</text><!--MD5=[8c9b6bf02c885b7ba5866d030e10667c]
cluster DTernity--><polygon fill="#FFFFFF" filter="url(#fm4b7mm79r6yv)" points="1050,365,1119,365,1126,387.4883,1479,387.4883,1479,474,1050,474,1050,365" style="stroke: #000000; stroke-width: 1.5;"/><line style="stroke: #000000; stroke-width: 1.5;" x1="1050" x2="1126" y1="387.4883" y2="387.4883"/><text fill="#000000" font-family="sans-serif" font-size="14" font-weight="bold" lengthAdjust="spacingAndGlyphs" textLength="63" x="1054" y="380.5352">DTernity</text><!--MD5=[e9e3ba0bf15797c0c490631f9deee05c]
cluster DTernityStorage--><polygon fill="#FFFFFF" filter="url(#fm4b7mm79r6yv)" points="1304,392,1364,392,1371,414.4883,1471,414.4883,1471,463,1304,463,1304,392" style="stroke: #000000; stroke-width: 1.5;"/><line style="stroke: #000000; stroke-width: 1.5;" x1="1304" x2="1371" y1="414.4883" y2="414.4883"/><text fill="#000000" font-family="sans-serif" font-size="14" font-weight="bold" lengthAdjust="spacingAndGlyphs" textLength="54" x="1308" y="407.5352">Storage</text><!--MD5=[a049e73094d01d50612d29bd051aef70]
cluster Local Storage--><polygon fill="#FFFFFF" filter="url(#fm4b7mm79r6yv)" points="750,381,852,381,859,403.4883,862,403.4883,862,474,750,474,750,381" style="stroke: #000000; stroke-width: 1.5;"/><line style="stroke: #000000; stroke-width: 1.5;" x1="750" x2="859" y1="403.4883" y2="403.4883"/><text fill="#000000" font-family="sans-serif" font-size="14" font-weight="bold" lengthAdjust="spacingAndGlyphs" textLength="96" x="754" y="396.5352">Local Storage</text><!--MD5=[88656e78e5bedad418341b6ececa151e]
cluster AWS--><path d="M887.2142,400.3987 C891.2106,390.2568 899.6197,389.4377 905.7981,398.2605 C913.0291,389.0921 921.2343,392.0645 924.9456,401.8215 C931.62,403.9215 934.1897,407.5421 929.5679,413.948 C937.7793,416.2936 939.3353,423.1921 932.5576,428.5968 C937.8206,434.0835 936.9676,440.1982 928.7758,441.8437 C934.3614,447.562 932.3851,453.4655 925.2753,456.0573 C919.9053,466.5718 913.741,466.7505 905.3952,459.3616 C898.2252,468.0689 891.2758,465.3269 887.2514,456.1674 C878.8752,453.919 877.4762,448.5534 883.8642,442.615 C875.9725,441.1406 874.4699,434.5857 880.4168,429.4793 C873.3828,423.3259 875.761,417.2368 883.3964,413.8865 C879.0046,408.22 880.0733,402.8009 887.2142,400.3987 " fill="#FFFFFF" style="stroke: #000000; stroke-width: 1.5;"/><text fill="#000000" font-family="sans-serif" font-size="14" font-weight="bold" lengthAdjust="spacingAndGlyphs" textLength="31" x="889.5" y="418.5352">AWS</text><!--MD5=[6cc24a1e0287d9f0336a3189c6c7fbea]
cluster curate metrics--><polygon fill="#FFFFFF" filter="url(#fm4b7mm79r6yv)" points="525,27,634,27,641,49.4883,644,49.4883,644,98,525,98,525,27" style="stroke: #000000; stroke-width: 1.5;"/><line style="stroke: #000000; stroke-width: 1.5;" x1="525" x2="641" y1="49.4883" y2="49.4883"/><text fill="#000000" font-family="sans-serif" font-size="14" font-weight="bold" lengthAdjust="spacingAndGlyphs" textLength="103" x="529" y="42.5352">curate metrics</text><!--MD5=[bc546d046b41a8b88c97b3c23ad68e14]
entity CurateOM--><rect fill="#FEFECE" filter="url(#fm4b7mm79r6yv)" height="36.4883" style="stroke: #A80036; stroke-width: 1.5;" width="110" x="167" y="172"/><rect fill="#FEFECE" height="5" style="stroke: #A80036; stroke-width: 1.5;" width="10" x="162" y="177"/><rect fill="#FEFECE" height="5" style="stroke: #A80036; stroke-width: 1.5;" width="10" x="162" y="198.4883"/><text fill="#000000" font-family="sans-serif" font-size="14" lengthAdjust="spacingAndGlyphs" textLength="90" x="177" y="195.5352">Object Model</text><!--MD5=[5b9b4a8bd609abdac0c7ed1e93f17e2b]
entity CurateW--><rect fill="#FEFECE" filter="url(#fm4b7mm79r6yv)" height="36.4883" style="stroke: #A80036; stroke-width: 1.5;" width="76" x="177" y="54"/><rect fill="#FEFECE" height="5" style="stroke: #A80036; stroke-width: 1.5;" width="10" x="172" y="59"/><rect fill="#FEFECE" height="5" style="stroke: #A80036; stroke-width: 1.5;" width="10" x="172" y="80.4883"/><text fill="#000000" font-family="sans-serif" font-size="14" lengthAdjust="spacingAndGlyphs" textLength="56" x="187" y="77.5352">Workers</text><!--MD5=[85b2ff28930311f4084f221890a0e438]
entity CurateBL--><rect fill="#FEFECE" filter="url(#fm4b7mm79r6yv)" height="36.4883" style="stroke: #A80036; stroke-width: 1.5;" width="119" x="22.5" y="54"/><rect fill="#FEFECE" height="5" style="stroke: #A80036; stroke-width: 1.5;" width="10" x="17.5" y="59"/><rect fill="#FEFECE" height="5" style="stroke: #A80036; stroke-width: 1.5;" width="10" x="17.5" y="80.4883"/><text fill="#000000" font-family="sans-serif" font-size="14" lengthAdjust="spacingAndGlyphs" textLength="99" x="32.5" y="77.5352">Business Logic</text><!--MD5=[993e0d4fdeccee87e9dafe04241cdfbd]
entity MySQL--><path d="M49.5,177.5 C49.5,167.5 82,167.5 82,167.5 C82,167.5 114.5,167.5 114.5,177.5 L114.5,202.9883 C114.5,212.9883 82,212.9883 82,212.9883 C82,212.9883 49.5,212.9883 49.5,202.9883 L49.5,177.5 " fill="#FEFECE" filter="url(#fm4b7mm79r6yv)" style="stroke: #000000; stroke-width: 1.5;"/><path d="M49.5,177.5 C49.5,187.5 82,187.5 82,187.5 C82,187.5 114.5,187.5 114.5,177.5 " fill="none" style="stroke: #000000; stroke-width: 1.5;"/><text fill="#000000" font-family="sans-serif" font-size="14" lengthAdjust="spacingAndGlyphs" textLength="45" x="59.5" y="205.0352">MySQL</text><!--MD5=[b20deab9512140920db0c60e05ecf044]
entity CurateAPI--><ellipse cx="315" cy="72" fill="#FEFECE" filter="url(#fm4b7mm79r6yv)" rx="8" ry="8" style="stroke: #A80036; stroke-width: 2.0;"/><text fill="#000000" font-family="sans-serif" font-size="14" lengthAdjust="spacingAndGlyphs" textLength="22" x="304" y="102.5352">API</text><!--MD5=[09e45ecdc9d0928e12a9f97e1821a103]
entity WebLogs--><polygon fill="#FEFECE" filter="url(#fm4b7mm79r6yv)" points="401.5,162,447.5,162,454.5,183,496.5,183,496.5,217.9766,401.5,217.9766,401.5,162" style="stroke: #000000; stroke-width: 1.5;"/><line style="stroke: #000000; stroke-width: 1.5;" x1="401.5" x2="454.5" y1="183" y2="183"/><text fill="#000000" font-family="sans-serif" font-size="14" lengthAdjust="spacingAndGlyphs" textLength="65" x="411.5" y="203.5352">Web Logs</text><!--MD5=[82c8c233f10cbc3ee793e1964b60c00d]
entity FedoraHTTP--><ellipse cx="416" cy="314.5" fill="#FEFECE" filter="url(#fm4b7mm79r6yv)" rx="8" ry="8" style="stroke: #A80036; stroke-width: 2.0;"/><text fill="#000000" font-family="sans-serif" font-size="14" lengthAdjust="spacingAndGlyphs" textLength="100" x="366" y="345.0352">HTTP Interface</text><!--MD5=[758792de11c9918e6829c98b147e27c2]
entity FedoraFS--><polygon fill="#FEFECE" filter="url(#fm4b7mm79r6yv)" points="509,286.5,555,286.5,562,307.5,615,307.5,615,342.4766,509,342.4766,509,286.5" style="stroke: #000000; stroke-width: 1.5;"/><line style="stroke: #000000; stroke-width: 1.5;" x1="509" x2="562" y1="307.5" y2="307.5"/><text fill="#000000" font-family="sans-serif" font-size="14" lengthAdjust="spacingAndGlyphs" textLength="76" x="519" y="328.0352">File System</text><!--MD5=[2b310bc7e1db6a4b29dfa72fc01c3ea1]
entity SolrHTTP--><ellipse cx="222" cy="314.5" fill="#FEFECE" filter="url(#fm4b7mm79r6yv)" rx="8" ry="8" style="stroke: #A80036; stroke-width: 2.0;"/><text fill="#000000" font-family="sans-serif" font-size="14" lengthAdjust="spacingAndGlyphs" textLength="100" x="172" y="345.0352">HTTP Interface</text><!--MD5=[6c444dd6b145513787bf9986e8d9020c]
entity BatchAPI--><ellipse cx="701" cy="190" fill="#FEFECE" filter="url(#fm4b7mm79r6yv)" rx="8" ry="8" style="stroke: #A80036; stroke-width: 2.0;"/><text fill="#000000" font-family="sans-serif" font-size="14" lengthAdjust="spacingAndGlyphs" textLength="22" x="690" y="220.5352">API</text><!--MD5=[42eac362781da04da8cb2bec19ef980a]
entity BatchWorkers--><rect fill="#FEFECE" filter="url(#fm4b7mm79r6yv)" height="52.9766" style="stroke: #A80036; stroke-width: 1.5;" width="76" x="763" y="163.5"/><rect fill="#FEFECE" height="5" style="stroke: #A80036; stroke-width: 1.5;" width="10" x="758" y="168.5"/><rect fill="#FEFECE" height="5" style="stroke: #A80036; stroke-width: 1.5;" width="10" x="758" y="206.4766"/><text fill="#000000" font-family="sans-serif" font-size="14" lengthAdjust="spacingAndGlyphs" textLength="48" x="773" y="187.0352">System</text><text fill="#000000" font-family="sans-serif" font-size="14" lengthAdjust="spacingAndGlyphs" textLength="56" x="773" y="203.5234">Workers</text><!--MD5=[2234a812ce347459a076fc2b1c7df208]
entity BatchStaging--><rect fill="#FEFECE" filter="url(#fm4b7mm79r6yv)" height="36.4883" style="stroke: #A80036; stroke-width: 1.5;" width="72" x="685" y="296.5"/><rect fill="#FEFECE" height="5" style="stroke: #A80036; stroke-width: 1.5;" width="10" x="680" y="301.5"/><rect fill="#FEFECE" height="5" style="stroke: #A80036; stroke-width: 1.5;" width="10" x="680" y="322.9883"/><text fill="#000000" font-family="sans-serif" font-size="14" lengthAdjust="spacingAndGlyphs" textLength="52" x="695" y="320.0352">Staging</text><!--MD5=[242e68a4e3660568a3ed9cfaf97b0cda]
entity BendoAPI--><ellipse cx="987" cy="314.5" fill="#FEFECE" filter="url(#fm4b7mm79r6yv)" rx="8" ry="8" style="stroke: #A80036; stroke-width: 2.0;"/><text fill="#000000" font-family="sans-serif" font-size="14" lengthAdjust="spacingAndGlyphs" textLength="22" x="976" y="345.0352">API</text><!--MD5=[0f052bab7fd2de2904a9ceb14d55a370]
entity BendoC--><rect fill="#FEFECE" filter="url(#fm4b7mm79r6yv)" height="36.4883" style="stroke: #A80036; stroke-width: 1.5;" width="62" x="863" y="296.5"/><rect fill="#FEFECE" height="5" style="stroke: #A80036; stroke-width: 1.5;" width="10" x="858" y="301.5"/><rect fill="#FEFECE" height="5" style="stroke: #A80036; stroke-width: 1.5;" width="10" x="858" y="322.9883"/><text fill="#000000" font-family="sans-serif" font-size="14" lengthAdjust="spacingAndGlyphs" textLength="42" x="873" y="320.0352">Cache</text><!--MD5=[5c06c8213d2b1db03166202b79a3e367]
entity BendoCOW--><rect fill="#FEFECE" filter="url(#fm4b7mm79r6yv)" height="52.9766" style="stroke: #A80036; stroke-width: 1.5;" width="95" x="1049.5" y="288"/><rect fill="#FEFECE" height="5" style="stroke: #A80036; stroke-width: 1.5;" width="10" x="1044.5" y="293"/><rect fill="#FEFECE" height="5" style="stroke: #A80036; stroke-width: 1.5;" width="10" x="1044.5" y="330.9766"/><text fill="#000000" font-family="sans-serif" font-size="14" lengthAdjust="spacingAndGlyphs" textLength="57" x="1059.5" y="311.5352">Copy on</text><text fill="#000000" font-family="sans-serif" font-size="14" lengthAdjust="spacingAndGlyphs" textLength="75" x="1059.5" y="328.0234">Write Layer</text><!--MD5=[a69a73efb10663008a20fe4208d4e2df]
entity BendoPL--><rect fill="#FEFECE" filter="url(#fm4b7mm79r6yv)" height="52.9766" style="stroke: #A80036; stroke-width: 1.5;" width="105" x="1179.5" y="288"/><rect fill="#FEFECE" height="5" style="stroke: #A80036; stroke-width: 1.5;" width="10" x="1174.5" y="293"/><rect fill="#FEFECE" height="5" style="stroke: #A80036; stroke-width: 1.5;" width="10" x="1174.5" y="330.9766"/><text fill="#000000" font-family="sans-serif" font-size="14" lengthAdjust="spacingAndGlyphs" textLength="85" x="1189.5" y="311.5352">Preservation</text><text fill="#000000" font-family="sans-serif" font-size="14" lengthAdjust="spacingAndGlyphs" textLength="36" x="1189.5" y="328.0234">Layer</text><!--MD5=[122471d58b7557712b3645c406151814]
entity DTernityNFSM--><ellipse cx="1232" cy="437" fill="#FEFECE" filter="url(#fm4b7mm79r6yv)" rx="8" ry="8" style="stroke: #A80036; stroke-width: 2.0;"/><text fill="#000000" font-family="sans-serif" font-size="14" lengthAdjust="spacingAndGlyphs" textLength="74" x="1195" y="467.5352">NFS Mount</text><!--MD5=[52d5b48969f4d8ab03330ef1bdf65780]
entity DTernityCIFSM--><ellipse cx="1105" cy="437" fill="#FEFECE" filter="url(#fm4b7mm79r6yv)" rx="8" ry="8" style="stroke: #A80036; stroke-width: 2.0;"/><text fill="#000000" font-family="sans-serif" font-size="14" lengthAdjust="spacingAndGlyphs" textLength="78" x="1066" y="467.5352">CIFS Mount</text><!--MD5=[2134bfea3f0564af1f6584dd54f55a6d]
entity DternityCS--><rect fill="#FEFECE" filter="url(#fm4b7mm79r6yv)" height="36.4883" style="stroke: #A80036; stroke-width: 1.5;" width="61" x="1312.5" y="419"/><rect fill="#FEFECE" height="5" style="stroke: #A80036; stroke-width: 1.5;" width="10" x="1307.5" y="424"/><rect fill="#FEFECE" height="5" style="stroke: #A80036; stroke-width: 1.5;" width="10" x="1307.5" y="445.4883"/><text fill="#000000" font-family="sans-serif" font-size="14" lengthAdjust="spacingAndGlyphs" textLength="41" x="1322.5" y="442.5352">Cloud</text><!--MD5=[9b637540d1516a39865ba1e8b60410be]
entity DternityTS--><rect fill="#FEFECE" filter="url(#fm4b7mm79r6yv)" height="36.4883" style="stroke: #A80036; stroke-width: 1.5;" width="54" x="1409" y="419"/><rect fill="#FEFECE" height="5" style="stroke: #A80036; stroke-width: 1.5;" width="10" x="1404" y="424"/><rect fill="#FEFECE" height="5" style="stroke: #A80036; stroke-width: 1.5;" width="10" x="1404" y="445.4883"/><text fill="#000000" font-family="sans-serif" font-size="14" lengthAdjust="spacingAndGlyphs" textLength="34" x="1419" y="442.5352">Tape</text><!--MD5=[88c9a4f3b7c2dc6234e9ce3799e26ab2]
entity LocalNFSMount--><ellipse cx="806" cy="437" fill="#FEFECE" filter="url(#fm4b7mm79r6yv)" rx="8" ry="8" style="stroke: #A80036; stroke-width: 2.0;"/><text fill="#000000" font-family="sans-serif" font-size="14" lengthAdjust="spacingAndGlyphs" textLength="74" x="769" y="467.5352">NFS Mount</text><!--MD5=[6c7192638421eaf134d201765ac5db29]
entity S3--><rect fill="#FEFECE" filter="url(#fm4b7mm79r6yv)" height="36.4883" style="stroke: #A80036; stroke-width: 1.5;" width="37" x="886.5" y="419"/><rect fill="#FEFECE" height="5" style="stroke: #A80036; stroke-width: 1.5;" width="10" x="881.5" y="424"/><rect fill="#FEFECE" height="5" style="stroke: #A80036; stroke-width: 1.5;" width="10" x="881.5" y="445.4883"/><text fill="#000000" font-family="sans-serif" font-size="14" lengthAdjust="spacingAndGlyphs" textLength="17" x="896.5" y="442.5352">S3</text><!--MD5=[ce340cc172b9f8cd24d5517f041bcb42]
entity Harvester--><rect fill="#FEFECE" filter="url(#fm4b7mm79r6yv)" height="36.4883" style="stroke: #A80036; stroke-width: 1.5;" width="85" x="542.5" y="54"/><rect fill="#FEFECE" height="5" style="stroke: #A80036; stroke-width: 1.5;" width="10" x="537.5" y="59"/><rect fill="#FEFECE" height="5" style="stroke: #A80036; stroke-width: 1.5;" width="10" x="537.5" y="80.4883"/><text fill="#000000" font-family="sans-serif" font-size="14" lengthAdjust="spacingAndGlyphs" textLength="65" x="552.5" y="77.5352">Harvester</text><path d="M578.5,424.5 L578.5,449.8105 L721.5,449.8105 L721.5,434.5 L711.5,424.5 L578.5,424.5 " fill="#FBFB77" filter="url(#fm4b7mm79r6yv)" style="stroke: #A80036; stroke-width: 1.0;"/><path d="M711.5,424.5 L711.5,434.5 L721.5,434.5 L711.5,424.5 " fill="#FBFB77" style="stroke: #A80036; stroke-width: 1.0;"/><text fill="#000000" font-family="sans-serif" font-size="13" lengthAdjust="spacingAndGlyphs" textLength="122" x="584.5" y="442.0684">For durable storage</text><path d="M272,424.5 L272,449.8105 L358,449.8105 L358,434.5 L348,424.5 L272,424.5 " fill="#FBFB77" filter="url(#fm4b7mm79r6yv)" style="stroke: #A80036; stroke-width: 1.0;"/><path d="M348,424.5 L348,434.5 L358,434.5 L348,424.5 " fill="#FBFB77" style="stroke: #A80036; stroke-width: 1.0;"/><text fill="#000000" font-family="sans-serif" font-size="13" lengthAdjust="spacingAndGlyphs" textLength="65" x="278" y="442.0684">For search</text><!--MD5=[cc617f22391be430c88991d2db666087]
entity SpectraLogic--><polygon fill="#FEFECE" filter="url(#fm4b7mm79r6yv)" points="1401.5,526,1447.5,526,1454.5,547,1518.5,547,1518.5,581.9766,1401.5,581.9766,1401.5,526" style="stroke: #000000; stroke-width: 1.5;"/><line style="stroke: #000000; stroke-width: 1.5;" x1="1401.5" x2="1454.5" y1="547" y2="547"/><text fill="#000000" font-family="sans-serif" font-size="14" lengthAdjust="spacingAndGlyphs" textLength="87" x="1411.5" y="567.5352">SpectraLogic</text><!--MD5=[5bd6eb4bacc8574aa646895c70a29c94]
entity FujiCloud--><path d="M1278.5388,539.9329 C1282.517,533.848 1287.0523,534.3923 1291.3561,539.562 C1293.9616,531.3753 1300.6883,531.1649 1305.3976,537.5323 C1308.8102,531.2032 1313.3269,530.1579 1318.0212,536.2273 C1322.2928,529.5627 1328.9941,530.9249 1331.6226,537.8694 C1336.1442,531.8121 1342.504,531.6661 1346.1404,538.8407 C1350.2412,533.6915 1356.0092,533.873 1359.4382,539.6577 C1366.4558,543.727 1368.289,548.7164 1361.5336,554.7038 C1369.738,561.7873 1367.6242,567.6917 1358.3597,571.4678 C1355.544,578.0244 1349.7723,579.0368 1345.3289,573.1759 C1342.4643,580.432 1337.1742,579.7447 1332.498,575.1348 C1329.1103,581.5027 1324.1447,583.8076 1318.5828,577.5266 C1314.1493,583.1396 1308.8145,580.8113 1306.841,574.9987 C1302.4859,580.3237 1295.8135,580.3709 1293.1744,573.1321 C1288.078,578.4522 1280.7027,579.0378 1278.1035,570.43 C1267.9252,570.4014 1265.4429,562.772 1269.6847,554.9174 C1264.5038,546.3771 1268.8708,539.6992 1278.5388,539.9329 " fill="#FEFECE" style="stroke: #000000; stroke-width: 1.5;"/><text fill="#000000" font-family="sans-serif" font-size="14" lengthAdjust="spacingAndGlyphs" textLength="66" x="1285" y="559.5352">FujiCloud</text><!--MD5=[f6308400aa79ab34bdd42633ed24a516]
link CurateW to CurateOM--><path d="M216.0784,90.1789 C217.2998,110.7674 219.2928,144.3637 220.6249,166.8204 " fill="none" id="CurateW-&gt;CurateOM" style="stroke: #A80036; stroke-width: 1.0;"/><polygon fill="#A80036" points="220.9319,171.9941,224.3918,162.773,220.6358,167.0029,216.4059,163.2468,220.9319,171.9941" style="stroke: #A80036; stroke-width: 1.0;"/><!--MD5=[ebe573a2313719c32676d731a6f24376]
link CurateBL to MySQL--><path d="M82,90.1789 C82,109.331 82,139.7392 82,161.9657 " fill="none" id="CurateBL-&gt;MySQL" style="stroke: #A80036; stroke-width: 1.0;"/><polygon fill="#A80036" points="82,167.1435,86,158.1435,82,162.1435,78,158.1435,82,167.1435" style="stroke: #A80036; stroke-width: 1.0;"/><!--MD5=[d4a27c786181adde38797ea8d28a87c4]
link Fedora to GMN16--><path d="M650,351.9038 C650,352.071 650,352.2385 650,352.4063 C650,352.7419 650,353.0785 650,353.4162 C650,356.1179 650,358.8868 650,361.6974 C650,384.1822 650,409.3377 650,424.1363 " fill="none" id="Fedora-GMN16" style="stroke: #A80036; stroke-width: 1.0; stroke-dasharray: 7.0,7.0;"/><!--MD5=[2d6293df30eb24024cd2d630f78e323a]
link Solr to GMN21--><path d="M315,351.9038 C315,352.071 315,352.2385 315,352.4063 C315,352.7419 315,353.0785 315,353.4162 C315,356.1179 315,358.8868 315,361.6974 C315,384.1822 315,409.3377 315,424.1363 " fill="none" id="Solr-GMN21" style="stroke: #A80036; stroke-width: 1.0; stroke-dasharray: 7.0,7.0;"/><!--MD5=[c4b16eb3d6414c2aa44b92c384e1ef74]
link BatchWorkers to BatchStaging--><path d="M783.838,216.7084 C769.4362,239.1212 749.0943,270.7783 735.4969,291.9392 " fill="none" id="BatchWorkers-&gt;BatchStaging" style="stroke: #A80036; stroke-width: 1.0;"/><polygon fill="#A80036" points="732.7023,296.2883,740.9328,290.8792,735.4053,292.0819,734.2025,286.5544,732.7023,296.2883" style="stroke: #A80036; stroke-width: 1.0;"/><!--MD5=[8f687d88da054b9adeccc32fd67f7b5c]
link Harvester to WebLogs--><path d="M564.048,90.1789 C543.1131,108.3431 510.5088,136.6321 485.3471,158.4635 " fill="none" id="Harvester-&gt;WebLogs" style="stroke: #A80036; stroke-width: 1.0;"/><polygon fill="#A80036" points="481.3756,161.9094,490.7949,159.0325,485.1522,158.6326,485.5521,152.9899,481.3756,161.9094" style="stroke: #A80036; stroke-width: 1.0;"/><!--MD5=[01b71dfd9fab7d4c0242482315137b4a]
link Harvester to FedoraHTTP--><path d="M581.2428,90.0693 C573.7381,121.8372 553.9713,187.9292 513,226 C505.6834,232.7986 500.3044,228.4511 492,234 C464.0086,252.7038 438.7426,283.498 425.5763,301.0822 " fill="none" id="Harvester-&gt;FedoraHTTP" style="stroke: #A80036; stroke-width: 1.0;"/><polygon fill="#A80036" points="422.4953,305.2527,431.0603,300.3905,425.4662,301.2311,424.6257,295.637,422.4953,305.2527" style="stroke: #A80036; stroke-width: 1.0;"/><!--MD5=[9609a61543a3b278aaa3401090298d37]
link Harvester to FedoraFS--><path d="M584.5209,90.0664 C583.6272,118.8847 581.2938,177.0068 576,226 C574.0161,244.3606 570.8614,264.7247 568.0485,281.2854 " fill="none" id="Harvester-&gt;FedoraFS" style="stroke: #A80036; stroke-width: 1.0;"/><polygon fill="#A80036" points="567.1882,286.2964,572.6536,278.1031,568.0343,281.3685,564.769,276.7493,567.1882,286.2964" style="stroke: #A80036; stroke-width: 1.0;"/><!--MD5=[609f8a42f1abb8a537279095a77b4f9d]
link Harvester to BendoAPI--><path d="M627.5012,78.4923 C693.4688,89.109 816.887,111.2869 855,134 C923.3402,174.7267 966.8516,265.9094 981.4941,300.6744 " fill="none" id="Harvester-&gt;BendoAPI" style="stroke: #A80036; stroke-width: 1.0;"/><polygon fill="#A80036" points="983.4445,305.3816,983.6946,295.5359,981.5305,300.7624,976.304,298.5983,983.4445,305.3816" style="stroke: #A80036; stroke-width: 1.0;"/><!--MD5=[4f71ea4900ca13e6e997786faf271167]
link BendoPL to DTernityNFSM--><path d="M1232,341.0807 C1232,366.1656 1232,402.8187 1232,422.7706 " fill="none" id="BendoPL-&gt;DTernityNFSM" style="stroke: #A80036; stroke-width: 1.0;"/><polygon fill="#A80036" points="1232,427.9316,1236,418.9316,1232,422.9316,1228,418.9316,1232,427.9316" style="stroke: #A80036; stroke-width: 1.0;"/><!--MD5=[748fade2ea86f22bd3818d6807e04c9b]
link CurateOM to FedoraHTTP--><path d="M277.1949,207.671 C295.0673,214.5782 314.5163,223.4126 331,234 C360.9534,253.2389 389.7098,283.836 404.885,301.2423 " fill="none" id="CurateOM-&gt;FedoraHTTP" style="stroke: #A80036; stroke-width: 1.0;"/><polygon fill="#A80036" points="408.4429,305.3684,405.5949,295.9403,405.1777,301.5818,399.5363,301.1646,408.4429,305.3684" style="stroke: #A80036; stroke-width: 1.0;"/><!--MD5=[23afdad4f6870048c8e275f40f5e33c7]
link CurateOM to SolrHTTP--><path d="M222,208.1034 C222,233.0776 222,277.5834 222,300.3033 " fill="none" id="CurateOM-&gt;SolrHTTP" style="stroke: #A80036; stroke-width: 1.0;"/><polygon fill="#A80036" points="222,305.3263,226,296.3263,222,300.3263,218,296.3263,222,305.3263" style="stroke: #A80036; stroke-width: 1.0;"/><!--MD5=[d7a1711f6d8c846615a674cc1f540235]
link BatchWorkers to CurateAPI--><path d="M781.2959,163.3209 C771.8463,152.474 759.6168,140.8936 746,134 C745.7002,133.8482 405.3431,84.9719 329.7537,74.1183 " fill="none" id="BatchWorkers-&gt;CurateAPI" style="stroke: #A80036; stroke-width: 1.0;"/><polygon fill="#A80036" points="324.3957,73.349,332.7358,78.5877,329.3449,74.0597,333.8729,70.6689,324.3957,73.349" style="stroke: #A80036; stroke-width: 1.0;"/><!--MD5=[be818180ef747dfd724894fcac7cbd33]
link BendoCOW to LocalNFSMount--><path d="M1071.6248,341.0908 C1064.0286,347.4423 1055.2409,353.4149 1046,357 C1009.4991,371.1607 905.3421,348.1544 870,365 C843.7805,377.4974 823.6809,406.175 813.4648,423.3277 " fill="none" id="BendoCOW-&gt;LocalNFSMount" style="stroke: #A80036; stroke-width: 1.0;"/><polygon fill="#A80036" points="810.8485,427.837,818.825,422.0598,813.3577,423.5122,811.9053,418.045,810.8485,427.837" style="stroke: #A80036; stroke-width: 1.0;"/><!--MD5=[712c61d2caa9247498e07ff5e7aef8af]
link DternityTS to SpectraLogic--><path d="M1439.6974,455.0248 C1443.2762,472.4717 1448.7876,499.3393 1453.1654,520.6811 " fill="none" id="DternityTS-&gt;SpectraLogic" style="stroke: #A80036; stroke-width: 1.0;"/><polygon fill="#A80036" points="1454.1948,525.6997,1456.3045,516.0794,1453.1899,520.8017,1448.4677,517.6872,1454.1948,525.6997" style="stroke: #A80036; stroke-width: 1.0;"/><!--MD5=[1b451e3079f782c992b0770264c82750]
link DternityCS to FujiCloud--><path d="M1339.1485,455.0248 C1335.1163,473.8959 1328.7289,503.7887 1324.028,525.7891 " fill="none" id="DternityCS-&gt;FujiCloud" style="stroke: #A80036; stroke-width: 1.0;"/><polygon fill="#A80036" points="1322.932,530.9184,1328.7244,522.953,1323.9769,526.0288,1320.9011,521.2812,1322.932,530.9184" style="stroke: #A80036; stroke-width: 1.0;"/><!--MD5=[58a52875fac3da223b468f2cf2292c87]
link BendoC to S3--><path d="M895.6231,332.5753 C897.5566,354.1075 900.7907,390.1235 902.9097,413.7212 " fill="none" id="BendoC-&gt;S3" style="stroke: #A80036; stroke-width: 1.0;"/><polygon fill="#A80036" points="903.3703,418.8505,906.5492,409.5288,902.923,413.8705,898.5812,410.2444,903.3703,418.8505" style="stroke: #A80036; stroke-width: 1.0;"/><!--MD5=[3f37fb978bf3238147a411acecef3405]
link CurateW to BatchAPI--><path d="M244.715,90.0857 C252.6867,94.2563 261.4678,98.2659 270,101 C373.7927,134.2593 406.4543,111.0409 513,134 C579.0897,148.2414 655.7298,174.07 686.8163,184.9514 " fill="none" id="CurateW-&gt;BatchAPI" style="stroke: #A80036; stroke-width: 1.0;"/><polygon fill="#A80036" points="691.7432,186.6847,684.5806,179.9247,687.0265,185.0254,681.9258,187.4713,691.7432,186.6847" style="stroke: #A80036; stroke-width: 1.0;"/><!--MD5=[22c30e073cb1775f49aed19ee0caac9c]
link BatchWorkers to BendoAPI--><path d="M839.2112,202.8091 C860.7917,209.9105 888.3094,218.7448 913,226 C926.2395,229.8904 932.1462,225.4786 943,234 C964.7978,251.1135 977.2911,282.1524 983.0582,300.2807 " fill="none" id="BatchWorkers-&gt;BendoAPI" style="stroke: #A80036; stroke-width: 1.0;"/><polygon fill="#A80036" points="984.6349,305.4626,985.8417,295.688,983.1794,300.6791,978.1882,298.0168,984.6349,305.4626" style="stroke: #A80036; stroke-width: 1.0;"/><!--MD5=[48aeddef0129bbadfae385d809e6ed7e]
link BatchWorkers to FedoraHTTP--><path d="M766.3481,216.6677 C759.8859,220.4546 752.9656,223.8031 746,226 C719.0714,234.4933 517.7497,222.4139 492,234 C460.6531,248.1047 436.0125,281.7904 424.0071,300.8143 " fill="none" id="BatchWorkers-&gt;FedoraHTTP" style="stroke: #A80036; stroke-width: 1.0;"/><polygon fill="#A80036" points="421.2307,305.3142,429.3608,299.7553,423.8562,301.059,422.5525,295.5544,421.2307,305.3142" style="stroke: #A80036; stroke-width: 1.0;"/><!--MD5=[17e618ef446bf30840648c6d8ccb831e]
link BatchWorkers to LocalNFSMount--><path d="M801.5446,216.9035 C802.6012,269.101 804.8968,382.504 805.7085,422.6001 " fill="none" id="BatchWorkers-&gt;LocalNFSMount" style="stroke: #A80036; stroke-width: 1.0;"/><polygon fill="#A80036" points="805.8172,427.968,809.6341,418.8888,805.7159,422.969,801.6357,419.0509,805.8172,427.968" style="stroke: #A80036; stroke-width: 1.0;"/><!--MD5=[50317854333d4d877def66f8e8153057]
link BatchStaging to LocalNFSMount--><path d="M733.542,332.5753 C750.773,357.4081 781.3712,401.5056 796.7025,423.6007 " fill="none" id="BatchStaging-&gt;LocalNFSMount" style="stroke: #A80036; stroke-width: 1.0;"/><polygon fill="#A80036" points="799.5567,427.7141,797.7122,418.0395,796.7062,423.6062,791.1395,422.6002,799.5567,427.7141" style="stroke: #A80036; stroke-width: 1.0;"/><!--MD5=[d4332c447949cb4637e1aafbc0cbc697]
link Disadis to FedoraHTTP--><path d="M380.5752,226.2923 C380.7113,226.631 380.8478,226.971 380.9848,227.3121 C382.0808,230.0413 383.2077,232.8471 384.3546,235.7029 C393.5301,258.5499 403.9933,284.6034 410.2923,300.2879 " fill="none" id="Disadis-&gt;FedoraHTTP" style="stroke: #A80036; stroke-width: 1.0;"/><polygon fill="#A80036" points="412.3031,305.2947,412.6608,295.4523,410.4397,300.6549,405.2371,298.4338,412.3031,305.2947" style="stroke: #A80036; stroke-width: 1.0;"/><!--MD5=[de12bf423e57d8c75bcb6d2daa178234]
link CurateBL to Disadis--><path d="M125.491,90.0727 C136.3046,94.0941 147.963,98.0372 159,101 C245.5867,124.2439 295.3214,69.8991 358,134 C358.2575,134.2633 358.5091,134.5309 358.7551,134.8027 " fill="none" id="CurateBL-&gt;Disadis" style="stroke: #A80036; stroke-width: 1.0;"/><polygon fill="#A80036" points="358.7551,134.8027,355.6815,125.4457,355.3999,131.0955,349.7501,130.8139,358.7551,134.8027" style="stroke: #A80036; stroke-width: 1.0;"/><!--MD5=[510a92e6a3cc1b6ceae6e6532d37fc87]
@startuml

package "curate.nd.edu" {
  component "Object Model" as CurateOM
  component "Workers" as CurateW
  component "Business Logic" as CurateBL
  database MySQL
  interface "API" as CurateAPI
  CurateW - -> CurateOM
  CurateBL - -> MySQL
}
package Disadis {
  folder "Web Logs" as WebLogs
}

package "Fedora" {
  interface "HTTP Interface" as FedoraHTTP
  folder "File System" as FedoraFS
}
note bottom of Fedora
  For durable storage
end note

package "Solr" {
  interface "HTTP Interface" as SolrHTTP
}
note bottom of Solr
  For search
end note

package "Batch" {
  interface API as BatchAPI
  component "System\nWorkers" as BatchWorkers
  component Staging as BatchStaging
  BatchWorkers - -> BatchStaging
}

package "Bendo" {
  interface API as BendoAPI
  component Cache as BendoC
  component Storage {
    component "Copy on\nWrite Layer" as BendoCOW
    component "Preservation\nLayer" as BendoPL
  }
}

package "DTernity" {
  interface "NFS Mount" as DTernityNFSM
  interface "CIFS Mount" as DTernityCIFSM
  package "Storage" as DTernityStorage {
    component "Cloud" as DternityCS
    component "Tape" as DternityTS
  }
}

folder "Local Storage" {
  interface "NFS Mount" as LocalNFSMount
}

folder "SpectraLogic"

cloud "FujiCloud"

cloud AWS {
  component S3
}

package "curate metrics" {
  component "Harvester"
  Harvester - -> WebLogs
  Harvester - -> FedoraHTTP
  Harvester - -> FedoraFS
  Harvester - -> BendoAPI
}

BendoPL - -> DTernityNFSM
CurateOM - -> FedoraHTTP
CurateOM - -> SolrHTTP
BatchWorkers - -> CurateAPI
BendoCOW - -> LocalNFSMount
DternityTS - -> SpectraLogic
DternityCS - -> FujiCloud
BendoC - -> S3
CurateW - -> BatchAPI
BatchWorkers - -> BendoAPI
BatchWorkers - -> FedoraHTTP
BatchWorkers - -> LocalNFSMount
BatchStaging - -> LocalNFSMount
Disadis - -> FedoraHTTP
CurateBL - -> Disadis
@enduml

PlantUML version 1.2019.10(Fri Sep 13 16:53:03 EDT 2019)
(GPL source distribution)
Java Runtime: Java(TM) SE Runtime Environment
JVM: Java HotSpot(TM) 64-Bit Server VM
Java Version: 1.8.0_102-b14
Operating System: Mac OS X
Default Encoding: UTF-8
Language: en
Country: US
--></g></svg>