<?xml version="1.0" encoding="UTF-8" standalone="no"?><svg xmlns="http://www.w3.org/2000/svg" xmlns:xlink="http://www.w3.org/1999/xlink" contentScriptType="application/ecmascript" contentStyleType="text/css" height="595px" preserveAspectRatio="none" style="width:1229px;height:595px;" version="1.1" viewBox="0 0 1229 595"
    width="1229px" zoomAndPan="magnify"><defs><filter height="300%" id="f1k8hx9e1js9o9" width="300%" x="-1" y="-1"><feGaussianBlur result="blurOut" stdDeviation="2.0"/><feColorMatrix in="blurOut" result="blurOut2" type="matrix" values="0 0 0 0 0 0 0 0 0 0 0 0 0 0 0 0 0 0 .4 0"/><feOffset dx="4.0" dy="4.0" in="blurOut2" result="blurOut3"/><feBlend in="SourceGraphic" in2="blurOut3" mode="normal"/></filter></defs><g><!--MD5=[c9d6f7fb1f0a669497366bbe6221095f]
cluster curate.nd.edu--><polygon fill="#FFFFFF" filter="url(#f1k8hx9e1js9o9)" points="203,16,303,16,310,38.4883,539,38.4883,539,220.5,203,220.5,203,16" style="stroke: #000000; stroke-width: 1.5;"/><line style="stroke: #000000; stroke-width: 1.5;" x1="203" x2="310" y1="38.4883" y2="38.4883"/><text fill="#000000" font-family="sans-serif" font-size="14" font-weight="bold" lengthAdjust="spacingAndGlyphs" textLength="94" x="207" y="31.5352">curate.nd.edu</text><!--MD5=[7d014933b08cb0c1162e733cc176b719]
cluster Disadis--><polygon fill="#FFFFFF" filter="url(#f1k8hx9e1js9o9)" points="792,135,852,135,859,157.4883,939,157.4883,939,226,792,226,792,135" style="stroke: #000000; stroke-width: 1.5;"/><line style="stroke: #000000; stroke-width: 1.5;" x1="792" x2="859" y1="157.4883" y2="157.4883"/><text fill="#000000" font-family="sans-serif" font-size="14" font-weight="bold" lengthAdjust="spacingAndGlyphs" textLength="54" x="796" y="150.5352">Disadis</text><!--MD5=[308df279a3acadc606e9b430cafa7df7]
cluster Fedora--><polygon fill="#FFFFFF" filter="url(#f1k8hx9e1js9o9)" points="846,258.5,900,258.5,907,280.9883,1154,280.9883,1154,351.5,846,351.5,846,258.5" style="stroke: #000000; stroke-width: 1.5;"/><line style="stroke: #000000; stroke-width: 1.5;" x1="846" x2="907" y1="280.9883" y2="280.9883"/><text fill="#000000" font-family="sans-serif" font-size="14" font-weight="bold" lengthAdjust="spacingAndGlyphs" textLength="48" x="850" y="274.0352">Fedora</text><!--MD5=[9b75e51328caceb55a2eb72be0e161e7]
cluster Solr--><polygon fill="#FFFFFF" filter="url(#f1k8hx9e1js9o9)" points="203,258.5,237,258.5,244,280.9883,370,280.9883,370,351.5,203,351.5,203,258.5" style="stroke: #000000; stroke-width: 1.5;"/><line style="stroke: #000000; stroke-width: 1.5;" x1="203" x2="244" y1="280.9883" y2="280.9883"/><text fill="#000000" font-family="sans-serif" font-size="14" font-weight="bold" lengthAdjust="spacingAndGlyphs" textLength="28" x="207" y="274.0352">Solr</text><!--MD5=[aa67b594d9c629de74c234d94f00fd81]
cluster Batch--><polygon fill="#FFFFFF" filter="url(#f1k8hx9e1js9o9)" points="14,134,59,134,66,156.4883,195,156.4883,195,340.5,14,340.5,14,134" style="stroke: #000000; stroke-width: 1.5;"/><line style="stroke: #000000; stroke-width: 1.5;" x1="14" x2="66" y1="156.4883" y2="156.4883"/><text fill="#000000" font-family="sans-serif" font-size="14" font-weight="bold" lengthAdjust="spacingAndGlyphs" textLength="39" x="18" y="149.5352">Batch</text><!--MD5=[cbf4aac06c00b9b45ad288879e34ff12]
cluster Bendo--><polygon fill="#FFFFFF" filter="url(#f1k8hx9e1js9o9)" points="381,234,431,234,438,256.4883,827,256.4883,827,357,381,357,381,234" style="stroke: #000000; stroke-width: 1.5;"/><line style="stroke: #000000; stroke-width: 1.5;" x1="381" x2="438" y1="256.4883" y2="256.4883"/><text fill="#000000" font-family="sans-serif" font-size="14" font-weight="bold" lengthAdjust="spacingAndGlyphs" textLength="44" x="385" y="249.5352">Bendo</text><!--MD5=[562ed55e840afc79d9783beef242227d]
cluster Storage--><rect fill="#FFFFFF" filter="url(#f1k8hx9e1js9o9)" height="88" style="stroke: #000000; stroke-width: 1.5;" width="252" x="389" y="261"/><rect fill="#FFFFFF" height="10" style="stroke: #000000; stroke-width: 1.5;" width="15" x="621" y="266"/><rect fill="#FFFFFF" height="2" style="stroke: #000000; stroke-width: 1.5;" width="4" x="619" y="268"/><rect fill="#FFFFFF" height="2" style="stroke: #000000; stroke-width: 1.5;" width="4" x="619" y="272"/><text fill="#000000" font-family="sans-serif" font-size="14" font-weight="bold" lengthAdjust="spacingAndGlyphs" textLength="54" x="488" y="287.5352">Storage</text><!--MD5=[8c9b6bf02c885b7ba5866d030e10667c]
cluster DTernity--><polygon fill="#FFFFFF" filter="url(#f1k8hx9e1js9o9)" points="398,365,467,365,474,387.4883,827,387.4883,827,474,398,474,398,365" style="stroke: #000000; stroke-width: 1.5;"/><line style="stroke: #000000; stroke-width: 1.5;" x1="398" x2="474" y1="387.4883" y2="387.4883"/><text fill="#000000" font-family="sans-serif" font-size="14" font-weight="bold" lengthAdjust="spacingAndGlyphs" textLength="63" x="402" y="380.5352">DTernity</text><!--MD5=[e9e3ba0bf15797c0c490631f9deee05c]
cluster DTernityStorage--><polygon fill="#FFFFFF" filter="url(#f1k8hx9e1js9o9)" points="652,392,712,392,719,414.4883,819,414.4883,819,463,652,463,652,392" style="stroke: #000000; stroke-width: 1.5;"/><line style="stroke: #000000; stroke-width: 1.5;" x1="652" x2="719" y1="414.4883" y2="414.4883"/><text fill="#000000" font-family="sans-serif" font-size="14" font-weight="bold" lengthAdjust="spacingAndGlyphs" textLength="54" x="656" y="407.5352">Storage</text><!--MD5=[a049e73094d01d50612d29bd051aef70]
cluster Local Storage--><polygon fill="#FFFFFF" filter="url(#f1k8hx9e1js9o9)" points="93,381,195,381,202,403.4883,205,403.4883,205,474,93,474,93,381" style="stroke: #000000; stroke-width: 1.5;"/><line style="stroke: #000000; stroke-width: 1.5;" x1="93" x2="202" y1="403.4883" y2="403.4883"/><text fill="#000000" font-family="sans-serif" font-size="14" font-weight="bold" lengthAdjust="spacingAndGlyphs" textLength="96" x="97" y="396.5352">Local Storage</text><!--MD5=[88656e78e5bedad418341b6ececa151e]
cluster AWS--><path d="M847.2142,400.3987 C851.2106,390.2568 859.6197,389.4377 865.7981,398.2605 C873.0291,389.0921 881.2343,392.0645 884.9456,401.8215 C891.62,403.9215 894.1897,407.5421 889.5679,413.948 C897.7793,416.2936 899.3353,423.1921 892.5576,428.5968 C897.8206,434.0835 896.9676,440.1982 888.7758,441.8437 C894.3614,447.562 892.3851,453.4655 885.2753,456.0573 C879.9053,466.5718 873.741,466.7505 865.3952,459.3616 C858.2252,468.0689 851.2758,465.3269 847.2514,456.1674 C838.8752,453.919 837.4762,448.5534 843.8642,442.615 C835.9725,441.1406 834.4699,434.5857 840.4168,429.4793 C833.3828,423.3259 835.761,417.2368 843.3964,413.8865 C839.0046,408.22 840.0733,402.8009 847.2142,400.3987 " fill="#FFFFFF" style="stroke: #000000; stroke-width: 1.5;"/><text fill="#000000" font-family="sans-serif" font-size="14" font-weight="bold" lengthAdjust="spacingAndGlyphs" textLength="31" x="849.5" y="418.5352">AWS</text><!--MD5=[6cc24a1e0287d9f0336a3189c6c7fbea]
cluster curate metrics--><polygon fill="#FFFFFF" filter="url(#f1k8hx9e1js9o9)" points="737,27,846,27,853,49.4883,856,49.4883,856,98,737,98,737,27" style="stroke: #000000; stroke-width: 1.5;"/><line style="stroke: #000000; stroke-width: 1.5;" x1="737" x2="853" y1="49.4883" y2="49.4883"/><text fill="#000000" font-family="sans-serif" font-size="14" font-weight="bold" lengthAdjust="spacingAndGlyphs" textLength="103" x="741" y="42.5352">curate metrics</text><!--MD5=[bc546d046b41a8b88c97b3c23ad68e14]
entity CurateOM--><rect fill="#FEFECE" filter="url(#f1k8hx9e1js9o9)" height="36.4883" style="stroke: #A80036; stroke-width: 1.5;" width="110" x="283" y="172"/><rect fill="#FEFECE" height="5" style="stroke: #A80036; stroke-width: 1.5;" width="10" x="278" y="177"/><rect fill="#FEFECE" height="5" style="stroke: #A80036; stroke-width: 1.5;" width="10" x="278" y="198.4883"/><text fill="#000000" font-family="sans-serif" font-size="14" lengthAdjust="spacingAndGlyphs" textLength="90" x="293" y="195.5352">Object Model</text><!--MD5=[5b9b4a8bd609abdac0c7ed1e93f17e2b]
entity CurateW--><rect fill="#FEFECE" filter="url(#f1k8hx9e1js9o9)" height="36.4883" style="stroke: #A80036; stroke-width: 1.5;" width="76" x="300" y="54"/><rect fill="#FEFECE" height="5" style="stroke: #A80036; stroke-width: 1.5;" width="10" x="295" y="59"/><rect fill="#FEFECE" height="5" style="stroke: #A80036; stroke-width: 1.5;" width="10" x="295" y="80.4883"/><text fill="#000000" font-family="sans-serif" font-size="14" lengthAdjust="spacingAndGlyphs" textLength="56" x="310" y="77.5352">Workers</text><!--MD5=[85b2ff28930311f4084f221890a0e438]
entity CurateBL--><rect fill="#FEFECE" filter="url(#f1k8hx9e1js9o9)" height="36.4883" style="stroke: #A80036; stroke-width: 1.5;" width="119" x="411.5" y="54"/><rect fill="#FEFECE" height="5" style="stroke: #A80036; stroke-width: 1.5;" width="10" x="406.5" y="59"/><rect fill="#FEFECE" height="5" style="stroke: #A80036; stroke-width: 1.5;" width="10" x="406.5" y="80.4883"/><text fill="#000000" font-family="sans-serif" font-size="14" lengthAdjust="spacingAndGlyphs" textLength="99" x="421.5" y="77.5352">Business Logic</text><!--MD5=[993e0d4fdeccee87e9dafe04241cdfbd]
entity MySQL--><path d="M438.5,177.5 C438.5,167.5 471,167.5 471,167.5 C471,167.5 503.5,167.5 503.5,177.5 L503.5,202.9883 C503.5,212.9883 471,212.9883 471,212.9883 C471,212.9883 438.5,212.9883 438.5,202.9883 L438.5,177.5 " fill="#FEFECE" filter="url(#f1k8hx9e1js9o9)" style="stroke: #000000; stroke-width: 1.5;"/><path d="M438.5,177.5 C438.5,187.5 471,187.5 471,187.5 C471,187.5 503.5,187.5 503.5,177.5 " fill="none" style="stroke: #000000; stroke-width: 1.5;"/><text fill="#000000" font-family="sans-serif" font-size="14" lengthAdjust="spacingAndGlyphs" textLength="45" x="448.5" y="205.0352">MySQL</text><!--MD5=[b20deab9512140920db0c60e05ecf044]
entity CurateAPI--><ellipse cx="238" cy="72" fill="#FEFECE" filter="url(#f1k8hx9e1js9o9)" rx="8" ry="8" style="stroke: #A80036; stroke-width: 2.0;"/><text fill="#000000" font-family="sans-serif" font-size="14" lengthAdjust="spacingAndGlyphs" textLength="22" x="227" y="102.5352">API</text><!--MD5=[09e45ecdc9d0928e12a9f97e1821a103]
entity WebLogs--><polygon fill="#FEFECE" filter="url(#f1k8hx9e1js9o9)" points="800.5,162,846.5,162,853.5,183,895.5,183,895.5,217.9766,800.5,217.9766,800.5,162" style="stroke: #000000; stroke-width: 1.5;"/><line style="stroke: #000000; stroke-width: 1.5;" x1="800.5" x2="853.5" y1="183" y2="183"/><text fill="#000000" font-family="sans-serif" font-size="14" lengthAdjust="spacingAndGlyphs" textLength="65" x="810.5" y="203.5352">Web Logs</text><!--MD5=[82c8c233f10cbc3ee793e1964b60c00d]
entity FedoraHTTP--><ellipse cx="912" cy="314.5" fill="#FEFECE" filter="url(#f1k8hx9e1js9o9)" rx="8" ry="8" style="stroke: #A80036; stroke-width: 2.0;"/><text fill="#000000" font-family="sans-serif" font-size="14" lengthAdjust="spacingAndGlyphs" textLength="100" x="862" y="345.0352">HTTP Interface</text><!--MD5=[758792de11c9918e6829c98b147e27c2]
entity FedoraFS--><polygon fill="#FEFECE" filter="url(#f1k8hx9e1js9o9)" points="1005,286.5,1051,286.5,1058,307.5,1111,307.5,1111,342.4766,1005,342.4766,1005,286.5" style="stroke: #000000; stroke-width: 1.5;"/><line style="stroke: #000000; stroke-width: 1.5;" x1="1005" x2="1058" y1="307.5" y2="307.5"/><text fill="#000000" font-family="sans-serif" font-size="14" lengthAdjust="spacingAndGlyphs" textLength="76" x="1015" y="328.0352">File System</text><!--MD5=[2b310bc7e1db6a4b29dfa72fc01c3ea1]
entity SolrHTTP--><ellipse cx="269" cy="314.5" fill="#FEFECE" filter="url(#f1k8hx9e1js9o9)" rx="8" ry="8" style="stroke: #A80036; stroke-width: 2.0;"/><text fill="#000000" font-family="sans-serif" font-size="14" lengthAdjust="spacingAndGlyphs" textLength="100" x="219" y="345.0352">HTTP Interface</text><!--MD5=[6c444dd6b145513787bf9986e8d9020c]
entity BatchAPI--><ellipse cx="160" cy="190" fill="#FEFECE" filter="url(#f1k8hx9e1js9o9)" rx="8" ry="8" style="stroke: #A80036; stroke-width: 2.0;"/><text fill="#000000" font-family="sans-serif" font-size="14" lengthAdjust="spacingAndGlyphs" textLength="22" x="149" y="220.5352">API</text><!--MD5=[42eac362781da04da8cb2bec19ef980a]
entity BatchWorkers--><rect fill="#FEFECE" filter="url(#f1k8hx9e1js9o9)" height="52.9766" style="stroke: #A80036; stroke-width: 1.5;" width="76" x="22" y="163.5"/><rect fill="#FEFECE" height="5" style="stroke: #A80036; stroke-width: 1.5;" width="10" x="17" y="168.5"/><rect fill="#FEFECE" height="5" style="stroke: #A80036; stroke-width: 1.5;" width="10" x="17" y="206.4766"/><text fill="#000000" font-family="sans-serif" font-size="14" lengthAdjust="spacingAndGlyphs" textLength="48" x="32" y="187.0352">System</text><text fill="#000000" font-family="sans-serif" font-size="14" lengthAdjust="spacingAndGlyphs" textLength="56" x="32" y="203.5234">Workers</text><!--MD5=[2234a812ce347459a076fc2b1c7df208]
entity BatchStaging--><rect fill="#FEFECE" filter="url(#f1k8hx9e1js9o9)" height="36.4883" style="stroke: #A80036; stroke-width: 1.5;" width="72" x="24" y="296.5"/><rect fill="#FEFECE" height="5" style="stroke: #A80036; stroke-width: 1.5;" width="10" x="19" y="301.5"/><rect fill="#FEFECE" height="5" style="stroke: #A80036; stroke-width: 1.5;" width="10" x="19" y="322.9883"/><text fill="#000000" font-family="sans-serif" font-size="14" lengthAdjust="spacingAndGlyphs" textLength="52" x="34" y="320.0352">Staging</text><!--MD5=[242e68a4e3660568a3ed9cfaf97b0cda]
entity BendoAPI--><ellipse cx="695" cy="314.5" fill="#FEFECE" filter="url(#f1k8hx9e1js9o9)" rx="8" ry="8" style="stroke: #A80036; stroke-width: 2.0;"/><text fill="#000000" font-family="sans-serif" font-size="14" lengthAdjust="spacingAndGlyphs" textLength="22" x="684" y="345.0352">API</text><!--MD5=[0f052bab7fd2de2904a9ceb14d55a370]
entity BendoC--><rect fill="#FEFECE" filter="url(#f1k8hx9e1js9o9)" height="36.4883" style="stroke: #A80036; stroke-width: 1.5;" width="62" x="757" y="296.5"/><rect fill="#FEFECE" height="5" style="stroke: #A80036; stroke-width: 1.5;" width="10" x="752" y="301.5"/><rect fill="#FEFECE" height="5" style="stroke: #A80036; stroke-width: 1.5;" width="10" x="752" y="322.9883"/><text fill="#000000" font-family="sans-serif" font-size="14" lengthAdjust="spacingAndGlyphs" textLength="42" x="767" y="320.0352">Cache</text><!--MD5=[5c06c8213d2b1db03166202b79a3e367]
entity BendoCOW--><rect fill="#FEFECE" filter="url(#f1k8hx9e1js9o9)" height="52.9766" style="stroke: #A80036; stroke-width: 1.5;" width="95" x="397.5" y="288"/><rect fill="#FEFECE" height="5" style="stroke: #A80036; stroke-width: 1.5;" width="10" x="392.5" y="293"/><rect fill="#FEFECE" height="5" style="stroke: #A80036; stroke-width: 1.5;" width="10" x="392.5" y="330.9766"/><text fill="#000000" font-family="sans-serif" font-size="14" lengthAdjust="spacingAndGlyphs" textLength="57" x="407.5" y="311.5352">Copy on</text><text fill="#000000" font-family="sans-serif" font-size="14" lengthAdjust="spacingAndGlyphs" textLength="75" x="407.5" y="328.0234">Write Layer</text><!--MD5=[a69a73efb10663008a20fe4208d4e2df]
entity BendoPL--><rect fill="#FEFECE" filter="url(#f1k8hx9e1js9o9)" height="52.9766" style="stroke: #A80036; stroke-width: 1.5;" width="105" x="527.5" y="288"/><rect fill="#FEFECE" height="5" style="stroke: #A80036; stroke-width: 1.5;" width="10" x="522.5" y="293"/><rect fill="#FEFECE" height="5" style="stroke: #A80036; stroke-width: 1.5;" width="10" x="522.5" y="330.9766"/><text fill="#000000" font-family="sans-serif" font-size="14" lengthAdjust="spacingAndGlyphs" textLength="85" x="537.5" y="311.5352">Preservation</text><text fill="#000000" font-family="sans-serif" font-size="14" lengthAdjust="spacingAndGlyphs" textLength="36" x="537.5" y="328.0234">Layer</text><!--MD5=[122471d58b7557712b3645c406151814]
entity DTernityNFSM--><ellipse cx="580" cy="437" fill="#FEFECE" filter="url(#f1k8hx9e1js9o9)" rx="8" ry="8" style="stroke: #A80036; stroke-width: 2.0;"/><text fill="#000000" font-family="sans-serif" font-size="14" lengthAdjust="spacingAndGlyphs" textLength="74" x="543" y="467.5352">NFS Mount</text><!--MD5=[52d5b48969f4d8ab03330ef1bdf65780]
entity DTernityCIFSM--><ellipse cx="453" cy="437" fill="#FEFECE" filter="url(#f1k8hx9e1js9o9)" rx="8" ry="8" style="stroke: #A80036; stroke-width: 2.0;"/><text fill="#000000" font-family="sans-serif" font-size="14" lengthAdjust="spacingAndGlyphs" textLength="78" x="414" y="467.5352">CIFS Mount</text><!--MD5=[2134bfea3f0564af1f6584dd54f55a6d]
entity DternityCS--><rect fill="#FEFECE" filter="url(#f1k8hx9e1js9o9)" height="36.4883" style="stroke: #A80036; stroke-width: 1.5;" width="61" x="660.5" y="419"/><rect fill="#FEFECE" height="5" style="stroke: #A80036; stroke-width: 1.5;" width="10" x="655.5" y="424"/><rect fill="#FEFECE" height="5" style="stroke: #A80036; stroke-width: 1.5;" width="10" x="655.5" y="445.4883"/><text fill="#000000" font-family="sans-serif" font-size="14" lengthAdjust="spacingAndGlyphs" textLength="41" x="670.5" y="442.5352">Cloud</text><!--MD5=[9b637540d1516a39865ba1e8b60410be]
entity DternityTS--><rect fill="#FEFECE" filter="url(#f1k8hx9e1js9o9)" height="36.4883" style="stroke: #A80036; stroke-width: 1.5;" width="54" x="757" y="419"/><rect fill="#FEFECE" height="5" style="stroke: #A80036; stroke-width: 1.5;" width="10" x="752" y="424"/><rect fill="#FEFECE" height="5" style="stroke: #A80036; stroke-width: 1.5;" width="10" x="752" y="445.4883"/><text fill="#000000" font-family="sans-serif" font-size="14" lengthAdjust="spacingAndGlyphs" textLength="34" x="767" y="442.5352">Tape</text><!--MD5=[88c9a4f3b7c2dc6234e9ce3799e26ab2]
entity LocalNFSMount--><ellipse cx="149" cy="437" fill="#FEFECE" filter="url(#f1k8hx9e1js9o9)" rx="8" ry="8" style="stroke: #A80036; stroke-width: 2.0;"/><text fill="#000000" font-family="sans-serif" font-size="14" lengthAdjust="spacingAndGlyphs" textLength="74" x="112" y="467.5352">NFS Mount</text><!--MD5=[6c7192638421eaf134d201765ac5db29]
entity S3--><rect fill="#FEFECE" filter="url(#f1k8hx9e1js9o9)" height="36.4883" style="stroke: #A80036; stroke-width: 1.5;" width="37" x="846.5" y="419"/><rect fill="#FEFECE" height="5" style="stroke: #A80036; stroke-width: 1.5;" width="10" x="841.5" y="424"/><rect fill="#FEFECE" height="5" style="stroke: #A80036; stroke-width: 1.5;" width="10" x="841.5" y="445.4883"/><text fill="#000000" font-family="sans-serif" font-size="14" lengthAdjust="spacingAndGlyphs" textLength="17" x="856.5" y="442.5352">S3</text><!--MD5=[ce340cc172b9f8cd24d5517f041bcb42]
entity Harvester--><rect fill="#FEFECE" filter="url(#f1k8hx9e1js9o9)" height="36.4883" style="stroke: #A80036; stroke-width: 1.5;" width="85" x="754.5" y="54"/><rect fill="#FEFECE" height="5" style="stroke: #A80036; stroke-width: 1.5;" width="10" x="749.5" y="59"/><rect fill="#FEFECE" height="5" style="stroke: #A80036; stroke-width: 1.5;" width="10" x="749.5" y="80.4883"/><text fill="#000000" font-family="sans-serif" font-size="14" lengthAdjust="spacingAndGlyphs" textLength="65" x="764.5" y="77.5352">Harvester</text><path d="M1074.5,424.5 L1074.5,449.8105 L1217.5,449.8105 L1217.5,434.5 L1207.5,424.5 L1074.5,424.5 " fill="#FBFB77" filter="url(#f1k8hx9e1js9o9)" style="stroke: #A80036; stroke-width: 1.0;"/><path d="M1207.5,424.5 L1207.5,434.5 L1217.5,434.5 L1207.5,424.5 " fill="#FBFB77" style="stroke: #A80036; stroke-width: 1.0;"/><text fill="#000000" font-family="sans-serif" font-size="13" lengthAdjust="spacingAndGlyphs" textLength="122" x="1080.5" y="442.0684">For durable storage</text><path d="M285,424.5 L285,449.8105 L371,449.8105 L371,434.5 L361,424.5 L285,424.5 " fill="#FBFB77" filter="url(#f1k8hx9e1js9o9)" style="stroke: #A80036; stroke-width: 1.0;"/><path d="M361,424.5 L361,434.5 L371,434.5 L361,424.5 " fill="#FBFB77" style="stroke: #A80036; stroke-width: 1.0;"/><text fill="#000000" font-family="sans-serif" font-size="13" lengthAdjust="spacingAndGlyphs" textLength="65" x="291" y="442.0684">For search</text><!--MD5=[cc617f22391be430c88991d2db666087]
entity SpectraLogic--><polygon fill="#FEFECE" filter="url(#f1k8hx9e1js9o9)" points="749.5,526,795.5,526,802.5,547,866.5,547,866.5,581.9766,749.5,581.9766,749.5,526" style="stroke: #000000; stroke-width: 1.5;"/><line style="stroke: #000000; stroke-width: 1.5;" x1="749.5" x2="802.5" y1="547" y2="547"/><text fill="#000000" font-family="sans-serif" font-size="14" lengthAdjust="spacingAndGlyphs" textLength="87" x="759.5" y="567.5352">SpectraLogic</text><!--MD5=[5bd6eb4bacc8574aa646895c70a29c94]
entity FujiCloud--><path d="M626.5388,539.9329 C630.517,533.848 635.0523,534.3923 639.3561,539.562 C641.9616,531.3753 648.6883,531.1649 653.3976,537.5323 C656.8102,531.2032 661.3269,530.1579 666.0212,536.2273 C670.2928,529.5627 676.9941,530.9249 679.6226,537.8694 C684.1442,531.8121 690.504,531.6661 694.1404,538.8407 C698.2412,533.6915 704.0092,533.873 707.4382,539.6577 C714.4558,543.727 716.289,548.7164 709.5336,554.7038 C717.738,561.7873 715.6242,567.6917 706.3597,571.4678 C703.544,578.0244 697.7723,579.0368 693.3289,573.1759 C690.4643,580.432 685.1742,579.7447 680.498,575.1348 C677.1103,581.5027 672.1447,583.8076 666.5828,577.5266 C662.1493,583.1396 656.8145,580.8113 654.841,574.9987 C650.4859,580.3237 643.8135,580.3709 641.1744,573.1321 C636.078,578.4522 628.7027,579.0378 626.1035,570.43 C615.9252,570.4014 613.4429,562.772 617.6847,554.9174 C612.5038,546.3771 616.8708,539.6992 626.5388,539.9329 " fill="#FEFECE" style="stroke: #000000; stroke-width: 1.5;"/><text fill="#000000" font-family="sans-serif" font-size="14" lengthAdjust="spacingAndGlyphs" textLength="66" x="633" y="559.5352">FujiCloud</text><!--MD5=[f6308400aa79ab34bdd42633ed24a516]
link CurateW to CurateOM--><path d="M338,95.3689 C338,116.1286 338,146.2978 338,166.9579 " fill="none" id="CurateW-CurateOM" style="stroke: #A80036; stroke-width: 1.0;"/><polygon fill="#A80036" points="338,171.9941,342,162.9941,338,166.9941,334,162.9941,338,171.9941" style="stroke: #A80036; stroke-width: 1.0;"/><polygon fill="#A80036" points="338,90.1789,334,99.1789,338,95.1789,342,99.1789,338,90.1789" style="stroke: #A80036; stroke-width: 1.0;"/><!--MD5=[ebe573a2313719c32676d731a6f24376]
link CurateBL to MySQL--><path d="M471,95.2563 C471,114.4545 471,141.756 471,162.1238 " fill="none" id="CurateBL-MySQL" style="stroke: #A80036; stroke-width: 1.0;"/><polygon fill="#A80036" points="471,167.1435,475,158.1435,471,162.1435,467,158.1435,471,167.1435" style="stroke: #A80036; stroke-width: 1.0;"/><polygon fill="#A80036" points="471,90.1789,467,99.1789,471,95.1789,475,99.1789,471,90.1789" style="stroke: #A80036; stroke-width: 1.0;"/><!--MD5=[d4a27c786181adde38797ea8d28a87c4]
link Fedora to GMN16--><path d="M1146,351.9038 C1146,352.071 1146,352.2385 1146,352.4063 C1146,352.7419 1146,353.0785 1146,353.4162 C1146,356.1179 1146,358.8868 1146,361.6974 C1146,384.1822 1146,409.3377 1146,424.1363 " fill="none" id="Fedora-GMN16" style="stroke: #A80036; stroke-width: 1.0; stroke-dasharray: 7.0,7.0;"/><!--MD5=[2d6293df30eb24024cd2d630f78e323a]
link Solr to GMN21--><path d="M351.6073,351.9445 C350.8485,354.6781 350.069,357.4868 349.2762,360.3432 C342.9338,383.1946 335.7421,409.1058 331.5543,424.1939 " fill="none" id="Solr-GMN21" style="stroke: #A80036; stroke-width: 1.0; stroke-dasharray: 7.0,7.0;"/><!--MD5=[c4b16eb3d6414c2aa44b92c384e1ef74]
link BatchWorkers to BatchStaging--><path d="M60,216.7084 C60,238.8399 60,269.985 60,291.1375 " fill="none" id="BatchWorkers-&gt;BatchStaging" style="stroke: #A80036; stroke-width: 1.0;"/><polygon fill="#A80036" points="60,296.2883,64,287.2883,60,291.2883,56,287.2883,60,296.2883" style="stroke: #A80036; stroke-width: 1.0;"/><!--MD5=[24f486bdf799ad0a702c5345dc6a5440]
reverse link Harvester to WebLogs--><path d="M806.8803,94.8604 C815.1572,114.0108 827.0053,141.4239 835.8591,161.9094 " fill="none" id="Harvester&lt;-WebLogs" style="stroke: #A80036; stroke-width: 1.0;"/><polygon fill="#A80036" points="804.857,90.1789,804.7559,100.0272,806.8407,94.7686,812.0994,96.8533,804.857,90.1789" style="stroke: #A80036; stroke-width: 1.0;"/><!--MD5=[62e7a5a43012a1701a8f3d7ecdcc52e6]
reverse link Harvester to FedoraHTTP--><path d="M844.7704,77.7912 C879.5553,84.7839 924.3815,100.1765 947,134 C984.6174,190.2526 935.9283,277.1221 918.0802,305.3217 " fill="none" id="Harvester&lt;-FedoraHTTP" style="stroke: #A80036; stroke-width: 1.0;"/><polygon fill="#A80036" points="839.7149,76.8193,847.7979,82.4465,844.625,77.7633,849.3082,74.5904,839.7149,76.8193" style="stroke: #A80036; stroke-width: 1.0;"/><!--MD5=[96be1df9b88cb288f5d1ed381a62e596]
reverse link Harvester to FedoraFS--><path d="M785.6621,94.8428 C770.7967,128.44 750.3218,190.9752 784,226 C799.7227,242.3513 967.5459,224.192 988,234 C1011.2128,245.1308 1029.855,267.9069 1042.0465,286.4007 " fill="none" id="Harvester&lt;-FedoraFS" style="stroke: #A80036; stroke-width: 1.0;"/><polygon fill="#A80036" points="787.8076,90.1025,780.4524,96.6524,785.7459,94.6576,787.7406,99.9511,787.8076,90.1025" style="stroke: #A80036; stroke-width: 1.0;"/><!--MD5=[78ec22f88696ac5f08efde5019f06155]
reverse link Harvester to BendoAPI--><path d="M760.9943,92.9055 C746.231,103.3511 730.4257,117.3365 721,134 C688.1099,192.1455 691.7743,277.062 694.0789,305.1188 " fill="none" id="Harvester&lt;-BendoAPI" style="stroke: #A80036; stroke-width: 1.0;"/><polygon fill="#A80036" points="765.1245,90.0539,755.4456,91.8758,761.0099,92.8947,759.991,98.4591,765.1245,90.0539" style="stroke: #A80036; stroke-width: 1.0;"/><!--MD5=[4f71ea4900ca13e6e997786faf271167]
link BendoPL to DTernityNFSM--><path d="M580,346.3795 C580,371.0433 580,404.0313 580,422.6424 " fill="none" id="BendoPL-DTernityNFSM" style="stroke: #A80036; stroke-width: 1.0;"/><polygon fill="#A80036" points="580,427.9316,584,418.9316,580,422.9316,576,418.9316,580,427.9316" style="stroke: #A80036; stroke-width: 1.0;"/><polygon fill="#A80036" points="580,341.0807,576,350.0807,580,346.0807,584,350.0807,580,341.0807" style="stroke: #A80036; stroke-width: 1.0;"/><!--MD5=[748fade2ea86f22bd3818d6807e04c9b]
link CurateOM to FedoraHTTP--><path d="M376.2896,210.3142 C390.0058,216.5817 405.8323,222.6991 421,226 C443.4782,230.8918 813.9342,224.7571 835,234 C866.6733,247.897 891.6722,281.6652 903.8641,300.7577 " fill="none" id="CurateOM-FedoraHTTP" style="stroke: #A80036; stroke-width: 1.0;"/><polygon fill="#A80036" points="906.6841,305.2746,905.3107,295.522,904.0361,301.0333,898.5247,299.7587,906.6841,305.2746" style="stroke: #A80036; stroke-width: 1.0;"/><polygon fill="#A80036" points="371.723,208.1869,378.192,215.6133,376.2553,210.2983,381.5703,208.3616,371.723,208.1869" style="stroke: #A80036; stroke-width: 1.0;"/><!--MD5=[23afdad4f6870048c8e275f40f5e33c7]
link CurateOM to SolrHTTP--><path d="M325.4053,212.7251 C311.1278,238.4869 288.3142,279.6504 276.5543,300.8694 " fill="none" id="CurateOM-SolrHTTP" style="stroke: #A80036; stroke-width: 1.0;"/><polygon fill="#A80036" points="274.0842,305.3263,281.9455,299.3934,276.5079,300.953,274.9483,295.5154,274.0842,305.3263" style="stroke: #A80036; stroke-width: 1.0;"/><polygon fill="#A80036" points="327.9668,208.1034,320.1053,214.0361,325.543,212.4766,327.1025,217.9143,327.9668,208.1034" style="stroke: #A80036; stroke-width: 1.0;"/><!--MD5=[d7a1711f6d8c846615a674cc1f540235]
link BatchWorkers to CurateAPI--><path d="M82.7707,163.3407 C92.1148,153.3741 103.4439,142.4373 115,134 C151.091,107.6496 200.0304,86.7329 223.8307,77.3574 " fill="none" id="BatchWorkers-&gt;CurateAPI" style="stroke: #A80036; stroke-width: 1.0;"/><polygon fill="#A80036" points="228.7829,75.4309,218.945,74.9663,224.1231,77.2438,221.8456,82.4219,228.7829,75.4309" style="stroke: #A80036; stroke-width: 1.0;"/><!--MD5=[be818180ef747dfd724894fcac7cbd33]
link BendoCOW to LocalNFSMount--><path d="M405.4137,344.0514 C396.7655,349.2091 387.3819,353.9054 378,357 C331.0281,372.4938 314.1051,349.9159 267,365 C225.1783,378.3923 182.8556,409.4253 162.1154,426.0381 " fill="none" id="BendoCOW-LocalNFSMount" style="stroke: #A80036; stroke-width: 1.0;"/><polygon fill="#A80036" points="158.0252,429.3527,167.5359,426.7941,161.9098,426.2048,162.4992,420.5787,158.0252,429.3527" style="stroke: #A80036; stroke-width: 1.0;"/><polygon fill="#A80036" points="410.1378,341.1458,400.3762,342.4537,405.8789,343.7653,404.5673,349.268,410.1378,341.1458" style="stroke: #A80036; stroke-width: 1.0;"/><!--MD5=[712c61d2caa9247498e07ff5e7aef8af]
link DternityTS to SpectraLogic--><path d="M788.7415,460.115 C792.2714,477.3229 797.1434,501.0739 801.1038,520.3811 " fill="none" id="DternityTS-SpectraLogic" style="stroke: #A80036; stroke-width: 1.0;"/><polygon fill="#A80036" points="802.1948,525.6997,804.3045,516.0794,801.1899,520.8017,796.4677,517.6872,802.1948,525.6997" style="stroke: #A80036; stroke-width: 1.0;"/><polygon fill="#A80036" points="787.6974,455.0248,785.5875,464.645,788.7021,459.9228,793.4243,463.0375,787.6974,455.0248" style="stroke: #A80036; stroke-width: 1.0;"/><!--MD5=[1b451e3079f782c992b0770264c82750]
link DternityCS to FujiCloud--><path d="M686.0798,460.0264 C682.0398,478.9338 676.3026,505.784 671.9945,525.9456 " fill="none" id="DternityCS-FujiCloud" style="stroke: #A80036; stroke-width: 1.0;"/><polygon fill="#A80036" points="670.932,530.9184,676.7244,522.953,671.9769,526.0288,668.9011,521.2812,670.932,530.9184" style="stroke: #A80036; stroke-width: 1.0;"/><polygon fill="#A80036" points="687.1485,455.0248,681.3561,462.9902,686.1036,459.9144,689.1794,464.662,687.1485,455.0248" style="stroke: #A80036; stroke-width: 1.0;"/><!--MD5=[58a52875fac3da223b468f2cf2292c87]
link BendoC to S3--><path d="M806.5011,336.7393 C813.2902,345.3304 820.8199,355.3924 827,365 C837.1674,380.8063 847.0245,399.6173 854.1508,414.0473 " fill="none" id="BendoC-S3" style="stroke: #A80036; stroke-width: 1.0;"/><polygon fill="#A80036" points="856.4593,418.7624,856.0942,408.9203,854.2606,414.2718,848.9092,412.4382,856.4593,418.7624" style="stroke: #A80036; stroke-width: 1.0;"/><polygon fill="#A80036" points="803.2369,332.6484,805.7235,342.1782,806.3554,336.5567,811.9768,337.1886,803.2369,332.6484" style="stroke: #A80036; stroke-width: 1.0;"/><!--MD5=[3f37fb978bf3238147a411acecef3405]
link CurateW to BatchAPI--><path d="M304.5487,90.12 C297.197,93.8775 289.3971,97.695 282,101 C244.2425,117.87 226.9639,107.7601 195,134 C181.2316,145.3029 171.2833,163.5142 165.5899,176.0844 " fill="none" id="CurateW-&gt;BatchAPI" style="stroke: #A80036; stroke-width: 1.0;"/><polygon fill="#A80036" points="163.5485,180.7627,170.8141,174.1136,165.5482,176.18,163.4818,170.9141,163.5485,180.7627" style="stroke: #A80036; stroke-width: 1.0;"/><!--MD5=[22c30e073cb1775f49aed19ee0caac9c]
link BatchWorkers to BendoAPI--><path d="M94.3189,216.5875 C100.8708,220.4369 107.9074,223.8272 115,226 C143.3686,234.6907 623.4504,218.916 649,234 C673.5797,248.5113 686.1788,281.5443 691.6013,300.4766 " fill="none" id="BatchWorkers-&gt;BendoAPI" style="stroke: #A80036; stroke-width: 1.0;"/><polygon fill="#A80036" points="692.9443,305.4155,694.4423,295.6812,691.6322,300.5907,686.7227,297.7806,692.9443,305.4155" style="stroke: #A80036; stroke-width: 1.0;"/><!--MD5=[48aeddef0129bbadfae385d809e6ed7e]
link BatchWorkers to FedoraHTTP--><path d="M98.6774,219.0605 C103.9467,221.8791 109.4557,224.3132 115,226 C153.2705,237.6432 798.3028,218.078 835,234 C866.73,247.7669 891.7065,281.5868 903.8796,300.7223 " fill="none" id="BatchWorkers-FedoraHTTP" style="stroke: #A80036; stroke-width: 1.0;"/><polygon fill="#A80036" points="906.6949,305.2497,905.3392,295.4946,904.0546,301.0037,898.5455,299.7191,906.6949,305.2497" style="stroke: #A80036; stroke-width: 1.0;"/><polygon fill="#A80036" points="94.3119,216.6104,100.2024,224.5035,98.6721,219.0576,104.118,217.5273,94.3119,216.6104" style="stroke: #A80036; stroke-width: 1.0;"/><!--MD5=[17e618ef446bf30840648c6d8ccb831e]
link BatchWorkers to LocalNFSMount--><path d="M101.8853,219.579 C106.1406,224.0026 109.9941,228.8309 113,234 C149.5497,296.8527 150.7624,387.7731 149.7045,422.645 " fill="none" id="BatchWorkers-LocalNFSMount" style="stroke: #A80036; stroke-width: 1.0;"/><polygon fill="#A80036" points="149.5202,427.7476,153.8424,418.8978,149.7006,422.7509,145.8476,418.6091,149.5202,427.7476" style="stroke: #A80036; stroke-width: 1.0;"/><polygon fill="#A80036" points="98.226,215.9598,101.8122,225.1325,101.781,219.4758,107.4377,219.4446,98.226,215.9598" style="stroke: #A80036; stroke-width: 1.0;"/><!--MD5=[50317854333d4d877def66f8e8153057]
link BatchStaging to LocalNFSMount--><path d="M73.1323,332.5753 C91.174,357.4081 123.2122,401.5056 139.265,423.6007 " fill="none" id="BatchStaging-&gt;LocalNFSMount" style="stroke: #A80036; stroke-width: 1.0;"/><polygon fill="#A80036" points="142.2535,427.7141,140.1995,418.0818,139.3146,423.669,133.7273,422.7841,142.2535,427.7141" style="stroke: #A80036; stroke-width: 1.0;"/><!--MD5=[d4332c447949cb4637e1aafbc0cbc697]
link Disadis to FedoraHTTP--><path d="M925.4614,226.2923 C925.4097,226.631 925.3578,226.971 925.3058,227.3121 C924.8893,230.0413 924.4611,232.8471 924.0252,235.7029 C920.5386,258.5499 916.5625,284.6034 914.1689,300.2879 " fill="none" id="Disadis-FedoraHTTP" style="stroke: #A80036; stroke-width: 1.0;"/><polygon fill="#A80036" points="913.4048,305.2947,918.717,297.0013,914.1592,300.3519,910.8086,295.7942,913.4048,305.2947" style="stroke: #A80036; stroke-width: 1.0;"/><polygon fill="#A80036" points="925.4614,226.2923,920.1494,234.5859,924.7071,231.2351,928.0578,235.7928,925.4614,226.2923" style="stroke: #A80036; stroke-width: 1.0;"/><!--MD5=[46358081c2cbc3b43c079e3274bda990]
@startuml

package "curate.nd.edu" {
  component "Object Model" as CurateOM
  component "Workers" as CurateW
  component "Business Logic" as CurateBL
  database MySQL
  interface "API" as CurateAPI
  CurateW <- -> CurateOM
  CurateBL <- -> MySQL
}
package Disadis {
  folder "Web Logs" as WebLogs
}

package "Fedora" {
  interface "HTTP Interface" as FedoraHTTP
  folder "File System" as FedoraFS
}
note bottom of Fedora
  For durable storage
end note

package "Solr" {
  interface "HTTP Interface" as SolrHTTP
}
note bottom of Solr
  For search
end note

package "Batch" {
  interface API as BatchAPI
  component "System\nWorkers" as BatchWorkers
  component Staging as BatchStaging
  BatchWorkers - -> BatchStaging
}

package "Bendo" {
  interface API as BendoAPI
  component Cache as BendoC
  component Storage {
    component "Copy on\nWrite Layer" as BendoCOW
    component "Preservation\nLayer" as BendoPL
  }
}

package "DTernity" {
  interface "NFS Mount" as DTernityNFSM
  interface "CIFS Mount" as DTernityCIFSM
  package "Storage" as DTernityStorage {
    component "Cloud" as DternityCS
    component "Tape" as DternityTS
  }
}

folder "Local Storage" {
  interface "NFS Mount" as LocalNFSMount
}

folder "SpectraLogic"

cloud "FujiCloud"

cloud AWS {
  component S3
}

package "curate metrics" {
  component "Harvester"
  Harvester <- - WebLogs
  Harvester <- - FedoraHTTP
  Harvester <- - FedoraFS
  Harvester <- - BendoAPI
}

BendoPL <- -> DTernityNFSM
CurateOM <- -> FedoraHTTP
CurateOM <- -> SolrHTTP
BatchWorkers - -> CurateAPI
BendoCOW <- -> LocalNFSMount
DternityTS <- -> SpectraLogic
DternityCS <- -> FujiCloud
BendoC <- -> S3
CurateW - -> BatchAPI
BatchWorkers - -> BendoAPI
BatchWorkers <- -> FedoraHTTP
BatchWorkers <- -> LocalNFSMount
BatchStaging - -> LocalNFSMount
Disadis <- -> FedoraHTTP
@enduml

PlantUML version 1.2019.10(Fri Sep 13 16:53:03 EDT 2019)
(GPL source distribution)
Java Runtime: Java(TM) SE Runtime Environment
JVM: Java HotSpot(TM) 64-Bit Server VM
Java Version: 1.8.0_102-b14
Operating System: Mac OS X
Default Encoding: UTF-8
Language: en
Country: US
--></g></svg>