<?xml version="1.0" encoding="UTF-8" standalone="no"?><svg xmlns="http://www.w3.org/2000/svg" xmlns:xlink="http://www.w3.org/1999/xlink" contentScriptType="application/ecmascript" contentStyleType="text/css" height="596px" preserveAspectRatio="none" style="width:1094px;height:596px;" version="1.1" viewBox="0 0 1094 596"
    width="1094px" zoomAndPan="magnify"><defs><filter height="300%" id="f1dhmdlfalmoip" width="300%" x="-1" y="-1"><feGaussianBlur result="blurOut" stdDeviation="2.0"/><feColorMatrix in="blurOut" result="blurOut2" type="matrix" values="0 0 0 0 0 0 0 0 0 0 0 0 0 0 0 0 0 0 .4 0"/><feOffset dx="4.0" dy="4.0" in="blurOut2" result="blurOut3"/><feBlend in="SourceGraphic" in2="blurOut3" mode="normal"/></filter></defs><g><!--MD5=[c9d6f7fb1f0a669497366bbe6221095f]
cluster curate.nd.edu--><polygon fill="#FFFFFF" filter="url(#f1dhmdlfalmoip)" points="199,16,299,16,306,38.4883,535,38.4883,535,220.5,199,220.5,199,16" style="stroke: #000000; stroke-width: 1.5;"/><line style="stroke: #000000; stroke-width: 1.5;" x1="199" x2="306" y1="38.4883" y2="38.4883"/><text fill="#000000" font-family="sans-serif" font-size="14" font-weight="bold" lengthAdjust="spacingAndGlyphs" textLength="94" x="203" y="31.5352">curate.nd.edu</text><!--MD5=[308df279a3acadc606e9b430cafa7df7]
cluster Fedora--><polygon fill="#FFFFFF" filter="url(#f1dhmdlfalmoip)" points="200,259.5,254,259.5,261,281.9883,508,281.9883,508,352.5,200,352.5,200,259.5" style="stroke: #000000; stroke-width: 1.5;"/><line style="stroke: #000000; stroke-width: 1.5;" x1="200" x2="261" y1="281.9883" y2="281.9883"/><text fill="#000000" font-family="sans-serif" font-size="14" font-weight="bold" lengthAdjust="spacingAndGlyphs" textLength="48" x="204" y="275.0352">Fedora</text><!--MD5=[9b75e51328caceb55a2eb72be0e161e7]
cluster Solr--><polygon fill="#FFFFFF" filter="url(#f1dhmdlfalmoip)" points="14,259.5,48,259.5,55,281.9883,181,281.9883,181,352.5,14,352.5,14,259.5" style="stroke: #000000; stroke-width: 1.5;"/><line style="stroke: #000000; stroke-width: 1.5;" x1="14" x2="55" y1="281.9883" y2="281.9883"/><text fill="#000000" font-family="sans-serif" font-size="14" font-weight="bold" lengthAdjust="spacingAndGlyphs" textLength="28" x="18" y="275.0352">Solr</text><!--MD5=[aa67b594d9c629de74c234d94f00fd81]
cluster Batch--><polygon fill="#FFFFFF" filter="url(#f1dhmdlfalmoip)" points="543,134,588,134,595,156.4883,698,156.4883,698,227,543,227,543,134" style="stroke: #000000; stroke-width: 1.5;"/><line style="stroke: #000000; stroke-width: 1.5;" x1="543" x2="595" y1="156.4883" y2="156.4883"/><text fill="#000000" font-family="sans-serif" font-size="14" font-weight="bold" lengthAdjust="spacingAndGlyphs" textLength="39" x="547" y="149.5352">Batch</text><!--MD5=[cbf4aac06c00b9b45ad288879e34ff12]
cluster Bendo--><polygon fill="#FFFFFF" filter="url(#f1dhmdlfalmoip)" points="533,235,583,235,590,257.4883,979,257.4883,979,358,533,358,533,235" style="stroke: #000000; stroke-width: 1.5;"/><line style="stroke: #000000; stroke-width: 1.5;" x1="533" x2="590" y1="257.4883" y2="257.4883"/><text fill="#000000" font-family="sans-serif" font-size="14" font-weight="bold" lengthAdjust="spacingAndGlyphs" textLength="44" x="537" y="250.5352">Bendo</text><!--MD5=[562ed55e840afc79d9783beef242227d]
cluster Storage--><rect fill="#FFFFFF" filter="url(#f1dhmdlfalmoip)" height="88" style="stroke: #000000; stroke-width: 1.5;" width="252" x="719" y="262"/><rect fill="#FFFFFF" height="10" style="stroke: #000000; stroke-width: 1.5;" width="15" x="951" y="267"/><rect fill="#FFFFFF" height="2" style="stroke: #000000; stroke-width: 1.5;" width="4" x="949" y="269"/><rect fill="#FFFFFF" height="2" style="stroke: #000000; stroke-width: 1.5;" width="4" x="949" y="273"/><text fill="#000000" font-family="sans-serif" font-size="14" font-weight="bold" lengthAdjust="spacingAndGlyphs" textLength="54" x="818" y="288.5352">Storage</text><!--MD5=[8c9b6bf02c885b7ba5866d030e10667c]
cluster DTernity--><polygon fill="#FFFFFF" filter="url(#f1dhmdlfalmoip)" points="450,366,519,366,526,388.4883,879,388.4883,879,475,450,475,450,366" style="stroke: #000000; stroke-width: 1.5;"/><line style="stroke: #000000; stroke-width: 1.5;" x1="450" x2="526" y1="388.4883" y2="388.4883"/><text fill="#000000" font-family="sans-serif" font-size="14" font-weight="bold" lengthAdjust="spacingAndGlyphs" textLength="63" x="454" y="381.5352">DTernity</text><!--MD5=[e9e3ba0bf15797c0c490631f9deee05c]
cluster DTernityStorage--><polygon fill="#FFFFFF" filter="url(#f1dhmdlfalmoip)" points="704,393,764,393,771,415.4883,871,415.4883,871,464,704,464,704,393" style="stroke: #000000; stroke-width: 1.5;"/><line style="stroke: #000000; stroke-width: 1.5;" x1="704" x2="771" y1="415.4883" y2="415.4883"/><text fill="#000000" font-family="sans-serif" font-size="14" font-weight="bold" lengthAdjust="spacingAndGlyphs" textLength="54" x="708" y="408.5352">Storage</text><!--MD5=[a049e73094d01d50612d29bd051aef70]
cluster Local Storage--><polygon fill="#FFFFFF" filter="url(#f1dhmdlfalmoip)" points="960,382,1062,382,1069,404.4883,1072,404.4883,1072,475,960,475,960,382" style="stroke: #000000; stroke-width: 1.5;"/><line style="stroke: #000000; stroke-width: 1.5;" x1="960" x2="1069" y1="404.4883" y2="404.4883"/><text fill="#000000" font-family="sans-serif" font-size="14" font-weight="bold" lengthAdjust="spacingAndGlyphs" textLength="96" x="964" y="397.5352">Local Storage</text><!--MD5=[88656e78e5bedad418341b6ececa151e]
cluster AWS--><path d="M899.2142,401.3987 C903.2106,391.2568 911.6197,390.4377 917.7981,399.2605 C925.0291,390.0921 933.2343,393.0645 936.9456,402.8215 C943.62,404.9215 946.1897,408.5421 941.5679,414.948 C949.7793,417.2936 951.3353,424.1921 944.5576,429.5968 C949.8206,435.0835 948.9676,441.1982 940.7758,442.8437 C946.3614,448.562 944.3851,454.4655 937.2753,457.0573 C931.9053,467.5718 925.741,467.7505 917.3952,460.3616 C910.2252,469.0689 903.2758,466.3269 899.2514,457.1674 C890.8752,454.919 889.4762,449.5534 895.8642,443.615 C887.9725,442.1406 886.4699,435.5857 892.4168,430.4793 C885.3828,424.3259 887.761,418.2368 895.3964,414.8865 C891.0046,409.22 892.0733,403.8009 899.2142,401.3987 " fill="#FFFFFF" style="stroke: #000000; stroke-width: 1.5;"/><text fill="#000000" font-family="sans-serif" font-size="14" font-weight="bold" lengthAdjust="spacingAndGlyphs" textLength="31" x="901.5" y="419.5352">AWS</text><!--MD5=[bc546d046b41a8b88c97b3c23ad68e14]
entity CurateOM--><rect fill="#FEFECE" filter="url(#f1dhmdlfalmoip)" height="36.4883" style="stroke: #A80036; stroke-width: 1.5;" width="110" x="345" y="172"/><rect fill="#FEFECE" height="5" style="stroke: #A80036; stroke-width: 1.5;" width="10" x="340" y="177"/><rect fill="#FEFECE" height="5" style="stroke: #A80036; stroke-width: 1.5;" width="10" x="340" y="198.4883"/><text fill="#000000" font-family="sans-serif" font-size="14" lengthAdjust="spacingAndGlyphs" textLength="90" x="355" y="195.5352">Object Model</text><!--MD5=[5b9b4a8bd609abdac0c7ed1e93f17e2b]
entity CurateW--><rect fill="#FEFECE" filter="url(#f1dhmdlfalmoip)" height="36.4883" style="stroke: #A80036; stroke-width: 1.5;" width="76" x="362" y="54"/><rect fill="#FEFECE" height="5" style="stroke: #A80036; stroke-width: 1.5;" width="10" x="357" y="59"/><rect fill="#FEFECE" height="5" style="stroke: #A80036; stroke-width: 1.5;" width="10" x="357" y="80.4883"/><text fill="#000000" font-family="sans-serif" font-size="14" lengthAdjust="spacingAndGlyphs" textLength="56" x="372" y="77.5352">Workers</text><!--MD5=[85b2ff28930311f4084f221890a0e438]
entity CurateBL--><rect fill="#FEFECE" filter="url(#f1dhmdlfalmoip)" height="36.4883" style="stroke: #A80036; stroke-width: 1.5;" width="119" x="207.5" y="54"/><rect fill="#FEFECE" height="5" style="stroke: #A80036; stroke-width: 1.5;" width="10" x="202.5" y="59"/><rect fill="#FEFECE" height="5" style="stroke: #A80036; stroke-width: 1.5;" width="10" x="202.5" y="80.4883"/><text fill="#000000" font-family="sans-serif" font-size="14" lengthAdjust="spacingAndGlyphs" textLength="99" x="217.5" y="77.5352">Business Logic</text><!--MD5=[993e0d4fdeccee87e9dafe04241cdfbd]
entity MySQL--><path d="M234.5,177.5 C234.5,167.5 267,167.5 267,167.5 C267,167.5 299.5,167.5 299.5,177.5 L299.5,202.9883 C299.5,212.9883 267,212.9883 267,212.9883 C267,212.9883 234.5,212.9883 234.5,202.9883 L234.5,177.5 " fill="#FEFECE" filter="url(#f1dhmdlfalmoip)" style="stroke: #000000; stroke-width: 1.5;"/><path d="M234.5,177.5 C234.5,187.5 267,187.5 267,187.5 C267,187.5 299.5,187.5 299.5,177.5 " fill="none" style="stroke: #000000; stroke-width: 1.5;"/><text fill="#000000" font-family="sans-serif" font-size="14" lengthAdjust="spacingAndGlyphs" textLength="45" x="244.5" y="205.0352">MySQL</text><!--MD5=[b20deab9512140920db0c60e05ecf044]
entity CurateAPI--><ellipse cx="500" cy="72" fill="#FEFECE" filter="url(#f1dhmdlfalmoip)" rx="8" ry="8" style="stroke: #A80036; stroke-width: 2.0;"/><text fill="#000000" font-family="sans-serif" font-size="14" lengthAdjust="spacingAndGlyphs" textLength="22" x="489" y="102.5352">API</text><!--MD5=[82c8c233f10cbc3ee793e1964b60c00d]
entity FedoraHTTP--><ellipse cx="407" cy="315.5" fill="#FEFECE" filter="url(#f1dhmdlfalmoip)" rx="8" ry="8" style="stroke: #A80036; stroke-width: 2.0;"/><text fill="#000000" font-family="sans-serif" font-size="14" lengthAdjust="spacingAndGlyphs" textLength="100" x="357" y="346.0352">HTTP Interface</text><!--MD5=[758792de11c9918e6829c98b147e27c2]
entity FedoraFS--><polygon fill="#FEFECE" filter="url(#f1dhmdlfalmoip)" points="208,287.5,254,287.5,261,308.5,314,308.5,314,343.4766,208,343.4766,208,287.5" style="stroke: #000000; stroke-width: 1.5;"/><line style="stroke: #000000; stroke-width: 1.5;" x1="208" x2="261" y1="308.5" y2="308.5"/><text fill="#000000" font-family="sans-serif" font-size="14" lengthAdjust="spacingAndGlyphs" textLength="76" x="218" y="329.0352">File System</text><!--MD5=[2b310bc7e1db6a4b29dfa72fc01c3ea1]
entity SolrHTTP--><ellipse cx="80" cy="315.5" fill="#FEFECE" filter="url(#f1dhmdlfalmoip)" rx="8" ry="8" style="stroke: #A80036; stroke-width: 2.0;"/><text fill="#000000" font-family="sans-serif" font-size="14" lengthAdjust="spacingAndGlyphs" textLength="100" x="30" y="346.0352">HTTP Interface</text><!--MD5=[6c444dd6b145513787bf9986e8d9020c]
entity BatchAPI--><ellipse cx="578" cy="190" fill="#FEFECE" filter="url(#f1dhmdlfalmoip)" rx="8" ry="8" style="stroke: #A80036; stroke-width: 2.0;"/><text fill="#000000" font-family="sans-serif" font-size="14" lengthAdjust="spacingAndGlyphs" textLength="22" x="567" y="220.5352">API</text><!--MD5=[94678c2db7b77be7f8dabb61653488ab]
entity BatchJobs--><rect fill="#FEFECE" filter="url(#f1dhmdlfalmoip)" height="36.4883" style="stroke: #A80036; stroke-width: 1.5;" width="49" x="640.5" y="172"/><rect fill="#FEFECE" height="5" style="stroke: #A80036; stroke-width: 1.5;" width="10" x="635.5" y="177"/><rect fill="#FEFECE" height="5" style="stroke: #A80036; stroke-width: 1.5;" width="10" x="635.5" y="198.4883"/><text fill="#000000" font-family="sans-serif" font-size="14" lengthAdjust="spacingAndGlyphs" textLength="29" x="650.5" y="195.5352">Jobs</text><!--MD5=[242e68a4e3660568a3ed9cfaf97b0cda]
entity BendoAPI--><ellipse cx="665" cy="315.5" fill="#FEFECE" filter="url(#f1dhmdlfalmoip)" rx="8" ry="8" style="stroke: #A80036; stroke-width: 2.0;"/><text fill="#000000" font-family="sans-serif" font-size="14" lengthAdjust="spacingAndGlyphs" textLength="22" x="654" y="346.0352">API</text><!--MD5=[0f052bab7fd2de2904a9ceb14d55a370]
entity BendoC--><rect fill="#FEFECE" filter="url(#f1dhmdlfalmoip)" height="36.4883" style="stroke: #A80036; stroke-width: 1.5;" width="62" x="541" y="297.5"/><rect fill="#FEFECE" height="5" style="stroke: #A80036; stroke-width: 1.5;" width="10" x="536" y="302.5"/><rect fill="#FEFECE" height="5" style="stroke: #A80036; stroke-width: 1.5;" width="10" x="536" y="323.9883"/><text fill="#000000" font-family="sans-serif" font-size="14" lengthAdjust="spacingAndGlyphs" textLength="42" x="551" y="321.0352">Cache</text><!--MD5=[5c06c8213d2b1db03166202b79a3e367]
entity BendoCOW--><rect fill="#FEFECE" filter="url(#f1dhmdlfalmoip)" height="52.9766" style="stroke: #A80036; stroke-width: 1.5;" width="95" x="867.5" y="289"/><rect fill="#FEFECE" height="5" style="stroke: #A80036; stroke-width: 1.5;" width="10" x="862.5" y="294"/><rect fill="#FEFECE" height="5" style="stroke: #A80036; stroke-width: 1.5;" width="10" x="862.5" y="331.9766"/><text fill="#000000" font-family="sans-serif" font-size="14" lengthAdjust="spacingAndGlyphs" textLength="57" x="877.5" y="312.5352">Copy on</text><text fill="#000000" font-family="sans-serif" font-size="14" lengthAdjust="spacingAndGlyphs" textLength="75" x="877.5" y="329.0234">Write Layer</text><!--MD5=[a69a73efb10663008a20fe4208d4e2df]
entity BendoPL--><rect fill="#FEFECE" filter="url(#f1dhmdlfalmoip)" height="52.9766" style="stroke: #A80036; stroke-width: 1.5;" width="105" x="727.5" y="289"/><rect fill="#FEFECE" height="5" style="stroke: #A80036; stroke-width: 1.5;" width="10" x="722.5" y="294"/><rect fill="#FEFECE" height="5" style="stroke: #A80036; stroke-width: 1.5;" width="10" x="722.5" y="331.9766"/><text fill="#000000" font-family="sans-serif" font-size="14" lengthAdjust="spacingAndGlyphs" textLength="85" x="737.5" y="312.5352">Preservation</text><text fill="#000000" font-family="sans-serif" font-size="14" lengthAdjust="spacingAndGlyphs" textLength="36" x="737.5" y="329.0234">Layer</text><!--MD5=[122471d58b7557712b3645c406151814]
entity DTernityNFSM--><ellipse cx="632" cy="438" fill="#FEFECE" filter="url(#f1dhmdlfalmoip)" rx="8" ry="8" style="stroke: #A80036; stroke-width: 2.0;"/><text fill="#000000" font-family="sans-serif" font-size="14" lengthAdjust="spacingAndGlyphs" textLength="74" x="595" y="468.5352">NFS Mount</text><!--MD5=[52d5b48969f4d8ab03330ef1bdf65780]
entity DTernityCIFSM--><ellipse cx="505" cy="438" fill="#FEFECE" filter="url(#f1dhmdlfalmoip)" rx="8" ry="8" style="stroke: #A80036; stroke-width: 2.0;"/><text fill="#000000" font-family="sans-serif" font-size="14" lengthAdjust="spacingAndGlyphs" textLength="78" x="466" y="468.5352">CIFS Mount</text><!--MD5=[2134bfea3f0564af1f6584dd54f55a6d]
entity DternityCS--><rect fill="#FEFECE" filter="url(#f1dhmdlfalmoip)" height="36.4883" style="stroke: #A80036; stroke-width: 1.5;" width="61" x="712.5" y="420"/><rect fill="#FEFECE" height="5" style="stroke: #A80036; stroke-width: 1.5;" width="10" x="707.5" y="425"/><rect fill="#FEFECE" height="5" style="stroke: #A80036; stroke-width: 1.5;" width="10" x="707.5" y="446.4883"/><text fill="#000000" font-family="sans-serif" font-size="14" lengthAdjust="spacingAndGlyphs" textLength="41" x="722.5" y="443.5352">Cloud</text><!--MD5=[9b637540d1516a39865ba1e8b60410be]
entity DternityTS--><rect fill="#FEFECE" filter="url(#f1dhmdlfalmoip)" height="36.4883" style="stroke: #A80036; stroke-width: 1.5;" width="54" x="809" y="420"/><rect fill="#FEFECE" height="5" style="stroke: #A80036; stroke-width: 1.5;" width="10" x="804" y="425"/><rect fill="#FEFECE" height="5" style="stroke: #A80036; stroke-width: 1.5;" width="10" x="804" y="446.4883"/><text fill="#000000" font-family="sans-serif" font-size="14" lengthAdjust="spacingAndGlyphs" textLength="34" x="819" y="443.5352">Tape</text><!--MD5=[88c9a4f3b7c2dc6234e9ce3799e26ab2]
entity LocalNFSMount--><ellipse cx="1016" cy="438" fill="#FEFECE" filter="url(#f1dhmdlfalmoip)" rx="8" ry="8" style="stroke: #A80036; stroke-width: 2.0;"/><text fill="#000000" font-family="sans-serif" font-size="14" lengthAdjust="spacingAndGlyphs" textLength="74" x="979" y="468.5352">NFS Mount</text><!--MD5=[6c7192638421eaf134d201765ac5db29]
entity S3--><rect fill="#FEFECE" filter="url(#f1dhmdlfalmoip)" height="36.4883" style="stroke: #A80036; stroke-width: 1.5;" width="37" x="898.5" y="420"/><rect fill="#FEFECE" height="5" style="stroke: #A80036; stroke-width: 1.5;" width="10" x="893.5" y="425"/><rect fill="#FEFECE" height="5" style="stroke: #A80036; stroke-width: 1.5;" width="10" x="893.5" y="446.4883"/><text fill="#000000" font-family="sans-serif" font-size="14" lengthAdjust="spacingAndGlyphs" textLength="17" x="908.5" y="443.5352">S3</text><path d="M279.5,425.5 L279.5,450.8105 L422.5,450.8105 L422.5,435.5 L412.5,425.5 L279.5,425.5 " fill="#FBFB77" filter="url(#f1dhmdlfalmoip)" style="stroke: #A80036; stroke-width: 1.0;"/><path d="M412.5,425.5 L412.5,435.5 L422.5,435.5 L412.5,425.5 " fill="#FBFB77" style="stroke: #A80036; stroke-width: 1.0;"/><text fill="#000000" font-family="sans-serif" font-size="13" lengthAdjust="spacingAndGlyphs" textLength="122" x="285.5" y="443.0684">For durable storage</text><path d="M130,425.5 L130,450.8105 L216,450.8105 L216,435.5 L206,425.5 L130,425.5 " fill="#FBFB77" filter="url(#f1dhmdlfalmoip)" style="stroke: #A80036; stroke-width: 1.0;"/><path d="M206,425.5 L206,435.5 L216,435.5 L206,425.5 " fill="#FBFB77" style="stroke: #A80036; stroke-width: 1.0;"/><text fill="#000000" font-family="sans-serif" font-size="13" lengthAdjust="spacingAndGlyphs" textLength="65" x="136" y="443.0684">For search</text><!--MD5=[cc617f22391be430c88991d2db666087]
entity SpectraLogic--><polygon fill="#FEFECE" filter="url(#f1dhmdlfalmoip)" points="801.5,527,847.5,527,854.5,548,918.5,548,918.5,582.9766,801.5,582.9766,801.5,527" style="stroke: #000000; stroke-width: 1.5;"/><line style="stroke: #000000; stroke-width: 1.5;" x1="801.5" x2="854.5" y1="548" y2="548"/><text fill="#000000" font-family="sans-serif" font-size="14" lengthAdjust="spacingAndGlyphs" textLength="87" x="811.5" y="568.5352">SpectraLogic</text><!--MD5=[5bd6eb4bacc8574aa646895c70a29c94]
entity FujiCloud--><path d="M678.5388,540.9329 C682.517,534.848 687.0523,535.3923 691.3561,540.562 C693.9616,532.3753 700.6883,532.1649 705.3976,538.5323 C708.8102,532.2032 713.3269,531.1579 718.0212,537.2273 C722.2928,530.5627 728.9941,531.9249 731.6226,538.8694 C736.1442,532.8121 742.504,532.6661 746.1404,539.8407 C750.2412,534.6915 756.0092,534.873 759.4382,540.6577 C766.4558,544.727 768.289,549.7164 761.5336,555.7038 C769.738,562.7873 767.6242,568.6917 758.3597,572.4678 C755.544,579.0244 749.7723,580.0368 745.3289,574.1759 C742.4643,581.432 737.1742,580.7447 732.498,576.1348 C729.1103,582.5027 724.1447,584.8076 718.5828,578.5266 C714.1493,584.1396 708.8145,581.8113 706.841,575.9987 C702.4859,581.3237 695.8135,581.3709 693.1744,574.1321 C688.078,579.4522 680.7027,580.0378 678.1035,571.43 C667.9252,571.4014 665.4429,563.772 669.6847,555.9174 C664.5038,547.3771 668.8708,540.6992 678.5388,540.9329 " fill="#FEFECE" style="stroke: #000000; stroke-width: 1.5;"/><text fill="#000000" font-family="sans-serif" font-size="14" lengthAdjust="spacingAndGlyphs" textLength="66" x="685" y="560.5352">FujiCloud</text><!--MD5=[f6308400aa79ab34bdd42633ed24a516]
link CurateW to CurateOM--><path d="M400,95.3689 C400,116.1286 400,146.2978 400,166.9579 " fill="none" id="CurateW-CurateOM" style="stroke: #A80036; stroke-width: 1.0;"/><polygon fill="#A80036" points="400,171.9941,404,162.9941,400,166.9941,396,162.9941,400,171.9941" style="stroke: #A80036; stroke-width: 1.0;"/><polygon fill="#A80036" points="400,90.1789,396,99.1789,400,95.1789,404,99.1789,400,90.1789" style="stroke: #A80036; stroke-width: 1.0;"/><!--MD5=[ebe573a2313719c32676d731a6f24376]
link CurateBL to MySQL--><path d="M267,95.2563 C267,114.4545 267,141.756 267,162.1238 " fill="none" id="CurateBL-MySQL" style="stroke: #A80036; stroke-width: 1.0;"/><polygon fill="#A80036" points="267,167.1435,271,158.1435,267,162.1435,263,158.1435,267,167.1435" style="stroke: #A80036; stroke-width: 1.0;"/><polygon fill="#A80036" points="267,90.1789,263,99.1789,267,95.1789,271,99.1789,267,90.1789" style="stroke: #A80036; stroke-width: 1.0;"/><!--MD5=[2a2508046b165e142a2d2ac0822f0e27]
link Fedora to GMN14--><path d="M488.1892,352.5031 C488.1456,352.561 488.1018,352.6189 488.0579,352.6765 C487.97,352.7919 487.8816,352.9066 487.7924,353.0209 C486.3664,354.8483 484.7752,356.5304 483,358 C468.6988,369.8393 458.8678,358.2431 442,366 C409.9697,380.7297 379.2065,408.9668 362.9458,425.3609 " fill="none" id="Fedora-GMN14" style="stroke: #A80036; stroke-width: 1.0; stroke-dasharray: 7.0,7.0;"/><!--MD5=[856ca444c9109ea6a2a80dac3c841c1a]
link Solr to GMN19--><path d="M173,352.9038 C173,353.071 173,353.2385 173,353.4063 C173,353.7419 173,354.0785 173,354.4162 C173,357.1179 173,359.8868 173,362.6974 C173,385.1822 173,410.3377 173,425.1363 " fill="none" id="Solr-GMN19" style="stroke: #A80036; stroke-width: 1.0; stroke-dasharray: 7.0,7.0;"/><!--MD5=[4f71ea4900ca13e6e997786faf271167]
link BendoPL to DTernityNFSM--><path d="M744.9759,345.1537 C738.2901,349.9067 731.1415,354.4284 724,358 C712.4245,363.7892 706.9571,359.1117 696,366 C671.9276,381.1334 651.6014,407.9222 640.663,424.2105 " fill="none" id="BendoPL-DTernityNFSM" style="stroke: #A80036; stroke-width: 1.0;"/><polygon fill="#A80036" points="637.8314,428.5077,646.1235,423.1934,640.5825,424.3326,639.4433,418.7916,637.8314,428.5077" style="stroke: #A80036; stroke-width: 1.0;"/><polygon fill="#A80036" points="749.0747,342.1709,739.444,344.2324,745.0319,345.113,744.1514,350.7009,749.0747,342.1709" style="stroke: #A80036; stroke-width: 1.0;"/><!--MD5=[748fade2ea86f22bd3818d6807e04c9b]
link CurateOM to FedoraHTTP--><path d="M401.2971,213.2549 C402.735,239.0345 405.0087,279.7995 406.2046,301.2391 " fill="none" id="CurateOM-FedoraHTTP" style="stroke: #A80036; stroke-width: 1.0;"/><polygon fill="#A80036" points="406.4842,306.2526,409.9768,297.0438,406.2058,301.2604,401.9892,297.4893,406.4842,306.2526" style="stroke: #A80036; stroke-width: 1.0;"/><polygon fill="#A80036" points="401.0179,208.2488,397.5255,217.4577,401.2965,213.241,405.5131,217.012,401.0179,208.2488" style="stroke: #A80036; stroke-width: 1.0;"/><!--MD5=[23afdad4f6870048c8e275f40f5e33c7]
link CurateOM to SolrHTTP--><path d="M362.4541,210.2706 C348.5673,216.8088 332.4413,223.3137 317,227 C281.9413,235.3695 187.6864,219.8092 155,235 C124.0206,249.3975 99.7221,282.9669 87.8895,301.8941 " fill="none" id="CurateOM-SolrHTTP" style="stroke: #A80036; stroke-width: 1.0;"/><polygon fill="#A80036" points="85.1533,306.3701,93.2603,300.7775,87.7612,302.1041,86.4347,296.605,85.1533,306.3701" style="stroke: #A80036; stroke-width: 1.0;"/><polygon fill="#A80036" points="367.0734,208.056,357.2286,208.34,362.5648,210.2176,360.6872,215.5537,367.0734,208.056" style="stroke: #A80036; stroke-width: 1.0;"/><!--MD5=[26fa505816c4201c64d7090f39716e55]
link BatchJobs to CurateAPI--><path d="M654.4861,171.8771 C646.8961,159.9751 635.7652,144.6887 623,134 C588.4231,105.0476 538.0404,85.1058 513.9031,76.6107 " fill="none" id="BatchJobs-&gt;CurateAPI" style="stroke: #A80036; stroke-width: 1.0;"/><polygon fill="#A80036" points="509.1659,74.9726,516.3643,81.6944,513.8913,76.6067,518.979,74.1337,509.1659,74.9726" style="stroke: #A80036; stroke-width: 1.0;"/><!--MD5=[be818180ef747dfd724894fcac7cbd33]
link BendoCOW to LocalNFSMount--><path d="M940.1695,346.0274 C961.1082,371.4233 989.8869,406.3282 1005.2716,424.9878 " fill="none" id="BendoCOW-LocalNFSMount" style="stroke: #A80036; stroke-width: 1.0;"/><polygon fill="#A80036" points="1008.5232,428.9316,1005.884,419.4429,1005.3424,425.0738,999.7115,424.5322,1008.5232,428.9316" style="stroke: #A80036; stroke-width: 1.0;"/><polygon fill="#A80036" points="936.9155,342.0807,939.5545,351.5694,940.0962,345.9386,945.7271,346.4803,936.9155,342.0807" style="stroke: #A80036; stroke-width: 1.0;"/><!--MD5=[712c61d2caa9247498e07ff5e7aef8af]
link DternityTS to SpectraLogic--><path d="M840.7415,461.115 C844.2714,478.3229 849.1434,502.0739 853.1038,521.3811 " fill="none" id="DternityTS-SpectraLogic" style="stroke: #A80036; stroke-width: 1.0;"/><polygon fill="#A80036" points="854.1948,526.6997,856.3045,517.0794,853.1899,521.8017,848.4677,518.6872,854.1948,526.6997" style="stroke: #A80036; stroke-width: 1.0;"/><polygon fill="#A80036" points="839.6974,456.0248,837.5875,465.645,840.7021,460.9228,845.4243,464.0375,839.6974,456.0248" style="stroke: #A80036; stroke-width: 1.0;"/><!--MD5=[1b451e3079f782c992b0770264c82750]
link DternityCS to FujiCloud--><path d="M738.0798,461.0264 C734.0398,479.9338 728.3026,506.784 723.9945,526.9456 " fill="none" id="DternityCS-FujiCloud" style="stroke: #A80036; stroke-width: 1.0;"/><polygon fill="#A80036" points="722.932,531.9184,728.7244,523.953,723.9769,527.0288,720.9011,522.2812,722.932,531.9184" style="stroke: #A80036; stroke-width: 1.0;"/><polygon fill="#A80036" points="739.1485,456.0248,733.3561,463.9902,738.1036,460.9144,741.1794,465.662,739.1485,456.0248" style="stroke: #A80036; stroke-width: 1.0;"/><!--MD5=[58a52875fac3da223b468f2cf2292c87]
link BendoC to S3--><path d="M591.1726,337.5713 C599.4619,345.534 609.824,353.63 621,358 C647.7111,368.4445 854.6712,350.8119 879,366 C896.2762,376.7853 906.1431,398.2402 911.4682,414.9365 " fill="none" id="BendoC-S3" style="stroke: #A80036; stroke-width: 1.0;"/><polygon fill="#A80036" points="912.9782,419.9483,914.2118,410.177,911.5358,415.1609,906.5519,412.4849,912.9782,419.9483" style="stroke: #A80036; stroke-width: 1.0;"/><polygon fill="#A80036" points="587.2753,333.6899,590.8298,342.875,590.8181,337.2181,596.475,337.2065,587.2753,333.6899" style="stroke: #A80036; stroke-width: 1.0;"/><!--MD5=[3f37fb978bf3238147a411acecef3405]
link CurateW to BatchAPI--><path d="M433.4513,90.12 C440.803,93.8775 448.6029,97.695 456,101 C493.7575,117.87 511.0361,107.7601 543,134 C556.7684,145.3029 566.7167,163.5142 572.4101,176.0844 " fill="none" id="CurateW-&gt;BatchAPI" style="stroke: #A80036; stroke-width: 1.0;"/><polygon fill="#A80036" points="574.4515,180.7627,574.5182,170.9141,572.4518,176.18,567.1859,174.1136,574.4515,180.7627" style="stroke: #A80036; stroke-width: 1.0;"/><!--MD5=[b9551678a99ac6c7a733836ba0768c7e]
link BatchJobs to BendoAPI--><path d="M665,208.2488 C665,233.4236 665,278.2869 665,301.1893 " fill="none" id="BatchJobs-&gt;BendoAPI" style="stroke: #A80036; stroke-width: 1.0;"/><polygon fill="#A80036" points="665,306.2526,669,297.2526,665,301.2526,661,297.2526,665,306.2526" style="stroke: #A80036; stroke-width: 1.0;"/><!--MD5=[d99dd7ac5fc176af9aaadb3558ce4991]
link BatchJobs to FedoraHTTP--><path d="M649.6405,208.0284 C642.3664,215.2693 633.0688,222.8678 623,227 C593.9662,238.9153 510.4116,221.6689 482,235 C451.0736,249.511 426.754,283.0353 414.9039,301.9251 " fill="none" id="BatchJobs-&gt;FedoraHTTP" style="stroke: #A80036; stroke-width: 1.0;"/><polygon fill="#A80036" points="412.1634,306.3918,420.2795,300.8124,414.7782,302.13,413.4606,296.6287,412.1634,306.3918" style="stroke: #A80036; stroke-width: 1.0;"/><!--MD5=[56075576c40aedbbaaa5be5c66004d0e]
link BatchJobs to LocalNFSMount--><path d="M694.9148,192.3087 C769.402,198.3313 958.66,215.4175 979,235 C1032.1305,286.1518 1023.7352,386.3186 1018.4107,423.583 " fill="none" id="BatchJobs-LocalNFSMount" style="stroke: #A80036; stroke-width: 1.0;"/><polygon fill="#A80036" points="1017.6551,428.6113,1022.9481,420.3056,1018.3981,423.6668,1015.0369,419.1168,1017.6551,428.6113" style="stroke: #A80036; stroke-width: 1.0;"/><polygon fill="#A80036" points="689.754,191.8943,698.405,196.6017,694.738,192.2944,699.0452,188.6274,689.754,191.8943" style="stroke: #A80036; stroke-width: 1.0;"/><!--MD5=[5ffe518f08724afd2f8a3609602b6842]
@startuml

package "curate.nd.edu" {
  component "Object Model" as CurateOM
  component "Workers" as CurateW
  component "Business Logic" as CurateBL
  database MySQL
  interface "API" as CurateAPI
  CurateW <- -> CurateOM
  CurateBL <- -> MySQL
}

package "Fedora" {
  interface "HTTP Interface" as FedoraHTTP
  folder "File System" as FedoraFS
}
note bottom of Fedora
  For durable storage
end note

package "Solr" {
  interface "HTTP Interface" as SolrHTTP
}
note bottom of Solr
  For search
end note

package "Batch" {
  interface API as BatchAPI
  component Jobs as BatchJobs
}


package "Bendo" {
  interface API as BendoAPI
  component Cache as BendoC
  component Storage {
    component "Copy on\nWrite Layer" as BendoCOW
    component "Preservation\nLayer" as BendoPL
  }
}

package "DTernity" {
  interface "NFS Mount" as DTernityNFSM
  interface "CIFS Mount" as DTernityCIFSM
  package "Storage" as DTernityStorage {
    component "Cloud" as DternityCS
    component "Tape" as DternityTS
  }
}

folder "Local Storage" {
  interface "NFS Mount" as LocalNFSMount
}

folder "SpectraLogic"

cloud "FujiCloud"

cloud AWS {
  component S3
}
BendoPL <- -> DTernityNFSM
CurateOM <- -> FedoraHTTP
CurateOM <- -> SolrHTTP
BatchJobs - -> CurateAPI
BendoCOW <- -> LocalNFSMount
DternityTS <- -> SpectraLogic
DternityCS <- -> FujiCloud
BendoC <- -> S3
CurateW - -> BatchAPI
BatchJobs - -> BendoAPI
BatchJobs - -> FedoraHTTP
BatchJobs <- -> LocalNFSMount
@enduml

PlantUML version 1.2019.10(Fri Sep 13 16:53:03 EDT 2019)
(GPL source distribution)
Java Runtime: Java(TM) SE Runtime Environment
JVM: Java HotSpot(TM) 64-Bit Server VM
Java Version: 1.8.0_102-b14
Operating System: Mac OS X
Default Encoding: UTF-8
Language: en
Country: US
--></g></svg>