<?xml version="1.0" encoding="UTF-8" standalone="no"?><svg xmlns="http://www.w3.org/2000/svg" xmlns:xlink="http://www.w3.org/1999/xlink" contentScriptType="application/ecmascript" contentStyleType="text/css" height="887px" preserveAspectRatio="none" style="width:1758px;height:887px;" version="1.1" viewBox="0 0 1758 887"
    width="1758px" zoomAndPan="magnify"><defs><filter height="300%" id="fvti1h6qcsvbw" width="300%" x="-1" y="-1"><feGaussianBlur result="blurOut" stdDeviation="2.0"/><feColorMatrix in="blurOut" result="blurOut2" type="matrix" values="0 0 0 0 0 0 0 0 0 0 0 0 0 0 0 0 0 0 .4 0"/><feOffset dx="4.0" dy="4.0" in="blurOut2" result="blurOut3"/><feBlend in="SourceGraphic" in2="blurOut3" mode="normal"/></filter></defs><g><!--MD5=[c9d6f7fb1f0a669497366bbe6221095f]
cluster curate.nd.edu--><polygon fill="#FFFFFF" filter="url(#fvti1h6qcsvbw)" points="293,86.5,393,86.5,400,108.9883,629,108.9883,629,430.5,293,430.5,293,86.5" style="stroke: #000000; stroke-width: 1.5;"/><line style="stroke: #000000; stroke-width: 1.5;" x1="293" x2="400" y1="108.9883" y2="108.9883"/><text fill="#000000" font-family="sans-serif" font-size="14" font-weight="bold" lengthAdjust="spacingAndGlyphs" textLength="94" x="297" y="102.0352">curate.nd.edu</text><!--MD5=[7d014933b08cb0c1162e733cc176b719]
cluster Disadis--><polygon fill="#FFFFFF" filter="url(#fvti1h6qcsvbw)" points="414,533,474,533,481,555.4883,561,555.4883,561,624,414,624,414,533" style="stroke: #000000; stroke-width: 1.5;"/><line style="stroke: #000000; stroke-width: 1.5;" x1="414" x2="481" y1="555.4883" y2="555.4883"/><text fill="#000000" font-family="sans-serif" font-size="14" font-weight="bold" lengthAdjust="spacingAndGlyphs" textLength="54" x="418" y="548.5352">Disadis</text><!--MD5=[308df279a3acadc606e9b430cafa7df7]
cluster Fedora--><polygon fill="#FFFFFF" filter="url(#fvti1h6qcsvbw)" points="463,672,517,672,524,694.4883,771,694.4883,771,765,463,765,463,672" style="stroke: #000000; stroke-width: 1.5;"/><line style="stroke: #000000; stroke-width: 1.5;" x1="463" x2="524" y1="694.4883" y2="694.4883"/><text fill="#000000" font-family="sans-serif" font-size="14" font-weight="bold" lengthAdjust="spacingAndGlyphs" textLength="48" x="467" y="687.5352">Fedora</text><!--MD5=[9b75e51328caceb55a2eb72be0e161e7]
cluster Solr--><polygon fill="#FFFFFF" filter="url(#fvti1h6qcsvbw)" points="14,532,48,532,55,554.4883,181,554.4883,181,625,14,625,14,532" style="stroke: #000000; stroke-width: 1.5;"/><line style="stroke: #000000; stroke-width: 1.5;" x1="14" x2="55" y1="554.4883" y2="554.4883"/><text fill="#000000" font-family="sans-serif" font-size="14" font-weight="bold" lengthAdjust="spacingAndGlyphs" textLength="28" x="18" y="547.5352">Solr</text><!--MD5=[aa67b594d9c629de74c234d94f00fd81]
cluster Batch--><polygon fill="#FFFFFF" filter="url(#fvti1h6qcsvbw)" points="1247,226.5,1292,226.5,1299,248.9883,1428,248.9883,1428,614,1247,614,1247,226.5" style="stroke: #000000; stroke-width: 1.5;"/><line style="stroke: #000000; stroke-width: 1.5;" x1="1247" x2="1299" y1="248.9883" y2="248.9883"/><text fill="#000000" font-family="sans-serif" font-size="14" font-weight="bold" lengthAdjust="spacingAndGlyphs" textLength="39" x="1251" y="242.0352">Batch</text><!--MD5=[cbf4aac06c00b9b45ad288879e34ff12]
cluster Bendo--><polygon fill="#FFFFFF" filter="url(#fvti1h6qcsvbw)" points="793,507.5,843,507.5,850,529.9883,1239,529.9883,1239,630.5,793,630.5,793,507.5" style="stroke: #000000; stroke-width: 1.5;"/><line style="stroke: #000000; stroke-width: 1.5;" x1="793" x2="850" y1="529.9883" y2="529.9883"/><text fill="#000000" font-family="sans-serif" font-size="14" font-weight="bold" lengthAdjust="spacingAndGlyphs" textLength="44" x="797" y="523.0352">Bendo</text><!--MD5=[562ed55e840afc79d9783beef242227d]
cluster Storage--><rect fill="#FFFFFF" filter="url(#fvti1h6qcsvbw)" height="88" style="stroke: #000000; stroke-width: 1.5;" width="252" x="979" y="534.5"/><rect fill="#FFFFFF" height="10" style="stroke: #000000; stroke-width: 1.5;" width="15" x="1211" y="539.5"/><rect fill="#FFFFFF" height="2" style="stroke: #000000; stroke-width: 1.5;" width="4" x="1209" y="541.5"/><rect fill="#FFFFFF" height="2" style="stroke: #000000; stroke-width: 1.5;" width="4" x="1209" y="545.5"/><text fill="#000000" font-family="sans-serif" font-size="14" font-weight="bold" lengthAdjust="spacingAndGlyphs" textLength="54" x="1078" y="561.0352">Storage</text><!--MD5=[8c9b6bf02c885b7ba5866d030e10667c]
cluster DTernity--><polygon fill="#FFFFFF" filter="url(#fvti1h6qcsvbw)" points="863,656,932,656,939,678.4883,1292,678.4883,1292,765,863,765,863,656" style="stroke: #000000; stroke-width: 1.5;"/><line style="stroke: #000000; stroke-width: 1.5;" x1="863" x2="939" y1="678.4883" y2="678.4883"/><text fill="#000000" font-family="sans-serif" font-size="14" font-weight="bold" lengthAdjust="spacingAndGlyphs" textLength="63" x="867" y="671.5352">DTernity</text><!--MD5=[e9e3ba0bf15797c0c490631f9deee05c]
cluster DTernityStorage--><polygon fill="#FFFFFF" filter="url(#fvti1h6qcsvbw)" points="1117,683,1177,683,1184,705.4883,1284,705.4883,1284,754,1117,754,1117,683" style="stroke: #000000; stroke-width: 1.5;"/><line style="stroke: #000000; stroke-width: 1.5;" x1="1117" x2="1184" y1="705.4883" y2="705.4883"/><text fill="#000000" font-family="sans-serif" font-size="14" font-weight="bold" lengthAdjust="spacingAndGlyphs" textLength="54" x="1121" y="698.5352">Storage</text><!--MD5=[a049e73094d01d50612d29bd051aef70]
cluster Local Storage--><polygon fill="#FFFFFF" filter="url(#fvti1h6qcsvbw)" points="1301,672,1403,672,1410,694.4883,1413,694.4883,1413,765,1301,765,1301,672" style="stroke: #000000; stroke-width: 1.5;"/><line style="stroke: #000000; stroke-width: 1.5;" x1="1301" x2="1410" y1="694.4883" y2="694.4883"/><text fill="#000000" font-family="sans-serif" font-size="14" font-weight="bold" lengthAdjust="spacingAndGlyphs" textLength="96" x="1305" y="687.5352">Local Storage</text><!--MD5=[88656e78e5bedad418341b6ececa151e]
cluster AWS--><path d="M799.2142,691.3987 C803.2106,681.2568 811.6197,680.4377 817.7981,689.2605 C825.0291,680.0921 833.2343,683.0645 836.9456,692.8215 C843.62,694.9215 846.1897,698.5421 841.5679,704.948 C849.7793,707.2936 851.3353,714.1921 844.5576,719.5968 C849.8206,725.0835 848.9676,731.1982 840.7758,732.8437 C846.3614,738.562 844.3851,744.4655 837.2753,747.0573 C831.9053,757.5718 825.741,757.7505 817.3952,750.3616 C810.2252,759.0689 803.2758,756.3269 799.2514,747.1674 C790.8752,744.919 789.4762,739.5534 795.8642,733.615 C787.9725,732.1406 786.4699,725.5857 792.4168,720.4793 C785.3828,714.3259 787.761,708.2368 795.3964,704.8865 C791.0046,699.22 792.0733,693.8009 799.2142,691.3987 " fill="#FFFFFF" style="stroke: #000000; stroke-width: 1.5;"/><text fill="#000000" font-family="sans-serif" font-size="14" font-weight="bold" lengthAdjust="spacingAndGlyphs" textLength="31" x="801.5" y="709.5352">AWS</text><!--MD5=[2d002988ae74cf36466aa5b46b9dc508]
cluster EZid--><path d="M832.4147,363.2678 C836.2381,357.7935 840.1879,356.0004 844.7449,362.5133 C848.6978,358.8219 851.8368,358.3229 854.8262,363.5967 C858.1437,356.856 863.1758,355.4819 868.061,362.036 C871.6261,356.8142 875.6734,355.4334 880.0315,361.1696 C885.1363,356.8975 888.5341,358.0531 891.4536,363.6889 C894.8074,358.7048 898.6622,357.5165 902.8657,362.7389 C905.9606,358.1094 911.5472,357.8969 914.0637,363.3793 C918.4128,357.5683 922.8664,359.139 925.6992,364.9035 C934.5684,367.1118 934.6483,371.8828 930.8742,378.7996 C938.101,380.2354 940.6378,386.4398 934.9065,391.8725 C940.8255,397.9008 937.7143,402.5709 931.0428,404.8511 C937.0386,412.6549 934.1527,417.7971 925.0398,419.342 C922.4628,424.673 917.4688,424.5308 914.1102,420.2287 C910.6421,426.1098 907.3677,426.5275 903.3028,420.7835 C900.0782,426.5609 895.5127,427.0942 891.5541,421.5448 C887.6458,426.6705 883.4313,426.1541 880.1354,420.8728 C876.4483,426.2197 871.6434,427.5926 867.8652,420.9662 C863.7732,426.9353 857.568,425.8215 854.7802,419.5697 C850.9908,425.2641 846.6249,425.4509 842.8145,419.5915 C839.3641,423.7496 834.242,423.0349 832.0216,418.1272 C825.0624,414.9298 824.2747,410.1074 830.3354,405.2103 C823.4248,403.0301 822.2408,397.3107 826.7963,392.0475 C820.4121,387.1324 820.5994,380.439 828.6912,377.3962 C823.3675,370.8593 823.812,366.1345 832.4147,363.2678 " fill="#FFFFFF" style="stroke: #000000; stroke-width: 1.5;"/><text fill="#000000" font-family="sans-serif" font-size="14" font-weight="bold" lengthAdjust="spacingAndGlyphs" textLength="31" x="862.5" y="381.5352">EZid</text><!--MD5=[2e3431030c33690ec4f191940759a30e]
cluster Noids--><polygon fill="#FFFFFF" filter="url(#fvti1h6qcsvbw)" points="1033,350.5,1081,350.5,1088,372.9883,1150,372.9883,1150,430.5,1033,430.5,1033,350.5" style="stroke: #000000; stroke-width: 1.5;"/><line style="stroke: #000000; stroke-width: 1.5;" x1="1033" x2="1088" y1="372.9883" y2="372.9883"/><text fill="#000000" font-family="sans-serif" font-size="14" font-weight="bold" lengthAdjust="spacingAndGlyphs" textLength="42" x="1037" y="366.0352">Noids</text><!--MD5=[6cc24a1e0287d9f0336a3189c6c7fbea]
cluster curate metrics--><polygon fill="#FFFFFF" filter="url(#fvti1h6qcsvbw)" points="690,355,799,355,806,377.4883,809,377.4883,809,426,690,426,690,355" style="stroke: #000000; stroke-width: 1.5;"/><line style="stroke: #000000; stroke-width: 1.5;" x1="690" x2="806" y1="377.4883" y2="377.4883"/><text fill="#000000" font-family="sans-serif" font-size="14" font-weight="bold" lengthAdjust="spacingAndGlyphs" textLength="103" x="694" y="370.5352">curate metrics</text><!--MD5=[bc546d046b41a8b88c97b3c23ad68e14]
entity CurateOM--><rect fill="#FEFECE" filter="url(#fvti1h6qcsvbw)" height="36.4883" style="stroke: #A80036; stroke-width: 1.5;" width="110" x="301" y="382"/><rect fill="#FEFECE" height="5" style="stroke: #A80036; stroke-width: 1.5;" width="10" x="296" y="387"/><rect fill="#FEFECE" height="5" style="stroke: #A80036; stroke-width: 1.5;" width="10" x="296" y="408.4883"/><text fill="#000000" font-family="sans-serif" font-size="14" lengthAdjust="spacingAndGlyphs" textLength="90" x="311" y="405.5352">Object Model</text><!--MD5=[5b9b4a8bd609abdac0c7ed1e93f17e2b]
entity CurateW--><rect fill="#FEFECE" filter="url(#fvti1h6qcsvbw)" height="36.4883" style="stroke: #A80036; stroke-width: 1.5;" width="76" x="301" y="124.5"/><rect fill="#FEFECE" height="5" style="stroke: #A80036; stroke-width: 1.5;" width="10" x="296" y="129.5"/><rect fill="#FEFECE" height="5" style="stroke: #A80036; stroke-width: 1.5;" width="10" x="296" y="150.9883"/><text fill="#000000" font-family="sans-serif" font-size="14" lengthAdjust="spacingAndGlyphs" textLength="56" x="311" y="148.0352">Workers</text><!--MD5=[85b2ff28930311f4084f221890a0e438]
entity CurateBL--><rect fill="#FEFECE" filter="url(#fvti1h6qcsvbw)" height="36.4883" style="stroke: #A80036; stroke-width: 1.5;" width="119" x="412.5" y="124.5"/><rect fill="#FEFECE" height="5" style="stroke: #A80036; stroke-width: 1.5;" width="10" x="407.5" y="129.5"/><rect fill="#FEFECE" height="5" style="stroke: #A80036; stroke-width: 1.5;" width="10" x="407.5" y="150.9883"/><text fill="#000000" font-family="sans-serif" font-size="14" lengthAdjust="spacingAndGlyphs" textLength="99" x="422.5" y="148.0352">Business Logic</text><!--MD5=[993e0d4fdeccee87e9dafe04241cdfbd]
entity MySQL--><path d="M446.5,387.5 C446.5,377.5 479,377.5 479,377.5 C479,377.5 511.5,377.5 511.5,387.5 L511.5,412.9883 C511.5,422.9883 479,422.9883 479,422.9883 C479,422.9883 446.5,422.9883 446.5,412.9883 L446.5,387.5 " fill="#FEFECE" filter="url(#fvti1h6qcsvbw)" style="stroke: #000000; stroke-width: 1.5;"/><path d="M446.5,387.5 C446.5,397.5 479,397.5 479,397.5 C479,397.5 511.5,397.5 511.5,387.5 " fill="none" style="stroke: #000000; stroke-width: 1.5;"/><text fill="#000000" font-family="sans-serif" font-size="14" lengthAdjust="spacingAndGlyphs" textLength="45" x="456.5" y="415.0352">MySQL</text><!--MD5=[b20deab9512140920db0c60e05ecf044]
entity CurateAPI--><ellipse cx="594" cy="142.5" fill="#FEFECE" filter="url(#fvti1h6qcsvbw)" rx="8" ry="8" style="stroke: #A80036; stroke-width: 2.0;"/><text fill="#000000" font-family="sans-serif" font-size="14" lengthAdjust="spacingAndGlyphs" textLength="22" x="583" y="173.0352">API</text><!--MD5=[09e45ecdc9d0928e12a9f97e1821a103]
entity WebLogs--><polygon fill="#FEFECE" filter="url(#fvti1h6qcsvbw)" points="457.5,560,503.5,560,510.5,581,552.5,581,552.5,615.9766,457.5,615.9766,457.5,560" style="stroke: #000000; stroke-width: 1.5;"/><line style="stroke: #000000; stroke-width: 1.5;" x1="457.5" x2="510.5" y1="581" y2="581"/><text fill="#000000" font-family="sans-serif" font-size="14" lengthAdjust="spacingAndGlyphs" textLength="65" x="467.5" y="601.5352">Web Logs</text><!--MD5=[82c8c233f10cbc3ee793e1964b60c00d]
entity FedoraHTTP--><ellipse cx="529" cy="728" fill="#FEFECE" filter="url(#fvti1h6qcsvbw)" rx="8" ry="8" style="stroke: #A80036; stroke-width: 2.0;"/><text fill="#000000" font-family="sans-serif" font-size="14" lengthAdjust="spacingAndGlyphs" textLength="100" x="479" y="758.5352">HTTP Interface</text><!--MD5=[758792de11c9918e6829c98b147e27c2]
entity FedoraFS--><polygon fill="#FEFECE" filter="url(#fvti1h6qcsvbw)" points="622,700,668,700,675,721,728,721,728,755.9766,622,755.9766,622,700" style="stroke: #000000; stroke-width: 1.5;"/><line style="stroke: #000000; stroke-width: 1.5;" x1="622" x2="675" y1="721" y2="721"/><text fill="#000000" font-family="sans-serif" font-size="14" lengthAdjust="spacingAndGlyphs" textLength="76" x="632" y="741.5352">File System</text><!--MD5=[2b310bc7e1db6a4b29dfa72fc01c3ea1]
entity SolrHTTP--><ellipse cx="80" cy="588" fill="#FEFECE" filter="url(#fvti1h6qcsvbw)" rx="8" ry="8" style="stroke: #A80036; stroke-width: 2.0;"/><text fill="#000000" font-family="sans-serif" font-size="14" lengthAdjust="spacingAndGlyphs" textLength="100" x="30" y="618.5352">HTTP Interface</text><!--MD5=[6c444dd6b145513787bf9986e8d9020c]
entity BatchAPI--><ellipse cx="1282" cy="282.5" fill="#FEFECE" filter="url(#fvti1h6qcsvbw)" rx="8" ry="8" style="stroke: #A80036; stroke-width: 2.0;"/><text fill="#000000" font-family="sans-serif" font-size="14" lengthAdjust="spacingAndGlyphs" textLength="22" x="1271" y="313.0352">API</text><!--MD5=[42eac362781da04da8cb2bec19ef980a]
entity BatchWorkers--><rect fill="#FEFECE" filter="url(#fvti1h6qcsvbw)" height="52.9766" style="stroke: #A80036; stroke-width: 1.5;" width="76" x="1344" y="256"/><rect fill="#FEFECE" height="5" style="stroke: #A80036; stroke-width: 1.5;" width="10" x="1339" y="261"/><rect fill="#FEFECE" height="5" style="stroke: #A80036; stroke-width: 1.5;" width="10" x="1339" y="298.9766"/><text fill="#000000" font-family="sans-serif" font-size="14" lengthAdjust="spacingAndGlyphs" textLength="48" x="1354" y="279.5352">System</text><text fill="#000000" font-family="sans-serif" font-size="14" lengthAdjust="spacingAndGlyphs" textLength="56" x="1354" y="296.0234">Workers</text><!--MD5=[2234a812ce347459a076fc2b1c7df208]
entity BatchStaging--><rect fill="#FEFECE" filter="url(#fvti1h6qcsvbw)" height="36.4883" style="stroke: #A80036; stroke-width: 1.5;" width="72" x="1296" y="570"/><rect fill="#FEFECE" height="5" style="stroke: #A80036; stroke-width: 1.5;" width="10" x="1291" y="575"/><rect fill="#FEFECE" height="5" style="stroke: #A80036; stroke-width: 1.5;" width="10" x="1291" y="596.4883"/><text fill="#000000" font-family="sans-serif" font-size="14" lengthAdjust="spacingAndGlyphs" textLength="52" x="1306" y="593.5352">Staging</text><!--MD5=[242e68a4e3660568a3ed9cfaf97b0cda]
entity BendoAPI--><ellipse cx="925" cy="588" fill="#FEFECE" filter="url(#fvti1h6qcsvbw)" rx="8" ry="8" style="stroke: #A80036; stroke-width: 2.0;"/><text fill="#000000" font-family="sans-serif" font-size="14" lengthAdjust="spacingAndGlyphs" textLength="22" x="914" y="618.5352">API</text><!--MD5=[0f052bab7fd2de2904a9ceb14d55a370]
entity BendoC--><rect fill="#FEFECE" filter="url(#fvti1h6qcsvbw)" height="36.4883" style="stroke: #A80036; stroke-width: 1.5;" width="62" x="801" y="570"/><rect fill="#FEFECE" height="5" style="stroke: #A80036; stroke-width: 1.5;" width="10" x="796" y="575"/><rect fill="#FEFECE" height="5" style="stroke: #A80036; stroke-width: 1.5;" width="10" x="796" y="596.4883"/><text fill="#000000" font-family="sans-serif" font-size="14" lengthAdjust="spacingAndGlyphs" textLength="42" x="811" y="593.5352">Cache</text><!--MD5=[5c06c8213d2b1db03166202b79a3e367]
entity BendoCOW--><rect fill="#FEFECE" filter="url(#fvti1h6qcsvbw)" height="52.9766" style="stroke: #A80036; stroke-width: 1.5;" width="95" x="1127.5" y="561.5"/><rect fill="#FEFECE" height="5" style="stroke: #A80036; stroke-width: 1.5;" width="10" x="1122.5" y="566.5"/><rect fill="#FEFECE" height="5" style="stroke: #A80036; stroke-width: 1.5;" width="10" x="1122.5" y="604.4766"/><text fill="#000000" font-family="sans-serif" font-size="14" lengthAdjust="spacingAndGlyphs" textLength="57" x="1137.5" y="585.0352">Copy on</text><text fill="#000000" font-family="sans-serif" font-size="14" lengthAdjust="spacingAndGlyphs" textLength="75" x="1137.5" y="601.5234">Write Layer</text><!--MD5=[a69a73efb10663008a20fe4208d4e2df]
entity BendoPL--><rect fill="#FEFECE" filter="url(#fvti1h6qcsvbw)" height="52.9766" style="stroke: #A80036; stroke-width: 1.5;" width="105" x="987.5" y="561.5"/><rect fill="#FEFECE" height="5" style="stroke: #A80036; stroke-width: 1.5;" width="10" x="982.5" y="566.5"/><rect fill="#FEFECE" height="5" style="stroke: #A80036; stroke-width: 1.5;" width="10" x="982.5" y="604.4766"/><text fill="#000000" font-family="sans-serif" font-size="14" lengthAdjust="spacingAndGlyphs" textLength="85" x="997.5" y="585.0352">Preservation</text><text fill="#000000" font-family="sans-serif" font-size="14" lengthAdjust="spacingAndGlyphs" textLength="36" x="997.5" y="601.5234">Layer</text><!--MD5=[122471d58b7557712b3645c406151814]
entity DTernityNFSM--><ellipse cx="1045" cy="728" fill="#FEFECE" filter="url(#fvti1h6qcsvbw)" rx="8" ry="8" style="stroke: #A80036; stroke-width: 2.0;"/><text fill="#000000" font-family="sans-serif" font-size="14" lengthAdjust="spacingAndGlyphs" textLength="74" x="1008" y="758.5352">NFS Mount</text><!--MD5=[52d5b48969f4d8ab03330ef1bdf65780]
entity DTernityCIFSM--><ellipse cx="918" cy="728" fill="#FEFECE" filter="url(#fvti1h6qcsvbw)" rx="8" ry="8" style="stroke: #A80036; stroke-width: 2.0;"/><text fill="#000000" font-family="sans-serif" font-size="14" lengthAdjust="spacingAndGlyphs" textLength="78" x="879" y="758.5352">CIFS Mount</text><!--MD5=[2134bfea3f0564af1f6584dd54f55a6d]
entity DternityCS--><rect fill="#FEFECE" filter="url(#fvti1h6qcsvbw)" height="36.4883" style="stroke: #A80036; stroke-width: 1.5;" width="61" x="1214.5" y="710"/><rect fill="#FEFECE" height="5" style="stroke: #A80036; stroke-width: 1.5;" width="10" x="1209.5" y="715"/><rect fill="#FEFECE" height="5" style="stroke: #A80036; stroke-width: 1.5;" width="10" x="1209.5" y="736.4883"/><text fill="#000000" font-family="sans-serif" font-size="14" lengthAdjust="spacingAndGlyphs" textLength="41" x="1224.5" y="733.5352">Cloud</text><!--MD5=[9b637540d1516a39865ba1e8b60410be]
entity DternityTS--><rect fill="#FEFECE" filter="url(#fvti1h6qcsvbw)" height="36.4883" style="stroke: #A80036; stroke-width: 1.5;" width="54" x="1125" y="710"/><rect fill="#FEFECE" height="5" style="stroke: #A80036; stroke-width: 1.5;" width="10" x="1120" y="715"/><rect fill="#FEFECE" height="5" style="stroke: #A80036; stroke-width: 1.5;" width="10" x="1120" y="736.4883"/><text fill="#000000" font-family="sans-serif" font-size="14" lengthAdjust="spacingAndGlyphs" textLength="34" x="1135" y="733.5352">Tape</text><!--MD5=[88c9a4f3b7c2dc6234e9ce3799e26ab2]
entity LocalNFSMount--><ellipse cx="1356" cy="728" fill="#FEFECE" filter="url(#fvti1h6qcsvbw)" rx="8" ry="8" style="stroke: #A80036; stroke-width: 2.0;"/><text fill="#000000" font-family="sans-serif" font-size="14" lengthAdjust="spacingAndGlyphs" textLength="74" x="1319" y="758.5352">NFS Mount</text><!--MD5=[6c7192638421eaf134d201765ac5db29]
entity S3--><rect fill="#FEFECE" filter="url(#fvti1h6qcsvbw)" height="36.4883" style="stroke: #A80036; stroke-width: 1.5;" width="37" x="798.5" y="710"/><rect fill="#FEFECE" height="5" style="stroke: #A80036; stroke-width: 1.5;" width="10" x="793.5" y="715"/><rect fill="#FEFECE" height="5" style="stroke: #A80036; stroke-width: 1.5;" width="10" x="793.5" y="736.4883"/><text fill="#000000" font-family="sans-serif" font-size="14" lengthAdjust="spacingAndGlyphs" textLength="17" x="808.5" y="733.5352">S3</text><!--MD5=[8a9af46ab2aa93a8d4e2e00748443714]
entity EZidDoiService--><rect fill="#FEFECE" filter="url(#fvti1h6qcsvbw)" height="36.4883" style="stroke: #A80036; stroke-width: 1.5;" width="93" x="831.5" y="382"/><rect fill="#FEFECE" height="5" style="stroke: #A80036; stroke-width: 1.5;" width="10" x="826.5" y="387"/><rect fill="#FEFECE" height="5" style="stroke: #A80036; stroke-width: 1.5;" width="10" x="826.5" y="408.4883"/><text fill="#000000" font-family="sans-serif" font-size="14" lengthAdjust="spacingAndGlyphs" textLength="73" x="841.5" y="405.5352">DOIService</text><!--MD5=[ee1469d2788bbe71c2eb3dceba3841a6]
entity MySQLNoids--><path d="M1041.5,387.5 C1041.5,377.5 1074,377.5 1074,377.5 C1074,377.5 1106.5,377.5 1106.5,387.5 L1106.5,412.9883 C1106.5,422.9883 1074,422.9883 1074,422.9883 C1074,422.9883 1041.5,422.9883 1041.5,412.9883 L1041.5,387.5 " fill="#FEFECE" filter="url(#fvti1h6qcsvbw)" style="stroke: #000000; stroke-width: 1.5;"/><path d="M1041.5,387.5 C1041.5,397.5 1074,397.5 1074,397.5 C1074,397.5 1106.5,397.5 1106.5,387.5 " fill="none" style="stroke: #000000; stroke-width: 1.5;"/><text fill="#000000" font-family="sans-serif" font-size="14" lengthAdjust="spacingAndGlyphs" textLength="45" x="1051.5" y="415.0352">MySQL</text><!--MD5=[ce340cc172b9f8cd24d5517f041bcb42]
entity Harvester--><rect fill="#FEFECE" filter="url(#fvti1h6qcsvbw)" height="36.4883" style="stroke: #A80036; stroke-width: 1.5;" width="85" x="708.5" y="382"/><rect fill="#FEFECE" height="5" style="stroke: #A80036; stroke-width: 1.5;" width="10" x="703.5" y="387"/><rect fill="#FEFECE" height="5" style="stroke: #A80036; stroke-width: 1.5;" width="10" x="703.5" y="408.4883"/><text fill="#000000" font-family="sans-serif" font-size="14" lengthAdjust="spacingAndGlyphs" textLength="65" x="718.5" y="405.5352">Harvester</text><!--MD5=[c9c84144562f02637ce26622b6d20e46]
entity OSF--><path d="M235.6278,268.4503 C241.5361,258.2645 247.668,254.4942 257.1757,264.6345 C265.6199,257.6091 271.5994,258.588 277.0438,268.2139 C285.9346,268.4317 289.5719,275.8702 284.5339,283.0976 C288.5038,291.8489 287.3414,297.1961 276.807,298.8185 C273.135,309.8357 267.1845,311.7771 257.4421,305.6919 C247.742,313.7195 239.5639,310.276 235.744,299.0613 C226.693,296.8329 224.595,291.5152 230.5981,284.1067 C223.8601,277.5561 227.0531,270.0815 235.6278,268.4503 " fill="#FEFECE" style="stroke: #000000; stroke-width: 1.5;"/><text fill="#000000" font-family="sans-serif" font-size="14" lengthAdjust="spacingAndGlyphs" textLength="27" x="242.5" y="288.0352">OSF</text><!--MD5=[d55d7cbd8f6fc4f4081530b5f5ca05ca]
entity Orcid--><path d="M1683.5139,267.8665 C1687.1049,260.4766 1692.749,260.5974 1697.2474,266.9604 C1700.4876,260.31 1706.017,259.3214 1710.1215,266.1339 C1714.0016,259.98 1718.9676,261.6359 1722.0449,266.9673 C1725.8846,260.5039 1732.4436,262.0001 1735.368,267.9496 C1744.3293,271.1807 1746.7156,277.909 1739.1647,284.8497 C1743.7925,291.4876 1743.686,295.9727 1734.825,298.2384 C1733.4847,304.3234 1728.28,306.6075 1723.7717,301.3167 C1719.7666,308.762 1715.0366,309.227 1709.1699,303.3583 C1704.5832,308.2216 1699.4291,306.4857 1697.0225,300.8386 C1692.5995,306.4521 1687.5362,306.4066 1684.4474,299.4988 C1675.1747,298.6243 1672.1741,292.3519 1677.4525,284.6314 C1671.3317,276.0671 1673.3312,270.5362 1683.5139,267.8665 " fill="#FEFECE" style="stroke: #000000; stroke-width: 1.5;"/><text fill="#000000" font-family="sans-serif" font-size="14" lengthAdjust="spacingAndGlyphs" textLength="37" x="1690.5" y="288.0352">Orcid</text><!--MD5=[1f076d9164310d22b1a1a4b6a9ac675c]
entity DEC--><polygon fill="#FEFECE" filter="url(#fvti1h6qcsvbw)" points="1455.5,263,1490.5,263,1497.5,285.4883,1514.5,285.4883,1514.5,302.4883,1455.5,302.4883,1455.5,263" style="stroke: #000000; stroke-width: 1.5;"/><line style="stroke: #000000; stroke-width: 1.5;" x1="1455.5" x2="1497.5" y1="285.4883" y2="285.4883"/><text fill="#000000" font-family="sans-serif" font-size="14" font-weight="bold" lengthAdjust="spacingAndGlyphs" textLength="29" x="1459.5" y="279.5352">DEC</text><!--MD5=[5d3e09feb24e3c8738235855249c3973]
entity NDPress--><polygon fill="#FEFECE" filter="url(#fvti1h6qcsvbw)" points="1549.5,263,1616.5,263,1623.5,285.4883,1640.5,285.4883,1640.5,302.4883,1549.5,302.4883,1549.5,263" style="stroke: #000000; stroke-width: 1.5;"/><line style="stroke: #000000; stroke-width: 1.5;" x1="1549.5" x2="1623.5" y1="285.4883" y2="285.4883"/><text fill="#000000" font-family="sans-serif" font-size="14" font-weight="bold" lengthAdjust="spacingAndGlyphs" textLength="61" x="1553.5" y="279.5352">NDPress</text><!--MD5=[49416190580e7e978633a2ba0bec8388]
entity Locabulary--><polygon fill="#FEFECE" filter="url(#fvti1h6qcsvbw)" points="208.5,568.5,291.5,568.5,298.5,590.9883,315.5,590.9883,315.5,607.9883,208.5,607.9883,208.5,568.5" style="stroke: #000000; stroke-width: 1.5;"/><line style="stroke: #000000; stroke-width: 1.5;" x1="208.5" x2="298.5" y1="590.9883" y2="590.9883"/><text fill="#000000" font-family="sans-serif" font-size="14" font-weight="bold" lengthAdjust="spacingAndGlyphs" textLength="77" x="212.5" y="585.0352">Locabulary</text><!--MD5=[3491714e99f03197baf38d2a58c40622]
entity PresQT--><polygon fill="#FEFECE" filter="url(#fvti1h6qcsvbw)" points="552.5,8.5,611.5,8.5,618.5,30.9883,635.5,30.9883,635.5,47.9883,552.5,47.9883,552.5,8.5" style="stroke: #000000; stroke-width: 1.5;"/><line style="stroke: #000000; stroke-width: 1.5;" x1="552.5" x2="618.5" y1="30.9883" y2="30.9883"/><text fill="#000000" font-family="sans-serif" font-size="14" font-weight="bold" lengthAdjust="spacingAndGlyphs" textLength="53" x="556.5" y="25.0352">PresQT</text><path d="M691.5,833.5 L691.5,858.8105 L834.5,858.8105 L834.5,843.5 L824.5,833.5 L691.5,833.5 " fill="#FBFB77" filter="url(#fvti1h6qcsvbw)" style="stroke: #A80036; stroke-width: 1.0;"/><path d="M824.5,833.5 L824.5,843.5 L834.5,843.5 L824.5,833.5 " fill="#FBFB77" style="stroke: #A80036; stroke-width: 1.0;"/><text fill="#000000" font-family="sans-serif" font-size="13" lengthAdjust="spacingAndGlyphs" textLength="122" x="697.5" y="851.0684">For durable storage</text><path d="M130,715.5 L130,740.8105 L216,740.8105 L216,725.5 L206,715.5 L130,715.5 " fill="#FBFB77" filter="url(#fvti1h6qcsvbw)" style="stroke: #A80036; stroke-width: 1.0;"/><path d="M206,715.5 L206,725.5 L216,725.5 L206,715.5 " fill="#FBFB77" style="stroke: #A80036; stroke-width: 1.0;"/><text fill="#000000" font-family="sans-serif" font-size="13" lengthAdjust="spacingAndGlyphs" textLength="65" x="136" y="733.0684">For search</text><!--MD5=[cc617f22391be430c88991d2db666087]
entity SpectraLogic--><polygon fill="#FEFECE" filter="url(#fvti1h6qcsvbw)" points="1068.5,818,1114.5,818,1121.5,839,1185.5,839,1185.5,873.9766,1068.5,873.9766,1068.5,818" style="stroke: #000000; stroke-width: 1.5;"/><line style="stroke: #000000; stroke-width: 1.5;" x1="1068.5" x2="1121.5" y1="839" y2="839"/><text fill="#000000" font-family="sans-serif" font-size="14" lengthAdjust="spacingAndGlyphs" textLength="87" x="1078.5" y="859.5352">SpectraLogic</text><!--MD5=[5bd6eb4bacc8574aa646895c70a29c94]
entity FujiCloud--><path d="M1229.5388,831.9329 C1233.517,825.848 1238.0523,826.3923 1242.3561,831.562 C1244.9616,823.3753 1251.6883,823.1649 1256.3976,829.5323 C1259.8102,823.2032 1264.3269,822.1579 1269.0212,828.2273 C1273.2928,821.5627 1279.9941,822.9249 1282.6226,829.8694 C1287.1442,823.8121 1293.504,823.6661 1297.1404,830.8407 C1301.2412,825.6915 1307.0092,825.873 1310.4382,831.6577 C1317.4558,835.727 1319.289,840.7164 1312.5336,846.7038 C1320.738,853.7873 1318.6242,859.6917 1309.3597,863.4678 C1306.544,870.0244 1300.7723,871.0368 1296.3289,865.1759 C1293.4643,872.432 1288.1742,871.7447 1283.498,867.1348 C1280.1103,873.5027 1275.1447,875.8076 1269.5828,869.5266 C1265.1493,875.1396 1259.8145,872.8113 1257.841,866.9987 C1253.4859,872.3237 1246.8135,872.3709 1244.1744,865.1321 C1239.078,870.4522 1231.7027,871.0378 1229.1035,862.43 C1218.9252,862.4014 1216.4429,854.772 1220.6847,846.9174 C1215.5038,838.3771 1219.8708,831.6992 1229.5388,831.9329 " fill="#FEFECE" style="stroke: #000000; stroke-width: 1.5;"/><text fill="#000000" font-family="sans-serif" font-size="14" lengthAdjust="spacingAndGlyphs" textLength="66" x="1236" y="851.5352">FujiCloud</text><!--MD5=[f6308400aa79ab34bdd42633ed24a516]
link CurateW to CurateOM--><path d="M340.1954,160.6069 C343.207,206.2239 351.1041,325.8411 354.4579,376.6411 " fill="none" id="CurateW-&gt;CurateOM" style="stroke: #A80036; stroke-width: 1.0;"/><polygon fill="#A80036" points="354.8059,381.9131,358.2042,372.6691,354.4765,376.924,350.2216,373.1962,354.8059,381.9131" style="stroke: #A80036; stroke-width: 1.0;"/><!--MD5=[ebe573a2313719c32676d731a6f24376]
link CurateBL to MySQL--><path d="M472.4922,160.6069 C473.6957,204.8775 476.7938,318.8442 478.2379,371.9666 " fill="none" id="CurateBL-&gt;MySQL" style="stroke: #A80036; stroke-width: 1.0;"/><polygon fill="#A80036" points="478.3807,377.2192,482.1344,368.1137,478.2447,372.221,474.1374,368.3313,478.3807,377.2192" style="stroke: #A80036; stroke-width: 1.0;"/><!--MD5=[be425c71219081c45f0da8047b5804e8]
link CurateBL to OSF--><path d="M424.1666,160.6557 C377.3008,179.1046 309.9539,207.5848 289,226.5 C280.3558,234.3032 273.3183,244.9151 267.9968,254.8033 " fill="none" id="CurateBL-&gt;OSF" style="stroke: #A80036; stroke-width: 1.0;"/><polygon fill="#A80036" points="265.673,259.2829,273.3681,253.1359,267.9754,254.8446,266.2667,249.452,265.673,259.2829" style="stroke: #A80036; stroke-width: 1.0;"/><!--MD5=[a380c7d5b1eb59107ba49bf24cdb1288]
link CurateBL to Orcid--><path d="M512.9651,160.5986 C524.7,164.9899 537.6609,169.106 550,171.5 C669.8113,194.7455 1539.5395,145.5408 1648,201.5 C1669.9221,212.8105 1686.1215,236.0072 1696.295,254.6893 " fill="none" id="CurateBL-&gt;Orcid" style="stroke: #A80036; stroke-width: 1.0;"/><polygon fill="#A80036" points="1698.7514,259.3317,1698.0775,249.5059,1696.4128,254.9123,1691.0065,253.2476,1698.7514,259.3317" style="stroke: #A80036; stroke-width: 1.0;"/><!--MD5=[717bc89fdb873845e74d837b7ed5fe79]
link PresQT to CurateAPI--><path d="M594,47.6833 C594,70.5937 594,107.8749 594,128.192 " fill="none" id="PresQT-&gt;CurateAPI" style="stroke: #A80036; stroke-width: 1.0;"/><polygon fill="#A80036" points="594,133.4466,598,124.4466,594,128.4466,590,124.4466,594,133.4466" style="stroke: #A80036; stroke-width: 1.0;"/><!--MD5=[3512b8d5b97179d6f8f710be44ca28b5]
link CurateOM to Disadis--><path d="M372.1682,418.247 C379.8643,427.8371 388.5543,440.145 394,452.5 C399.91,465.9083 404.5932,480.6201 408.2989,495.253 C410.1517,502.5694 411.7601,509.866 413.1552,516.9702 C413.8528,520.5222 414.497,524.0261 415.0918,527.4603 C415.3892,529.1774 415.6743,530.877 415.9474,532.5566 " fill="none" id="CurateOM-&gt;Disadis" style="stroke: #A80036; stroke-width: 1.0; stroke-dasharray: 7.0,7.0;"/><polygon fill="#A80036" points="415.9474,532.5566,418.4507,523.0311,415.1447,527.6214,410.5544,524.3155,415.9474,532.5566" style="stroke: #A80036; stroke-width: 1.0;"/><!--MD5=[f1576ee4feee5652b77224663b6a33b6]
link CurateBL to DEC--><path d="M513.833,160.6216 C525.3522,164.8994 537.9869,168.9523 550,171.5 C742.976,212.4251 1258.9741,139.4572 1436,226.5 C1450.2485,233.5059 1462.1099,246.6926 1470.5921,258.5105 " fill="none" id="CurateBL-&gt;DEC" style="stroke: #A80036; stroke-width: 1.0; stroke-dasharray: 7.0,7.0;"/><polygon fill="#A80036" points="1473.5624,262.7885,1471.7153,253.1144,1470.7108,258.6814,1465.1439,257.6769,1473.5624,262.7885" style="stroke: #A80036; stroke-width: 1.0;"/><text fill="#000000" font-family="sans-serif" font-size="13" lengthAdjust="spacingAndGlyphs" textLength="99" x="1414" y="215.0684">Link to exhibits</text><!--MD5=[158d77a01b92d727883b126add7f88a9]
link CurateBL to NDPress--><path d="M512.9707,160.57 C524.7057,164.961 537.6652,169.0842 550,171.5 C656.0368,192.2678 1423.9694,156.0565 1522,201.5 C1547.8673,213.4912 1568.5648,239.4087 1581.2224,258.7159 " fill="none" id="CurateBL-&gt;NDPress" style="stroke: #A80036; stroke-width: 1.0; stroke-dasharray: 7.0,7.0;"/><polygon fill="#A80036" points="1583.9551,262.9742,1582.4607,253.2394,1581.2546,258.7662,1575.7279,257.5601,1583.9551,262.9742" style="stroke: #A80036; stroke-width: 1.0;"/><text fill="#000000" font-family="sans-serif" font-size="13" lengthAdjust="spacingAndGlyphs" textLength="92" x="1547" y="215.0684">Link for books</text><!--MD5=[67612c4b9c47613ba34e0a06d9887903]
link CurateOM to Locabulary--><path d="M311.3645,418.2263 C296.7106,426.4839 281.9114,437.7642 273,452.5 C252.419,486.5324 254.1667,534.4722 257.7649,563.2644 " fill="none" id="CurateOM-&gt;Locabulary" style="stroke: #A80036; stroke-width: 1.0; stroke-dasharray: 7.0,7.0;"/><polygon fill="#A80036" points="258.4533,568.4101,261.2245,558.9592,257.7903,563.4543,253.2952,560.02,258.4533,568.4101" style="stroke: #A80036; stroke-width: 1.0;"/><text fill="#000000" font-family="sans-serif" font-size="13" lengthAdjust="spacingAndGlyphs" textLength="18" x="299" y="466.0684">for</text><text fill="#000000" font-family="sans-serif" font-size="13" lengthAdjust="spacingAndGlyphs" textLength="64" x="276" y="481.3789">controlled</text><text fill="#000000" font-family="sans-serif" font-size="13" lengthAdjust="spacingAndGlyphs" textLength="68" x="274" y="496.6895">vocabulary</text><!--MD5=[384f5bfa1c83db89ed6109aae4e31d0b]
link Fedora to GMN29--><path d="M763,765.2163 C763,767.8014 763,770.4514 763,773.1422 C763,794.6682 763,818.8028 763,833.1825 " fill="none" id="Fedora-GMN29" style="stroke: #A80036; stroke-width: 1.0; stroke-dasharray: 7.0,7.0;"/><!--MD5=[c575ba35b1a753f98a5d5ff5985046d1]
link Solr to GMN34--><path d="M173,625.027 C173,625.7929 173,626.5657 173,627.3449 C173,628.9031 173,630.4866 173,632.0912 C173,635.3005 173,638.5943 173,641.9399 C173,668.7046 173,698.7804 173,715.3445 " fill="none" id="Solr-GMN34" style="stroke: #A80036; stroke-width: 1.0; stroke-dasharray: 7.0,7.0;"/><!--MD5=[c4b16eb3d6414c2aa44b92c384e1ef74]
link BatchWorkers to BatchStaging--><path d="M1377.6503,309.0767 C1368.0063,368.0015 1344.9619,508.8027 1335.8258,564.6246 " fill="none" id="BatchWorkers-&gt;BatchStaging" style="stroke: #A80036; stroke-width: 1.0;"/><polygon fill="#A80036" points="1334.986,569.7558,1340.3874,561.5202,1335.7937,564.8215,1332.4924,560.2278,1334.986,569.7558" style="stroke: #A80036; stroke-width: 1.0;"/><!--MD5=[6a1fce4dab5871a943cb5b0d01472d59]
link CurateBL to EZidDoiService--><path d="M513.6714,160.5687 C533.7446,170.6413 557.249,184.5797 575,201.5 C628.8137,252.7952 600.7664,305.068 665,342.5 C694.2244,359.5304 785.4296,338.3587 817,350.5 C832.5539,356.4817 847.1566,368.0299 858.1728,378.4683 " fill="none" id="CurateBL-&gt;EZidDoiService" style="stroke: #A80036; stroke-width: 1.0;"/><polygon fill="#A80036" points="861.7675,381.956,858.0936,372.818,858.179,378.4742,852.5228,378.5596,861.7675,381.956" style="stroke: #A80036; stroke-width: 1.0;"/><!--MD5=[091470820ed0e66ec964d73499dd3960]
link BatchWorkers to EZidDoiService--><path d="M1343.9925,304.7431 C1338.4263,307.3455 1332.6598,309.7068 1327,311.5 C1197.9839,352.3766 1156.8765,320.092 1025,350.5 C992.381,358.0213 956.7794,369.9097 928.783,380.1507 " fill="none" id="BatchWorkers-&gt;EZidDoiService" style="stroke: #A80036; stroke-width: 1.0;"/><polygon fill="#A80036" points="924.0025,381.9103,933.8302,382.5553,928.6947,380.1832,931.0668,375.0477,924.0025,381.9103" style="stroke: #A80036; stroke-width: 1.0;"/><!--MD5=[ad9256a20bd9b85cb5949e83e300b90b]
link CurateBL to Noids--><path d="M519.2896,160.5448 C529.3885,164.2684 540.0195,168.0912 550,171.5 C676.4424,214.6859 771.6177,213.3068 859.3447,224.1957 C903.2082,229.6402 945.2097,238.1517 988.3265,256.8344 C1009.8849,266.1757 1031.7221,278.0598 1054.2103,293.3748 C1065.4544,301.0322 1076.8612,309.5474 1088.4773,319.0313 C1094.2854,323.7732 1100.1458,328.7573 1106.0643,333.9975 C1109.0235,336.6176 1111.9973,339.3017 1114.9864,342.0515 C1116.4809,343.4264 1117.9792,344.8178 1119.4815,346.2258 C1120.2326,346.9298 1120.9847,366.2759 1121.7378,366.9883 " fill="none" id="CurateBL-&gt;Noids" style="stroke: #A80036; stroke-width: 1.0;"/><polygon fill="#A80036" points="1121.7378,348.3503,1117.9482,339.2597,1118.1054,344.9144,1112.4507,345.0715,1121.7378,348.3503" style="stroke: #A80036; stroke-width: 1.0;"/><!--MD5=[16d7b02720cdbebcc484570c7d4ad40f]
link BatchWorkers to Noids--><path d="M1343.7697,304.1082 C1338.2371,306.8065 1332.5393,309.3635 1327,311.5 C1276.9141,330.8179 1257.5979,316.6763 1210,341.5 C1193.4304,350.1416 1177.4534,363.5357 1165.1542,375.328 C1162.0794,378.2761 1159.2345,381.1241 1156.6676,383.7727 C1155.3842,385.097 1154.1702,386.3714 1153.0319,387.5836 C1152.4627,388.1897 1151.9124,388.7802 1151.3817,389.3536 C1151.1164,389.6403 1150.856,389.9228 1150.6006,390.2007 C1150.4729,390.3397 1150.3464,390.4776 1150.2212,390.6143 C1150.1586,390.6826 1150.0963,390.7507 1150.0344,390.8185 " fill="none" id="BatchWorkers-&gt;Noids" style="stroke: #A80036; stroke-width: 1.0;"/><polygon fill="#A80036" points="1150.0344,390.8185,1159.0591,386.8746,1153.4079,387.1281,1153.1545,381.4769,1150.0344,390.8185" style="stroke: #A80036; stroke-width: 1.0;"/><!--MD5=[8f687d88da054b9adeccc32fd67f7b5c]
link Harvester to WebLogs--><path d="M720.8162,418.1076 C705.068,427.8572 685.6637,440.3501 669,452.5 C623.1165,485.9547 573.1916,528.0999 540.6301,556.4296 " fill="none" id="Harvester-&gt;WebLogs" style="stroke: #A80036; stroke-width: 1.0;"/><polygon fill="#A80036" points="536.7467,559.8144,546.1595,556.9164,540.5159,556.5292,540.9031,550.8856,536.7467,559.8144" style="stroke: #A80036; stroke-width: 1.0;"/><!--MD5=[01b71dfd9fab7d4c0242482315137b4a]
link Harvester to FedoraHTTP--><path d="M742.1363,418.2451 C731.7616,439.6187 714.0793,476.1037 699,507.5 C669.0485,569.8613 684.602,603.0662 632,648 C622.4837,656.1291 615.8413,649.7463 605,656 C578.0043,671.5722 553.076,698.5854 539.5568,714.727 " fill="none" id="Harvester-&gt;FedoraHTTP" style="stroke: #A80036; stroke-width: 1.0;"/><polygon fill="#A80036" points="536.3712,718.583,545.1871,714.1922,539.5558,714.7283,539.0196,709.0969,536.3712,718.583" style="stroke: #A80036; stroke-width: 1.0;"/><!--MD5=[9609a61543a3b278aaa3401090298d37]
link Harvester to FedoraFS--><path d="M748.399,418.2546 C742.3074,459.5888 725.8812,563.328 703,648 C698.7578,663.6982 692.9606,680.7506 687.7413,695.063 " fill="none" id="Harvester-&gt;FedoraFS" style="stroke: #A80036; stroke-width: 1.0;"/><polygon fill="#A80036" points="685.9965,699.8058,692.858,692.7404,687.7229,695.1133,685.35,689.9782,685.9965,699.8058" style="stroke: #A80036; stroke-width: 1.0;"/><!--MD5=[609f8a42f1abb8a537279095a77b4f9d]
link Harvester to BendoAPI--><path d="M778.4949,418.0378 C806.7623,437.5807 850.7988,470.9101 881,507.5 C898.2737,528.4278 912.0439,557.1551 919.323,574.0309 " fill="none" id="Harvester-&gt;BendoAPI" style="stroke: #A80036; stroke-width: 1.0;"/><polygon fill="#A80036" points="921.3703,578.866,921.5445,569.0187,919.4207,574.2617,914.1777,572.138,921.3703,578.866" style="stroke: #A80036; stroke-width: 1.0;"/><!--MD5=[4f71ea4900ca13e6e997786faf271167]
link BendoPL to DTernityNFSM--><path d="M1040.9522,614.6625 C1042.0067,644.1882 1043.6669,690.6733 1044.4951,713.8627 " fill="none" id="BendoPL-&gt;DTernityNFSM" style="stroke: #A80036; stroke-width: 1.0;"/><polygon fill="#A80036" points="1044.6775,718.9699,1048.3535,709.8328,1044.4989,713.9731,1040.3586,710.1185,1044.6775,718.9699" style="stroke: #A80036; stroke-width: 1.0;"/><!--MD5=[748fade2ea86f22bd3818d6807e04c9b]
link CurateOM to FedoraHTTP--><path d="M355.9153,418.2848 C356.5392,459.4016 362.7013,560.9861 406,630.5 C433.6881,674.9519 489.1262,707.6117 515.0436,721.1318 " fill="none" id="CurateOM-&gt;FedoraHTTP" style="stroke: #A80036; stroke-width: 1.0;"/><polygon fill="#A80036" points="519.8166,723.5785,513.6323,715.9134,515.3671,721.2976,509.9829,723.0325,519.8166,723.5785" style="stroke: #A80036; stroke-width: 1.0;"/><!--MD5=[23afdad4f6870048c8e275f40f5e33c7]
link CurateOM to SolrHTTP--><path d="M311.6443,418.0204 C268.9361,436.6337 203.8112,468.4243 155,507.5 C129.0187,528.2992 103.6618,558.0757 90.1144,574.9749 " fill="none" id="CurateOM-&gt;SolrHTTP" style="stroke: #A80036; stroke-width: 1.0;"/><polygon fill="#A80036" points="86.9314,578.9805,95.6621,574.4225,90.0419,575.0658,89.3986,569.4457,86.9314,578.9805" style="stroke: #A80036; stroke-width: 1.0;"/><!--MD5=[d7a1711f6d8c846615a674cc1f540235]
link BatchWorkers to CurateAPI--><path d="M1401.0441,255.9628 C1410.7137,244.7166 1423.4882,232.7783 1438,226.5 C1451.0594,220.8501 1684.0968,228.7175 1694,218.5 C1699.2585,213.0746 1699.1975,206.9838 1694,201.5 C1654.7859,160.1262 734.2349,144.6389 608.2394,142.7104 " fill="none" id="BatchWorkers-&gt;CurateAPI" style="stroke: #A80036; stroke-width: 1.0;"/><polygon fill="#A80036" points="603.1525,142.6333,612.0908,146.7694,608.1519,142.7092,612.2121,138.7703,603.1525,142.6333" style="stroke: #A80036; stroke-width: 1.0;"/><!--MD5=[be818180ef747dfd724894fcac7cbd33]
link BendoCOW to LocalNFSMount--><path d="M1213.3825,614.7215 C1221.697,620.1598 1230.5374,625.6847 1239,630.5 C1261.7197,643.4277 1271.1318,640.2575 1292,656 C1314.6995,673.124 1335.4763,699.2594 1346.8724,714.8842 " fill="none" id="BendoCOW-&gt;LocalNFSMount" style="stroke: #A80036; stroke-width: 1.0;"/><polygon fill="#A80036" points="1349.8317,718.9962,1347.8211,709.3548,1346.911,714.9379,1341.3278,714.0279,1349.8317,718.9962" style="stroke: #A80036; stroke-width: 1.0;"/><!--MD5=[712c61d2caa9247498e07ff5e7aef8af]
link DternityTS to SpectraLogic--><path d="M1148.1485,746.1789 C1144.3952,763.8946 1138.6014,791.2413 1134.0265,812.8348 " fill="none" id="DternityTS-&gt;SpectraLogic" style="stroke: #A80036; stroke-width: 1.0;"/><polygon fill="#A80036" points="1132.9514,817.9094,1138.7301,809.934,1133.9878,813.018,1130.9038,808.2757,1132.9514,817.9094" style="stroke: #A80036; stroke-width: 1.0;"/><!--MD5=[1b451e3079f782c992b0770264c82750]
link DternityCS to FujiCloud--><path d="M1248.6974,746.1789 C1252.5684,765.2113 1258.7002,795.3595 1263.2131,817.548 " fill="none" id="DternityCS-&gt;FujiCloud" style="stroke: #A80036; stroke-width: 1.0;"/><polygon fill="#A80036" points="1264.2653,822.7211,1266.391,813.1044,1263.2686,817.8214,1258.5515,814.6991,1264.2653,822.7211" style="stroke: #A80036; stroke-width: 1.0;"/><!--MD5=[58a52875fac3da223b468f2cf2292c87]
link BendoC to S3--><path d="M830.0697,606.0159 C827.3844,631.0792 822.5166,676.5113 819.5395,704.2979 " fill="none" id="BendoC-&gt;S3" style="stroke: #A80036; stroke-width: 1.0;"/><polygon fill="#A80036" points="818.9705,709.6086,823.9069,701.0861,819.5034,704.6371,815.9524,700.2336,818.9705,709.6086" style="stroke: #A80036; stroke-width: 1.0;"/><!--MD5=[3f37fb978bf3238147a411acecef3405]
link CurateW to BatchAPI--><path d="M369.2677,160.6384 C377.3842,164.8084 386.3217,168.8044 395,171.5 C568.642,225.435 1167.5369,273.6307 1267.729,281.407 " fill="none" id="CurateW-&gt;BatchAPI" style="stroke: #A80036; stroke-width: 1.0;"/><polygon fill="#A80036" points="1272.8706,281.8045,1264.2059,277.1224,1267.8855,281.4189,1263.5889,285.0986,1272.8706,281.8045" style="stroke: #A80036; stroke-width: 1.0;"/><!--MD5=[22c30e073cb1775f49aed19ee0caac9c]
link BatchWorkers to BendoAPI--><path d="M1346.4712,309.1036 C1303.3761,340.6219 1227.8111,393.5108 1158,430.5 C1078.5784,472.5812 1038.5062,448.1575 971,507.5 C950.0739,525.8955 936.416,556.2174 929.7644,573.9278 " fill="none" id="BatchWorkers-&gt;BendoAPI" style="stroke: #A80036; stroke-width: 1.0;"/><polygon fill="#A80036" points="927.9248,578.9921,934.7575,571.8989,929.6321,574.2926,927.2384,569.1672,927.9248,578.9921" style="stroke: #A80036; stroke-width: 1.0;"/><!--MD5=[48aeddef0129bbadfae385d809e6ed7e]
link BatchWorkers to FedoraHTTP--><path d="M1343.7945,305.2397 C1338.3061,307.7311 1332.6135,309.9294 1327,311.5 C1257.8577,330.845 740.2754,308.5612 682,350.5 C654.7694,370.0969 581.6447,599.425 569,630.5 C556.8977,660.2419 542.5898,695.0274 534.7882,713.9633 " fill="none" id="BatchWorkers-&gt;FedoraHTTP" style="stroke: #A80036; stroke-width: 1.0;"/><polygon fill="#A80036" points="532.7675,718.8665,539.895,712.0695,534.6726,714.2437,532.4985,709.0213,532.7675,718.8665" style="stroke: #A80036; stroke-width: 1.0;"/><!--MD5=[17e618ef446bf30840648c6d8ccb831e]
link BatchWorkers to LocalNFSMount--><path d="M1385.2139,309.3323 C1391.6064,367.9936 1403.8339,511.8983 1386,630.5 C1381.4024,661.0759 1369.1229,695.2941 1361.7776,713.9662 " fill="none" id="BatchWorkers-&gt;LocalNFSMount" style="stroke: #A80036; stroke-width: 1.0;"/><polygon fill="#A80036" points="1359.8472,718.8044,1366.8978,711.9276,1361.7002,714.1604,1359.4674,708.9629,1359.8472,718.8044" style="stroke: #A80036; stroke-width: 1.0;"/><!--MD5=[50317854333d4d877def66f8e8153057]
link BatchStaging to LocalNFSMount--><path d="M1335.0884,606.0159 C1339.9108,634.1463 1349.1319,687.9359 1353.5377,713.6366 " fill="none" id="BatchStaging-&gt;LocalNFSMount" style="stroke: #A80036; stroke-width: 1.0;"/><polygon fill="#A80036" points="1354.4015,718.6752,1356.8233,709.1287,1353.5566,713.7471,1348.9383,710.4805,1354.4015,718.6752" style="stroke: #A80036; stroke-width: 1.0;"/><!--MD5=[d4332c447949cb4637e1aafbc0cbc697]
link Disadis to FedoraHTTP--><path d="M436.2933,624.1752 C436.3289,624.2413 436.3646,624.3074 436.4004,624.3734 C437.5443,626.4856 438.7456,628.5439 440,630.5 C462.1996,665.1163 497.0018,699.1052 515.8346,716.3407 " fill="none" id="Disadis-&gt;FedoraHTTP" style="stroke: #A80036; stroke-width: 1.0;"/><polygon fill="#A80036" points="519.8212,719.9568,515.8425,710.9474,516.1178,716.5975,510.4676,716.8728,519.8212,719.9568" style="stroke: #A80036; stroke-width: 1.0;"/><!--MD5=[de12bf423e57d8c75bcb6d2daa178234]
link CurateBL to Disadis--><path d="M482.863,160.579 C509.4513,207.3344 572.5482,335.239 529,430.5 C507.2536,478.0699 466.8368,462.6047 440,507.5 C435.5914,514.8753 432.2605,523.2154 429.7444,531.6629 C429.6657,531.9269 429.5879,532.191 429.5109,532.4552 C429.4723,532.5873 429.434,532.7194 429.3959,532.8515 " fill="none" id="CurateBL-&gt;Disadis" style="stroke: #A80036; stroke-width: 1.0;"/><polygon fill="#A80036" points="429.3959,532.8515,435.7346,525.3135,430.7823,528.0475,428.0483,523.0953,429.3959,532.8515" style="stroke: #A80036; stroke-width: 1.0;"/><!--MD5=[c922414605016de9aeb623e3a80fd005]
@startuml

package "curate.nd.edu" {
  component "Object Model" as CurateOM
  component "Workers" as CurateW
  component "Business Logic" as CurateBL
  database MySQL
  interface "API" as CurateAPI
  CurateW - -> CurateOM
  CurateBL - -> MySQL
}
package Disadis {
  folder "Web Logs" as WebLogs
}

cloud OSF
CurateBL - -> OSF
cloud Orcid
CurateBL - -> Orcid

package DEC
package NDPress
package Locabulary
package PresQT

PresQT - -> CurateAPI

CurateOM ..> Disadis
CurateBL ..> DEC : Link to exhibits
CurateBL ..> NDPress : Link for books
CurateOM ..> Locabulary : "for\ncontrolled\nvocabulary"

package "Fedora" {
  interface "HTTP Interface" as FedoraHTTP
  folder "File System" as FedoraFS
}
note bottom of Fedora
  For durable storage
end note

package "Solr" {
  interface "HTTP Interface" as SolrHTTP
}
note bottom of Solr
  For search
end note

package "Batch" {
  interface API as BatchAPI
  component "System\nWorkers" as BatchWorkers
  component Staging as BatchStaging
  BatchWorkers - -> BatchStaging
}

package "Bendo" {
  interface API as BendoAPI
  component Cache as BendoC
  component Storage {
    component "Copy on\nWrite Layer" as BendoCOW
    component "Preservation\nLayer" as BendoPL
  }
}

package "DTernity" {
  interface "NFS Mount" as DTernityNFSM
  interface "CIFS Mount" as DTernityCIFSM
  package "Storage" as DTernityStorage {
    component "Cloud" as DternityCS
    component "Tape" as DternityTS
  }
}

folder "Local Storage" {
  interface "NFS Mount" as LocalNFSMount
}

folder "SpectraLogic"

cloud "FujiCloud"

cloud AWS {
  component S3
}

cloud EZid {
  component DOIService as EZidDoiService
}
CurateBL - -> EZidDoiService
BatchWorkers - -> EZidDoiService

package Noids {
  database MySQL as MySQLNoids
}
CurateBL - -> Noids
BatchWorkers - -> Noids

package "curate metrics" {
  component "Harvester"
  Harvester - -> WebLogs
  Harvester - -> FedoraHTTP
  Harvester - -> FedoraFS
  Harvester - -> BendoAPI
}

BendoPL - -> DTernityNFSM
CurateOM - -> FedoraHTTP
CurateOM - -> SolrHTTP
BatchWorkers - -> CurateAPI
BendoCOW - -> LocalNFSMount
DternityTS - -> SpectraLogic
DternityCS - -> FujiCloud
BendoC - -> S3
CurateW - -> BatchAPI
BatchWorkers - -> BendoAPI
BatchWorkers - -> FedoraHTTP
BatchWorkers - -> LocalNFSMount
BatchStaging - -> LocalNFSMount
Disadis - -> FedoraHTTP
CurateBL - -> Disadis

@enduml

PlantUML version 1.2019.10(Fri Sep 13 16:53:03 EDT 2019)
(GPL source distribution)
Java Runtime: Java(TM) SE Runtime Environment
JVM: Java HotSpot(TM) 64-Bit Server VM
Java Version: 1.8.0_102-b14
Operating System: Mac OS X
Default Encoding: UTF-8
Language: en
Country: US
--></g></svg>