<?xml version="1.0" encoding="UTF-8" standalone="no"?><svg xmlns="http://www.w3.org/2000/svg" xmlns:xlink="http://www.w3.org/1999/xlink" contentScriptType="application/ecmascript" contentStyleType="text/css" height="596px" preserveAspectRatio="none" style="width:1075px;height:596px;" version="1.1" viewBox="0 0 1075 596"
    width="1075px" zoomAndPan="magnify"><defs><filter height="300%" id="f1x1ciijnigenw" width="300%" x="-1" y="-1"><feGaussianBlur result="blurOut" stdDeviation="2.0"/><feColorMatrix in="blurOut" result="blurOut2" type="matrix" values="0 0 0 0 0 0 0 0 0 0 0 0 0 0 0 0 0 0 .4 0"/><feOffset dx="4.0" dy="4.0" in="blurOut2" result="blurOut3"/><feBlend in="SourceGraphic" in2="blurOut3" mode="normal"/></filter></defs><g><!--MD5=[c9d6f7fb1f0a669497366bbe6221095f]
cluster curate.nd.edu--><polygon fill="#FFFFFF" filter="url(#f1x1ciijnigenw)" points="189,16,289,16,296,38.4883,459,38.4883,459,216,189,216,189,16" style="stroke: #000000; stroke-width: 1.5;"/><line style="stroke: #000000; stroke-width: 1.5;" x1="189" x2="296" y1="38.4883" y2="38.4883"/><text fill="#000000" font-family="sans-serif" font-size="14" font-weight="bold" lengthAdjust="spacingAndGlyphs" textLength="94" x="193" y="31.5352">curate.nd.edu</text><!--MD5=[308df279a3acadc606e9b430cafa7df7]
cluster Fedora--><polygon fill="#FFFFFF" filter="url(#f1x1ciijnigenw)" points="165,259.5,219,259.5,226,281.9883,438,281.9883,438,352.5,165,352.5,165,259.5" style="stroke: #000000; stroke-width: 1.5;"/><line style="stroke: #000000; stroke-width: 1.5;" x1="165" x2="226" y1="281.9883" y2="281.9883"/><text fill="#000000" font-family="sans-serif" font-size="14" font-weight="bold" lengthAdjust="spacingAndGlyphs" textLength="48" x="169" y="275.0352">Fedora</text><!--MD5=[9b75e51328caceb55a2eb72be0e161e7]
cluster Solr--><polygon fill="#FFFFFF" filter="url(#f1x1ciijnigenw)" points="14,259.5,48,259.5,55,281.9883,146,281.9883,146,352.5,14,352.5,14,259.5" style="stroke: #000000; stroke-width: 1.5;"/><line style="stroke: #000000; stroke-width: 1.5;" x1="14" x2="55" y1="281.9883" y2="281.9883"/><text fill="#000000" font-family="sans-serif" font-size="14" font-weight="bold" lengthAdjust="spacingAndGlyphs" textLength="28" x="18" y="275.0352">Solr</text><!--MD5=[aa67b594d9c629de74c234d94f00fd81]
cluster Batch--><polygon fill="#FFFFFF" filter="url(#f1x1ciijnigenw)" points="467,134,512,134,519,156.4883,622,156.4883,622,227,467,227,467,134" style="stroke: #000000; stroke-width: 1.5;"/><line style="stroke: #000000; stroke-width: 1.5;" x1="467" x2="519" y1="156.4883" y2="156.4883"/><text fill="#000000" font-family="sans-serif" font-size="14" font-weight="bold" lengthAdjust="spacingAndGlyphs" textLength="39" x="471" y="149.5352">Batch</text><!--MD5=[cbf4aac06c00b9b45ad288879e34ff12]
cluster Bendo--><polygon fill="#FFFFFF" filter="url(#f1x1ciijnigenw)" points="457,235,507,235,514,257.4883,903,257.4883,903,358,457,358,457,235" style="stroke: #000000; stroke-width: 1.5;"/><line style="stroke: #000000; stroke-width: 1.5;" x1="457" x2="514" y1="257.4883" y2="257.4883"/><text fill="#000000" font-family="sans-serif" font-size="14" font-weight="bold" lengthAdjust="spacingAndGlyphs" textLength="44" x="461" y="250.5352">Bendo</text><!--MD5=[562ed55e840afc79d9783beef242227d]
cluster Storage--><rect fill="#FFFFFF" filter="url(#f1x1ciijnigenw)" height="88" style="stroke: #000000; stroke-width: 1.5;" width="252" x="643" y="262"/><rect fill="#FFFFFF" height="10" style="stroke: #000000; stroke-width: 1.5;" width="15" x="875" y="267"/><rect fill="#FFFFFF" height="2" style="stroke: #000000; stroke-width: 1.5;" width="4" x="873" y="269"/><rect fill="#FFFFFF" height="2" style="stroke: #000000; stroke-width: 1.5;" width="4" x="873" y="273"/><text fill="#000000" font-family="sans-serif" font-size="14" font-weight="bold" lengthAdjust="spacingAndGlyphs" textLength="54" x="742" y="288.5352">Storage</text><!--MD5=[8c9b6bf02c885b7ba5866d030e10667c]
cluster DTernity--><polygon fill="#FFFFFF" filter="url(#f1x1ciijnigenw)" points="503,366,572,366,579,388.4883,932,388.4883,932,475,503,475,503,366" style="stroke: #000000; stroke-width: 1.5;"/><line style="stroke: #000000; stroke-width: 1.5;" x1="503" x2="579" y1="388.4883" y2="388.4883"/><text fill="#000000" font-family="sans-serif" font-size="14" font-weight="bold" lengthAdjust="spacingAndGlyphs" textLength="63" x="507" y="381.5352">DTernity</text><!--MD5=[e9e3ba0bf15797c0c490631f9deee05c]
cluster DTernityStorage--><polygon fill="#FFFFFF" filter="url(#f1x1ciijnigenw)" points="757,393,817,393,824,415.4883,924,415.4883,924,464,757,464,757,393" style="stroke: #000000; stroke-width: 1.5;"/><line style="stroke: #000000; stroke-width: 1.5;" x1="757" x2="824" y1="415.4883" y2="415.4883"/><text fill="#000000" font-family="sans-serif" font-size="14" font-weight="bold" lengthAdjust="spacingAndGlyphs" textLength="54" x="761" y="408.5352">Storage</text><!--MD5=[a049e73094d01d50612d29bd051aef70]
cluster Local Storage--><polygon fill="#FFFFFF" filter="url(#f1x1ciijnigenw)" points="941,382,1043,382,1050,404.4883,1053,404.4883,1053,475,941,475,941,382" style="stroke: #000000; stroke-width: 1.5;"/><line style="stroke: #000000; stroke-width: 1.5;" x1="941" x2="1050" y1="404.4883" y2="404.4883"/><text fill="#000000" font-family="sans-serif" font-size="14" font-weight="bold" lengthAdjust="spacingAndGlyphs" textLength="96" x="945" y="397.5352">Local Storage</text><!--MD5=[88656e78e5bedad418341b6ececa151e]
cluster AWS--><path d="M439.2142,401.3987 C443.2106,391.2568 451.6197,390.4377 457.7981,399.2605 C465.0291,390.0921 473.2343,393.0645 476.9456,402.8215 C483.62,404.9215 486.1897,408.5421 481.5679,414.948 C489.7793,417.2936 491.3353,424.1921 484.5576,429.5968 C489.8206,435.0835 488.9676,441.1982 480.7758,442.8437 C486.3614,448.562 484.3851,454.4655 477.2753,457.0573 C471.9053,467.5718 465.741,467.7505 457.3952,460.3616 C450.2252,469.0689 443.2758,466.3269 439.2514,457.1674 C430.8752,454.919 429.4762,449.5534 435.8642,443.615 C427.9725,442.1406 426.4699,435.5857 432.4168,430.4793 C425.3828,424.3259 427.761,418.2368 435.3964,414.8865 C431.0046,409.22 432.0733,403.8009 439.2142,401.3987 " fill="#FFFFFF" style="stroke: #000000; stroke-width: 1.5;"/><text fill="#000000" font-family="sans-serif" font-size="14" font-weight="bold" lengthAdjust="spacingAndGlyphs" textLength="31" x="441.5" y="419.5352">AWS</text><!--MD5=[bc546d046b41a8b88c97b3c23ad68e14]
entity CurateOM--><rect fill="#FEFECE" filter="url(#f1x1ciijnigenw)" height="36.4883" style="stroke: #A80036; stroke-width: 1.5;" width="110" x="197" y="172"/><rect fill="#FEFECE" height="5" style="stroke: #A80036; stroke-width: 1.5;" width="10" x="192" y="177"/><rect fill="#FEFECE" height="5" style="stroke: #A80036; stroke-width: 1.5;" width="10" x="192" y="198.4883"/><text fill="#000000" font-family="sans-serif" font-size="14" lengthAdjust="spacingAndGlyphs" textLength="90" x="207" y="195.5352">Object Model</text><!--MD5=[5b9b4a8bd609abdac0c7ed1e93f17e2b]
entity CurateW--><rect fill="#FEFECE" filter="url(#f1x1ciijnigenw)" height="36.4883" style="stroke: #A80036; stroke-width: 1.5;" width="76" x="197" y="54"/><rect fill="#FEFECE" height="5" style="stroke: #A80036; stroke-width: 1.5;" width="10" x="192" y="59"/><rect fill="#FEFECE" height="5" style="stroke: #A80036; stroke-width: 1.5;" width="10" x="192" y="80.4883"/><text fill="#000000" font-family="sans-serif" font-size="14" lengthAdjust="spacingAndGlyphs" textLength="56" x="207" y="77.5352">Workers</text><!--MD5=[89e23924c741097e25ac59ac45d2f3b2]
entity CurateUI--><polygon fill="#FEFECE" filter="url(#f1x1ciijnigenw)" points="308,59,318,49,362,49,362,85.4883,352,95.4883,308,95.4883,308,59" style="stroke: #000000; stroke-width: 1.5;"/><line style="stroke: #000000; stroke-width: 1.5;" x1="352" x2="361" y1="59" y2="50"/><line style="stroke: #000000; stroke-width: 1.5;" x1="308" x2="352" y1="59" y2="59"/><line style="stroke: #000000; stroke-width: 1.5;" x1="352" x2="352" y1="59" y2="95.4883"/><text fill="#000000" font-family="sans-serif" font-size="14" lengthAdjust="spacingAndGlyphs" textLength="14" x="323" y="82.5352">UI</text><!--MD5=[b20deab9512140920db0c60e05ecf044]
entity CurateAPI--><ellipse cx="424" cy="72" fill="#FEFECE" filter="url(#f1x1ciijnigenw)" rx="8" ry="8" style="stroke: #A80036; stroke-width: 2.0;"/><text fill="#000000" font-family="sans-serif" font-size="14" lengthAdjust="spacingAndGlyphs" textLength="22" x="413" y="102.5352">API</text><!--MD5=[82c8c233f10cbc3ee793e1964b60c00d]
entity FedoraHTTP--><ellipse cx="372" cy="315.5" fill="#FEFECE" filter="url(#f1x1ciijnigenw)" rx="8" ry="8" style="stroke: #A80036; stroke-width: 2.0;"/><text fill="#000000" font-family="sans-serif" font-size="14" lengthAdjust="spacingAndGlyphs" textLength="100" x="322" y="346.0352">HTTP Interface</text><!--MD5=[758792de11c9918e6829c98b147e27c2]
entity FedoraFS--><polygon fill="#FEFECE" filter="url(#f1x1ciijnigenw)" points="173,287.5,219,287.5,226,308.5,279,308.5,279,343.4766,173,343.4766,173,287.5" style="stroke: #000000; stroke-width: 1.5;"/><line style="stroke: #000000; stroke-width: 1.5;" x1="173" x2="226" y1="308.5" y2="308.5"/><text fill="#000000" font-family="sans-serif" font-size="14" lengthAdjust="spacingAndGlyphs" textLength="76" x="183" y="329.0352">File System</text><!--MD5=[2b310bc7e1db6a4b29dfa72fc01c3ea1]
entity SolrHTTP--><ellipse cx="80" cy="315.5" fill="#FEFECE" filter="url(#f1x1ciijnigenw)" rx="8" ry="8" style="stroke: #A80036; stroke-width: 2.0;"/><text fill="#000000" font-family="sans-serif" font-size="14" lengthAdjust="spacingAndGlyphs" textLength="100" x="30" y="346.0352">HTTP Interface</text><!--MD5=[6c444dd6b145513787bf9986e8d9020c]
entity BatchAPI--><ellipse cx="502" cy="190" fill="#FEFECE" filter="url(#f1x1ciijnigenw)" rx="8" ry="8" style="stroke: #A80036; stroke-width: 2.0;"/><text fill="#000000" font-family="sans-serif" font-size="14" lengthAdjust="spacingAndGlyphs" textLength="22" x="491" y="220.5352">API</text><!--MD5=[94678c2db7b77be7f8dabb61653488ab]
entity BatchJobs--><rect fill="#FEFECE" filter="url(#f1x1ciijnigenw)" height="36.4883" style="stroke: #A80036; stroke-width: 1.5;" width="49" x="564.5" y="172"/><rect fill="#FEFECE" height="5" style="stroke: #A80036; stroke-width: 1.5;" width="10" x="559.5" y="177"/><rect fill="#FEFECE" height="5" style="stroke: #A80036; stroke-width: 1.5;" width="10" x="559.5" y="198.4883"/><text fill="#000000" font-family="sans-serif" font-size="14" lengthAdjust="spacingAndGlyphs" textLength="29" x="574.5" y="195.5352">Jobs</text><!--MD5=[242e68a4e3660568a3ed9cfaf97b0cda]
entity BendoAPI--><ellipse cx="589" cy="315.5" fill="#FEFECE" filter="url(#f1x1ciijnigenw)" rx="8" ry="8" style="stroke: #A80036; stroke-width: 2.0;"/><text fill="#000000" font-family="sans-serif" font-size="14" lengthAdjust="spacingAndGlyphs" textLength="22" x="578" y="346.0352">API</text><!--MD5=[0f052bab7fd2de2904a9ceb14d55a370]
entity BendoC--><rect fill="#FEFECE" filter="url(#f1x1ciijnigenw)" height="36.4883" style="stroke: #A80036; stroke-width: 1.5;" width="62" x="465" y="297.5"/><rect fill="#FEFECE" height="5" style="stroke: #A80036; stroke-width: 1.5;" width="10" x="460" y="302.5"/><rect fill="#FEFECE" height="5" style="stroke: #A80036; stroke-width: 1.5;" width="10" x="460" y="323.9883"/><text fill="#000000" font-family="sans-serif" font-size="14" lengthAdjust="spacingAndGlyphs" textLength="42" x="475" y="321.0352">Cache</text><!--MD5=[5c06c8213d2b1db03166202b79a3e367]
entity BendoCOW--><rect fill="#FEFECE" filter="url(#f1x1ciijnigenw)" height="52.9766" style="stroke: #A80036; stroke-width: 1.5;" width="95" x="791.5" y="289"/><rect fill="#FEFECE" height="5" style="stroke: #A80036; stroke-width: 1.5;" width="10" x="786.5" y="294"/><rect fill="#FEFECE" height="5" style="stroke: #A80036; stroke-width: 1.5;" width="10" x="786.5" y="331.9766"/><text fill="#000000" font-family="sans-serif" font-size="14" lengthAdjust="spacingAndGlyphs" textLength="57" x="801.5" y="312.5352">Copy on</text><text fill="#000000" font-family="sans-serif" font-size="14" lengthAdjust="spacingAndGlyphs" textLength="75" x="801.5" y="329.0234">Write Layer</text><!--MD5=[a69a73efb10663008a20fe4208d4e2df]
entity BendoPL--><rect fill="#FEFECE" filter="url(#f1x1ciijnigenw)" height="52.9766" style="stroke: #A80036; stroke-width: 1.5;" width="105" x="651.5" y="289"/><rect fill="#FEFECE" height="5" style="stroke: #A80036; stroke-width: 1.5;" width="10" x="646.5" y="294"/><rect fill="#FEFECE" height="5" style="stroke: #A80036; stroke-width: 1.5;" width="10" x="646.5" y="331.9766"/><text fill="#000000" font-family="sans-serif" font-size="14" lengthAdjust="spacingAndGlyphs" textLength="85" x="661.5" y="312.5352">Preservation</text><text fill="#000000" font-family="sans-serif" font-size="14" lengthAdjust="spacingAndGlyphs" textLength="36" x="661.5" y="329.0234">Layer</text><!--MD5=[122471d58b7557712b3645c406151814]
entity DTernityNFSM--><ellipse cx="685" cy="438" fill="#FEFECE" filter="url(#f1x1ciijnigenw)" rx="8" ry="8" style="stroke: #A80036; stroke-width: 2.0;"/><text fill="#000000" font-family="sans-serif" font-size="14" lengthAdjust="spacingAndGlyphs" textLength="74" x="648" y="468.5352">NFS Mount</text><!--MD5=[52d5b48969f4d8ab03330ef1bdf65780]
entity DTernityCIFSM--><ellipse cx="558" cy="438" fill="#FEFECE" filter="url(#f1x1ciijnigenw)" rx="8" ry="8" style="stroke: #A80036; stroke-width: 2.0;"/><text fill="#000000" font-family="sans-serif" font-size="14" lengthAdjust="spacingAndGlyphs" textLength="78" x="519" y="468.5352">CIFS Mount</text><!--MD5=[2134bfea3f0564af1f6584dd54f55a6d]
entity DternityCS--><rect fill="#FEFECE" filter="url(#f1x1ciijnigenw)" height="36.4883" style="stroke: #A80036; stroke-width: 1.5;" width="61" x="765.5" y="420"/><rect fill="#FEFECE" height="5" style="stroke: #A80036; stroke-width: 1.5;" width="10" x="760.5" y="425"/><rect fill="#FEFECE" height="5" style="stroke: #A80036; stroke-width: 1.5;" width="10" x="760.5" y="446.4883"/><text fill="#000000" font-family="sans-serif" font-size="14" lengthAdjust="spacingAndGlyphs" textLength="41" x="775.5" y="443.5352">Cloud</text><!--MD5=[9b637540d1516a39865ba1e8b60410be]
entity DternityTS--><rect fill="#FEFECE" filter="url(#f1x1ciijnigenw)" height="36.4883" style="stroke: #A80036; stroke-width: 1.5;" width="54" x="862" y="420"/><rect fill="#FEFECE" height="5" style="stroke: #A80036; stroke-width: 1.5;" width="10" x="857" y="425"/><rect fill="#FEFECE" height="5" style="stroke: #A80036; stroke-width: 1.5;" width="10" x="857" y="446.4883"/><text fill="#000000" font-family="sans-serif" font-size="14" lengthAdjust="spacingAndGlyphs" textLength="34" x="872" y="443.5352">Tape</text><!--MD5=[88c9a4f3b7c2dc6234e9ce3799e26ab2]
entity LocalNFSMount--><ellipse cx="996" cy="438" fill="#FEFECE" filter="url(#f1x1ciijnigenw)" rx="8" ry="8" style="stroke: #A80036; stroke-width: 2.0;"/><text fill="#000000" font-family="sans-serif" font-size="14" lengthAdjust="spacingAndGlyphs" textLength="74" x="959" y="468.5352">NFS Mount</text><!--MD5=[6c7192638421eaf134d201765ac5db29]
entity S3--><rect fill="#FEFECE" filter="url(#f1x1ciijnigenw)" height="36.4883" style="stroke: #A80036; stroke-width: 1.5;" width="37" x="438.5" y="420"/><rect fill="#FEFECE" height="5" style="stroke: #A80036; stroke-width: 1.5;" width="10" x="433.5" y="425"/><rect fill="#FEFECE" height="5" style="stroke: #A80036; stroke-width: 1.5;" width="10" x="433.5" y="446.4883"/><text fill="#000000" font-family="sans-serif" font-size="14" lengthAdjust="spacingAndGlyphs" textLength="17" x="448.5" y="443.5352">S3</text><!--MD5=[cc617f22391be430c88991d2db666087]
entity SpectraLogic--><polygon fill="#FEFECE" filter="url(#f1x1ciijnigenw)" points="854.5,527,900.5,527,907.5,548,971.5,548,971.5,582.9766,854.5,582.9766,854.5,527" style="stroke: #000000; stroke-width: 1.5;"/><line style="stroke: #000000; stroke-width: 1.5;" x1="854.5" x2="907.5" y1="548" y2="548"/><text fill="#000000" font-family="sans-serif" font-size="14" lengthAdjust="spacingAndGlyphs" textLength="87" x="864.5" y="568.5352">SpectraLogic</text><!--MD5=[5bd6eb4bacc8574aa646895c70a29c94]
entity FujiCloud--><path d="M731.5388,540.9329 C735.517,534.848 740.0523,535.3923 744.3561,540.562 C746.9616,532.3753 753.6883,532.1649 758.3976,538.5323 C761.8102,532.2032 766.3269,531.1579 771.0212,537.2273 C775.2928,530.5627 781.9941,531.9249 784.6226,538.8694 C789.1442,532.8121 795.504,532.6661 799.1404,539.8407 C803.2412,534.6915 809.0092,534.873 812.4382,540.6577 C819.4558,544.727 821.289,549.7164 814.5336,555.7038 C822.738,562.7873 820.6242,568.6917 811.3597,572.4678 C808.544,579.0244 802.7723,580.0368 798.3289,574.1759 C795.4643,581.432 790.1742,580.7447 785.498,576.1348 C782.1103,582.5027 777.1447,584.8076 771.5828,578.5266 C767.1493,584.1396 761.8145,581.8113 759.841,575.9987 C755.4859,581.3237 748.8135,581.3709 746.1744,574.1321 C741.078,579.4522 733.7027,580.0378 731.1035,571.43 C720.9252,571.4014 718.4429,563.772 722.6847,555.9174 C717.5038,547.3771 721.8708,540.6992 731.5388,540.9329 " fill="#FEFECE" style="stroke: #000000; stroke-width: 1.5;"/><text fill="#000000" font-family="sans-serif" font-size="14" lengthAdjust="spacingAndGlyphs" textLength="66" x="738" y="560.5352">FujiCloud</text><!--MD5=[f6308400aa79ab34bdd42633ed24a516]
link CurateW to CurateOM--><path d="M238.3667,95.3689 C241.3575,116.1286 245.7039,146.2978 248.6804,166.9579 " fill="none" id="CurateW-CurateOM" style="stroke: #A80036; stroke-width: 1.0;"/><polygon fill="#A80036" points="249.4059,171.9941,252.0816,162.5157,248.6929,167.0452,244.1634,163.6565,249.4059,171.9941" style="stroke: #A80036; stroke-width: 1.0;"/><polygon fill="#A80036" points="237.619,90.1789,234.9435,99.6574,238.3321,95.1278,242.8617,98.5164,237.619,90.1789" style="stroke: #A80036; stroke-width: 1.0;"/><!--MD5=[4f71ea4900ca13e6e997786faf271167]
link BendoPL to DTernityNFSM--><path d="M699.1081,347.0399 C695.2788,371.729 690.1312,404.9172 687.2306,423.6184 " fill="none" id="BendoPL-DTernityNFSM" style="stroke: #A80036; stroke-width: 1.0;"/><polygon fill="#A80036" points="686.4065,428.9316,691.7388,420.6511,687.1729,423.9907,683.8333,419.4248,686.4065,428.9316" style="stroke: #A80036; stroke-width: 1.0;"/><polygon fill="#A80036" points="699.8773,342.0807,694.545,350.3612,699.1109,347.0216,702.4505,351.5875,699.8773,342.0807" style="stroke: #A80036; stroke-width: 1.0;"/><!--MD5=[748fade2ea86f22bd3818d6807e04c9b]
link CurateOM to FedoraHTTP--><path d="M273.8982,212.2415 C280.9782,219.4737 288.8462,227.5543 296,235 C318.5878,258.5094 344.609,286.2066 359.5969,302.2205 " fill="none" id="CurateOM-FedoraHTTP" style="stroke: #A80036; stroke-width: 1.0;"/><polygon fill="#A80036" points="363.1609,306.0305,359.9339,296.7253,359.7453,302.379,354.0916,302.1903,363.1609,306.0305" style="stroke: #A80036; stroke-width: 1.0;"/><polygon fill="#A80036" points="270.0555,208.3203,273.498,217.5479,273.5551,211.8914,279.2117,211.9485,270.0555,208.3203" style="stroke: #A80036; stroke-width: 1.0;"/><!--MD5=[23afdad4f6870048c8e275f40f5e33c7]
link CurateOM to SolrHTTP--><path d="M200.252,210.3451 C185.6484,217.1725 170.1639,225.5025 157,235 C129.5287,254.8199 103.603,285.203 89.9681,302.4161 " fill="none" id="CurateOM-SolrHTTP" style="stroke: #A80036; stroke-width: 1.0;"/><polygon fill="#A80036" points="86.7729,306.4941,95.4723,301.8767,89.8567,302.5583,89.1751,296.9427,86.7729,306.4941" style="stroke: #A80036; stroke-width: 1.0;"/><polygon fill="#A80036" points="205.1661,208.0879,195.318,208.2098,200.6225,210.175,198.6573,215.4795,205.1661,208.0879" style="stroke: #A80036; stroke-width: 1.0;"/><!--MD5=[26fa505816c4201c64d7090f39716e55]
link BatchJobs to CurateAPI--><path d="M578.1382,171.9033 C570.3252,160.0128 558.9187,144.7292 546,134 C511.6759,105.4932 462.0575,85.4458 438.0553,76.7871 " fill="none" id="BatchJobs-&gt;CurateAPI" style="stroke: #A80036; stroke-width: 1.0;"/><polygon fill="#A80036" points="433.0667,75.0192,440.2137,81.7957,437.7795,76.6893,442.8859,74.2552,433.0667,75.0192" style="stroke: #A80036; stroke-width: 1.0;"/><!--MD5=[be818180ef747dfd724894fcac7cbd33]
link BendoCOW to LocalNFSMount--><path d="M891.5055,339.9083 C905.286,347.3908 919.7165,356.2522 932,366 C954.0335,383.4852 974.7398,409.0725 986.3526,424.569 " fill="none" id="BendoCOW-LocalNFSMount" style="stroke: #A80036; stroke-width: 1.0;"/><polygon fill="#A80036" points="989.3804,428.6571,987.238,419.0441,986.4045,424.6392,980.8094,423.8056,989.3804,428.6571" style="stroke: #A80036; stroke-width: 1.0;"/><polygon fill="#A80036" points="886.8611,337.4243,892.9108,345.1961,891.2701,339.7824,896.6838,338.1418,886.8611,337.4243" style="stroke: #A80036; stroke-width: 1.0;"/><!--MD5=[712c61d2caa9247498e07ff5e7aef8af]
link DternityTS to SpectraLogic--><path d="M893.7415,461.115 C897.2714,478.3229 902.1434,502.0739 906.1038,521.3811 " fill="none" id="DternityTS-SpectraLogic" style="stroke: #A80036; stroke-width: 1.0;"/><polygon fill="#A80036" points="907.1948,526.6997,909.3045,517.0794,906.1899,521.8017,901.4677,518.6872,907.1948,526.6997" style="stroke: #A80036; stroke-width: 1.0;"/><polygon fill="#A80036" points="892.6974,456.0248,890.5875,465.645,893.7021,460.9228,898.4243,464.0375,892.6974,456.0248" style="stroke: #A80036; stroke-width: 1.0;"/><!--MD5=[1b451e3079f782c992b0770264c82750]
link DternityCS to FujiCloud--><path d="M791.0798,461.0264 C787.0398,479.9338 781.3026,506.784 776.9945,526.9456 " fill="none" id="DternityCS-FujiCloud" style="stroke: #A80036; stroke-width: 1.0;"/><polygon fill="#A80036" points="775.932,531.9184,781.7244,523.953,776.9769,527.0288,773.9011,522.2812,775.932,531.9184" style="stroke: #A80036; stroke-width: 1.0;"/><polygon fill="#A80036" points="792.1485,456.0248,786.3561,463.9902,791.1036,460.9144,794.1794,465.662,792.1485,456.0248" style="stroke: #A80036; stroke-width: 1.0;"/><!--MD5=[58a52875fac3da223b468f2cf2292c87]
link BendoC to S3--><path d="M488.709,338.4012 C481.7349,360.3071 471.2749,393.1623 464.2983,415.0758 " fill="none" id="BendoC-S3" style="stroke: #A80036; stroke-width: 1.0;"/><polygon fill="#A80036" points="462.7782,419.8505,469.3201,412.4882,464.2951,415.0861,461.6971,410.0612,462.7782,419.8505" style="stroke: #A80036; stroke-width: 1.0;"/><polygon fill="#A80036" points="490.2454,333.5753,483.7036,340.9377,488.7286,338.3397,491.3266,343.3646,490.2454,333.5753" style="stroke: #A80036; stroke-width: 1.0;"/><!--MD5=[3f37fb978bf3238147a411acecef3405]
link CurateW to BatchAPI--><path d="M265.3885,90.1 C273.2032,94.1691 281.7417,98.1272 290,101 C365.5797,127.2919 400.8763,88.931 467,134 C481.8869,144.1467 491.6853,162.9368 497.033,175.936 " fill="none" id="CurateW-&gt;BatchAPI" style="stroke: #A80036; stroke-width: 1.0;"/><polygon fill="#A80036" points="498.9288,180.7728,499.3684,170.9338,497.1041,176.1177,491.9202,173.8533,498.9288,180.7728" style="stroke: #A80036; stroke-width: 1.0;"/><!--MD5=[b9551678a99ac6c7a733836ba0768c7e]
link BatchJobs to BendoAPI--><path d="M589,208.2488 C589,233.4236 589,278.2869 589,301.1893 " fill="none" id="BatchJobs-&gt;BendoAPI" style="stroke: #A80036; stroke-width: 1.0;"/><polygon fill="#A80036" points="589,306.2526,593,297.2526,589,301.2526,585,297.2526,589,306.2526" style="stroke: #A80036; stroke-width: 1.0;"/><!--MD5=[d99dd7ac5fc176af9aaadb3558ce4991]
link BatchJobs to FedoraHTTP--><path d="M572.7458,208.2951 C565.3377,215.3975 555.9933,222.8171 546,227 C506.0971,243.7022 488.0456,216.3813 449,235 C417.7799,249.8871 392.6009,283.262 380.2594,302.0276 " fill="none" id="BatchJobs-&gt;FedoraHTTP" style="stroke: #A80036; stroke-width: 1.0;"/><polygon fill="#A80036" points="377.4024,306.4636,385.6385,301.063,380.1098,302.26,378.9128,296.7312,377.4024,306.4636" style="stroke: #A80036; stroke-width: 1.0;"/><!--MD5=[56075576c40aedbbaaa5be5c66004d0e]
link BatchJobs to LocalNFSMount--><path d="M618.8335,190.71 C688.3117,192.9153 858.3941,201.6658 903,235 C967.2253,282.9958 988.3772,385.9438 994.1333,423.721 " fill="none" id="BatchJobs-LocalNFSMount" style="stroke: #A80036; stroke-width: 1.0;"/><polygon fill="#A80036" points="994.8741,428.8075,997.535,419.3249,994.1534,423.8597,989.6186,420.4781,994.8741,428.8075" style="stroke: #A80036; stroke-width: 1.0;"/><polygon fill="#A80036" points="613.6122,190.5506,622.4858,194.8236,618.6099,190.7033,622.7302,186.8274,613.6122,190.5506" style="stroke: #A80036; stroke-width: 1.0;"/><!--MD5=[3fd2a84890b70b078e9dfa2a8e4f5e7a]
@startuml

package "curate.nd.edu" {
  component "Object Model" as CurateOM
  component "Workers" as CurateW
  node "UI" as CurateUI
  interface "API" as CurateAPI
  CurateW <- -> CurateOM
}

package "Fedora" {
  interface "HTTP Interface" as FedoraHTTP
  folder "File System" as FedoraFS
}

package "Solr" {
  interface "HTTP Interface" as SolrHTTP
}

package "Batch" {
  interface API as BatchAPI
  component Jobs as BatchJobs
}


package "Bendo" {
  interface API as BendoAPI
  component Cache as BendoC
  component Storage {
    component "Copy on\nWrite Layer" as BendoCOW
    component "Preservation\nLayer" as BendoPL
  }
}

package "DTernity" {
  interface "NFS Mount" as DTernityNFSM
  interface "CIFS Mount" as DTernityCIFSM
  package "Storage" as DTernityStorage {
    component "Cloud" as DternityCS
    component "Tape" as DternityTS
  }
}

folder "Local Storage" {
  interface "NFS Mount" as LocalNFSMount
}

folder "SpectraLogic"

cloud "FujiCloud"

cloud AWS {
  component S3
}
BendoPL <- -> DTernityNFSM
CurateOM <- -> FedoraHTTP
CurateOM <- -> SolrHTTP
BatchJobs - -> CurateAPI
BendoCOW <- -> LocalNFSMount
DternityTS <- -> SpectraLogic
DternityCS <- -> FujiCloud
BendoC <- -> S3
CurateW - -> BatchAPI
BatchJobs - -> BendoAPI
BatchJobs - -> FedoraHTTP
BatchJobs <- -> LocalNFSMount
@enduml

PlantUML version 1.2019.10(Fri Sep 13 16:53:03 EDT 2019)
(GPL source distribution)
Java Runtime: Java(TM) SE Runtime Environment
JVM: Java HotSpot(TM) 64-Bit Server VM
Java Version: 1.8.0_102-b14
Operating System: Mac OS X
Default Encoding: UTF-8
Language: en
Country: US
--></g></svg>