<?xml version="1.0" encoding="UTF-8" standalone="no"?><svg xmlns="http://www.w3.org/2000/svg" xmlns:xlink="http://www.w3.org/1999/xlink" contentScriptType="application/ecmascript" contentStyleType="text/css" height="771px" preserveAspectRatio="none" style="width:1937px;height:771px;" version="1.1" viewBox="0 0 1937 771"
    width="1937px" zoomAndPan="magnify"><defs><filter height="300%" id="f1x95b9kduld85" width="300%" x="-1" y="-1"><feGaussianBlur result="blurOut" stdDeviation="2.0"/><feColorMatrix in="blurOut" result="blurOut2" type="matrix" values="0 0 0 0 0 0 0 0 0 0 0 0 0 0 0 0 0 0 .4 0"/><feOffset dx="4.0" dy="4.0" in="blurOut2" result="blurOut3"/><feBlend in="SourceGraphic" in2="blurOut3" mode="normal"/></filter></defs><g><text fill="#888888" font-family="sans-serif" font-size="10" lengthAdjust="spacingAndGlyphs" textLength="33" x="1892" y="9.668">DAPOS</text><!--MD5=[f5d9a8c2a6bc12895d5bdf4d1fcf7de2]
cluster APTrust--><path d="M714.871,358.0837 C717.8155,352.1353 723.1287,350.3055 727.6517,356.4099 C731.6748,349.6235 736.8874,348.2023 741.6615,355.672 C747.2464,347.9882 752.7581,350.1235 757.0901,356.9996 C760.1766,350.8875 766.3735,349.9852 770.7793,355.4379 C775.2693,349.8852 779.565,348.6967 784.2235,355.2508 C788.3227,348.5143 794.3745,347.3329 799.2502,354.4058 C802.7995,347.8954 808.2029,349.075 811.6182,354.5441 C815.7251,346.5635 822.8823,346.9702 826.9683,354.5647 C832.0561,348.9481 837.1687,350.2029 840.3279,356.6929 C843.607,349.9338 849.3297,349.4848 854.4556,354.4717 C858.481,347.6799 866.098,346.979 869.7997,354.8113 C874.854,348.9554 879.4964,348.7822 884.2374,355.1805 C889.2072,349.9659 894.0996,350.6415 896.7259,357.5872 C900.3994,349.6303 904.9882,350.3932 910.2609,355.9902 C918.567,356.9397 920.0951,363.748 915.8285,369.7754 C925.4391,372.0769 927.3042,379.1391 920.0678,385.8764 C923.763,391.8914 921.9273,396.6267 915.0129,398.3379 C921.0181,404.56 919.8144,410.8599 910.8407,412.744 C906.8293,418.1504 900.4694,417.9801 898.1001,411.0482 C892.6865,418.2174 887.7359,418.4862 881.9477,411.4748 C877.935,417.6086 873.3981,417.9865 869.2575,411.6044 C865.5279,418.3798 858.8051,417.4259 855.1212,411.5534 C850.8033,419.9673 845.0193,419.9132 839.9458,412.2673 C836.007,419.2135 830.9017,419.3151 826.1421,413.1302 C822.5286,418.8458 816.0224,418.3132 812.8919,412.5717 C810.1211,419.139 803.6414,419.3299 799.4871,414.1505 C794.5401,420.4753 786.9668,420.5969 784.4376,411.7518 C781.1217,418.975 774.4549,418.2009 770.2186,412.7875 C766.0916,419.0779 761.5315,419.4522 756.4275,413.9279 C751.8007,419.196 745.6627,420.3373 742.4984,412.3867 C738.9342,419.6716 732.4879,419.4209 728.7275,412.578 C723.934,417.994 718.7241,418.7088 715.3813,411.0923 C707.8658,409.4834 704.8064,404.0399 709.7015,397.3147 C703.8996,395.3819 701.5185,390.3494 707.1108,385.8434 C700.3231,379.3679 703.6726,374.2706 710.7781,371.298 C705.4877,364.9925 707.4256,360.4444 714.871,358.0837 " fill="#FFFFFF" style="stroke: #000000; stroke-width: 1.5;"/><text fill="#000000" font-family="sans-serif" font-size="14" font-weight="bold" lengthAdjust="spacingAndGlyphs" textLength="58" x="782.5" y="374.3125">APTrust</text><!--MD5=[4476681adedf37c2c0414fc24fd81cdc]
cluster SoftwareTools--><polygon fill="#FFFFFF" filter="url(#f1x95b9kduld85)" points="14,178.7773,124,178.7773,131,201.2656,697,201.2656,697,759.7773,14,759.7773,14,178.7773" style="stroke: #000000; stroke-width: 1.5;"/><line style="stroke: #000000; stroke-width: 1.5;" x1="14" x2="131" y1="201.2656" y2="201.2656"/><text fill="#000000" font-family="sans-serif" font-size="14" font-weight="bold" lengthAdjust="spacingAndGlyphs" textLength="104" x="18" y="194.3125">SoftwareTools</text><!--MD5=[8c9b6bf02c885b7ba5866d030e10667c]
cluster DTernity--><polygon fill="#FFFFFF" filter="url(#f1x95b9kduld85)" points="1154,172.7773,1223,172.7773,1230,195.2656,1389,195.2656,1389,538.7773,1154,538.7773,1154,172.7773" style="stroke: #000000; stroke-width: 1.5;"/><line style="stroke: #000000; stroke-width: 1.5;" x1="1154" x2="1230" y1="195.2656" y2="195.2656"/><text fill="#000000" font-family="sans-serif" font-size="14" font-weight="bold" lengthAdjust="spacingAndGlyphs" textLength="63" x="1158" y="188.3125">DTernity</text><!--MD5=[e9e3ba0bf15797c0c490631f9deee05c]
cluster DTernityStorage--><polygon fill="#FFFFFF" filter="url(#f1x95b9kduld85)" points="1214,459.7773,1274,459.7773,1281,482.2656,1381,482.2656,1381,530.7773,1214,530.7773,1214,459.7773" style="stroke: #000000; stroke-width: 1.5;"/><line style="stroke: #000000; stroke-width: 1.5;" x1="1214" x2="1281" y1="482.2656" y2="482.2656"/><text fill="#000000" font-family="sans-serif" font-size="14" font-weight="bold" lengthAdjust="spacingAndGlyphs" textLength="54" x="1218" y="475.3125">Storage</text><!--MD5=[562ed55e840afc79d9783beef242227d]
cluster Storage--><polygon fill="#FFFFFF" filter="url(#f1x95b9kduld85)" points="1408,173.7773,1468,173.7773,1475,196.2656,1899,196.2656,1899,264.7773,1408,264.7773,1408,173.7773" style="stroke: #000000; stroke-width: 1.5;"/><line style="stroke: #000000; stroke-width: 1.5;" x1="1408" x2="1475" y1="196.2656" y2="196.2656"/><text fill="#000000" font-family="sans-serif" font-size="14" font-weight="bold" lengthAdjust="spacingAndGlyphs" textLength="54" x="1412" y="189.3125">Storage</text><!--MD5=[427677d88b59fa25efb3e65541b95667]
entity Deposit--><rect fill="#FEFECE" filter="url(#f1x95b9kduld85)" height="36.4883" style="stroke: #A80036; stroke-width: 1.5;" width="72" x="713" y="374.7773"/><rect fill="#FEFECE" height="5" style="stroke: #A80036; stroke-width: 1.5;" width="10" x="708" y="379.7773"/><rect fill="#FEFECE" height="5" style="stroke: #A80036; stroke-width: 1.5;" width="10" x="708" y="401.2656"/><text fill="#000000" font-family="sans-serif" font-size="14" lengthAdjust="spacingAndGlyphs" textLength="52" x="723" y="398.3125">Deposit</text><!--MD5=[143a04d91ab79baecfe840ad339040fe]
entity Download--><rect fill="#FEFECE" filter="url(#f1x95b9kduld85)" height="36.4883" style="stroke: #A80036; stroke-width: 1.5;" width="89" x="820.5" y="374.7773"/><rect fill="#FEFECE" height="5" style="stroke: #A80036; stroke-width: 1.5;" width="10" x="815.5" y="379.7773"/><rect fill="#FEFECE" height="5" style="stroke: #A80036; stroke-width: 1.5;" width="10" x="815.5" y="401.2656"/><text fill="#000000" font-family="sans-serif" font-size="14" lengthAdjust="spacingAndGlyphs" textLength="69" x="830.5" y="398.3125">Download</text><!--MD5=[e51eaca4e5de2624f912f707edbe4f66]
entity Acrobat--><polygon fill="#FEFECE" filter="url(#f1x95b9kduld85)" points="22,215.7773,32,205.7773,116,205.7773,116,242.2656,106,252.2656,22,252.2656,22,215.7773" style="stroke: #000000; stroke-width: 1.5;"/><line style="stroke: #000000; stroke-width: 1.5;" x1="106" x2="115" y1="215.7773" y2="206.7773"/><line style="stroke: #000000; stroke-width: 1.5;" x1="22" x2="106" y1="215.7773" y2="215.7773"/><line style="stroke: #000000; stroke-width: 1.5;" x1="106" x2="106" y1="215.7773" y2="252.2656"/><text fill="#000000" font-family="sans-serif" font-size="14" lengthAdjust="spacingAndGlyphs" textLength="54" x="37" y="239.3125">Acrobat</text><!--MD5=[d49ee362d7359fe217f6fb829b8beaba]
entity Audacity--><polygon fill="#FEFECE" filter="url(#f1x95b9kduld85)" points="151.5,215.7773,161.5,205.7773,250.5,205.7773,250.5,242.2656,240.5,252.2656,151.5,252.2656,151.5,215.7773" style="stroke: #000000; stroke-width: 1.5;"/><line style="stroke: #000000; stroke-width: 1.5;" x1="240.5" x2="249.5" y1="215.7773" y2="206.7773"/><line style="stroke: #000000; stroke-width: 1.5;" x1="151.5" x2="240.5" y1="215.7773" y2="215.7773"/><line style="stroke: #000000; stroke-width: 1.5;" x1="240.5" x2="240.5" y1="215.7773" y2="252.2656"/><text fill="#000000" font-family="sans-serif" font-size="14" lengthAdjust="spacingAndGlyphs" textLength="59" x="166.5" y="239.3125">Audacity</text><!--MD5=[e259cde3694662247344a165a422b5e3]
entity BitCurator--><polygon fill="#FEFECE" filter="url(#f1x95b9kduld85)" points="286,215.7773,296,205.7773,396,205.7773,396,242.2656,386,252.2656,286,252.2656,286,215.7773" style="stroke: #000000; stroke-width: 1.5;"/><line style="stroke: #000000; stroke-width: 1.5;" x1="386" x2="395" y1="215.7773" y2="206.7773"/><line style="stroke: #000000; stroke-width: 1.5;" x1="286" x2="386" y1="215.7773" y2="215.7773"/><line style="stroke: #000000; stroke-width: 1.5;" x1="386" x2="386" y1="215.7773" y2="252.2656"/><text fill="#000000" font-family="sans-serif" font-size="14" lengthAdjust="spacingAndGlyphs" textLength="70" x="301" y="239.3125">BitCurator</text><!--MD5=[48c8d6fefc56d212f110b4e813046807]
entity CyberDuck--><polygon fill="#FEFECE" filter="url(#f1x95b9kduld85)" points="575,215.7773,585,205.7773,689,205.7773,689,242.2656,679,252.2656,575,252.2656,575,215.7773" style="stroke: #000000; stroke-width: 1.5;"/><line style="stroke: #000000; stroke-width: 1.5;" x1="679" x2="688" y1="215.7773" y2="206.7773"/><line style="stroke: #000000; stroke-width: 1.5;" x1="575" x2="679" y1="215.7773" y2="215.7773"/><line style="stroke: #000000; stroke-width: 1.5;" x1="679" x2="679" y1="215.7773" y2="252.2656"/><text fill="#000000" font-family="sans-serif" font-size="14" lengthAdjust="spacingAndGlyphs" textLength="74" x="590" y="239.3125">CyberDuck</text><!--MD5=[99d0f84c57283e5154487d4e82fd631f]
entity DART--><polygon fill="#FEFECE" filter="url(#f1x95b9kduld85)" points="611,491.7773,621,481.7773,689,481.7773,689,518.2656,679,528.2656,611,528.2656,611,491.7773" style="stroke: #000000; stroke-width: 1.5;"/><line style="stroke: #000000; stroke-width: 1.5;" x1="679" x2="688" y1="491.7773" y2="482.7773"/><line style="stroke: #000000; stroke-width: 1.5;" x1="611" x2="679" y1="491.7773" y2="491.7773"/><line style="stroke: #000000; stroke-width: 1.5;" x1="679" x2="679" y1="491.7773" y2="528.2656"/><text fill="#000000" font-family="sans-serif" font-size="14" lengthAdjust="spacingAndGlyphs" textLength="38" x="626" y="515.3125">DART</text><!--MD5=[c568a2332d9ccef146703211d1caafec]
entity Handbrake--><polygon fill="#FEFECE" filter="url(#f1x95b9kduld85)" points="22.5,491.7773,32.5,481.7773,137.5,481.7773,137.5,518.2656,127.5,528.2656,22.5,528.2656,22.5,491.7773" style="stroke: #000000; stroke-width: 1.5;"/><line style="stroke: #000000; stroke-width: 1.5;" x1="127.5" x2="136.5" y1="491.7773" y2="482.7773"/><line style="stroke: #000000; stroke-width: 1.5;" x1="22.5" x2="127.5" y1="491.7773" y2="491.7773"/><line style="stroke: #000000; stroke-width: 1.5;" x1="127.5" x2="127.5" y1="491.7773" y2="528.2656"/><text fill="#000000" font-family="sans-serif" font-size="14" lengthAdjust="spacingAndGlyphs" textLength="75" x="37.5" y="515.3125">Handbrake</text><!--MD5=[cba8cd2914ce8a6bf57f8641d244e9dd]
entity ImageMagick--><polygon fill="#FEFECE" filter="url(#f1x95b9kduld85)" points="173,491.7773,183,481.7773,303,481.7773,303,518.2656,293,528.2656,173,528.2656,173,491.7773" style="stroke: #000000; stroke-width: 1.5;"/><line style="stroke: #000000; stroke-width: 1.5;" x1="293" x2="302" y1="491.7773" y2="482.7773"/><line style="stroke: #000000; stroke-width: 1.5;" x1="173" x2="293" y1="491.7773" y2="491.7773"/><line style="stroke: #000000; stroke-width: 1.5;" x1="293" x2="293" y1="491.7773" y2="528.2656"/><text fill="#000000" font-family="sans-serif" font-size="14" lengthAdjust="spacingAndGlyphs" textLength="90" x="188" y="515.3125">ImageMagick</text><!--MD5=[1fe41b3a3f24db5a5ac8d9cf44ea0f94]
entity Limb--><polygon fill="#FEFECE" filter="url(#f1x95b9kduld85)" points="431.5,215.7773,441.5,205.7773,504.5,205.7773,504.5,242.2656,494.5,252.2656,431.5,252.2656,431.5,215.7773" style="stroke: #000000; stroke-width: 1.5;"/><line style="stroke: #000000; stroke-width: 1.5;" x1="494.5" x2="503.5" y1="215.7773" y2="206.7773"/><line style="stroke: #000000; stroke-width: 1.5;" x1="431.5" x2="494.5" y1="215.7773" y2="215.7773"/><line style="stroke: #000000; stroke-width: 1.5;" x1="494.5" x2="494.5" y1="215.7773" y2="252.2656"/><text fill="#000000" font-family="sans-serif" font-size="14" lengthAdjust="spacingAndGlyphs" textLength="33" x="446.5" y="239.3125">Limb</text><!--MD5=[1ceb51bac461b29dab95711899464a15]
entity Photoshop--><polygon fill="#FEFECE" filter="url(#f1x95b9kduld85)" points="338,491.7773,348,481.7773,452,481.7773,452,518.2656,442,528.2656,338,528.2656,338,491.7773" style="stroke: #000000; stroke-width: 1.5;"/><line style="stroke: #000000; stroke-width: 1.5;" x1="442" x2="451" y1="491.7773" y2="482.7773"/><line style="stroke: #000000; stroke-width: 1.5;" x1="338" x2="442" y1="491.7773" y2="491.7773"/><line style="stroke: #000000; stroke-width: 1.5;" x1="442" x2="442" y1="491.7773" y2="528.2656"/><text fill="#000000" font-family="sans-serif" font-size="14" lengthAdjust="spacingAndGlyphs" textLength="74" x="353" y="515.3125">Photoshop</text><!--MD5=[6c852410a0c370cc9206e91a434b087d]
entity Quicktime--><polygon fill="#FEFECE" filter="url(#f1x95b9kduld85)" points="25.5,715.7773,35.5,705.7773,134.5,705.7773,134.5,742.2656,124.5,752.2656,25.5,752.2656,25.5,715.7773" style="stroke: #000000; stroke-width: 1.5;"/><line style="stroke: #000000; stroke-width: 1.5;" x1="124.5" x2="133.5" y1="715.7773" y2="706.7773"/><line style="stroke: #000000; stroke-width: 1.5;" x1="25.5" x2="124.5" y1="715.7773" y2="715.7773"/><line style="stroke: #000000; stroke-width: 1.5;" x1="124.5" x2="124.5" y1="715.7773" y2="752.2656"/><text fill="#000000" font-family="sans-serif" font-size="14" lengthAdjust="spacingAndGlyphs" textLength="69" x="40.5" y="739.3125">Quicktime</text><!--MD5=[122471d58b7557712b3645c406151814]
entity DTernityNFSM--><ellipse cx="1336" cy="228.7773" fill="#FEFECE" filter="url(#f1x95b9kduld85)" rx="8" ry="8" style="stroke: #A80036; stroke-width: 2.0;"/><text fill="#000000" font-family="sans-serif" font-size="14" lengthAdjust="spacingAndGlyphs" textLength="74" x="1299" y="259.3125">NFS Mount</text><!--MD5=[52d5b48969f4d8ab03330ef1bdf65780]
entity DTernityCIFSM--><ellipse cx="1209" cy="228.7773" fill="#FEFECE" filter="url(#f1x95b9kduld85)" rx="8" ry="8" style="stroke: #A80036; stroke-width: 2.0;"/><text fill="#000000" font-family="sans-serif" font-size="14" lengthAdjust="spacingAndGlyphs" textLength="78" x="1170" y="259.3125">CIFS Mount</text><!--MD5=[2134bfea3f0564af1f6584dd54f55a6d]
entity DternityCS--><rect fill="#FEFECE" filter="url(#f1x95b9kduld85)" height="36.4883" style="stroke: #A80036; stroke-width: 1.5;" width="61" x="1311.5" y="486.7773"/><rect fill="#FEFECE" height="5" style="stroke: #A80036; stroke-width: 1.5;" width="10" x="1306.5" y="491.7773"/><rect fill="#FEFECE" height="5" style="stroke: #A80036; stroke-width: 1.5;" width="10" x="1306.5" y="513.2656"/><text fill="#000000" font-family="sans-serif" font-size="14" lengthAdjust="spacingAndGlyphs" textLength="41" x="1321.5" y="510.3125">Cloud</text><!--MD5=[9b637540d1516a39865ba1e8b60410be]
entity DternityTS--><rect fill="#FEFECE" filter="url(#f1x95b9kduld85)" height="36.4883" style="stroke: #A80036; stroke-width: 1.5;" width="54" x="1222" y="486.7773"/><rect fill="#FEFECE" height="5" style="stroke: #A80036; stroke-width: 1.5;" width="10" x="1217" y="491.7773"/><rect fill="#FEFECE" height="5" style="stroke: #A80036; stroke-width: 1.5;" width="10" x="1217" y="513.2656"/><text fill="#000000" font-family="sans-serif" font-size="14" lengthAdjust="spacingAndGlyphs" textLength="34" x="1232" y="510.3125">Tape</text><!--MD5=[05246e38ea0abb0c8ec71a427895d0b8]
entity Box--><path d="M1425.9548,215.673 C1429.6698,204.6221 1438.5405,203.514 1445.6547,212.2966 C1452.0048,204.4436 1461.3081,203.5458 1465.4711,214.5902 C1475.6019,213.5093 1480.4997,220.4988 1474.7628,229.3841 C1479.1658,238.7251 1475.5722,243.3506 1466.026,244.7714 C1461.2949,255.9068 1453.6063,258.4912 1444.379,249.6415 C1437.9898,257.9734 1428.6109,255.6023 1425.2221,246.3691 C1415.3751,244.5271 1412.4749,238.2844 1417.4631,229.5844 C1413.6134,221.1778 1416.4836,215.9483 1425.9548,215.673 " fill="#FEFECE" style="stroke: #000000; stroke-width: 1.5;"/><text fill="#000000" font-family="sans-serif" font-size="14" lengthAdjust="spacingAndGlyphs" textLength="26" x="1431" y="234.3125">Box</text><!--MD5=[810d3db0f669efce0419c4627c04176f]
entity GoogleDrive--><path d="M1515.8807,214.2615 C1520.199,209.1616 1523.8071,208.3644 1527.8077,214.596 C1530.9728,207.3527 1536.5243,206.656 1540.9713,213.3887 C1544.3474,208.4193 1549.578,206.7061 1553.0281,213.3117 C1555.3307,205.999 1560.9861,204.3742 1565.9942,210.7488 C1569.7089,206.3732 1574.9729,206.0868 1577.2959,212.2422 C1581.6626,207.1098 1585.2693,206.5112 1588.7937,213.0706 C1594.1044,208.1199 1599.0403,208.4235 1602.5663,215.1717 C1606.3006,209.9311 1611.5011,208.7751 1614.902,215.5149 C1624.701,216.1986 1628.0652,220.6757 1624.0967,230.0615 C1626.8715,239.4203 1624.5492,245.831 1613.4146,245.6713 C1610.321,251.7601 1606.2045,252.471 1602.1449,246.58 C1599.7277,253.7269 1594.886,253.3902 1590.3264,248.7232 C1586.6424,255.5563 1582.4276,255.3928 1577.167,250.4913 C1573.9893,255.2353 1569.6405,256.018 1565.8973,251.1547 C1561.4374,256.977 1557.2239,257.216 1552.6091,251.3306 C1547.4467,257.0299 1542.5233,255.9102 1540.0396,248.7186 C1535.1807,253.2063 1531.5768,252.2569 1529.173,246.1908 C1524.6112,250.9425 1520.5832,251.1736 1516.8268,245.2585 C1509.0522,243.464 1506.2201,237.7311 1511.1615,230.9144 C1505.7566,223.6218 1506.7219,217.4269 1515.8807,214.2615 " fill="#FEFECE" style="stroke: #000000; stroke-width: 1.5;"/><text fill="#000000" font-family="sans-serif" font-size="14" lengthAdjust="spacingAndGlyphs" textLength="84" x="1522" y="234.3125">GoogleDrive</text><!--MD5=[5832b04387d6d292f6f43f23dd6aafd7]
entity CorpFS--><polygon fill="#FEFECE" filter="url(#f1x95b9kduld85)" points="1656,200.7773,1702,200.7773,1709,221.7773,1736,221.7773,1736,256.7539,1656,256.7539,1656,200.7773" style="stroke: #000000; stroke-width: 1.5;"/><line style="stroke: #000000; stroke-width: 1.5;" x1="1656" x2="1709" y1="221.7773" y2="221.7773"/><text fill="#000000" font-family="sans-serif" font-size="14" lengthAdjust="spacingAndGlyphs" textLength="50" x="1666" y="242.3125">CorpFS</text><!--MD5=[6581bb77afafb02426a8a123e3b0f304]
entity LoadingDock--><polygon fill="#FEFECE" filter="url(#f1x95b9kduld85)" points="1771.5,200.7773,1817.5,200.7773,1824.5,221.7773,1890.5,221.7773,1890.5,256.7539,1771.5,256.7539,1771.5,200.7773" style="stroke: #000000; stroke-width: 1.5;"/><line style="stroke: #000000; stroke-width: 1.5;" x1="1771.5" x2="1824.5" y1="221.7773" y2="221.7773"/><text fill="#000000" font-family="sans-serif" font-size="14" lengthAdjust="spacingAndGlyphs" textLength="89" x="1781.5" y="242.3125">LoadingDock</text><!--MD5=[1f006c4c489d10b9bc83f7ddb605c6d8]
entity Processor--><ellipse cx="1336" cy="29.7773" fill="#FEFECE" filter="url(#f1x95b9kduld85)" rx="8" ry="8" style="stroke: #A80036; stroke-width: 2.0;"/><path d="M1336,37.7773 L1336,64.7773 M1323,45.7773 L1349,45.7773 M1336,64.7773 L1323,79.7773 M1336,64.7773 L1349,79.7773 " fill="none" filter="url(#f1x95b9kduld85)" style="stroke: #A80036; stroke-width: 2.0;"/><text fill="#000000" font-family="sans-serif" font-size="14" lengthAdjust="spacingAndGlyphs" textLength="67" x="1302.5" y="100.3125">Processor</text><!--MD5=[ec5c6ed0d8630b12f0c9a08989804d47]
entity Bag--><rect fill="#FEFECE" filter="url(#f1x95b9kduld85)" height="32.4883" style="stroke: #000000; stroke-width: 1.5;" width="41" x="906.5" y="602.7773"/><rect fill="#FEFECE" height="32.4883" style="stroke: #000000; stroke-width: 1.5;" width="41" x="902.5" y="598.7773"/><text fill="#000000" font-family="sans-serif" font-size="14" lengthAdjust="spacingAndGlyphs" textLength="25" x="910.5" y="620.3125">Bag</text><!--MD5=[c3c2db1ba7995ce15b9db1c1737c3161]
entity Kertas--><polygon fill="#FEFECE" filter="url(#f1x95b9kduld85)" points="426.5,48.2773,436.5,38.2773,509.5,38.2773,509.5,74.7656,499.5,84.7656,426.5,84.7656,426.5,48.2773" style="stroke: #000000; stroke-width: 1.5;"/><line style="stroke: #000000; stroke-width: 1.5;" x1="499.5" x2="508.5" y1="48.2773" y2="39.2773"/><line style="stroke: #000000; stroke-width: 1.5;" x1="426.5" x2="499.5" y1="48.2773" y2="48.2773"/><line style="stroke: #000000; stroke-width: 1.5;" x1="499.5" x2="499.5" y1="48.2773" y2="84.7656"/><text fill="#000000" font-family="sans-serif" font-size="14" lengthAdjust="spacingAndGlyphs" textLength="43" x="441.5" y="71.8125">Kertas</text><path d="M705,588.7773 L705,644.709 A0,0 0 0 0 705,644.709 L867,644.709 A0,0 0 0 0 867,644.709 L867,598.7773 L857,588.7773 L755.5853,588.7773 L678.1793,527.9838 L747.5853,588.7773 L705,588.7773 A0,0 0 0 0 705,588.7773 " fill="#FBFB77" filter="url(#f1x95b9kduld85)" style="stroke: #A80036; stroke-width: 1.0;"/><path d="M857,588.7773 L857,598.7773 L867,598.7773 L857,588.7773 " fill="#FBFB77" style="stroke: #A80036; stroke-width: 1.0;"/><text fill="#000000" font-family="sans-serif" font-size="13" lengthAdjust="spacingAndGlyphs" textLength="132" x="711" y="606.3457">Software provided by</text><text fill="#000000" font-family="sans-serif" font-size="13" lengthAdjust="spacingAndGlyphs" textLength="141" x="711" y="621.6563">APTrust to create Bags</text><text fill="#000000" font-family="sans-serif" font-size="13" lengthAdjust="spacingAndGlyphs" textLength="69" x="711" y="636.9668">for deposit</text><!--MD5=[015d026555f5fde5680f8de510e2b6fd]
entity Sakai--><path d="M921.8409,215.0892 C923.5575,208.3475 929.4963,206.5872 933.9764,212.4228 C937.734,206.1485 941.8,204.564 946.8411,211.1377 C951.2305,206.7185 955.2607,207.5939 957.8939,213.0946 C962.6267,207.5472 968.7735,208.5393 970.5991,215.946 C977.69,219.3339 979.7146,223.3502 974.377,230.0639 C979.6322,235.5535 978.3211,243.0174 970.7517,245.4938 C968.4636,252.9124 964.7205,254.5818 958.3521,249.5611 C956.9187,256.0291 952.2275,258.6283 946.5703,254.0772 C939.8905,260.5197 935.5277,259.3782 932.5729,250.6421 C926.5152,254.811 921.4584,252.7673 921.1087,245.1092 C911.3358,243.9346 908.5345,238.3273 912.2033,229.4892 C907.9542,220.8768 912.5139,214.6155 921.8409,215.0892 " fill="#FEFECE" style="stroke: #000000; stroke-width: 1.5;"/><text fill="#000000" font-family="sans-serif" font-size="14" lengthAdjust="spacingAndGlyphs" textLength="36" x="927" y="234.3125">Sakai</text><!--MD5=[9872021064c9f4c5aced30aa1e95db0d]
entity Honeycomb--><polygon fill="#FEFECE" filter="url(#f1x95b9kduld85)" points="1013,209.2773,1103,209.2773,1110,231.7656,1127,231.7656,1127,248.7656,1013,248.7656,1013,209.2773" style="stroke: #000000; stroke-width: 1.5;"/><line style="stroke: #000000; stroke-width: 1.5;" x1="1013" x2="1110" y1="231.7656" y2="231.7656"/><text fill="#000000" font-family="sans-serif" font-size="14" font-weight="bold" lengthAdjust="spacingAndGlyphs" textLength="84" x="1017" y="225.8125">Honeycomb</text><path d="M1397,364.7773 L1397,420.709 A0,0 0 0 0 1397,420.709 L1531,420.709 A0,0 0 0 0 1531,420.709 L1531,374.7773 L1521,364.7773 L1464.5541,364.7773 L1446.8231,251.9267 L1456.5541,364.7773 L1397,364.7773 A0,0 0 0 0 1397,364.7773 " fill="#FBFB77" filter="url(#f1x95b9kduld85)" style="stroke: #A80036; stroke-width: 1.0;"/><path d="M1521,364.7773 L1521,374.7773 L1531,374.7773 L1521,364.7773 " fill="#FBFB77" style="stroke: #A80036; stroke-width: 1.0;"/><text fill="#000000" font-family="sans-serif" font-size="13" lengthAdjust="spacingAndGlyphs" textLength="113" x="1403" y="382.3457">Currently housing</text><text fill="#000000" font-family="sans-serif" font-size="13" lengthAdjust="spacingAndGlyphs" textLength="83" x="1403" y="397.6563">digitized oral</text><text fill="#000000" font-family="sans-serif" font-size="13" lengthAdjust="spacingAndGlyphs" textLength="55" x="1403" y="412.9668">histories</text><!--MD5=[6c866cd4e5046403878a0e2325bcc1c2]
link CyberDuck to Deposit--><path d="M639.518,251.9584 C647.8497,274.9569 663.0704,310.2251 685,334.7773 C692.0623,342.6842 696.8,341.0576 705,347.7773 C713.5701,354.8003 722.2547,363.3204 729.6183,371.0495 " fill="none" id="CyberDuck-&gt;Deposit" style="stroke: #A80036; stroke-width: 1.0; stroke-dasharray: 7.0,7.0;"/><polygon fill="#A80036" points="733.1208,374.7702,729.8645,365.4753,729.6937,371.1295,724.0394,370.9587,733.1208,374.7702" style="stroke: #A80036; stroke-width: 1.0;"/><text fill="#000000" font-family="sans-serif" font-size="13" lengthAdjust="spacingAndGlyphs" textLength="44" x="713.5" y="301.3457">Upload</text><text fill="#000000" font-family="sans-serif" font-size="13" lengthAdjust="spacingAndGlyphs" textLength="99" x="686" y="316.6563">Using APTrust's</text><text fill="#000000" font-family="sans-serif" font-size="13" lengthAdjust="spacingAndGlyphs" textLength="62" x="704.5" y="331.9668">S3 bucket</text><ellipse cx="685" cy="334.7773" fill="#FFFFFF" rx="10" ry="10" style="stroke: #FFFFFF; stroke-width: 1.0;"/><path d="M684.4367,344.7615 A10,10 0 0 0 694.9841 335.3407" fill="#FFFFFF" style="stroke: #A80036; stroke-width: 1.5;"/><path d="M685.5633,324.7932 A10,10 0 0 0 675.0159 334.214" fill="#FFFFFF" style="stroke: #A80036; stroke-width: 1.5;"/><ellipse cx="685" cy="334.7773" fill="#FFFFFF" rx="6" ry="6" style="stroke: #A80036; stroke-width: 1.5;"/><!--MD5=[6146f5c1784ef5ecd558b7c1c3409700]
link DART to Bag--><path d="M689.1692,515.2783 C736.9235,528.8617 819.3742,554.8608 885,588.7773 C889.4054,591.0541 893.8861,593.7524 898.1777,596.5608 " fill="none" id="DART-&gt;Bag" style="stroke: #A80036; stroke-width: 1.0;"/><polygon fill="#A80036" points="902.3965,599.3943,897.1556,591.0557,898.2458,596.6065,892.695,597.6968,902.3965,599.3943" style="stroke: #A80036; stroke-width: 1.0;"/><!--MD5=[c7e44b92ea5e12599b534fa611dcaf9a]
link Limb to DART--><path d="M483.2042,251.8342 C516.5262,302.3664 595.8746,422.697 631.7873,477.158 " fill="none" id="Limb-&gt;DART" style="stroke: #A80036; stroke-width: 1.0; stroke-dasharray: 7.0,7.0;"/><polygon fill="#A80036" points="634.7111,481.5919,633.0958,471.8765,631.9585,477.4178,626.4172,476.2806,634.7111,481.5919" style="stroke: #A80036; stroke-width: 1.0;"/><ellipse cx="556.5242" cy="363.0228" fill="#FFFFFF" rx="10" ry="10" style="stroke: #FFFFFF; stroke-width: 1.0;"/><path d="M554.5137,372.8187 A10,10 0 0 0 566.32 365.0333" fill="#FFFFFF" style="stroke: #A80036; stroke-width: 1.5;"/><path d="M558.5347,353.227 A10,10 0 0 0 546.7284 361.0123" fill="#FFFFFF" style="stroke: #A80036; stroke-width: 1.5;"/><ellipse cx="556.5242" cy="363.0228" fill="#FFFFFF" rx="6" ry="6" style="stroke: #A80036; stroke-width: 1.5;"/><!--MD5=[be80aa4313344cf04dcc841024df075c]
link Deposit to Bag--><path d="M763.4028,411.1082 C795.4542,451.9008 872.5831,550.0648 907.4097,594.3896 " fill="none" id="Deposit-&gt;Bag" style="stroke: #A80036; stroke-width: 1.0;"/><polygon fill="#A80036" points="910.645,598.5073,908.2298,588.9592,907.5559,594.5758,901.9393,593.9018,910.645,598.5073" style="stroke: #A80036; stroke-width: 1.0;"/><text fill="#000000" font-family="sans-serif" font-size="13" lengthAdjust="spacingAndGlyphs" textLength="213" x="864" y="509.8457">Deposit expects a Bag-like object</text><ellipse cx="834.3656" cy="501.4244" fill="#FFFFFF" rx="10" ry="10" style="stroke: #FFFFFF; stroke-width: 1.0;"/><path d="M833.1741,511.3531 A10,10 0 0 0 844.2943 502.6158" fill="#FFFFFF" style="stroke: #A80036; stroke-width: 1.5;"/><path d="M835.557,491.4956 A10,10 0 0 0 824.4368 500.2329" fill="#FFFFFF" style="stroke: #A80036; stroke-width: 1.5;"/><ellipse cx="834.3656" cy="501.4244" fill="#FFFFFF" rx="6" ry="6" style="stroke: #A80036; stroke-width: 1.5;"/><!--MD5=[313d242af7e68d092ab2deb639a3dfde]
link DTernityNFSM to DternityTS--><path d="M1331.336,237.7997 C1321.3863,257.3622 1297.8584,305.3417 1284,347.7773 C1268.8388,394.2022 1258.0583,450.466 1252.7486,481.4608 " fill="none" id="DTernityNFSM-&gt;DternityTS" style="stroke: #A80036; stroke-width: 1.0;"/><polygon fill="#A80036" points="1251.8822,486.5795,1257.3283,478.3735,1252.7168,481.6497,1249.4405,477.0381,1251.8822,486.5795" style="stroke: #A80036; stroke-width: 1.0;"/><text fill="#000000" font-family="sans-serif" font-size="13" lengthAdjust="spacingAndGlyphs" textLength="94" x="1285" y="390.3457">DAPOS Storage</text><text fill="#000000" font-family="sans-serif" font-size="13" lengthAdjust="spacingAndGlyphs" textLength="83" x="1290.5" y="405.6563">Only on Tape</text><!--MD5=[076bf8ffe2b57d316b6a5d784dc0a468]
link Processor to Download--><path d="M1302.292,63.3646 C1198.8809,70.5399 889.5329,98.0058 830,172.7773 C783.5143,231.1618 826.9957,326.5296 851.2253,369.9523 " fill="none" id="Processor-&gt;Download" style="stroke: #A80036; stroke-width: 1.0;"/><polygon fill="#A80036" points="853.7919,374.4877,852.8405,364.6849,851.3293,370.1362,845.8781,368.625,853.7919,374.4877" style="stroke: #A80036; stroke-width: 1.0;"/><text fill="#000000" font-family="sans-serif" font-size="13" lengthAdjust="spacingAndGlyphs" textLength="50" x="837.5" y="218.8457">Request</text><text fill="#000000" font-family="sans-serif" font-size="13" lengthAdjust="spacingAndGlyphs" textLength="63" x="831" y="234.1563">Data from</text><text fill="#000000" font-family="sans-serif" font-size="13" lengthAdjust="spacingAndGlyphs" textLength="49" x="838" y="249.4668">APTrust</text><!--MD5=[662f74bbc44f4d9636365d32815074a1]
link Processor to DTernityNFSM--><path d="M1336,103.1125 C1336,139.5072 1336,190.1304 1336,214.5211 " fill="none" id="Processor-&gt;DTernityNFSM" style="stroke: #A80036; stroke-width: 1.0; stroke-dasharray: 7.0,7.0;"/><polygon fill="#A80036" points="1336,219.5875,1340,210.5875,1336,214.5875,1332,210.5875,1336,219.5875" style="stroke: #A80036; stroke-width: 1.0;"/><ellipse cx="1336" cy="163.3183" fill="#FFFFFF" rx="10" ry="10" style="stroke: #FFFFFF; stroke-width: 1.0;"/><path d="M1328.9289,170.3894 A10,10 0 0 0 1343.0711 170.3894" fill="#FFFFFF" style="stroke: #A80036; stroke-width: 1.5;"/><path d="M1343.0711,156.2473 A10,10 0 0 0 1328.9289 156.2473" fill="#FFFFFF" style="stroke: #A80036; stroke-width: 1.5;"/><ellipse cx="1336" cy="163.3183" fill="#FFFFFF" rx="6" ry="6" style="stroke: #A80036; stroke-width: 1.5;"/><!--MD5=[411591c6284f9e10715dc39be6c19753]
link Kertas to Limb--><path d="M468,84.5675 C468,114.9437 468,168.0416 468,200.6364 " fill="none" id="Kertas-&gt;Limb" style="stroke: #A80036; stroke-width: 1.0; stroke-dasharray: 7.0,7.0;"/><polygon fill="#A80036" points="468,205.6849,472,196.6849,468,200.6849,464,196.6849,468,205.6849" style="stroke: #A80036; stroke-width: 1.0;"/><text fill="#000000" font-family="sans-serif" font-size="13" lengthAdjust="spacingAndGlyphs" textLength="59" x="469" y="146.3457">For batch</text><text fill="#000000" font-family="sans-serif" font-size="13" lengthAdjust="spacingAndGlyphs" textLength="44" x="476.5" y="161.6563">editing</text><ellipse cx="468" cy="141.77" fill="#FFFFFF" rx="10" ry="10" style="stroke: #FFFFFF; stroke-width: 1.0;"/><path d="M460.9289,148.8411 A10,10 0 0 0 475.0711 148.8411" fill="#FFFFFF" style="stroke: #A80036; stroke-width: 1.5;"/><path d="M475.0711,134.699 A10,10 0 0 0 460.9289 134.699" fill="#FFFFFF" style="stroke: #A80036; stroke-width: 1.5;"/><ellipse cx="468" cy="141.77" fill="#FFFFFF" rx="6" ry="6" style="stroke: #A80036; stroke-width: 1.5;"/><!--MD5=[ba099123e376a33e40430e674d8ffb18]
link Processor to SoftwareTools--><path d="M1302.4453,65.1133 C1216.4363,75.0602 981.1335,102.9917 786,132.7773 C684.297,148.3015 635.5676,105.1921 558,172.7773 C556.8451,173.7836 555.7637,174.8643 554.7512,176.0071 C554.245,176.5785 553.756,177.1654 553.2836,177.7664 C553.0474,178.0669 552.8154,194.9583 552.5874,195.2656 " fill="none" id="Processor-&gt;SoftwareTools" style="stroke: #A80036; stroke-width: 1.0;"/><polygon fill="#A80036" points="552.5874,178.6781,561.1619,173.8326,555.5662,174.6623,554.7365,169.0666,552.5874,178.6781" style="stroke: #A80036; stroke-width: 1.0;"/><!--MD5=[383de5efd02fdf0078fc9fc6c5c18335]
link Processor to Box--><path d="M1362.9744,103.1125 C1382.7009,133.7069 1408.9104,174.3559 1426.1056,201.0244 " fill="none" id="Processor-&gt;Box" style="stroke: #A80036; stroke-width: 1.0;"/><polygon fill="#A80036" points="1428.9964,205.5078,1427.4809,195.7763,1426.2868,201.3057,1420.7574,200.1116,1428.9964,205.5078" style="stroke: #A80036; stroke-width: 1.0;"/><text fill="#000000" font-family="sans-serif" font-size="13" lengthAdjust="spacingAndGlyphs" textLength="63" x="1400" y="146.3457">For object</text><text fill="#000000" font-family="sans-serif" font-size="13" lengthAdjust="spacingAndGlyphs" textLength="47" x="1408" y="161.6563">storage</text><!--MD5=[7f1c92362e831b002a228cce5f580342]
link Processor to GoogleDrive--><path d="M1369.6288,75.2681 C1398.2866,88.0274 1439.8209,108.55 1472,132.7773 C1498.6255,152.8234 1524.4805,180.7923 1541.9657,201.3719 " fill="none" id="Processor-&gt;GoogleDrive" style="stroke: #A80036; stroke-width: 1.0;"/><polygon fill="#A80036" points="1545.3488,205.3847,1542.6058,195.9256,1542.1259,201.562,1536.4895,201.0821,1545.3488,205.3847" style="stroke: #A80036; stroke-width: 1.0;"/><text fill="#000000" font-family="sans-serif" font-size="13" lengthAdjust="spacingAndGlyphs" textLength="63" x="1508" y="146.3457">For object</text><text fill="#000000" font-family="sans-serif" font-size="13" lengthAdjust="spacingAndGlyphs" textLength="47" x="1516" y="161.6563">storage</text><!--MD5=[891e866c632f0093cdc8e160f37b5627]
link Processor to CorpFS--><path d="M1369.5455,67.6492 C1417.7102,77.5565 1508.5252,99.0918 1580,132.7773 C1608.6573,146.2833 1614.4894,152.7053 1639,172.7773 C1647.9469,180.104 1657.1109,188.597 1665.402,196.7197 " fill="none" id="Processor-&gt;CorpFS" style="stroke: #A80036; stroke-width: 1.0;"/><polygon fill="#A80036" points="1669.3972,200.6708,1665.8106,191.4982,1665.8421,197.155,1660.1853,197.1864,1669.3972,200.6708" style="stroke: #A80036; stroke-width: 1.0;"/><text fill="#000000" font-family="sans-serif" font-size="13" lengthAdjust="spacingAndGlyphs" textLength="63" x="1629" y="146.3457">For object</text><text fill="#000000" font-family="sans-serif" font-size="13" lengthAdjust="spacingAndGlyphs" textLength="47" x="1637" y="161.6563">storage</text><!--MD5=[22f84a49385b1fd241496ca6a6326b7c]
link Processor to LoadingDock--><path d="M1369.6828,62.9447 C1435.8546,67.265 1586.3507,82.2972 1701,132.7773 C1736.9511,148.6066 1772.4627,175.8363 1797.2622,197.2616 " fill="none" id="Processor-&gt;LoadingDock" style="stroke: #A80036; stroke-width: 1.0;"/><polygon fill="#A80036" points="1801.1488,200.6478,1796.9907,191.7198,1797.379,197.3633,1791.7354,197.7515,1801.1488,200.6478" style="stroke: #A80036; stroke-width: 1.0;"/><text fill="#000000" font-family="sans-serif" font-size="13" lengthAdjust="spacingAndGlyphs" textLength="88" x="1756" y="146.3457">For temporary</text><text fill="#000000" font-family="sans-serif" font-size="13" lengthAdjust="spacingAndGlyphs" textLength="90" x="1755" y="161.6563">object storage</text><!--MD5=[30f3c657116dd2d4bdc45eb0e0b8ac59]
link Processor to Honeycomb--><path d="M1302.4102,79.589 C1263.9333,100.8839 1199.3261,137.6215 1146,172.7773 C1130.2512,183.1599 1113.3016,195.5258 1099.4142,205.9932 " fill="none" id="Processor-&gt;Honeycomb" style="stroke: #A80036; stroke-width: 1.0;"/><polygon fill="#A80036" points="1095.2074,209.1764,1104.7979,206.9355,1099.1946,206.1594,1099.9707,200.5561,1095.2074,209.1764" style="stroke: #A80036; stroke-width: 1.0;"/><!--MD5=[a3b9f9c23f12458c7dc7fecd4e3c9939]
link Processor to Sakai--><path d="M1302.1495,66.4603 C1238.0482,77.4942 1096.3858,107.7952 996,172.7773 C984.2082,180.4104 973.3774,191.4236 964.7587,201.6672 " fill="none" id="Processor-&gt;Sakai" style="stroke: #A80036; stroke-width: 1.0;"/><polygon fill="#A80036" points="961.4463,205.6961,970.2518,201.2844,964.6217,201.8339,964.0722,196.2038,961.4463,205.6961" style="stroke: #A80036; stroke-width: 1.0;"/><!--MD5=[ede5d14f70ec0290a70580b1581437d1]
link Acrobat to Audacity--><!--MD5=[5005106d895385e8bb3274c147a8b876]
link Audacity to BitCurator--><!--MD5=[3956e4c08936f238d9fd2c486c52fccd]
link Acrobat to Handbrake--><!--MD5=[c6cee5bba6d30ba58bff7caae36c1886]
link Handbrake to ImageMagick--><!--MD5=[bb2b1bd5ce5e5242a259e3314cb787e6]
link ImageMagick to Photoshop--><!--MD5=[0ce609b9514a78b7ae78e40a196e2541]
link Handbrake to Quicktime--><!--MD5=[4002b42e862b66b33754aaa6e39ea18c]
@startuml

header DAPOS

cloud APTrust {
  component Deposit
  component Download
}

actor Processor
collections Bag
package SoftwareTools {
  node Acrobat
  node Audacity
  node BitCurator
  node CyberDuck
  node DART
  node Handbrake
  node ImageMagick
  node Limb
  node Photoshop
  node Quicktime
}
node Kertas

note bottom of DART
  Software provided by
  APTrust to create Bags
  for deposit
end note

package "DTernity" {
  interface "NFS Mount" as DTernityNFSM
  interface "CIFS Mount" as DTernityCIFSM
  package "Storage" as DTernityStorage {
    component "Cloud" as DternityCS
    component "Tape" as DternityTS
  }
}

package Storage {
  cloud Box
  cloud GoogleDrive
  folder CorpFS
  folder LoadingDock
}
cloud Sakai
package Honeycomb

CyberDuck .(0).> Deposit : "Upload\nUsing APTrust's\nS3 bucket"
DART - -> Bag
Limb .(0).> DART
Deposit -(0)-> Bag : "Deposit expects a Bag-like object"
DTernityNFSM - -> DternityTS : "DAPOS Storage\nOnly on Tape"
Processor - -> Download : "Request\nData from\nAPTrust"
Processor .(0).> DTernityNFSM
Kertas .(0).> Limb : "For batch\nediting"
Processor - -> SoftwareTools
Processor - -> Box : "For object\nstorage"
note bottom of Box
  Currently housing
  digitized oral
  histories
end note
Processor - -> GoogleDrive : "For object\nstorage"
Processor - -> CorpFS : "For object\nstorage"
Processor - -> LoadingDock : "For temporary\nobject storage"
Processor - -> Honeycomb
Processor - -> Sakai

@enduml

PlantUML version 1.2019.10(Fri Sep 13 16:53:03 EDT 2019)
(GPL source distribution)
Java Runtime: Java(TM) SE Runtime Environment
JVM: Java HotSpot(TM) 64-Bit Server VM
Java Version: 1.8.0_102-b14
Operating System: Mac OS X
Default Encoding: UTF-8
Language: en
Country: US
--></g></svg>