<?xml version="1.0" encoding="UTF-8" standalone="no"?><svg xmlns="http://www.w3.org/2000/svg" xmlns:xlink="http://www.w3.org/1999/xlink" contentScriptType="application/ecmascript" contentStyleType="text/css" height="476px" preserveAspectRatio="none" style="width:1185px;height:476px;" version="1.1" viewBox="0 0 1185 476"
    width="1185px" zoomAndPan="magnify"><defs><filter height="300%" id="fl95spt859rar" width="300%" x="-1" y="-1"><feGaussianBlur result="blurOut" stdDeviation="2.0"/><feColorMatrix in="blurOut" result="blurOut2" type="matrix" values="0 0 0 0 0 0 0 0 0 0 0 0 0 0 0 0 0 0 .4 0"/><feOffset dx="4.0" dy="4.0" in="blurOut2" result="blurOut3"/><feBlend in="SourceGraphic" in2="blurOut3" mode="normal"/></filter></defs><g><text fill="#888888" font-family="sans-serif" font-size="10" lengthAdjust="spacingAndGlyphs" textLength="19" x="1154" y="9.668">DAS</text><!--MD5=[8ff8ced6db26d84c1a262b1a66578261]
entity MetadataDiscoverySystemSpecialist--><ellipse cx="156" cy="29.7773" fill="#FEFECE" filter="url(#fl95spt859rar)" rx="8" ry="8" style="stroke: #A80036; stroke-width: 2.0;"/><path d="M156,37.7773 L156,64.7773 M143,45.7773 L169,45.7773 M156,64.7773 L143,79.7773 M156,64.7773 L169,79.7773 " fill="none" filter="url(#fl95spt859rar)" style="stroke: #A80036; stroke-width: 2.0;"/><text fill="#000000" font-family="sans-serif" font-size="14" lengthAdjust="spacingAndGlyphs" textLength="240" x="36" y="100.3125">MetadataDiscoverySystemSpecialist</text><!--MD5=[c16568e590649fdf03b8baed12c39504]
entity ArchivesSpace--><path d="M406.4748,311.2591 C408.9415,305.8422 413.0232,306.2939 416.2953,310.4313 C420.4985,303.9123 424.9778,305.1365 429.303,310.2955 C432.1167,304.0989 435.4824,304.6936 439.8549,308.6803 C442.7101,302.1039 448.498,302.2971 451.9959,308.0471 C454.4139,302.3149 458.8437,301.6239 462.4647,306.9034 C467.1441,302.0502 470.8178,303.5064 473.3046,309.1646 C477.059,304.7374 480.2615,303.8173 483.6035,309.5814 C486.7195,304.4416 492.1668,304.2508 495.0844,309.7946 C498.4106,304.8392 504.4887,304.2173 507.5466,310.1031 C512.2237,305.0184 515.8023,305.9627 519.1404,311.5568 C527.4941,314.8689 528.4157,320.5861 522.7503,327.1448 C528.308,333.3057 526.8048,339.8175 518.3978,341.8432 C514.7441,347.138 510.8225,347.4887 507.4194,341.5974 C504.9997,347.2384 499.5755,347.6465 496.1195,342.7039 C493.0712,347.3231 488.5037,347.8775 485.5965,342.5545 C483.0863,349.7973 477.3217,348.7424 473.2015,344.256 C470.1271,349.4703 465.4249,350.4072 461.3079,345.4787 C457.5123,349.4286 453.9628,350.0496 451.1353,344.4476 C446.9815,349.6264 442.6111,349.8916 439.4102,343.4833 C436.7423,348.7698 431.919,348.1765 429.5009,343.2411 C425.1536,348.1095 420.504,347.5194 417.5954,341.6465 C413.708,346.5198 408.0251,346.8083 405.306,340.3765 C398.1614,337.1156 395.7345,330.4492 403.3135,325.249 C398.4857,319.0714 398.3762,314.5158 406.4748,311.2591 " fill="#FEFECE" style="stroke: #000000; stroke-width: 1.5;"/><text fill="#000000" font-family="sans-serif" font-size="14" lengthAdjust="spacingAndGlyphs" textLength="98" x="412" y="330.3125">ArchivesSpace</text><!--MD5=[ac8f20b59aaeffa7d07bee14fd87b870]
entity OCLC--><path d="M306.0949,203.7799 C308.4559,197.6807 314.1645,196.4818 318.2344,201.9931 C321.8758,194.0983 326.116,193.0826 332.0803,199.7907 C336.3929,194.77 342.1148,195.3544 344.5918,201.7945 C349.1555,196.4446 354.4581,198.169 357.0613,203.9841 C364.8207,206.2049 367.9974,213.2256 360.8015,219.1377 C366.8083,224.4776 366.6303,230.9496 358.605,234.2501 C356.0481,242.3982 350.9278,243.1619 344.7131,238.0953 C342.9015,245.149 337.7965,245.2426 333.1711,240.9602 C328.0942,246.091 321.1217,245.9559 318.8737,237.8942 C314.0728,243.9679 308.4492,240.7657 306.4313,234.9754 C297.884,232.4199 297.2586,226.2345 302.5049,220.0503 C295.8194,214.1404 298.4074,206.5184 306.0949,203.7799 " fill="#FEFECE" style="stroke: #000000; stroke-width: 1.5;"/><text fill="#000000" font-family="sans-serif" font-size="14" lengthAdjust="spacingAndGlyphs" textLength="38" x="312" y="223.3125">OCLC</text><!--MD5=[cdf75e50b2d53bdea5de831987a8ed7a]
entity Primo--><path d="M461.1329,204.7078 C464.8335,197.9946 469.5649,196.5316 475.2605,202.4823 C478.6253,195.7391 483.3341,196.1334 488.1626,200.8318 C493.4484,194.456 499.2946,194.383 502.6981,202.6947 C507.897,196.466 512.3876,198.3374 515.6746,204.6699 C523.0534,208.6294 523.7282,213.3579 517.3279,218.9165 C524.3534,224.8106 523.2635,231.0379 515.2449,234.9814 C511.3772,241.2985 505.6044,241.8065 501.6302,235.0927 C498.1879,243.0873 492.0191,242.4564 487.3687,236.3112 C483.538,243.0036 478.219,242.485 474.1713,236.5378 C468.6508,241.4609 464.2428,241.8252 460.4635,234.5768 C452.9691,231.1022 453.6136,224.3577 459.2001,219.7672 C452.2064,214.1214 454.3989,208.5917 461.1329,204.7078 " fill="#FEFECE" style="stroke: #000000; stroke-width: 1.5;"/><text fill="#000000" font-family="sans-serif" font-size="14" lengthAdjust="spacingAndGlyphs" textLength="40" x="467" y="223.3125">Primo</text><!--MD5=[28ed5d568ca4de22532d41e00e23de18]
entity ArchitectureScans--><rect fill="#FEFECE" filter="url(#fl95spt859rar)" height="32.4883" style="stroke: #000000; stroke-width: 1.5;" width="139" x="707.5" y="47.2773"/><rect fill="#FEFECE" height="32.4883" style="stroke: #000000; stroke-width: 1.5;" width="139" x="703.5" y="43.2773"/><text fill="#000000" font-family="sans-serif" font-size="14" lengthAdjust="spacingAndGlyphs" textLength="123" x="711.5" y="64.8125">ArchitectureScans</text><!--MD5=[7750bd58bd46abf53a82e63f0d681019]
entity BuildingSouthBend--><rect fill="#FEFECE" filter="url(#fl95spt859rar)" height="32.4883" style="stroke: #000000; stroke-width: 1.5;" width="146" x="886" y="47.2773"/><rect fill="#FEFECE" height="32.4883" style="stroke: #000000; stroke-width: 1.5;" width="146" x="882" y="43.2773"/><text fill="#000000" font-family="sans-serif" font-size="14" lengthAdjust="spacingAndGlyphs" textLength="130" x="890" y="64.8125">BuildingSouthBend</text><!--MD5=[7244f10a271bcf7351f39e6b7e05650b]
entity DiscoveryCollection--><rect fill="#FEFECE" filter="url(#fl95spt859rar)" height="32.4883" style="stroke: #000000; stroke-width: 1.5;" width="150" x="359" y="47.2773"/><rect fill="#FEFECE" height="32.4883" style="stroke: #000000; stroke-width: 1.5;" width="150" x="355" y="43.2773"/><text fill="#000000" font-family="sans-serif" font-size="14" lengthAdjust="spacingAndGlyphs" textLength="134" x="363" y="64.8125">DiscoveryCollection</text><!--MD5=[0986064c1434c9ffa2bee348b733328a]
entity MARCRecords--><rect fill="#FEFECE" filter="url(#fl95spt859rar)" height="32.4883" style="stroke: #000000; stroke-width: 1.5;" width="112" x="245" y="310.7773"/><rect fill="#FEFECE" height="32.4883" style="stroke: #000000; stroke-width: 1.5;" width="112" x="241" y="306.7773"/><text fill="#000000" font-family="sans-serif" font-size="14" lengthAdjust="spacingAndGlyphs" textLength="96" x="249" y="328.3125">MARCRecords</text><!--MD5=[4ff4fbee60da19e9675f25942f37da42]
entity RomeApp--><rect fill="#FEFECE" filter="url(#fl95spt859rar)" height="32.4883" style="stroke: #000000; stroke-width: 1.5;" width="83" x="1071.5" y="47.2773"/><rect fill="#FEFECE" height="32.4883" style="stroke: #000000; stroke-width: 1.5;" width="83" x="1067.5" y="43.2773"/><text fill="#000000" font-family="sans-serif" font-size="14" lengthAdjust="spacingAndGlyphs" textLength="67" x="1075.5" y="64.8125">RomeApp</text><!--MD5=[69b8eadcfb1f2a2940ce27449742cbe6]
entity LDrive--><polygon fill="#FEFECE" filter="url(#fl95spt859rar)" points="263,408.7773,309,408.7773,316,429.7773,335,429.7773,335,464.7539,263,464.7539,263,408.7773" style="stroke: #000000; stroke-width: 1.5;"/><line style="stroke: #000000; stroke-width: 1.5;" x1="263" x2="316" y1="429.7773" y2="429.7773"/><text fill="#000000" font-family="sans-serif" font-size="14" lengthAdjust="spacingAndGlyphs" textLength="42" x="273" y="450.3125">LDrive</text><!--MD5=[fa8019ea18872dd8c4c2f138e2281076]
entity Aleph--><polygon fill="#FEFECE" filter="url(#fl95spt859rar)" points="570.5,198.2773,617.5,198.2773,624.5,220.7656,641.5,220.7656,641.5,237.7656,570.5,237.7656,570.5,198.2773" style="stroke: #000000; stroke-width: 1.5;"/><line style="stroke: #000000; stroke-width: 1.5;" x1="570.5" x2="624.5" y1="220.7656" y2="220.7656"/><text fill="#000000" font-family="sans-serif" font-size="14" font-weight="bold" lengthAdjust="spacingAndGlyphs" textLength="41" x="574.5" y="214.8125">Aleph</text><!--MD5=[43844cd5db8854c9ab24d7547a561c52]
entity CORAL--><polygon fill="#FEFECE" filter="url(#fl95spt859rar)" points="6,198.2773,62,198.2773,69,220.7656,86,220.7656,86,237.7656,6,237.7656,6,198.2773" style="stroke: #000000; stroke-width: 1.5;"/><line style="stroke: #000000; stroke-width: 1.5;" x1="6" x2="69" y1="220.7656" y2="220.7656"/><text fill="#000000" font-family="sans-serif" font-size="14" font-weight="bold" lengthAdjust="spacingAndGlyphs" textLength="50" x="10" y="214.8125">CORAL</text><!--MD5=[b43e967606b105da0844e0dce872e0b3]
entity CurateND--><polygon fill="#FEFECE" filter="url(#fl95spt859rar)" points="538.5,417.2773,613.5,417.2773,620.5,439.7656,637.5,439.7656,637.5,456.7656,538.5,456.7656,538.5,417.2773" style="stroke: #000000; stroke-width: 1.5;"/><line style="stroke: #000000; stroke-width: 1.5;" x1="538.5" x2="620.5" y1="439.7656" y2="439.7656"/><text fill="#000000" font-family="sans-serif" font-size="14" font-weight="bold" lengthAdjust="spacingAndGlyphs" textLength="69" x="542.5" y="433.8125">CurateND</text><!--MD5=[228ec8783b9b5f78ee89ff74b10ee5e2]
entity FTPPrimoJob--><polygon fill="#FEFECE" filter="url(#fl95spt859rar)" points="544,41.7773,644,41.7773,651,64.2656,668,64.2656,668,81.2656,544,81.2656,544,41.7773" style="stroke: #000000; stroke-width: 1.5;"/><line style="stroke: #000000; stroke-width: 1.5;" x1="544" x2="651" y1="64.2656" y2="64.2656"/><text fill="#000000" font-family="sans-serif" font-size="14" font-weight="bold" lengthAdjust="spacingAndGlyphs" textLength="94" x="548" y="58.3125">FTPPrimoJob</text><!--MD5=[86c12b67d7a38ac36a5e173700b378d3]
entity LibraryWebServer--><polygon fill="#FEFECE" filter="url(#fl95spt859rar)" points="880,198.2773,1010,198.2773,1017,220.7656,1034,220.7656,1034,237.7656,880,237.7656,880,198.2773" style="stroke: #000000; stroke-width: 1.5;"/><line style="stroke: #000000; stroke-width: 1.5;" x1="880" x2="1017" y1="220.7656" y2="220.7656"/><text fill="#000000" font-family="sans-serif" font-size="14" font-weight="bold" lengthAdjust="spacingAndGlyphs" textLength="124" x="884" y="214.8125">LibraryWebServer</text><!--MD5=[99dfcc15212573092526ffefff2cb9ba]
entity MARCModifier--><polygon fill="#FEFECE" filter="url(#fl95spt859rar)" points="128,198.2773,238,198.2773,245,220.7656,262,220.7656,262,237.7656,128,237.7656,128,198.2773" style="stroke: #000000; stroke-width: 1.5;"/><line style="stroke: #000000; stroke-width: 1.5;" x1="128" x2="245" y1="220.7656" y2="220.7656"/><text fill="#000000" font-family="sans-serif" font-size="14" font-weight="bold" lengthAdjust="spacingAndGlyphs" textLength="104" x="132" y="214.8125">MARCModifier</text><!--MD5=[cd7baa891d8393968d8530071e9b76eb]
entity SFX--><polygon fill="#FEFECE" filter="url(#fl95spt859rar)" points="560.5,305.2773,591.5,305.2773,598.5,327.7656,615.5,327.7656,615.5,344.7656,560.5,344.7656,560.5,305.2773" style="stroke: #000000; stroke-width: 1.5;"/><line style="stroke: #000000; stroke-width: 1.5;" x1="560.5" x2="598.5" y1="327.7656" y2="327.7656"/><text fill="#000000" font-family="sans-serif" font-size="14" font-weight="bold" lengthAdjust="spacingAndGlyphs" textLength="25" x="564.5" y="321.8125">SFX</text><!--MD5=[4ef14cc5a0bfe5f5fac65cf6de5f638b]
link ArchitectureScans to LibraryWebServer--><path d="M796.2339,79.5361 C829.5277,108.1651 893.9593,163.5692 930.3302,194.8442 " fill="none" id="ArchitectureScans-&gt;LibraryWebServer" style="stroke: #A80036; stroke-width: 1.0;"/><polygon fill="#A80036" points="934.1913,198.1643,929.9753,189.2635,930.4002,194.9044,924.7593,195.3293,934.1913,198.1643" style="stroke: #A80036; stroke-width: 1.0;"/><!--MD5=[21ab14242e920cb893f9f5e8d4747cff]
link BuildingSouthBend to LibraryWebServer--><path d="M957,79.5361 C957,107.5856 957,161.3371 957,192.9157 " fill="none" id="BuildingSouthBend-&gt;LibraryWebServer" style="stroke: #A80036; stroke-width: 1.0;"/><polygon fill="#A80036" points="957,198.1643,961,189.1643,957,193.1643,953,189.1643,957,198.1643" style="stroke: #A80036; stroke-width: 1.0;"/><!--MD5=[5e0e3eec05e1805cab678cbfb8cbc3cf]
link MetadataDiscoverySystemSpecialist to MARCModifier--><path d="M166.3489,102.8055 C173.5119,131.5495 182.8055,168.8431 188.8348,193.0375 " fill="none" id="MetadataDiscoverySystemSpecialist-&gt;MARCModifier" style="stroke: #A80036; stroke-width: 1.0;"/><polygon fill="#A80036" points="190.0699,197.9937,191.7748,188.2936,188.8608,193.1421,184.0122,190.2282,190.0699,197.9937" style="stroke: #A80036; stroke-width: 1.0;"/><!--MD5=[1735da18da7b02c731101abd7c1c9934]
link MetadataDiscoverySystemSpecialist to CORAL--><path d="M66.8121,102.9392 C56.4962,111.3755 47.3957,121.2698 41,132.7773 C30.76,151.2018 33.4788,175.4729 37.8971,193.3612 " fill="none" id="MetadataDiscoverySystemSpecialist-&gt;CORAL" style="stroke: #A80036; stroke-width: 1.0;"/><polygon fill="#A80036" points="39.179,198.2272,40.7541,188.5052,37.9052,193.3922,33.0181,190.5433,39.179,198.2272" style="stroke: #A80036; stroke-width: 1.0;"/><text fill="#000000" font-family="sans-serif" font-size="13" lengthAdjust="spacingAndGlyphs" textLength="124" x="42" y="146.3457">For correspondence</text><text fill="#000000" font-family="sans-serif" font-size="13" lengthAdjust="spacingAndGlyphs" textLength="64" x="72" y="161.6563">w/ vendor</text><!--MD5=[8c3e63227b4d5a12d2c9b1b8aeecfa12]
link DiscoveryCollection to Primo--><path d="M438.4168,79.5361 C447.9386,106.63 465.8881,157.7045 477.102,189.6129 " fill="none" id="DiscoveryCollection-&gt;Primo" style="stroke: #A80036; stroke-width: 1.0;"/><polygon fill="#A80036" points="478.8415,194.5628,479.6311,184.7457,477.1836,189.8457,472.0836,187.3983,478.8415,194.5628" style="stroke: #A80036; stroke-width: 1.0;"/><!--MD5=[51bcecc18d4ad506c934259be5db1d90]
link FTPPrimoJob to Aleph--><path d="M606,80.7817 C606,109.1312 606,161.7238 606,192.8495 " fill="none" id="FTPPrimoJob-&gt;Aleph" style="stroke: #A80036; stroke-width: 1.0;"/><polygon fill="#A80036" points="606,198.0271,610,189.0271,606,193.0271,602,189.0271,606,198.0271" style="stroke: #A80036; stroke-width: 1.0;"/><!--MD5=[2689c323771d09555da98e5778148925]
link FTPPrimoJob to Primo--><path d="M591.1692,80.7817 C570.1206,108.4632 531.4965,159.2588 507.6544,190.6141 " fill="none" id="FTPPrimoJob-&gt;Primo" style="stroke: #A80036; stroke-width: 1.0;"/><polygon fill="#A80036" points="504.5354,194.7161,513.167,189.9733,507.5618,190.7361,506.799,185.1309,504.5354,194.7161" style="stroke: #A80036; stroke-width: 1.0;"/><!--MD5=[ef3f55dc380db5724134735663f88f55]
link MARCModifier to MARCRecords--><path d="M214.0752,237.4027 C232.1071,255.9548 259.1123,283.739 277.8081,302.9741 " fill="none" id="MARCModifier-&gt;MARCRecords" style="stroke: #A80036; stroke-width: 1.0;"/><polygon fill="#A80036" points="281.4314,306.7019,278.027,297.4602,277.9465,303.1165,272.2902,303.036,281.4314,306.7019" style="stroke: #A80036; stroke-width: 1.0;"/><!--MD5=[3c1a52e447a68c6705561634c2a30efb]
link MARCRecords to LDrive--><path d="M299,343.2718 C299,359.5837 299,383.7529 299,403.4324 " fill="none" id="MARCRecords-&gt;LDrive" style="stroke: #A80036; stroke-width: 1.0;"/><polygon fill="#A80036" points="299,408.5918,303,399.5918,299,403.5918,295,399.5918,299,408.5918" style="stroke: #A80036; stroke-width: 1.0;"/><!--MD5=[5365013eaaddde1d7bb24468613dd3ba]
link OCLC to MARCRecords--><path d="M324.0565,240.9947 C318.6798,258.9729 311.2687,283.7538 305.9024,301.6973 " fill="none" id="OCLC-&gt;MARCRecords" style="stroke: #A80036; stroke-width: 1.0;"/><polygon fill="#A80036" points="304.4465,306.5656,310.8577,299.0892,305.8792,301.7753,303.1931,296.7969,304.4465,306.5656" style="stroke: #A80036; stroke-width: 1.0;"/><!--MD5=[10508414d573d1a6fe9e01184a264081]
link Primo to ArchivesSpace--><path d="M481.3584,240.9947 C477.4062,257.2596 472.101,279.0924 467.8972,296.3928 " fill="none" id="Primo-&gt;ArchivesSpace" style="stroke: #A80036; stroke-width: 1.0;"/><polygon fill="#A80036" points="466.6306,301.6052,472.6428,293.8044,467.8113,296.7467,464.869,291.9152,466.6306,301.6052" style="stroke: #A80036; stroke-width: 1.0;"/><!--MD5=[0d6e887073f7f2133ca205288096924e]
link Primo to SFX--><path d="M508.9155,240.9947 C525.7442,258.8231 548.8875,283.3413 565.7894,301.2473 " fill="none" id="Primo-&gt;SFX" style="stroke: #A80036; stroke-width: 1.0;"/><polygon fill="#A80036" points="569.5118,305.1908,566.2427,295.9003,566.0797,301.5549,560.4252,301.3918,569.5118,305.1908" style="stroke: #A80036; stroke-width: 1.0;"/><!--MD5=[5b868eca1e141dfc0d4003fc75759e31]
link RomeApp to LibraryWebServer--><path d="M1093.0328,79.5361 C1064.9753,108.0492 1010.7832,163.121 979.9417,194.4632 " fill="none" id="RomeApp-&gt;LibraryWebServer" style="stroke: #A80036; stroke-width: 1.0;"/><polygon fill="#A80036" points="976.2996,198.1643,985.4633,194.555,979.8066,194.6005,979.7611,188.9438,976.2996,198.1643" style="stroke: #A80036; stroke-width: 1.0;"/><!--MD5=[47391374410491a16bf327cffeb10be5]
link SFX to CurateND--><path d="M588,344.2862 C588,363.1215 588,391.712 588,412.116 " fill="none" id="SFX-&gt;CurateND" style="stroke: #A80036; stroke-width: 1.0;"/><polygon fill="#A80036" points="588,417.1162,592,408.1162,588,412.1162,584,408.1162,588,417.1162" style="stroke: #A80036; stroke-width: 1.0;"/><!--MD5=[faeb52738d4ea26bbf201fa5591be95b]
@startuml

header DAS

actor MetadataDiscoverySystemSpecialist
cloud ArchivesSpace
cloud OCLC
cloud Primo
collections ArchitectureScans
collections BuildingSouthBend
collections DiscoveryCollection
collections MARCRecords
collections RomeApp
folder LDrive
package Aleph
package CORAL
package CurateND
package FTPPrimoJob
package LibraryWebServer
package MARCModifier
package SFX

ArchitectureScans - -> LibraryWebServer
BuildingSouthBend - -> LibraryWebServer
MetadataDiscoverySystemSpecialist - -> MARCModifier
MetadataDiscoverySystemSpecialist - -> CORAL : For correspondence\nw/ vendor
DiscoveryCollection - -> Primo
FTPPrimoJob - -> Aleph
FTPPrimoJob - -> Primo
MARCModifier - -> MARCRecords
MARCRecords - -> LDrive
OCLC - -> MARCRecords
Primo - -> ArchivesSpace
Primo - -> SFX
RomeApp - -> LibraryWebServer
SFX - -> CurateND


@enduml

PlantUML version 1.2019.10(Fri Sep 13 16:53:03 EDT 2019)
(GPL source distribution)
Java Runtime: Java(TM) SE Runtime Environment
JVM: Java HotSpot(TM) 64-Bit Server VM
Java Version: 1.8.0_102-b14
Operating System: Mac OS X
Default Encoding: UTF-8
Language: en
Country: US
--></g></svg>