<?xml version="1.0" encoding="UTF-8" standalone="no"?><svg xmlns="http://www.w3.org/2000/svg" xmlns:xlink="http://www.w3.org/1999/xlink" contentScriptType="application/ecmascript" contentStyleType="text/css" height="382px" preserveAspectRatio="none" style="width:673px;height:382px;" version="1.1" viewBox="0 0 673 382"
    width="673px" zoomAndPan="magnify"><defs><filter height="300%" id="fcsahyzh7255n" width="300%" x="-1" y="-1"><feGaussianBlur result="blurOut" stdDeviation="2.0"/><feColorMatrix in="blurOut" result="blurOut2" type="matrix" values="0 0 0 0 0 0 0 0 0 0 0 0 0 0 0 0 0 0 .4 0"/><feOffset dx="4.0" dy="4.0" in="blurOut2" result="blurOut3"/><feBlend in="SourceGraphic" in2="blurOut3" mode="normal"/></filter></defs><g><text fill="#888888" font-family="sans-serif" font-size="10" lengthAdjust="spacingAndGlyphs" textLength="19" x="642" y="9.668">DAS</text><!--MD5=[fa8019ea18872dd8c4c2f138e2281076]
entity Aleph--><polygon fill="#FEFECE" filter="url(#fcsahyzh7255n)" points="6,122.2773,53,122.2773,60,144.7656,77,144.7656,77,161.7656,6,161.7656,6,122.2773" style="stroke: #000000; stroke-width: 1.5;"/><line style="stroke: #000000; stroke-width: 1.5;" x1="6" x2="60" y1="144.7656" y2="144.7656"/><text fill="#000000" font-family="sans-serif" font-size="14" font-weight="bold" lengthAdjust="spacingAndGlyphs" textLength="41" x="10" y="138.8125">Aleph</text><!--MD5=[228ec8783b9b5f78ee89ff74b10ee5e2]
entity FTPPrimoJob--><polygon fill="#FEFECE" filter="url(#fcsahyzh7255n)" points="32.5,19.7773,132.5,19.7773,139.5,42.2656,156.5,42.2656,156.5,59.2656,32.5,59.2656,32.5,19.7773" style="stroke: #000000; stroke-width: 1.5;"/><line style="stroke: #000000; stroke-width: 1.5;" x1="32.5" x2="139.5" y1="42.2656" y2="42.2656"/><text fill="#000000" font-family="sans-serif" font-size="14" font-weight="bold" lengthAdjust="spacingAndGlyphs" textLength="94" x="36.5" y="36.3125">FTPPrimoJob</text><!--MD5=[cdf75e50b2d53bdea5de831987a8ed7a]
entity Primo--><path d="M121.6329,128.7078 C125.3335,121.9946 130.0649,120.5316 135.7605,126.4823 C139.1253,119.7391 143.8341,120.1334 148.6626,124.8318 C153.9484,118.456 159.7946,118.383 163.1981,126.6947 C168.397,120.466 172.8876,122.3374 176.1746,128.6699 C183.5534,132.6294 184.2282,137.3579 177.8279,142.9165 C184.8534,148.8106 183.7635,155.0379 175.7449,158.9814 C171.8772,165.2985 166.1044,165.8065 162.1302,159.0927 C158.6879,167.0873 152.5191,166.4564 147.8687,160.3112 C144.038,167.0036 138.719,166.485 134.6713,160.5378 C129.1508,165.4609 124.7428,165.8252 120.9635,158.5768 C113.4691,155.1022 114.1136,148.3577 119.7001,143.7672 C112.7064,138.1214 114.8989,132.5917 121.6329,128.7078 " fill="#FEFECE" style="stroke: #000000; stroke-width: 1.5;"/><text fill="#000000" font-family="sans-serif" font-size="14" lengthAdjust="spacingAndGlyphs" textLength="40" x="127.5" y="147.3125">Primo</text><!--MD5=[cd7baa891d8393968d8530071e9b76eb]
entity SFX--><polygon fill="#FEFECE" filter="url(#fcsahyzh7255n)" points="57,228.2773,88,228.2773,95,250.7656,112,250.7656,112,267.7656,57,267.7656,57,228.2773" style="stroke: #000000; stroke-width: 1.5;"/><line style="stroke: #000000; stroke-width: 1.5;" x1="57" x2="95" y1="250.7656" y2="250.7656"/><text fill="#000000" font-family="sans-serif" font-size="14" font-weight="bold" lengthAdjust="spacingAndGlyphs" textLength="25" x="61" y="244.8125">SFX</text><!--MD5=[b43e967606b105da0844e0dce872e0b3]
entity CurateND--><polygon fill="#FEFECE" filter="url(#fcsahyzh7255n)" points="35,330.7773,110,330.7773,117,353.2656,134,353.2656,134,370.2656,35,370.2656,35,330.7773" style="stroke: #000000; stroke-width: 1.5;"/><line style="stroke: #000000; stroke-width: 1.5;" x1="35" x2="117" y1="353.2656" y2="353.2656"/><text fill="#000000" font-family="sans-serif" font-size="14" font-weight="bold" lengthAdjust="spacingAndGlyphs" textLength="69" x="39" y="347.3125">CurateND</text><!--MD5=[c16568e590649fdf03b8baed12c39504]
entity ArchivesSpace--><path d="M156.9748,234.2591 C159.4415,228.8422 163.5232,229.2939 166.7953,233.4313 C170.9985,226.9123 175.4778,228.1365 179.803,233.2955 C182.6167,227.0989 185.9824,227.6936 190.3549,231.6803 C193.2101,225.1039 198.998,225.2971 202.4959,231.0471 C204.9139,225.3149 209.3437,224.6239 212.9647,229.9034 C217.6441,225.0502 221.3178,226.5064 223.8046,232.1646 C227.559,227.7374 230.7615,226.8173 234.1035,232.5814 C237.2195,227.4416 242.6668,227.2508 245.5844,232.7946 C248.9106,227.8392 254.9887,227.2173 258.0466,233.1031 C262.7237,228.0184 266.3023,228.9627 269.6404,234.5568 C277.9941,237.8689 278.9157,243.5861 273.2503,250.1448 C278.808,256.3057 277.3048,262.8175 268.8978,264.8432 C265.2441,270.138 261.3225,270.4887 257.9194,264.5974 C255.4997,270.2384 250.0755,270.6465 246.6195,265.7039 C243.5712,270.3231 239.0037,270.8775 236.0965,265.5545 C233.5863,272.7973 227.8217,271.7424 223.7015,267.256 C220.6271,272.4703 215.9249,273.4072 211.8079,268.4787 C208.0123,272.4286 204.4628,273.0496 201.6353,267.4476 C197.4815,272.6264 193.1111,272.8916 189.9102,266.4833 C187.2423,271.7698 182.419,271.1765 180.0009,266.2411 C175.6536,271.1095 171.004,270.5194 168.0954,264.6465 C164.208,269.5198 158.5251,269.8083 155.806,263.3765 C148.6614,260.1156 146.2345,253.4492 153.8135,248.249 C148.9857,242.0714 148.8762,237.5158 156.9748,234.2591 " fill="#FEFECE" style="stroke: #000000; stroke-width: 1.5;"/><text fill="#000000" font-family="sans-serif" font-size="14" lengthAdjust="spacingAndGlyphs" textLength="98" x="162.5" y="253.3125">ArchivesSpace</text><!--MD5=[86c12b67d7a38ac36a5e173700b378d3]
entity LibraryWebServer--><polygon fill="#FEFECE" filter="url(#fcsahyzh7255n)" points="308.5,122.2773,438.5,122.2773,445.5,144.7656,462.5,144.7656,462.5,161.7656,308.5,161.7656,308.5,122.2773" style="stroke: #000000; stroke-width: 1.5;"/><line style="stroke: #000000; stroke-width: 1.5;" x1="308.5" x2="445.5" y1="144.7656" y2="144.7656"/><text fill="#000000" font-family="sans-serif" font-size="14" font-weight="bold" lengthAdjust="spacingAndGlyphs" textLength="124" x="312.5" y="138.8125">LibraryWebServer</text><!--MD5=[4ff4fbee60da19e9675f25942f37da42]
entity RomeApp--><rect fill="#FEFECE" filter="url(#fcsahyzh7255n)" height="32.4883" style="stroke: #000000; stroke-width: 1.5;" width="83" x="196" y="25.2773"/><rect fill="#FEFECE" height="32.4883" style="stroke: #000000; stroke-width: 1.5;" width="83" x="192" y="21.2773"/><text fill="#000000" font-family="sans-serif" font-size="14" lengthAdjust="spacingAndGlyphs" textLength="67" x="200" y="42.8125">RomeApp</text><!--MD5=[28ed5d568ca4de22532d41e00e23de18]
entity ArchitectureScans--><rect fill="#FEFECE" filter="url(#fcsahyzh7255n)" height="32.4883" style="stroke: #000000; stroke-width: 1.5;" width="139" x="318" y="25.2773"/><rect fill="#FEFECE" height="32.4883" style="stroke: #000000; stroke-width: 1.5;" width="139" x="314" y="21.2773"/><text fill="#000000" font-family="sans-serif" font-size="14" lengthAdjust="spacingAndGlyphs" textLength="123" x="322" y="42.8125">ArchitectureScans</text><!--MD5=[7750bd58bd46abf53a82e63f0d681019]
entity BuildingSouthBend--><rect fill="#FEFECE" filter="url(#fcsahyzh7255n)" height="32.4883" style="stroke: #000000; stroke-width: 1.5;" width="146" x="496.5" y="25.2773"/><rect fill="#FEFECE" height="32.4883" style="stroke: #000000; stroke-width: 1.5;" width="146" x="492.5" y="21.2773"/><text fill="#000000" font-family="sans-serif" font-size="14" lengthAdjust="spacingAndGlyphs" textLength="130" x="500.5" y="42.8125">BuildingSouthBend</text><!--MD5=[51bcecc18d4ad506c934259be5db1d90]
link FTPPrimoJob to Aleph--><path d="M84.2811,59.0403 C75.7025,75.631 63.4075,99.4091 54.1977,117.2204 " fill="none" id="FTPPrimoJob-&gt;Aleph" style="stroke: #A80036; stroke-width: 1.0;"/><polygon fill="#A80036" points="51.6876,122.0749,59.3745,115.9177,53.9841,117.6336,52.2683,112.2432,51.6876,122.0749" style="stroke: #A80036; stroke-width: 1.0;"/><!--MD5=[2689c323771d09555da98e5778148925]
link FTPPrimoJob to Primo--><path d="M104.7189,59.0403 C112.7476,74.5675 124.0315,96.3901 132.9949,113.7251 " fill="none" id="FTPPrimoJob-&gt;Primo" style="stroke: #A80036; stroke-width: 1.0;"/><polygon fill="#A80036" points="135.4569,118.4864,134.8762,108.6547,133.1604,114.0451,127.77,112.3292,135.4569,118.4864" style="stroke: #A80036; stroke-width: 1.0;"/><!--MD5=[0d6e887073f7f2133ca205288096924e]
link Primo to SFX--><path d="M133.8299,164.7777 C123.4878,182.1788 109.3222,206.013 98.8235,223.6775 " fill="none" id="Primo-&gt;SFX" style="stroke: #A80036; stroke-width: 1.0;"/><polygon fill="#A80036" points="96.2379,228.0279,104.2747,222.3349,98.7925,223.7298,97.3976,218.2476,96.2379,228.0279" style="stroke: #A80036; stroke-width: 1.0;"/><!--MD5=[10508414d573d1a6fe9e01184a264081]
link Primo to ArchivesSpace--><path d="M161.387,164.7777 C171.1322,180.9182 184.2192,202.5935 194.5755,219.7461 " fill="none" id="Primo-&gt;ArchivesSpace" style="stroke: #A80036; stroke-width: 1.0;"/><polygon fill="#A80036" points="197.419,224.4557,196.1914,214.6837,194.8346,220.1754,189.3429,218.8187,197.419,224.4557" style="stroke: #A80036; stroke-width: 1.0;"/><!--MD5=[47391374410491a16bf327cffeb10be5]
link SFX to CurateND--><path d="M84.5,267.5403 C84.5,283.9892 84.5,307.5031 84.5,325.2624 " fill="none" id="SFX-&gt;CurateND" style="stroke: #A80036; stroke-width: 1.0;"/><polygon fill="#A80036" points="84.5,330.5749,88.5,321.5749,84.5,325.5749,80.5,321.5749,84.5,330.5749" style="stroke: #A80036; stroke-width: 1.0;"/><!--MD5=[5b868eca1e141dfc0d4003fc75759e31]
link RomeApp to LibraryWebServer--><path d="M261.9717,57.3663 C287.1994,74.6052 325.2648,100.6166 352.4676,119.2052 " fill="none" id="RomeApp-&gt;LibraryWebServer" style="stroke: #A80036; stroke-width: 1.0;"/><polygon fill="#A80036" points="356.7366,122.1223,351.5626,113.742,352.6084,119.3014,347.049,120.3472,356.7366,122.1223" style="stroke: #A80036; stroke-width: 1.0;"/><!--MD5=[4ef14cc5a0bfe5f5fac65cf6de5f638b]
link ArchitectureScans to LibraryWebServer--><path d="M385.5,57.6022 C385.5,74.0927 385.5,98.4698 385.5,116.7523 " fill="none" id="ArchitectureScans-&gt;LibraryWebServer" style="stroke: #A80036; stroke-width: 1.0;"/><polygon fill="#A80036" points="385.5,122.215,389.5,113.215,385.5,117.215,381.5,113.215,385.5,122.215" style="stroke: #A80036; stroke-width: 1.0;"/><!--MD5=[21ab14242e920cb893f9f5e8d4747cff]
link BuildingSouthBend to LibraryWebServer--><path d="M535.381,57.3663 C504.5194,74.7471 457.824,101.0454 424.767,119.6626 " fill="none" id="BuildingSouthBend-&gt;LibraryWebServer" style="stroke: #A80036; stroke-width: 1.0;"/><polygon fill="#A80036" points="420.3996,122.1223,430.2043,121.1912,424.7562,119.6688,426.2786,114.2206,420.3996,122.1223" style="stroke: #A80036; stroke-width: 1.0;"/><!--MD5=[fa468387082c55854ee56e4155af1f82]
@startuml

header DAS

package Aleph
package FTPPrimoJob
cloud Primo
package SFX
package CurateND
cloud ArchivesSpace

FTPPrimoJob - -> Aleph
FTPPrimoJob - -> Primo
Primo - -> SFX
Primo - -> ArchivesSpace
SFX - -> CurateND


package LibraryWebServer
collections RomeApp
collections ArchitectureScans
collections BuildingSouthBend

RomeApp - -> LibraryWebServer
ArchitectureScans - -> LibraryWebServer
BuildingSouthBend - -> LibraryWebServer

@enduml

PlantUML version 1.2019.10(Fri Sep 13 16:53:03 EDT 2019)
(GPL source distribution)
Java Runtime: Java(TM) SE Runtime Environment
JVM: Java HotSpot(TM) 64-Bit Server VM
Java Version: 1.8.0_102-b14
Operating System: Mac OS X
Default Encoding: UTF-8
Language: en
Country: US
--></g></svg>