<?xml version="1.0" encoding="UTF-8" standalone="no"?><svg xmlns="http://www.w3.org/2000/svg" xmlns:xlink="http://www.w3.org/1999/xlink" contentScriptType="application/ecmascript" contentStyleType="text/css" height="370px" preserveAspectRatio="none" style="width:653px;height:370px;" version="1.1" viewBox="0 0 653 370"
    width="653px" zoomAndPan="magnify"><defs><filter height="300%" id="fyiwz0o54gaoy" width="300%" x="-1" y="-1"><feGaussianBlur result="blurOut" stdDeviation="2.0"/><feColorMatrix in="blurOut" result="blurOut2" type="matrix" values="0 0 0 0 0 0 0 0 0 0 0 0 0 0 0 0 0 0 .4 0"/><feOffset dx="4.0" dy="4.0" in="blurOut2" result="blurOut3"/><feBlend in="SourceGraphic" in2="blurOut3" mode="normal"/></filter></defs><g><!--MD5=[fa8019ea18872dd8c4c2f138e2281076]
entity Aleph--><polygon fill="#FEFECE" filter="url(#fyiwz0o54gaoy)" points="6,110.5,53,110.5,60,132.9883,77,132.9883,77,149.9883,6,149.9883,6,110.5" style="stroke: #000000; stroke-width: 1.5;"/><line style="stroke: #000000; stroke-width: 1.5;" x1="6" x2="60" y1="132.9883" y2="132.9883"/><text fill="#000000" font-family="sans-serif" font-size="14" font-weight="bold" lengthAdjust="spacingAndGlyphs" textLength="41" x="10" y="127.0352">Aleph</text><!--MD5=[228ec8783b9b5f78ee89ff74b10ee5e2]
entity FTPPrimoJob--><polygon fill="#FEFECE" filter="url(#fyiwz0o54gaoy)" points="32.5,8,132.5,8,139.5,30.4883,156.5,30.4883,156.5,47.4883,32.5,47.4883,32.5,8" style="stroke: #000000; stroke-width: 1.5;"/><line style="stroke: #000000; stroke-width: 1.5;" x1="32.5" x2="139.5" y1="30.4883" y2="30.4883"/><text fill="#000000" font-family="sans-serif" font-size="14" font-weight="bold" lengthAdjust="spacingAndGlyphs" textLength="94" x="36.5" y="24.5352">FTPPrimoJob</text><!--MD5=[cdf75e50b2d53bdea5de831987a8ed7a]
entity Primo--><path d="M121.6329,116.9305 C125.3335,110.2172 130.0649,108.7542 135.7605,114.7049 C139.1253,107.9618 143.8341,108.3561 148.6626,113.0545 C153.9484,106.6787 159.7946,106.6056 163.1981,114.9173 C168.397,108.6886 172.8876,110.5601 176.1746,116.8925 C183.5534,120.8521 184.2282,125.5806 177.8279,131.1392 C184.8534,137.0333 183.7635,143.2605 175.7449,147.204 C171.8772,153.5211 166.1044,154.0292 162.1302,147.3154 C158.6879,155.31 152.5191,154.679 147.8687,148.5338 C144.038,155.2262 138.719,154.7077 134.6713,148.7604 C129.1508,153.6835 124.7428,154.0479 120.9635,146.7994 C113.4691,143.3249 114.1136,136.5803 119.7001,131.9898 C112.7064,126.3441 114.8989,120.8144 121.6329,116.9305 " fill="#FEFECE" style="stroke: #000000; stroke-width: 1.5;"/><text fill="#000000" font-family="sans-serif" font-size="14" lengthAdjust="spacingAndGlyphs" textLength="40" x="127.5" y="135.5352">Primo</text><!--MD5=[cd7baa891d8393968d8530071e9b76eb]
entity SFX--><polygon fill="#FEFECE" filter="url(#fyiwz0o54gaoy)" points="57,216.5,88,216.5,95,238.9883,112,238.9883,112,255.9883,57,255.9883,57,216.5" style="stroke: #000000; stroke-width: 1.5;"/><line style="stroke: #000000; stroke-width: 1.5;" x1="57" x2="95" y1="238.9883" y2="238.9883"/><text fill="#000000" font-family="sans-serif" font-size="14" font-weight="bold" lengthAdjust="spacingAndGlyphs" textLength="25" x="61" y="233.0352">SFX</text><!--MD5=[b43e967606b105da0844e0dce872e0b3]
entity CurateND--><polygon fill="#FEFECE" filter="url(#fyiwz0o54gaoy)" points="35,319,110,319,117,341.4883,134,341.4883,134,358.4883,35,358.4883,35,319" style="stroke: #000000; stroke-width: 1.5;"/><line style="stroke: #000000; stroke-width: 1.5;" x1="35" x2="117" y1="341.4883" y2="341.4883"/><text fill="#000000" font-family="sans-serif" font-size="14" font-weight="bold" lengthAdjust="spacingAndGlyphs" textLength="69" x="39" y="335.5352">CurateND</text><!--MD5=[c16568e590649fdf03b8baed12c39504]
entity ArchivesSpace--><path d="M156.9748,222.4818 C159.4415,217.0649 163.5232,217.5165 166.7953,221.654 C170.9985,215.135 175.4778,216.3592 179.803,221.5181 C182.6167,215.3216 185.9824,215.9162 190.3549,219.9029 C193.2101,213.3266 198.998,213.5197 202.4959,219.2698 C204.9139,213.5376 209.3437,212.8466 212.9647,218.1261 C217.6441,213.2729 221.3178,214.729 223.8046,220.3873 C227.559,215.96 230.7615,215.04 234.1035,220.8041 C237.2195,215.6643 242.6668,215.4735 245.5844,221.0173 C248.9106,216.0618 254.9887,215.4399 258.0466,221.3258 C262.7237,216.241 266.3023,217.1854 269.6404,222.7795 C277.9941,226.0915 278.9157,231.8088 273.2503,238.3674 C278.808,244.5284 277.3048,251.0402 268.8978,253.0659 C265.2441,258.3606 261.3225,258.7113 257.9194,252.82 C255.4997,258.4611 250.0755,258.8691 246.6195,253.9265 C243.5712,258.5458 239.0037,259.1002 236.0965,253.7772 C233.5863,261.0199 227.8217,259.965 223.7015,255.4787 C220.6271,260.693 215.9249,261.6299 211.8079,256.7014 C208.0123,260.6512 204.4628,261.2722 201.6353,255.6703 C197.4815,260.849 193.1111,261.1143 189.9102,254.7059 C187.2423,259.9925 182.419,259.3992 180.0009,254.4638 C175.6536,259.3322 171.004,258.742 168.0954,252.8691 C164.208,257.7425 158.5251,258.031 155.806,251.5991 C148.6614,248.3382 146.2345,241.6718 153.8135,236.4716 C148.9857,230.2941 148.8762,225.7384 156.9748,222.4818 " fill="#FEFECE" style="stroke: #000000; stroke-width: 1.5;"/><text fill="#000000" font-family="sans-serif" font-size="14" lengthAdjust="spacingAndGlyphs" textLength="98" x="162.5" y="241.5352">ArchivesSpace</text><!--MD5=[86c12b67d7a38ac36a5e173700b378d3]
entity LibraryWebServer--><polygon fill="#FEFECE" filter="url(#fyiwz0o54gaoy)" points="308.5,110.5,438.5,110.5,445.5,132.9883,462.5,132.9883,462.5,149.9883,308.5,149.9883,308.5,110.5" style="stroke: #000000; stroke-width: 1.5;"/><line style="stroke: #000000; stroke-width: 1.5;" x1="308.5" x2="445.5" y1="132.9883" y2="132.9883"/><text fill="#000000" font-family="sans-serif" font-size="14" font-weight="bold" lengthAdjust="spacingAndGlyphs" textLength="124" x="312.5" y="127.0352">LibraryWebServer</text><!--MD5=[4ff4fbee60da19e9675f25942f37da42]
entity RomeApp--><rect fill="#FEFECE" filter="url(#fyiwz0o54gaoy)" height="32.4883" style="stroke: #000000; stroke-width: 1.5;" width="83" x="196" y="13.5"/><rect fill="#FEFECE" height="32.4883" style="stroke: #000000; stroke-width: 1.5;" width="83" x="192" y="9.5"/><text fill="#000000" font-family="sans-serif" font-size="14" lengthAdjust="spacingAndGlyphs" textLength="67" x="200" y="31.0352">RomeApp</text><!--MD5=[28ed5d568ca4de22532d41e00e23de18]
entity ArchitectureScans--><rect fill="#FEFECE" filter="url(#fyiwz0o54gaoy)" height="32.4883" style="stroke: #000000; stroke-width: 1.5;" width="139" x="318" y="13.5"/><rect fill="#FEFECE" height="32.4883" style="stroke: #000000; stroke-width: 1.5;" width="139" x="314" y="9.5"/><text fill="#000000" font-family="sans-serif" font-size="14" lengthAdjust="spacingAndGlyphs" textLength="123" x="322" y="31.0352">ArchitectureScans</text><!--MD5=[7750bd58bd46abf53a82e63f0d681019]
entity BuildingSouthBend--><rect fill="#FEFECE" filter="url(#fyiwz0o54gaoy)" height="32.4883" style="stroke: #000000; stroke-width: 1.5;" width="146" x="496.5" y="13.5"/><rect fill="#FEFECE" height="32.4883" style="stroke: #000000; stroke-width: 1.5;" width="146" x="492.5" y="9.5"/><text fill="#000000" font-family="sans-serif" font-size="14" lengthAdjust="spacingAndGlyphs" textLength="130" x="500.5" y="31.0352">BuildingSouthBend</text><!--MD5=[51bcecc18d4ad506c934259be5db1d90]
link FTPPrimoJob to Aleph--><path d="M84.2811,47.263 C75.7025,63.8537 63.4075,87.6318 54.1977,105.4431 " fill="none" id="FTPPrimoJob-&gt;Aleph" style="stroke: #A80036; stroke-width: 1.0;"/><polygon fill="#A80036" points="51.6876,110.2976,59.3745,104.1404,53.9841,105.8562,52.2683,100.4659,51.6876,110.2976" style="stroke: #A80036; stroke-width: 1.0;"/><!--MD5=[2689c323771d09555da98e5778148925]
link FTPPrimoJob to Primo--><path d="M104.7189,47.263 C112.7476,62.7902 124.0315,84.6128 132.9949,101.9478 " fill="none" id="FTPPrimoJob-&gt;Primo" style="stroke: #A80036; stroke-width: 1.0;"/><polygon fill="#A80036" points="135.4569,106.7091,134.8762,96.8774,133.1604,102.2677,127.77,100.5519,135.4569,106.7091" style="stroke: #A80036; stroke-width: 1.0;"/><!--MD5=[0d6e887073f7f2133ca205288096924e]
link Primo to SFX--><path d="M133.8299,153.0004 C123.4878,170.4015 109.3222,194.2357 98.8235,211.9002 " fill="none" id="Primo-&gt;SFX" style="stroke: #A80036; stroke-width: 1.0;"/><polygon fill="#A80036" points="96.2379,216.2506,104.2747,210.5576,98.7925,211.9524,97.3976,206.4703,96.2379,216.2506" style="stroke: #A80036; stroke-width: 1.0;"/><!--MD5=[10508414d573d1a6fe9e01184a264081]
link Primo to ArchivesSpace--><path d="M161.387,153.0004 C171.1322,169.1409 184.2192,190.8162 194.5755,207.9688 " fill="none" id="Primo-&gt;ArchivesSpace" style="stroke: #A80036; stroke-width: 1.0;"/><polygon fill="#A80036" points="197.419,212.6784,196.1914,202.9063,194.8346,208.3981,189.3429,207.0413,197.419,212.6784" style="stroke: #A80036; stroke-width: 1.0;"/><!--MD5=[47391374410491a16bf327cffeb10be5]
link SFX to CurateND--><path d="M84.5,255.763 C84.5,272.2119 84.5,295.7258 84.5,313.4851 " fill="none" id="SFX-&gt;CurateND" style="stroke: #A80036; stroke-width: 1.0;"/><polygon fill="#A80036" points="84.5,318.7976,88.5,309.7976,84.5,313.7976,80.5,309.7976,84.5,318.7976" style="stroke: #A80036; stroke-width: 1.0;"/><!--MD5=[5b868eca1e141dfc0d4003fc75759e31]
link RomeApp to LibraryWebServer--><path d="M261.9717,45.589 C287.1994,62.8279 325.2648,88.8393 352.4676,107.4279 " fill="none" id="RomeApp-&gt;LibraryWebServer" style="stroke: #A80036; stroke-width: 1.0;"/><polygon fill="#A80036" points="356.7366,110.345,351.5626,101.9647,352.6084,107.524,347.049,108.5699,356.7366,110.345" style="stroke: #A80036; stroke-width: 1.0;"/><!--MD5=[4ef14cc5a0bfe5f5fac65cf6de5f638b]
link ArchitectureScans to LibraryWebServer--><path d="M385.5,45.8249 C385.5,62.3154 385.5,86.6925 385.5,104.975 " fill="none" id="ArchitectureScans-&gt;LibraryWebServer" style="stroke: #A80036; stroke-width: 1.0;"/><polygon fill="#A80036" points="385.5,110.4377,389.5,101.4377,385.5,105.4377,381.5,101.4377,385.5,110.4377" style="stroke: #A80036; stroke-width: 1.0;"/><!--MD5=[21ab14242e920cb893f9f5e8d4747cff]
link BuildingSouthBend to LibraryWebServer--><path d="M535.381,45.589 C504.5194,62.9698 457.824,89.2681 424.767,107.8853 " fill="none" id="BuildingSouthBend-&gt;LibraryWebServer" style="stroke: #A80036; stroke-width: 1.0;"/><polygon fill="#A80036" points="420.3996,110.345,430.2043,109.4138,424.7562,107.8914,426.2786,102.4433,420.3996,110.345" style="stroke: #A80036; stroke-width: 1.0;"/><!--MD5=[96d11e24c6a89a20c494849d322d59d5]
@startuml

package Aleph
package FTPPrimoJob
cloud Primo
package SFX
package CurateND
cloud ArchivesSpace

FTPPrimoJob - -> Aleph
FTPPrimoJob - -> Primo
Primo - -> SFX
Primo - -> ArchivesSpace
SFX - -> CurateND


package LibraryWebServer
collections RomeApp
collections ArchitectureScans
collections BuildingSouthBend

RomeApp - -> LibraryWebServer
ArchitectureScans - -> LibraryWebServer
BuildingSouthBend - -> LibraryWebServer

@enduml

PlantUML version 1.2019.10(Fri Sep 13 16:53:03 EDT 2019)
(GPL source distribution)
Java Runtime: Java(TM) SE Runtime Environment
JVM: Java HotSpot(TM) 64-Bit Server VM
Java Version: 1.8.0_102-b14
Operating System: Mac OS X
Default Encoding: UTF-8
Language: en
Country: US
--></g></svg>