<?xml version="1.0" encoding="UTF-8" standalone="no"?><svg xmlns="http://www.w3.org/2000/svg" xmlns:xlink="http://www.w3.org/1999/xlink" contentScriptType="application/ecmascript" contentStyleType="text/css" height="342px" preserveAspectRatio="none" style="width:878px;height:342px;" version="1.1" viewBox="0 0 878 342"
    width="878px" zoomAndPan="magnify"><defs><filter height="300%" id="f1378as74lln8k" width="300%" x="-1" y="-1"><feGaussianBlur result="blurOut" stdDeviation="2.0"/><feColorMatrix in="blurOut" result="blurOut2" type="matrix" values="0 0 0 0 0 0 0 0 0 0 0 0 0 0 0 0 0 0 .4 0"/><feOffset dx="4.0" dy="4.0" in="blurOut2" result="blurOut3"/><feBlend in="SourceGraphic" in2="blurOut3" mode="normal"/></filter></defs><g><text fill="#888888" font-family="sans-serif" font-size="10" lengthAdjust="spacingAndGlyphs" textLength="38" x="828" y="9.668">MARBLE</text><!--MD5=[fc4414e1a0f9ca312e43d2f0cdd4e77f]
cluster Embark--><polygon fill="#FFFFFF" filter="url(#f1378as74lln8k)" points="14,153.7773,74,153.7773,81,176.2656,218,176.2656,218,330.7773,14,330.7773,14,153.7773" style="stroke: #000000; stroke-width: 1.5;"/><line style="stroke: #000000; stroke-width: 1.5;" x1="14" x2="81" y1="176.2656" y2="176.2656"/><text fill="#000000" font-family="sans-serif" font-size="14" font-weight="bold" lengthAdjust="spacingAndGlyphs" textLength="54" x="18" y="169.3125">Embark</text><!--MD5=[d25f489bf1ac1b32f2d4fcfdf5777d6d]
cluster CatDV--><polygon fill="#FFFFFF" filter="url(#f1378as74lln8k)" points="705,143.7773,756,143.7773,763,166.2656,840,166.2656,840,234.7773,705,234.7773,705,143.7773" style="stroke: #000000; stroke-width: 1.5;"/><line style="stroke: #000000; stroke-width: 1.5;" x1="705" x2="763" y1="166.2656" y2="166.2656"/><text fill="#000000" font-family="sans-serif" font-size="14" font-weight="bold" lengthAdjust="spacingAndGlyphs" textLength="45" x="709" y="159.3125">CatDV</text><!--MD5=[0e70f43aa3bdc458b330df4dcb1d8761]
cluster SniteMuseum--><polygon fill="#FFFFFF" filter="url(#f1378as74lln8k)" points="584,37.7773,687,37.7773,694,60.2656,736,60.2656,736,108.7773,584,108.7773,584,37.7773" style="stroke: #000000; stroke-width: 1.5;"/><line style="stroke: #000000; stroke-width: 1.5;" x1="584" x2="694" y1="60.2656" y2="60.2656"/><text fill="#000000" font-family="sans-serif" font-size="14" font-weight="bold" lengthAdjust="spacingAndGlyphs" textLength="97" x="588" y="53.3125">SniteMuseum</text><!--MD5=[ad4c83c7dcc2fc6a16796d32a33b4631]
cluster Google--><path d="M234.6279,155.3856 C242.1945,142.4646 250.9158,138.2619 262.3425,151.2577 C270.5647,135.9199 282.0058,139.2385 290.5762,150.8935 C297.5039,138.3941 307.3079,136.7262 315.5531,149.5965 C326.0469,139.5183 334.2423,138.9794 341.1942,153.3163 C345.9425,136.2479 359.9492,135.0523 370.2463,147.9339 C378.4806,136.7973 391.03,140.2906 396.1208,151.5634 C400.659,138.1829 413.3799,135.9416 422.5919,146.3661 C431.1926,133.6469 440.9871,135.3503 448.1107,147.8603 C455.627,135.6186 468.8464,134.379 476.019,148.228 C486.0087,136.5198 494.1737,135.8512 502.4464,149.9841 C510.8953,136.7183 521.844,138.7213 528.6985,151.5859 C536.8502,138.5569 548.2507,140.2858 555.2658,152.7696 C561.3577,140.9727 572.8732,138.9058 580.4228,151.2506 C588.7427,140.4773 600.8292,139.8042 607.227,153.3676 C630.4817,159.8707 637.2683,173.541 621.0976,193.6272 C632.0278,206.9848 626.4807,223.0175 609.7414,226.9437 C603.304,241.9337 594.4407,244.0824 582.9244,231.9689 C575.3217,244.549 562.8512,243.6109 556.5276,230.6471 C548.4929,242.9507 538.9059,245.8865 528.735,233.0045 C522.0705,248.0348 513.3534,251.0168 501.6601,237.8297 C495.0533,248.0612 483.9011,250.2797 476.9317,238.2322 C469.7056,251.1462 455.5919,251.6465 448.4137,238.1803 C443.3393,253.5794 433.0155,252.6407 423.0907,243.1065 C414.5911,254.4551 406.202,252.6919 398.7023,242 C388.41,254.5462 376.8011,252.8437 371.0911,237.4686 C360.4541,249.4695 349.1429,250.8636 341.6046,234.273 C334.4714,248.4653 325.2895,247.625 315.8006,236.6923 C305.399,248.2096 295.1604,246.0304 289.2007,232.0571 C281.0968,243.4771 273.5146,242.6696 264.636,232.9576 C253.9976,243.2722 241.7298,241.3975 235.6969,227.4617 C218.8503,218.2229 218.3006,201.6212 236.2498,192.9398 C217.0694,183.3752 217.4208,166.5217 234.6279,155.3856 " fill="#FFFFFF" style="stroke: #000000; stroke-width: 1.5;"/><text fill="#000000" font-family="sans-serif" font-size="14" font-weight="bold" lengthAdjust="spacingAndGlyphs" textLength="50" x="395.5" y="170.3125">Google</text><!--MD5=[88656e78e5bedad418341b6ececa151e]
cluster AWS--><path d="M248.9355,38.7171 C251.9752,30.1787 256.6763,29.5905 263.3599,34.9297 C268.4078,26.1057 274.7561,24.4795 280.99,33.7758 C285.5983,26.1542 290.7045,24.2615 296.899,32.1488 C303.1558,23.3542 309.2111,24.7241 315.3473,32.2848 C318.3515,23.7965 327.0023,22.8319 332.6779,29.1601 C337.9666,21.308 342.8383,21.8969 347.7182,29.5565 C352.1114,21.4107 359.8227,19.7906 365.7033,27.912 C369.3716,20.7677 376.9795,18.4822 381.8517,26.6417 C388.6187,20.3193 394.3111,21.2724 398.0917,29.8883 C403.5759,20.4 410.8557,21.1747 415.892,30.3164 C421.1387,22.3187 427.6769,23.8307 431.2703,31.899 C437.1469,24.2376 442.6853,24.2456 447.672,32.7992 C453.686,25.616 461.6034,26.6394 464.0211,36.2916 C469.1988,27.6434 477.5863,29.9517 481.6539,37.5 C489.8471,42.8146 491.0965,50.8357 481.2115,55.7109 C490.8075,60.1516 491.0142,68.0934 483.1756,74.3694 C492.7502,81.2664 491.7879,87.5626 482.746,94.0534 C492.4988,99.7075 491.6132,106.2202 482.9878,112.1202 C477.7478,121.4861 470.4526,120.8621 464.1517,113.3007 C458.6622,120.6682 451.4298,121.2786 446.7082,112.4725 C442.2727,119.7473 437.0157,119.5663 432.3095,112.7492 C428.7193,121.1958 421.6703,124.0023 414.895,116.1529 C409.3859,123.9283 403.6283,123.8397 397.9419,116.3497 C391.8623,124.868 386.2343,123.9125 381.1334,115.3847 C377.6629,123.7731 370.2225,123.2933 365.9413,116.1793 C359.939,124.5831 351.9466,124.4146 347.6136,114.5084 C343.727,122.2732 335.4497,123.2056 330.3341,115.9194 C323.8309,124.6885 317.4953,123.9088 312.8899,114.134 C309.1086,119.8283 302.6705,120.7311 298.786,114.2536 C291.675,124.1385 285.082,122.0436 279.4572,112.7554 C275.5576,119.7337 268.5151,118.8531 264.7668,112.5876 C259.4818,119.7782 251.961,119.6389 247.9416,111.2232 C238.0981,107.9353 236.0587,102.3305 243.5293,94.4798 C233.5498,90.3444 232.806,81.4058 240.4855,74.5706 C232.1359,67.9904 234.0044,59.8677 243.657,56.4357 C236.7215,48.7566 240.2562,41.7445 248.9355,38.7171 " fill="#FFFFFF" style="stroke: #000000; stroke-width: 1.5;"/><text fill="#000000" font-family="sans-serif" font-size="14" font-weight="bold" lengthAdjust="spacingAndGlyphs" textLength="31" x="347.5" y="54.3125">AWS</text><!--MD5=[dbf61eafc424532a3ba88ca08e46dc54]
entity EmbarkMetadata--><rect fill="#FEFECE" filter="url(#f1378as74lln8k)" height="36.4883" style="stroke: #A80036; stroke-width: 1.5;" width="83" x="22.5" y="286.7773"/><rect fill="#FEFECE" height="5" style="stroke: #A80036; stroke-width: 1.5;" width="10" x="17.5" y="291.7773"/><rect fill="#FEFECE" height="5" style="stroke: #A80036; stroke-width: 1.5;" width="10" x="17.5" y="313.2656"/><text fill="#000000" font-family="sans-serif" font-size="14" lengthAdjust="spacingAndGlyphs" textLength="63" x="32.5" y="310.3125">Metadata</text><!--MD5=[66a57b120e4845175d173b70eb7ef9bc]
entity EmbarkImages--><rect fill="#FEFECE" filter="url(#f1378as74lln8k)" height="36.4883" style="stroke: #A80036; stroke-width: 1.5;" width="69" x="140.5" y="286.7773"/><rect fill="#FEFECE" height="5" style="stroke: #A80036; stroke-width: 1.5;" width="10" x="135.5" y="291.7773"/><rect fill="#FEFECE" height="5" style="stroke: #A80036; stroke-width: 1.5;" width="10" x="135.5" y="313.2656"/><text fill="#000000" font-family="sans-serif" font-size="14" lengthAdjust="spacingAndGlyphs" textLength="49" x="150.5" y="310.3125">Images</text><!--MD5=[114578ec70e99a3c89a7785553b99b9d]
entity EmbarkWebKiosk--><rect fill="#FEFECE" filter="url(#f1378as74lln8k)" height="36.4883" style="stroke: #A80036; stroke-width: 1.5;" width="86" x="113" y="180.7773"/><rect fill="#FEFECE" height="5" style="stroke: #A80036; stroke-width: 1.5;" width="10" x="108" y="185.7773"/><rect fill="#FEFECE" height="5" style="stroke: #A80036; stroke-width: 1.5;" width="10" x="108" y="207.2656"/><text fill="#000000" font-family="sans-serif" font-size="14" lengthAdjust="spacingAndGlyphs" textLength="66" x="123" y="204.3125">WebKiosk</text><!--MD5=[cf25d34b6f9695ab689953484c0b6ae1]
entity Storage--><polygon fill="#FEFECE" filter="url(#f1378as74lln8k)" points="713.5,170.7773,759.5,170.7773,766.5,191.7773,796.5,191.7773,796.5,226.7539,713.5,226.7539,713.5,170.7773" style="stroke: #000000; stroke-width: 1.5;"/><line style="stroke: #000000; stroke-width: 1.5;" x1="713.5" x2="766.5" y1="191.7773" y2="191.7773"/><text fill="#000000" font-family="sans-serif" font-size="14" lengthAdjust="spacingAndGlyphs" textLength="53" x="723.5" y="212.3125">Storage</text><!--MD5=[a2b8b719404a802d86071ab6839c88eb]
entity SniteImageProcessing--><rect fill="#FEFECE" filter="url(#f1378as74lln8k)" height="36.4883" style="stroke: #A80036; stroke-width: 1.5;" width="136" x="592" y="64.7773"/><rect fill="#FEFECE" height="5" style="stroke: #A80036; stroke-width: 1.5;" width="10" x="587" y="69.7773"/><rect fill="#FEFECE" height="5" style="stroke: #A80036; stroke-width: 1.5;" width="10" x="587" y="91.2656"/><text fill="#000000" font-family="sans-serif" font-size="14" lengthAdjust="spacingAndGlyphs" textLength="116" x="602" y="88.3125">ImageProcessing</text><!--MD5=[65715c6e91560c5c944709aea6ae40c0]
entity GoogleSniteMetadata--><polygon fill="#FEFECE" filter="url(#f1378as74lln8k)" points="234,170.7773,280,170.7773,287,191.7773,410,191.7773,410,226.7539,234,226.7539,234,170.7773" style="stroke: #000000; stroke-width: 1.5;"/><line style="stroke: #000000; stroke-width: 1.5;" x1="234" x2="287" y1="191.7773" y2="191.7773"/><text fill="#000000" font-family="sans-serif" font-size="14" lengthAdjust="spacingAndGlyphs" textLength="101" x="244" y="212.3125">Snite Metadata</text><!--MD5=[0eb614091b18b649afeee0d10811e76d]
entity GoogleSniteImages--><polygon fill="#FEFECE" filter="url(#f1378as74lln8k)" points="445,170.7773,491,170.7773,498,191.7773,607,191.7773,607,226.7539,445,226.7539,445,170.7773" style="stroke: #000000; stroke-width: 1.5;"/><line style="stroke: #000000; stroke-width: 1.5;" x1="445" x2="498" y1="191.7773" y2="191.7773"/><text fill="#000000" font-family="sans-serif" font-size="14" lengthAdjust="spacingAndGlyphs" textLength="87" x="455" y="212.3125">Snite Images</text><!--MD5=[6c7192638421eaf134d201765ac5db29]
entity S3--><polygon fill="#FEFECE" filter="url(#f1378as74lln8k)" points="432.5,54.7773,478.5,54.7773,485.5,75.7773,479.5,75.7773,479.5,110.7539,432.5,110.7539,432.5,54.7773" style="stroke: #000000; stroke-width: 1.5;"/><line style="stroke: #000000; stroke-width: 1.5;" x1="432.5" x2="485.5" y1="75.7773" y2="75.7773"/><text fill="#000000" font-family="sans-serif" font-size="14" lengthAdjust="spacingAndGlyphs" textLength="17" x="442.5" y="96.3125">S3</text><!--MD5=[8bed2042c423a8785808ac37fd5b9dae]
entity ManifestPipeline--><polygon fill="#FEFECE" filter="url(#f1378as74lln8k)" points="246.5,63.2773,373.5,63.2773,380.5,85.7656,397.5,85.7656,397.5,102.7656,246.5,102.7656,246.5,63.2773" style="stroke: #000000; stroke-width: 1.5;"/><line style="stroke: #000000; stroke-width: 1.5;" x1="246.5" x2="380.5" y1="85.7656" y2="85.7656"/><text fill="#000000" font-family="sans-serif" font-size="14" font-weight="bold" lengthAdjust="spacingAndGlyphs" textLength="121" x="250.5" y="79.8125">ManifestPipeline</text><!--MD5=[5fb76db8bfd867fba67f51af2d8d6b45]
link EmbarkWebKiosk to EmbarkMetadata--><path d="M139.9748,217.2411 C124.2761,235.3287 100.3276,262.9216 83.5247,282.2815 " fill="none" id="EmbarkWebKiosk-&gt;EmbarkMetadata" style="stroke: #A80036; stroke-width: 1.0;"/><polygon fill="#A80036" points="79.8415,286.5251,88.7616,282.3501,83.1189,282.7491,82.7199,277.1063,79.8415,286.5251" style="stroke: #A80036; stroke-width: 1.0;"/><!--MD5=[d7b10d5edf0f2b6f039e11473baf590b]
link EmbarkWebKiosk to EmbarkImages--><path d="M159.3095,217.2411 C162.4972,235.0247 167.3318,261.9968 170.7915,281.2985 " fill="none" id="EmbarkWebKiosk-&gt;EmbarkImages" style="stroke: #A80036; stroke-width: 1.0;"/><polygon fill="#A80036" points="171.7284,286.5251,174.0775,276.9605,170.8461,281.6036,166.2031,278.3722,171.7284,286.5251" style="stroke: #A80036; stroke-width: 1.0;"/><!--MD5=[6407fe868ad1916a03b1b3e82e776b78]
link SniteImageProcessing to GoogleSniteImages--><path d="M639.0625,100.9023 C618.5905,118.6244 586.9979,145.9732 562.407,167.2608 " fill="none" id="SniteImageProcessing-&gt;GoogleSniteImages" style="stroke: #A80036; stroke-width: 1.0;"/><polygon fill="#A80036" points="558.5232,170.6229,567.9457,167.7566,562.3035,167.3504,562.7096,161.7081,558.5232,170.6229" style="stroke: #A80036; stroke-width: 1.0;"/><!--MD5=[d429685e2e0c45d2bd64ecbb77d5783c]
link SniteImageProcessing to EmbarkImages--><path d="M661.4645,100.9122 C662.9671,133.0391 660.9849,199.8486 623,234.7773 C563.7235,289.2846 313.0614,301.3778 214.7746,304.0367 " fill="none" id="SniteImageProcessing-&gt;EmbarkImages" style="stroke: #A80036; stroke-width: 1.0;"/><polygon fill="#A80036" points="209.6471,304.1706,218.7485,307.9343,214.6454,304.0401,218.5396,299.937,209.6471,304.1706" style="stroke: #A80036; stroke-width: 1.0;"/><!--MD5=[faa46d1790d5042133f0b162d3032208]
link SniteImageProcessing to CatDV--><path d="M728.0657,95.9884 C743.0125,100.4624 758.8305,106.3884 773.7446,114.2064 C781.2016,118.1155 788.4327,122.4976 795.2159,127.4077 C798.6075,129.8628 801.8871,132.4499 805.0271,135.1758 C806.597,136.5388 808.1321,137.9365 809.6287,139.3698 C810.377,140.0865 811.1158,140.812 811.8444,141.5466 C812.2088,141.9139 812.5706,142.2834 812.9299,142.6552 C813.1095,142.8411 813.2885,143.0275 813.4669,143.2146 C813.5561,143.3081 813.6451,160.1718 813.7339,160.2656 " fill="none" id="SniteImageProcessing-&gt;CatDV" style="stroke: #A80036; stroke-width: 1.0;"/><polygon fill="#A80036" points="813.7339,143.4955,810.4486,134.2108,810.2954,139.8656,804.6407,139.7124,813.7339,143.4955" style="stroke: #A80036; stroke-width: 1.0;"/><!--MD5=[8b522f86597d4ebd3afaee17afa611fa]
link ManifestPipeline to EmbarkWebKiosk--><path d="M284.3153,102.5423 C264.0596,113.738 239.0029,128.5264 218,143.7773 C204.0875,153.8797 189.6548,166.534 178.2186,177.157 " fill="none" id="ManifestPipeline-&gt;EmbarkWebKiosk" style="stroke: #A80036; stroke-width: 1.0;"/><polygon fill="#A80036" points="174.4602,180.6751,183.7643,177.445,178.1105,177.2582,178.2973,171.6045,174.4602,180.6751" style="stroke: #A80036; stroke-width: 1.0;"/><!--MD5=[d3474ec5d35569dbf35a8add805e198d]
link ManifestPipeline to GoogleSniteMetadata--><path d="M322,102.4551 C322,119.736 322,145.2322 322,165.6528 " fill="none" id="ManifestPipeline-&gt;GoogleSniteMetadata" style="stroke: #A80036; stroke-width: 1.0;"/><polygon fill="#A80036" points="322,170.727,326,161.727,322,165.727,318,161.727,322,170.727" style="stroke: #A80036; stroke-width: 1.0;"/><!--MD5=[295061c491542966b8fca7db0c9b92cb]
link ManifestPipeline to GoogleSniteImages--><path d="M356.6058,102.4551 C388.2841,120.4683 435.6603,147.4076 472.2617,168.2202 " fill="none" id="ManifestPipeline-&gt;GoogleSniteImages" style="stroke: #A80036; stroke-width: 1.0;"/><polygon fill="#A80036" points="476.6701,170.727,470.8238,162.8011,472.3237,168.2555,466.8693,169.7554,476.6701,170.727" style="stroke: #A80036; stroke-width: 1.0;"/><!--MD5=[81346a4a1152f00955822f2663d6906a]
@startuml

header MARBLE

package Embark {
  component "Metadata" as EmbarkMetadata
  component "Images" as EmbarkImages
  component "WebKiosk" as EmbarkWebKiosk
  EmbarkWebKiosk - -> EmbarkMetadata
  EmbarkWebKiosk - -> EmbarkImages
}

package CatDV {
  folder Storage
}

package SniteMuseum {
  component ImageProcessing as SniteImageProcessing
}

cloud Google {
  folder "Snite Metadata" as GoogleSniteMetadata
  folder "Snite Images" as GoogleSniteImages
}

SniteImageProcessing - -> GoogleSniteImages
SniteImageProcessing - -> EmbarkImages
SniteImageProcessing - -> CatDV

cloud AWS {
  folder S3
  package ManifestPipeline
}
ManifestPipeline - -> EmbarkWebKiosk
ManifestPipeline - -> GoogleSniteMetadata
ManifestPipeline - -> GoogleSniteImages
@enduml

PlantUML version 1.2019.10(Fri Sep 13 16:53:03 EDT 2019)
(GPL source distribution)
Java Runtime: Java(TM) SE Runtime Environment
JVM: Java HotSpot(TM) 64-Bit Server VM
Java Version: 1.8.0_102-b14
Operating System: Mac OS X
Default Encoding: UTF-8
Language: en
Country: US
--></g></svg>