<?xml version="1.0" encoding="UTF-8" standalone="no"?><svg xmlns="http://www.w3.org/2000/svg" xmlns:xlink="http://www.w3.org/1999/xlink" contentScriptType="application/ecmascript" contentStyleType="text/css" height="331px" preserveAspectRatio="none" style="width:862px;height:331px;" version="1.1" viewBox="0 0 862 331"
    width="862px" zoomAndPan="magnify"><defs><filter height="300%" id="f4wis2cxtss2o" width="300%" x="-1" y="-1"><feGaussianBlur result="blurOut" stdDeviation="2.0"/><feColorMatrix in="blurOut" result="blurOut2" type="matrix" values="0 0 0 0 0 0 0 0 0 0 0 0 0 0 0 0 0 0 .4 0"/><feOffset dx="4.0" dy="4.0" in="blurOut2" result="blurOut3"/><feBlend in="SourceGraphic" in2="blurOut3" mode="normal"/></filter></defs><g><!--MD5=[fc4414e1a0f9ca312e43d2f0cdd4e77f]
cluster Embark--><polygon fill="#FFFFFF" filter="url(#f4wis2cxtss2o)" points="14,142,74,142,81,164.4883,218,164.4883,218,319,14,319,14,142" style="stroke: #000000; stroke-width: 1.5;"/><line style="stroke: #000000; stroke-width: 1.5;" x1="14" x2="81" y1="164.4883" y2="164.4883"/><text fill="#000000" font-family="sans-serif" font-size="14" font-weight="bold" lengthAdjust="spacingAndGlyphs" textLength="54" x="18" y="157.5352">Embark</text><!--MD5=[d25f489bf1ac1b32f2d4fcfdf5777d6d]
cluster CatDV--><polygon fill="#FFFFFF" filter="url(#f4wis2cxtss2o)" points="705,132,756,132,763,154.4883,840,154.4883,840,223,705,223,705,132" style="stroke: #000000; stroke-width: 1.5;"/><line style="stroke: #000000; stroke-width: 1.5;" x1="705" x2="763" y1="154.4883" y2="154.4883"/><text fill="#000000" font-family="sans-serif" font-size="14" font-weight="bold" lengthAdjust="spacingAndGlyphs" textLength="45" x="709" y="147.5352">CatDV</text><!--MD5=[0e70f43aa3bdc458b330df4dcb1d8761]
cluster SniteMuseum--><polygon fill="#FFFFFF" filter="url(#f4wis2cxtss2o)" points="584,26,687,26,694,48.4883,736,48.4883,736,97,584,97,584,26" style="stroke: #000000; stroke-width: 1.5;"/><line style="stroke: #000000; stroke-width: 1.5;" x1="584" x2="694" y1="48.4883" y2="48.4883"/><text fill="#000000" font-family="sans-serif" font-size="14" font-weight="bold" lengthAdjust="spacingAndGlyphs" textLength="97" x="588" y="41.5352">SniteMuseum</text><!--MD5=[ad4c83c7dcc2fc6a16796d32a33b4631]
cluster Google--><path d="M234.6279,143.6083 C242.1945,130.6873 250.9158,126.4846 262.3425,139.4804 C270.5647,124.1425 282.0058,127.4612 290.5762,139.1162 C297.5039,126.6168 307.3079,124.9489 315.5531,137.8192 C326.0469,127.7409 334.2423,127.2021 341.1942,141.539 C345.9425,124.4705 359.9492,123.2749 370.2463,136.1565 C378.4806,125.02 391.03,128.5133 396.1208,139.786 C400.659,126.4055 413.3799,124.1642 422.5919,134.5888 C431.1926,121.8695 440.9871,123.573 448.1107,136.0829 C455.627,123.8413 468.8464,122.6016 476.019,136.4507 C486.0087,124.7425 494.1737,124.0739 502.4464,138.2067 C510.8953,124.941 521.844,126.9439 528.6985,139.8086 C536.8502,126.7796 548.2507,128.5085 555.2658,140.9923 C561.3577,129.1954 572.8732,127.1284 580.4228,139.4732 C588.7427,128.7 600.8292,128.0269 607.227,141.5903 C630.4817,148.0933 637.2683,161.7636 621.0976,181.8499 C632.0278,195.2074 626.4807,211.2402 609.7414,215.1664 C603.304,230.1563 594.4407,232.305 582.9244,220.1916 C575.3217,232.7716 562.8512,231.8336 556.5276,218.8698 C548.4929,231.1733 538.9059,234.1092 528.735,221.2271 C522.0705,236.2575 513.3534,239.2395 501.6601,226.0524 C495.0533,236.2838 483.9011,238.5024 476.9317,226.4549 C469.7056,239.3689 455.5919,239.8692 448.4137,226.403 C443.3393,241.8021 433.0155,240.8634 423.0907,231.3291 C414.5911,242.6778 406.202,240.9145 398.7023,230.2227 C388.41,242.7689 376.8011,241.0664 371.0911,225.6913 C360.4541,237.6921 349.1429,239.0863 341.6046,222.4956 C334.4714,236.6879 325.2895,235.8477 315.8006,224.915 C305.399,236.4322 295.1604,234.2531 289.2007,220.2798 C281.0968,231.6998 273.5146,230.8922 264.636,221.1802 C253.9976,231.4948 241.7298,229.6201 235.6969,215.6843 C218.8503,206.4456 218.3006,189.8439 236.2498,181.1624 C217.0694,171.5979 217.4208,154.7444 234.6279,143.6083 " fill="#FFFFFF" style="stroke: #000000; stroke-width: 1.5;"/><text fill="#000000" font-family="sans-serif" font-size="14" font-weight="bold" lengthAdjust="spacingAndGlyphs" textLength="50" x="395.5" y="158.5352">Google</text><!--MD5=[88656e78e5bedad418341b6ececa151e]
cluster AWS--><path d="M248.9355,26.9398 C251.9752,18.4014 256.6763,17.8132 263.3599,23.1524 C268.4078,14.3283 274.7561,12.7022 280.99,21.9985 C285.5983,14.3769 290.7045,12.4841 296.899,20.3714 C303.1558,11.5768 309.2111,12.9467 315.3473,20.5075 C318.3515,12.0192 327.0023,11.0546 332.6779,17.3828 C337.9666,9.5307 342.8383,10.1195 347.7182,17.7792 C352.1114,9.6334 359.8227,8.0133 365.7033,16.1347 C369.3716,8.9903 376.9795,6.7048 381.8517,14.8643 C388.6187,8.542 394.3111,9.495 398.0917,18.111 C403.5759,8.6226 410.8557,9.3973 415.892,18.539 C421.1387,10.5414 427.6769,12.0534 431.2703,20.1216 C437.1469,12.4603 442.6853,12.4682 447.672,21.0219 C453.686,13.8386 461.6034,14.862 464.0211,24.5142 C469.1988,15.866 477.5863,18.1744 481.6539,25.7227 C489.8471,31.0372 491.0965,39.0583 481.2115,43.9336 C490.8075,48.3743 491.0142,56.3161 483.1756,62.592 C492.7502,69.4891 491.7879,75.7853 482.746,82.2761 C492.4988,87.9301 491.6132,94.4428 482.9878,100.3428 C477.7478,109.7088 470.4526,109.0848 464.1517,101.5234 C458.6622,108.8909 451.4298,109.5013 446.7082,100.6952 C442.2727,107.9699 437.0157,107.789 432.3095,100.9718 C428.7193,109.4184 421.6703,112.225 414.895,104.3755 C409.3859,112.151 403.6283,112.0623 397.9419,104.5724 C391.8623,113.0906 386.2343,112.1351 381.1334,103.6074 C377.6629,111.9958 370.2225,111.5159 365.9413,104.4019 C359.939,112.8057 351.9466,112.6373 347.6136,102.731 C343.727,110.4959 335.4497,111.4282 330.3341,104.142 C323.8309,112.9112 317.4953,112.1314 312.8899,102.3567 C309.1086,108.051 302.6705,108.9538 298.786,102.4763 C291.675,112.3612 285.082,110.2662 279.4572,100.9781 C275.5576,107.9563 268.5151,107.0758 264.7668,100.8103 C259.4818,108.0008 251.961,107.8615 247.9416,99.4458 C238.0981,96.1579 236.0587,90.5531 243.5293,82.7025 C233.5498,78.5671 232.806,69.6284 240.4855,62.7933 C232.1359,56.213 234.0044,48.0903 243.657,44.6583 C236.7215,36.9792 240.2562,29.9671 248.9355,26.9398 " fill="#FFFFFF" style="stroke: #000000; stroke-width: 1.5;"/><text fill="#000000" font-family="sans-serif" font-size="14" font-weight="bold" lengthAdjust="spacingAndGlyphs" textLength="31" x="347.5" y="42.5352">AWS</text><!--MD5=[dbf61eafc424532a3ba88ca08e46dc54]
entity EmbarkMetadata--><rect fill="#FEFECE" filter="url(#f4wis2cxtss2o)" height="36.4883" style="stroke: #A80036; stroke-width: 1.5;" width="83" x="22.5" y="275"/><rect fill="#FEFECE" height="5" style="stroke: #A80036; stroke-width: 1.5;" width="10" x="17.5" y="280"/><rect fill="#FEFECE" height="5" style="stroke: #A80036; stroke-width: 1.5;" width="10" x="17.5" y="301.4883"/><text fill="#000000" font-family="sans-serif" font-size="14" lengthAdjust="spacingAndGlyphs" textLength="63" x="32.5" y="298.5352">Metadata</text><!--MD5=[66a57b120e4845175d173b70eb7ef9bc]
entity EmbarkImages--><rect fill="#FEFECE" filter="url(#f4wis2cxtss2o)" height="36.4883" style="stroke: #A80036; stroke-width: 1.5;" width="69" x="140.5" y="275"/><rect fill="#FEFECE" height="5" style="stroke: #A80036; stroke-width: 1.5;" width="10" x="135.5" y="280"/><rect fill="#FEFECE" height="5" style="stroke: #A80036; stroke-width: 1.5;" width="10" x="135.5" y="301.4883"/><text fill="#000000" font-family="sans-serif" font-size="14" lengthAdjust="spacingAndGlyphs" textLength="49" x="150.5" y="298.5352">Images</text><!--MD5=[114578ec70e99a3c89a7785553b99b9d]
entity EmbarkWebKiosk--><rect fill="#FEFECE" filter="url(#f4wis2cxtss2o)" height="36.4883" style="stroke: #A80036; stroke-width: 1.5;" width="86" x="113" y="169"/><rect fill="#FEFECE" height="5" style="stroke: #A80036; stroke-width: 1.5;" width="10" x="108" y="174"/><rect fill="#FEFECE" height="5" style="stroke: #A80036; stroke-width: 1.5;" width="10" x="108" y="195.4883"/><text fill="#000000" font-family="sans-serif" font-size="14" lengthAdjust="spacingAndGlyphs" textLength="66" x="123" y="192.5352">WebKiosk</text><!--MD5=[cf25d34b6f9695ab689953484c0b6ae1]
entity Storage--><polygon fill="#FEFECE" filter="url(#f4wis2cxtss2o)" points="713.5,159,759.5,159,766.5,180,796.5,180,796.5,214.9766,713.5,214.9766,713.5,159" style="stroke: #000000; stroke-width: 1.5;"/><line style="stroke: #000000; stroke-width: 1.5;" x1="713.5" x2="766.5" y1="180" y2="180"/><text fill="#000000" font-family="sans-serif" font-size="14" lengthAdjust="spacingAndGlyphs" textLength="53" x="723.5" y="200.5352">Storage</text><!--MD5=[a2b8b719404a802d86071ab6839c88eb]
entity SniteImageProcessing--><rect fill="#FEFECE" filter="url(#f4wis2cxtss2o)" height="36.4883" style="stroke: #A80036; stroke-width: 1.5;" width="136" x="592" y="53"/><rect fill="#FEFECE" height="5" style="stroke: #A80036; stroke-width: 1.5;" width="10" x="587" y="58"/><rect fill="#FEFECE" height="5" style="stroke: #A80036; stroke-width: 1.5;" width="10" x="587" y="79.4883"/><text fill="#000000" font-family="sans-serif" font-size="14" lengthAdjust="spacingAndGlyphs" textLength="116" x="602" y="76.5352">ImageProcessing</text><!--MD5=[65715c6e91560c5c944709aea6ae40c0]
entity GoogleSniteMetadata--><polygon fill="#FEFECE" filter="url(#f4wis2cxtss2o)" points="234,159,280,159,287,180,410,180,410,214.9766,234,214.9766,234,159" style="stroke: #000000; stroke-width: 1.5;"/><line style="stroke: #000000; stroke-width: 1.5;" x1="234" x2="287" y1="180" y2="180"/><text fill="#000000" font-family="sans-serif" font-size="14" lengthAdjust="spacingAndGlyphs" textLength="101" x="244" y="200.5352">Snite Metadata</text><!--MD5=[0eb614091b18b649afeee0d10811e76d]
entity GoogleSniteImages--><polygon fill="#FEFECE" filter="url(#f4wis2cxtss2o)" points="445,159,491,159,498,180,607,180,607,214.9766,445,214.9766,445,159" style="stroke: #000000; stroke-width: 1.5;"/><line style="stroke: #000000; stroke-width: 1.5;" x1="445" x2="498" y1="180" y2="180"/><text fill="#000000" font-family="sans-serif" font-size="14" lengthAdjust="spacingAndGlyphs" textLength="87" x="455" y="200.5352">Snite Images</text><!--MD5=[6c7192638421eaf134d201765ac5db29]
entity S3--><polygon fill="#FEFECE" filter="url(#f4wis2cxtss2o)" points="432.5,43,478.5,43,485.5,64,479.5,64,479.5,98.9766,432.5,98.9766,432.5,43" style="stroke: #000000; stroke-width: 1.5;"/><line style="stroke: #000000; stroke-width: 1.5;" x1="432.5" x2="485.5" y1="64" y2="64"/><text fill="#000000" font-family="sans-serif" font-size="14" lengthAdjust="spacingAndGlyphs" textLength="17" x="442.5" y="84.5352">S3</text><!--MD5=[8bed2042c423a8785808ac37fd5b9dae]
entity ManifestPipeline--><polygon fill="#FEFECE" filter="url(#f4wis2cxtss2o)" points="246.5,51.5,373.5,51.5,380.5,73.9883,397.5,73.9883,397.5,90.9883,246.5,90.9883,246.5,51.5" style="stroke: #000000; stroke-width: 1.5;"/><line style="stroke: #000000; stroke-width: 1.5;" x1="246.5" x2="380.5" y1="73.9883" y2="73.9883"/><text fill="#000000" font-family="sans-serif" font-size="14" font-weight="bold" lengthAdjust="spacingAndGlyphs" textLength="121" x="250.5" y="68.0352">ManifestPipeline</text><!--MD5=[5fb76db8bfd867fba67f51af2d8d6b45]
link EmbarkWebKiosk to EmbarkMetadata--><path d="M139.9748,205.4638 C124.2761,223.5514 100.3276,251.1443 83.5247,270.5042 " fill="none" id="EmbarkWebKiosk-&gt;EmbarkMetadata" style="stroke: #A80036; stroke-width: 1.0;"/><polygon fill="#A80036" points="79.8415,274.7478,88.7616,270.5728,83.1189,270.9717,82.7199,265.3289,79.8415,274.7478" style="stroke: #A80036; stroke-width: 1.0;"/><!--MD5=[d7b10d5edf0f2b6f039e11473baf590b]
link EmbarkWebKiosk to EmbarkImages--><path d="M159.3095,205.4638 C162.4972,223.2474 167.3318,250.2195 170.7915,269.5212 " fill="none" id="EmbarkWebKiosk-&gt;EmbarkImages" style="stroke: #A80036; stroke-width: 1.0;"/><polygon fill="#A80036" points="171.7284,274.7478,174.0775,265.1832,170.8461,269.8263,166.2031,266.5948,171.7284,274.7478" style="stroke: #A80036; stroke-width: 1.0;"/><!--MD5=[6407fe868ad1916a03b1b3e82e776b78]
link SniteImageProcessing to GoogleSniteImages--><path d="M639.0625,89.125 C618.5905,106.8471 586.9979,134.1959 562.407,155.4835 " fill="none" id="SniteImageProcessing-&gt;GoogleSniteImages" style="stroke: #A80036; stroke-width: 1.0;"/><polygon fill="#A80036" points="558.5232,158.8456,567.9457,155.9792,562.3035,155.573,562.7096,149.9308,558.5232,158.8456" style="stroke: #A80036; stroke-width: 1.0;"/><!--MD5=[d429685e2e0c45d2bd64ecbb77d5783c]
link SniteImageProcessing to EmbarkImages--><path d="M661.4645,89.1349 C662.9671,121.2618 660.9849,188.0713 623,223 C563.7235,277.5073 313.0614,289.6005 214.7746,292.2594 " fill="none" id="SniteImageProcessing-&gt;EmbarkImages" style="stroke: #A80036; stroke-width: 1.0;"/><polygon fill="#A80036" points="209.6471,292.3933,218.7485,296.1569,214.6454,292.2627,218.5396,288.1596,209.6471,292.3933" style="stroke: #A80036; stroke-width: 1.0;"/><!--MD5=[faa46d1790d5042133f0b162d3032208]
link SniteImageProcessing to CatDV--><path d="M728.0657,84.2111 C743.0125,88.6851 758.8305,94.611 773.7446,102.4291 C781.2016,106.3381 788.4327,110.7202 795.2159,115.6304 C798.6075,118.0854 801.8871,120.6725 805.0271,123.3985 C806.597,124.7615 808.1321,126.1592 809.6287,127.5925 C810.377,128.3091 811.1158,129.0347 811.8444,129.7692 C812.2088,130.1365 812.5706,130.506 812.9299,130.8778 C813.1095,131.0637 813.2885,131.2502 813.4669,131.4372 C813.5561,131.5307 813.6451,148.3945 813.7339,148.4883 " fill="none" id="SniteImageProcessing-&gt;CatDV" style="stroke: #A80036; stroke-width: 1.0;"/><polygon fill="#A80036" points="813.7339,131.7182,810.4486,122.4334,810.2954,128.0882,804.6407,127.935,813.7339,131.7182" style="stroke: #A80036; stroke-width: 1.0;"/><!--MD5=[8b522f86597d4ebd3afaee17afa611fa]
link ManifestPipeline to EmbarkWebKiosk--><path d="M284.3153,90.765 C264.0596,101.9607 239.0029,116.7491 218,132 C204.0875,142.1024 189.6548,154.7567 178.2186,165.3797 " fill="none" id="ManifestPipeline-&gt;EmbarkWebKiosk" style="stroke: #A80036; stroke-width: 1.0;"/><polygon fill="#A80036" points="174.4602,168.8978,183.7643,165.6676,178.1105,165.4809,178.2973,159.8271,174.4602,168.8978" style="stroke: #A80036; stroke-width: 1.0;"/><!--MD5=[d3474ec5d35569dbf35a8add805e198d]
link ManifestPipeline to GoogleSniteMetadata--><path d="M322,90.6778 C322,107.9587 322,133.4549 322,153.8755 " fill="none" id="ManifestPipeline-&gt;GoogleSniteMetadata" style="stroke: #A80036; stroke-width: 1.0;"/><polygon fill="#A80036" points="322,158.9497,326,149.9497,322,153.9497,318,149.9497,322,158.9497" style="stroke: #A80036; stroke-width: 1.0;"/><!--MD5=[295061c491542966b8fca7db0c9b92cb]
link ManifestPipeline to GoogleSniteImages--><path d="M356.6058,90.6778 C388.2841,108.691 435.6603,135.6303 472.2617,156.4429 " fill="none" id="ManifestPipeline-&gt;GoogleSniteImages" style="stroke: #A80036; stroke-width: 1.0;"/><polygon fill="#A80036" points="476.6701,158.9497,470.8238,151.0237,472.3237,156.4781,466.8693,157.978,476.6701,158.9497" style="stroke: #A80036; stroke-width: 1.0;"/><!--MD5=[172a7de15b1f92764120119d33c62475]
@startuml

package Embark {
  component "Metadata" as EmbarkMetadata
  component "Images" as EmbarkImages
  component "WebKiosk" as EmbarkWebKiosk
  EmbarkWebKiosk - -> EmbarkMetadata
  EmbarkWebKiosk - -> EmbarkImages
}

package CatDV {
  folder Storage
}

package SniteMuseum {
  component ImageProcessing as SniteImageProcessing
}

cloud Google {
  folder "Snite Metadata" as GoogleSniteMetadata
  folder "Snite Images" as GoogleSniteImages
}

SniteImageProcessing - -> GoogleSniteImages
SniteImageProcessing - -> EmbarkImages
SniteImageProcessing - -> CatDV

cloud AWS {
  folder S3
  package ManifestPipeline
}
ManifestPipeline - -> EmbarkWebKiosk
ManifestPipeline - -> GoogleSniteMetadata
ManifestPipeline - -> GoogleSniteImages
@enduml

PlantUML version 1.2019.10(Fri Sep 13 16:53:03 EDT 2019)
(GPL source distribution)
Java Runtime: Java(TM) SE Runtime Environment
JVM: Java HotSpot(TM) 64-Bit Server VM
Java Version: 1.8.0_102-b14
Operating System: Mac OS X
Default Encoding: UTF-8
Language: en
Country: US
--></g></svg>