<?xml version="1.0" encoding="UTF-8" standalone="no"?><svg xmlns="http://www.w3.org/2000/svg" xmlns:xlink="http://www.w3.org/1999/xlink" contentScriptType="application/ecmascript" contentStyleType="text/css" height="646px" preserveAspectRatio="none" style="width:1199px;height:646px;" version="1.1" viewBox="0 0 1199 646"
    width="1199px" zoomAndPan="magnify"><defs><filter height="300%" id="fe29jptb1uwkd" width="300%" x="-1" y="-1"><feGaussianBlur result="blurOut" stdDeviation="2.0"/><feColorMatrix in="blurOut" result="blurOut2" type="matrix" values="0 0 0 0 0 0 0 0 0 0 0 0 0 0 0 0 0 0 .4 0"/><feOffset dx="4.0" dy="4.0" in="blurOut2" result="blurOut3"/><feBlend in="SourceGraphic" in2="blurOut3" mode="normal"/></filter></defs><g><text fill="#888888" font-family="sans-serif" font-size="10" lengthAdjust="spacingAndGlyphs" textLength="26" x="1161" y="9.668">Sipity</text><!--MD5=[036b8ca5bbb5aa0b6f239061697e4f2d]
cluster Sipity--><polygon fill="#FFFFFF" filter="url(#fe29jptb1uwkd)" points="14,97.7773,61,97.7773,68,120.2656,477,120.2656,477,510.7773,14,510.7773,14,97.7773" style="stroke: #000000; stroke-width: 1.5;"/><line style="stroke: #000000; stroke-width: 1.5;" x1="14" x2="68" y1="120.2656" y2="120.2656"/><text fill="#000000" font-family="sans-serif" font-size="14" font-weight="bold" lengthAdjust="spacingAndGlyphs" textLength="41" x="18" y="113.3125">Sipity</text><!--MD5=[aa67b594d9c629de74c234d94f00fd81]
cluster Batch--><polygon fill="#FFFFFF" filter="url(#fe29jptb1uwkd)" points="950,541.7773,1045,541.7773,1052,564.2656,1055,564.2656,1055,634.7773,950,634.7773,950,541.7773" style="stroke: #000000; stroke-width: 1.5;"/><line style="stroke: #000000; stroke-width: 1.5;" x1="950" x2="1052" y1="564.2656" y2="564.2656"/><text fill="#000000" font-family="sans-serif" font-size="14" font-weight="bold" lengthAdjust="spacingAndGlyphs" textLength="89" x="954" y="557.3125">Batch Ingest</text><!--MD5=[2e3431030c33690ec4f191940759a30e]
cluster Noids--><polygon fill="#FFFFFF" filter="url(#fe29jptb1uwkd)" points="911,278.7773,959,278.7773,966,301.2656,1028,301.2656,1028,358.7773,911,358.7773,911,278.7773" style="stroke: #000000; stroke-width: 1.5;"/><line style="stroke: #000000; stroke-width: 1.5;" x1="911" x2="966" y1="301.2656" y2="301.2656"/><text fill="#000000" font-family="sans-serif" font-size="14" font-weight="bold" lengthAdjust="spacingAndGlyphs" textLength="42" x="915" y="294.3125">Noids</text><!--MD5=[88656e78e5bedad418341b6ececa151e]
cluster AWS--><path d="M494.2142,291.676 C498.2106,281.5342 506.6197,280.7151 512.7981,289.5379 C520.0291,280.3694 528.2343,283.3418 531.9456,293.0989 C538.62,295.1989 541.1897,298.8195 536.5679,305.2253 C544.7793,307.5709 546.3353,314.4695 539.5576,319.8742 C544.8206,325.3608 543.9676,331.4755 535.7758,333.121 C541.3614,338.8394 539.3851,344.7428 532.2753,347.3346 C526.9053,357.8492 520.741,358.0278 512.3952,350.639 C505.2252,359.3463 498.2758,356.6042 494.2514,347.4447 C485.8752,345.1964 484.4762,339.8308 490.8642,333.8924 C482.9725,332.418 481.4699,325.863 487.4168,320.7567 C480.3828,314.6032 482.761,308.5142 490.3964,305.1638 C486.0046,299.4973 487.0733,294.0782 494.2142,291.676 " fill="#FFFFFF" style="stroke: #000000; stroke-width: 1.5;"/><text fill="#000000" font-family="sans-serif" font-size="14" font-weight="bold" lengthAdjust="spacingAndGlyphs" textLength="31" x="496.5" y="309.8125">AWS</text><!--MD5=[086394bb65cbfff9d73f0c7d82fb6ab9]
entity SipityFS--><rect fill="#FEFECE" filter="url(#fe29jptb1uwkd)" height="52.9766" style="stroke: #A80036; stroke-width: 1.5;" width="73" x="22.5" y="132.7773"/><rect fill="#FEFECE" height="5" style="stroke: #A80036; stroke-width: 1.5;" width="10" x="17.5" y="137.7773"/><rect fill="#FEFECE" height="5" style="stroke: #A80036; stroke-width: 1.5;" width="10" x="17.5" y="175.7539"/><text fill="#000000" font-family="sans-serif" font-size="14" lengthAdjust="spacingAndGlyphs" textLength="24" x="32.5" y="156.3125">File</text><text fill="#000000" font-family="sans-serif" font-size="14" lengthAdjust="spacingAndGlyphs" textLength="53" x="32.5" y="172.8008">Storage</text><!--MD5=[eea5bb3b07aab377378f466a3ee76eed]
entity SipityDMS--><rect fill="#FEFECE" filter="url(#fe29jptb1uwkd)" height="69.4648" style="stroke: #A80036; stroke-width: 1.5;" width="95" x="130.5" y="124.7773"/><rect fill="#FEFECE" height="5" style="stroke: #A80036; stroke-width: 1.5;" width="10" x="125.5" y="129.7773"/><rect fill="#FEFECE" height="5" style="stroke: #A80036; stroke-width: 1.5;" width="10" x="125.5" y="184.2422"/><text fill="#000000" font-family="sans-serif" font-size="14" lengthAdjust="spacingAndGlyphs" textLength="75" x="140.5" y="148.3125">Descriptive</text><text fill="#000000" font-family="sans-serif" font-size="14" lengthAdjust="spacingAndGlyphs" textLength="63" x="140.5" y="164.8008">Metadata</text><text fill="#000000" font-family="sans-serif" font-size="14" lengthAdjust="spacingAndGlyphs" textLength="53" x="140.5" y="181.2891">Storage</text><!--MD5=[f2df6e8b62a9930dbf353422601b0eae]
entity SipityBE--><rect fill="#FEFECE" filter="url(#fe29jptb1uwkd)" height="36.4883" style="stroke: #A80036; stroke-width: 1.5;" width="121" x="117.5" y="462.2773"/><rect fill="#FEFECE" height="5" style="stroke: #A80036; stroke-width: 1.5;" width="10" x="112.5" y="467.2773"/><rect fill="#FEFECE" height="5" style="stroke: #A80036; stroke-width: 1.5;" width="10" x="112.5" y="488.7656"/><text fill="#000000" font-family="sans-serif" font-size="14" lengthAdjust="spacingAndGlyphs" textLength="101" x="127.5" y="485.8125">Batch Exporter</text><!--MD5=[cb4df5336486a6854d3cacb62bdca4bb]
entity SipityBL--><rect fill="#FEFECE" filter="url(#fe29jptb1uwkd)" height="36.4883" style="stroke: #A80036; stroke-width: 1.5;" width="119" x="260.5" y="141.2773"/><rect fill="#FEFECE" height="5" style="stroke: #A80036; stroke-width: 1.5;" width="10" x="255.5" y="146.2773"/><rect fill="#FEFECE" height="5" style="stroke: #A80036; stroke-width: 1.5;" width="10" x="255.5" y="167.7656"/><text fill="#000000" font-family="sans-serif" font-size="14" lengthAdjust="spacingAndGlyphs" textLength="99" x="270.5" y="164.8125">Business Logic</text><!--MD5=[fcfc1b56d4b27b5666602875e12ba800]
entity SipityAPI--><ellipse cx="442" cy="159.2773" fill="#FEFECE" filter="url(#fe29jptb1uwkd)" rx="8" ry="8" style="stroke: #A80036; stroke-width: 2.0;"/><text fill="#000000" font-family="sans-serif" font-size="14" lengthAdjust="spacingAndGlyphs" textLength="22" x="431" y="189.8125">API</text><!--MD5=[2519f4b563146138a779359188ab3db5]
entity MySql--><path d="M278,467.7773 C278,457.7773 308,457.7773 308,457.7773 C308,457.7773 338,457.7773 338,467.7773 L338,493.2656 C338,503.2656 308,503.2656 308,503.2656 C308,503.2656 278,503.2656 278,493.2656 L278,467.7773 " fill="#FEFECE" filter="url(#fe29jptb1uwkd)" style="stroke: #000000; stroke-width: 1.5;"/><path d="M278,467.7773 C278,477.7773 308,477.7773 308,477.7773 C308,477.7773 338,477.7773 338,467.7773 " fill="none" style="stroke: #000000; stroke-width: 1.5;"/><text fill="#000000" font-family="sans-serif" font-size="14" lengthAdjust="spacingAndGlyphs" textLength="40" x="288" y="495.3125">MySql</text><!--MD5=[6c444dd6b145513787bf9986e8d9020c]
entity BatchAPI--><ellipse cx="985" cy="597.7773" fill="#FEFECE" filter="url(#fe29jptb1uwkd)" rx="8" ry="8" style="stroke: #A80036; stroke-width: 2.0;"/><text fill="#000000" font-family="sans-serif" font-size="14" lengthAdjust="spacingAndGlyphs" textLength="22" x="974" y="628.3125">API</text><!--MD5=[ee1469d2788bbe71c2eb3dceba3841a6]
entity MySQLNoids--><path d="M919.5,315.7773 C919.5,305.7773 952,305.7773 952,305.7773 C952,305.7773 984.5,305.7773 984.5,315.7773 L984.5,341.2656 C984.5,351.2656 952,351.2656 952,351.2656 C952,351.2656 919.5,351.2656 919.5,341.2656 L919.5,315.7773 " fill="#FEFECE" filter="url(#fe29jptb1uwkd)" style="stroke: #000000; stroke-width: 1.5;"/><path d="M919.5,315.7773 C919.5,325.7773 952,325.7773 952,325.7773 C952,325.7773 984.5,325.7773 984.5,315.7773 " fill="none" style="stroke: #000000; stroke-width: 1.5;"/><text fill="#000000" font-family="sans-serif" font-size="14" lengthAdjust="spacingAndGlyphs" textLength="45" x="929.5" y="343.3125">MySQL</text><!--MD5=[6c7192638421eaf134d201765ac5db29]
entity S3--><rect fill="#FEFECE" filter="url(#fe29jptb1uwkd)" height="36.4883" style="stroke: #A80036; stroke-width: 1.5;" width="37" x="493.5" y="310.2773"/><rect fill="#FEFECE" height="5" style="stroke: #A80036; stroke-width: 1.5;" width="10" x="488.5" y="315.2773"/><rect fill="#FEFECE" height="5" style="stroke: #A80036; stroke-width: 1.5;" width="10" x="488.5" y="336.7656"/><text fill="#000000" font-family="sans-serif" font-size="14" lengthAdjust="spacingAndGlyphs" textLength="17" x="503.5" y="333.8125">S3</text><!--MD5=[ac8f20b59aaeffa7d07bee14fd87b870]
entity OCLC--><polygon fill="#FEFECE" filter="url(#fe29jptb1uwkd)" points="708,308.7773,754,308.7773,761,331.2656,778,331.2656,778,348.2656,708,348.2656,708,308.7773" style="stroke: #000000; stroke-width: 1.5;"/><line style="stroke: #000000; stroke-width: 1.5;" x1="708" x2="761" y1="331.2656" y2="331.2656"/><text fill="#000000" font-family="sans-serif" font-size="14" font-weight="bold" lengthAdjust="spacingAndGlyphs" textLength="40" x="712" y="325.3125">OCLC</text><!--MD5=[fa8019ea18872dd8c4c2f138e2281076]
entity Aleph--><polygon fill="#FEFECE" filter="url(#fe29jptb1uwkd)" points="813.5,308.7773,860.5,308.7773,867.5,331.2656,884.5,331.2656,884.5,348.2656,813.5,348.2656,813.5,308.7773" style="stroke: #000000; stroke-width: 1.5;"/><line style="stroke: #000000; stroke-width: 1.5;" x1="813.5" x2="867.5" y1="331.2656" y2="331.2656"/><text fill="#000000" font-family="sans-serif" font-size="14" font-weight="bold" lengthAdjust="spacingAndGlyphs" textLength="41" x="817.5" y="325.3125">Aleph</text><!--MD5=[64e29bcd0b3c7cd10fb363497c8a6b17]
entity OnBase--><polygon fill="#FEFECE" filter="url(#fe29jptb1uwkd)" points="400,19.7773,460,19.7773,467,42.2656,484,42.2656,484,59.2656,400,59.2656,400,19.7773" style="stroke: #000000; stroke-width: 1.5;"/><line style="stroke: #000000; stroke-width: 1.5;" x1="400" x2="467" y1="42.2656" y2="42.2656"/><text fill="#000000" font-family="sans-serif" font-size="14" font-weight="bold" lengthAdjust="spacingAndGlyphs" textLength="54" x="404" y="36.3125">OnBase</text><!--MD5=[49416190580e7e978633a2ba0bec8388]
entity Locabulary--><polygon fill="#FEFECE" filter="url(#fe29jptb1uwkd)" points="565.5,308.7773,648.5,308.7773,655.5,331.2656,672.5,331.2656,672.5,348.2656,565.5,348.2656,565.5,308.7773" style="stroke: #000000; stroke-width: 1.5;"/><line style="stroke: #000000; stroke-width: 1.5;" x1="565.5" x2="655.5" y1="331.2656" y2="331.2656"/><text fill="#000000" font-family="sans-serif" font-size="14" font-weight="bold" lengthAdjust="spacingAndGlyphs" textLength="77" x="569.5" y="325.3125">Locabulary</text><!--MD5=[fef7c7187f058e0044b218b358792476]
link SipityDMS to Locabulary--><path d="M225.8144,187.0004 C231.4859,189.5806 237.2901,191.9193 243,193.7773 C333.0721,223.087 364.6275,192.3989 454,223.7773 C499.3091,239.6852 506.5243,252.9375 547,278.7773 C560.3252,287.2841 574.7337,297.0685 587.1351,305.6803 " fill="none" id="SipityDMS-&gt;Locabulary" style="stroke: #A80036; stroke-width: 1.0; stroke-dasharray: 7.0,7.0;"/><polygon fill="#A80036" points="591.2594,308.5523,586.1594,300.1268,587.1562,305.6951,581.5879,306.6919,591.2594,308.5523" style="stroke: #A80036; stroke-width: 1.0;"/><text fill="#000000" font-family="sans-serif" font-size="13" lengthAdjust="spacingAndGlyphs" textLength="18" x="559" y="237.3457">for</text><text fill="#000000" font-family="sans-serif" font-size="13" lengthAdjust="spacingAndGlyphs" textLength="64" x="536" y="252.6563">controlled</text><text fill="#000000" font-family="sans-serif" font-size="13" lengthAdjust="spacingAndGlyphs" textLength="68" x="534" y="267.9668">vocabulary</text><!--MD5=[fb31825af213da6fa3d981585d54d88b]
link SipityFS to S3--><path d="M95.5577,184.9676 C101.2294,188.2589 107.1509,191.3279 113,193.7773 C113,193.7773 485,278.7773 485,278.7773 C493.8532,285.4802 500.1619,295.9622 504.4428,305.558 " fill="none" id="SipityFS-&gt;S3" style="stroke: #A80036; stroke-width: 1.0;"/><polygon fill="#A80036" points="506.3837,310.177,506.5848,300.3302,504.4467,305.5675,499.2095,303.4294,506.3837,310.177" style="stroke: #A80036; stroke-width: 1.0;"/><!--MD5=[57a474ff0dbb86bd3caa3ed6d223e2a1]
link SipityDMS to MySql--><path d="M192.0358,193.9349 C218.0265,258.1121 273.1512,394.2276 296.8203,452.6719 " fill="none" id="SipityDMS-&gt;MySql" style="stroke: #A80036; stroke-width: 1.0;"/><polygon fill="#A80036" points="298.7405,457.4135,299.0696,447.5702,296.8636,452.7792,291.6546,450.5732,298.7405,457.4135" style="stroke: #A80036; stroke-width: 1.0;"/><!--MD5=[759236fd4672e0a665bfa15e299ecdaf]
link SipityBE to BatchAPI--><path d="M220.8098,498.3757 C233.2608,503.0414 247.0097,507.6292 260,510.7773 C540.3785,578.7259 895.1906,594.6189 970.5365,597.3108 " fill="none" id="SipityBE-&gt;BatchAPI" style="stroke: #A80036; stroke-width: 1.0;"/><polygon fill="#A80036" points="975.8499,597.495,966.9939,593.1855,970.8529,597.3218,966.7167,601.1807,975.8499,597.495" style="stroke: #A80036; stroke-width: 1.0;"/><!--MD5=[c03c2e72ef4bc0306bf5c53655175255]
link SipityFS to SipityBE--><path d="M68.8395,185.8192 C91.6503,247.3507 147.8358,398.91 169.3902,457.0524 " fill="none" id="SipityFS-&gt;SipityBE" style="stroke: #A80036; stroke-width: 1.0;"/><polygon fill="#A80036" points="171.2452,462.0565,171.8674,452.2274,169.5072,457.3683,164.3663,455.0081,171.2452,462.0565" style="stroke: #A80036; stroke-width: 1.0;"/><!--MD5=[0f128ae49dc373435f784e2f60b28feb]
link SipityDMS to SipityBE--><path d="M178,193.9349 C178,259.7389 178,401.1748 178,456.9644 " fill="none" id="SipityDMS-&gt;SipityBE" style="stroke: #A80036; stroke-width: 1.0;"/><polygon fill="#A80036" points="178,462.0906,182,453.0906,178,457.0906,174,453.0906,178,462.0906" style="stroke: #A80036; stroke-width: 1.0;"/><!--MD5=[9141b46874f4d1284305a21c03beed8e]
link Batch to SipityAPI--><path d="M1055.1952,568.95 C1055.27,568.6554 1055.345,568.359 1055.4203,568.0606 C1055.5708,567.4638 1055.7223,566.8593 1055.8747,566.2473 C1056.4843,563.7993 1057.1081,561.2304 1057.7403,558.5485 C1062.7974,537.0934 1068.3873,508.4069 1071.4862,476.5102 C1077.6841,412.7167 1073.9184,336.0824 1036,278.7773 C970.2469,179.4062 555.6743,162.327 461.1628,159.7126 " fill="none" id="Batch-&gt;SipityAPI" style="stroke: #A80036; stroke-width: 1.0; stroke-dasharray: 7.0,7.0;"/><path d="M453.9183,167.9887 A9,9 0 0 0 454.3477 151.0797" fill="none" style="stroke: #A80036; stroke-width: 1.5;"/><text fill="#000000" font-family="sans-serif" font-size="13" lengthAdjust="spacingAndGlyphs" textLength="94" x="1074" y="394.3457">From Webhook</text><text fill="#000000" font-family="sans-serif" font-size="13" lengthAdjust="spacingAndGlyphs" textLength="74" x="1084" y="409.6563">provided by</text><text fill="#000000" font-family="sans-serif" font-size="13" lengthAdjust="spacingAndGlyphs" textLength="35" x="1103.5" y="424.9668">Sipity</text><!--MD5=[189dbbbd6262b372cc132d4c59b03ac9]
link SipityBL to MySql--><path d="M319.3204,177.4554 C317.3191,230.991 311.4372,388.3319 309.0374,452.5264 " fill="none" id="SipityBL-&gt;MySql" style="stroke: #A80036; stroke-width: 1.0;"/><polygon fill="#A80036" points="308.8434,457.7152,313.1769,448.871,309.0303,452.7187,305.1825,448.572,308.8434,457.7152" style="stroke: #A80036; stroke-width: 1.0;"/><!--MD5=[aa4d4d5f7fc23a16a7275978fc3e17b6]
link SipityBL to Noids--><path d="M353.5825,177.3648 C366.7551,183.6403 382.2321,190.0357 397,193.7773 C569.387,237.4535 620.6691,194.0458 796,223.7773 C842.7144,231.6989 876.743,229.449 907.8287,233.2186 C923.3716,235.1034 938.1787,238.4932 953.468,245.4117 C961.1126,248.8709 968.8778,253.2123 976.9157,258.689 C980.9347,261.4273 985.0218,264.4494 989.1962,267.7869 C991.2834,269.4557 993.3924,271.2033 995.5255,273.0337 C996.5921,273.9489 997.6648,274.8848 998.7437,275.8419 C999.2832,276.3205 999.8243,276.8043 1000.367,277.2936 C1000.6384,277.5382 1000.9101,295.0183 1001.1823,295.2656 " fill="none" id="SipityBL-&gt;Noids" style="stroke: #A80036; stroke-width: 1.0;"/><polygon fill="#A80036" points="1001.1823,278.0314,997.2112,269.0186,997.4817,274.669,991.8313,274.9395,1001.1823,278.0314" style="stroke: #A80036; stroke-width: 1.0;"/><!--MD5=[2c5a6ac1e2b6c0373a9ef7a8aebedb15]
link OnBase to SipityAPI--><path d="M442,58.8244 C442,82.9666 442,123.4644 442,144.9233 " fill="none" id="OnBase-&gt;SipityAPI" style="stroke: #A80036; stroke-width: 1.0;"/><polygon fill="#A80036" points="442,150.1948,446,141.1948,442,145.1948,438,141.1948,442,150.1948" style="stroke: #A80036; stroke-width: 1.0;"/><!--MD5=[e96f9f2c2642c91a22e340b36b33ca02]
link SipityBL to Aleph--><path d="M353.9881,177.4484 C367.0806,183.6543 382.3975,189.9807 397,193.7773 C544.6741,232.1719 599.9042,161.0545 739,223.7773 C778.2699,241.4854 812.2573,279.2149 831.6855,304.1588 " fill="none" id="SipityBL-&gt;Aleph" style="stroke: #A80036; stroke-width: 1.0; stroke-dasharray: 7.0,7.0;"/><polygon fill="#A80036" points="834.9093,308.3532,832.5963,298.7798,831.8624,304.3889,826.2533,303.655,834.9093,308.3532" style="stroke: #A80036; stroke-width: 1.0;"/><ellipse cx="571.2169" cy="199.6543" fill="#FFFFFF" rx="10" ry="10" style="stroke: #FFFFFF; stroke-width: 1.0;"/><path d="M578.9784,205.9597 A10,10 0 0 0 577.5223 191.8927" fill="#FFFFFF" style="stroke: #A80036; stroke-width: 1.5;"/><path d="M563.4553,193.3488 A10,10 0 0 0 564.9114 207.4158" fill="#FFFFFF" style="stroke: #A80036; stroke-width: 1.5;"/><ellipse cx="571.2169" cy="199.6543" fill="#FFFFFF" rx="6" ry="6" style="stroke: #A80036; stroke-width: 1.5;"/><!--MD5=[998e701c1932e72f43407f6ab84ae3b8]
link SipityBL to OCLC--><path d="M354.0132,177.3532 C367.1086,183.5482 382.4209,189.8919 397,193.7773 C461.7396,211.0307 642.78,184.4189 697,223.7773 C722.7591,242.4759 734.3018,278.8326 739.3278,303.338 " fill="none" id="SipityBL-&gt;OCLC" style="stroke: #A80036; stroke-width: 1.0; stroke-dasharray: 7.0,7.0;"/><polygon fill="#A80036" points="740.3042,308.3767,742.5188,298.7801,739.3529,303.4681,734.665,300.3022,740.3042,308.3767" style="stroke: #A80036; stroke-width: 1.0;"/><ellipse cx="550.9449" cy="200.488" fill="#FFFFFF" rx="10" ry="10" style="stroke: #FFFFFF; stroke-width: 1.0;"/><path d="M557.9659,207.6087 A10,10 0 0 0 558.0655 193.4669" fill="#FFFFFF" style="stroke: #A80036; stroke-width: 1.5;"/><path d="M543.9238,193.3673 A10,10 0 0 0 543.8242 207.5091" fill="#FFFFFF" style="stroke: #A80036; stroke-width: 1.5;"/><ellipse cx="550.9449" cy="200.488" fill="#FFFFFF" rx="6" ry="6" style="stroke: #A80036; stroke-width: 1.5;"/><!--MD5=[1d30bc88157709f3e7264a0608aab4fa]
@startuml

header Sipity

package "Sipity" {
  component "File\nStorage" as SipityFS
  component "Descriptive\nMetadata\nStorage" as SipityDMS
  component "Batch Exporter" as SipityBE
  component "Business Logic" as SipityBL
  interface "API" as SipityAPI
  database "MySql"

}

package "Batch Ingest" as Batch {
  interface "API" as BatchAPI
}

package Noids {
  database MySQL as MySQLNoids
}

package OCLC
package Aleph

package OnBase

package Locabulary
SipityDMS ..> Locabulary : "for\ncontrolled\nvocabulary"

cloud "AWS" {
  component S3
}

SipityFS - -> S3
SipityDMS - -> MySql
SipityBE - -> BatchAPI
SipityFS - -> SipityBE
SipityDMS - -> SipityBE
Batch ..( SipityAPI : "From Webhook\nprovided by\nSipity"
SipityBL - -> MySql
SipityBL - -> Noids
OnBase - -> SipityAPI
SipityBL .(0).> Aleph
SipityBL .(0).> OCLC

@enduml

PlantUML version 1.2019.10(Fri Sep 13 16:53:03 EDT 2019)
(GPL source distribution)
Java Runtime: Java(TM) SE Runtime Environment
JVM: Java HotSpot(TM) 64-Bit Server VM
Java Version: 1.8.0_102-b14
Operating System: Mac OS X
Default Encoding: UTF-8
Language: en
Country: US
--></g></svg>