<?xml version="1.0" encoding="UTF-8" standalone="no"?><svg xmlns="http://www.w3.org/2000/svg" xmlns:xlink="http://www.w3.org/1999/xlink" contentScriptType="application/ecmascript" contentStyleType="text/css" height="566px" preserveAspectRatio="none" style="width:637px;height:566px;" version="1.1" viewBox="0 0 637 566"
    width="637px" zoomAndPan="magnify"><defs><filter height="300%" id="fw9c16rjlgqlg" width="300%" x="-1" y="-1"><feGaussianBlur result="blurOut" stdDeviation="2.0"/><feColorMatrix in="blurOut" result="blurOut2" type="matrix" values="0 0 0 0 0 0 0 0 0 0 0 0 0 0 0 0 0 0 .4 0"/><feOffset dx="4.0" dy="4.0" in="blurOut2" result="blurOut3"/><feBlend in="SourceGraphic" in2="blurOut3" mode="normal"/></filter></defs><g><!--MD5=[036b8ca5bbb5aa0b6f239061697e4f2d]
cluster Sipity--><polygon fill="#FFFFFF" filter="url(#fw9c16rjlgqlg)" points="14,86,61,86,68,108.4883,477,108.4883,477,414,14,414,14,86" style="stroke: #000000; stroke-width: 1.5;"/><line style="stroke: #000000; stroke-width: 1.5;" x1="14" x2="68" y1="108.4883" y2="108.4883"/><text fill="#000000" font-family="sans-serif" font-size="14" font-weight="bold" lengthAdjust="spacingAndGlyphs" textLength="41" x="18" y="101.5352">Sipity</text><!--MD5=[aa67b594d9c629de74c234d94f00fd81]
cluster Batch--><polygon fill="#FFFFFF" filter="url(#fw9c16rjlgqlg)" points="461,461,556,461,563,483.4883,566,483.4883,566,554,461,554,461,461" style="stroke: #000000; stroke-width: 1.5;"/><line style="stroke: #000000; stroke-width: 1.5;" x1="461" x2="563" y1="483.4883" y2="483.4883"/><text fill="#000000" font-family="sans-serif" font-size="14" font-weight="bold" lengthAdjust="spacingAndGlyphs" textLength="89" x="465" y="476.5352">Batch Ingest</text><!--MD5=[88656e78e5bedad418341b6ececa151e]
cluster AWS--><path d="M494.2142,229.3987 C498.2106,219.2568 506.6197,218.4377 512.7981,227.2605 C520.0291,218.0921 528.2343,221.0645 531.9456,230.8215 C538.62,232.9215 541.1897,236.5421 536.5679,242.948 C544.7793,245.2936 546.3353,252.1921 539.5576,257.5968 C544.8206,263.0835 543.9676,269.1982 535.7758,270.8437 C541.3614,276.562 539.3851,282.4655 532.2753,285.0573 C526.9053,295.5718 520.741,295.7505 512.3952,288.3616 C505.2252,297.0689 498.2758,294.3269 494.2514,285.1674 C485.8752,282.919 484.4762,277.5534 490.8642,271.615 C482.9725,270.1406 481.4699,263.5857 487.4168,258.4793 C480.3828,252.3259 482.761,246.2368 490.3964,242.8865 C486.0046,237.22 487.0733,231.8009 494.2142,229.3987 " fill="#FFFFFF" style="stroke: #000000; stroke-width: 1.5;"/><text fill="#000000" font-family="sans-serif" font-size="14" font-weight="bold" lengthAdjust="spacingAndGlyphs" textLength="31" x="496.5" y="247.5352">AWS</text><!--MD5=[086394bb65cbfff9d73f0c7d82fb6ab9]
entity SipityFS--><rect fill="#FEFECE" filter="url(#fw9c16rjlgqlg)" height="52.9766" style="stroke: #A80036; stroke-width: 1.5;" width="73" x="306.5" y="121"/><rect fill="#FEFECE" height="5" style="stroke: #A80036; stroke-width: 1.5;" width="10" x="301.5" y="126"/><rect fill="#FEFECE" height="5" style="stroke: #A80036; stroke-width: 1.5;" width="10" x="301.5" y="163.9766"/><text fill="#000000" font-family="sans-serif" font-size="14" lengthAdjust="spacingAndGlyphs" textLength="24" x="316.5" y="144.5352">File</text><text fill="#000000" font-family="sans-serif" font-size="14" lengthAdjust="spacingAndGlyphs" textLength="53" x="316.5" y="161.0234">Storage</text><!--MD5=[eea5bb3b07aab377378f466a3ee76eed]
entity SipityDMS--><rect fill="#FEFECE" filter="url(#fw9c16rjlgqlg)" height="69.4648" style="stroke: #A80036; stroke-width: 1.5;" width="95" x="176.5" y="113"/><rect fill="#FEFECE" height="5" style="stroke: #A80036; stroke-width: 1.5;" width="10" x="171.5" y="118"/><rect fill="#FEFECE" height="5" style="stroke: #A80036; stroke-width: 1.5;" width="10" x="171.5" y="172.4648"/><text fill="#000000" font-family="sans-serif" font-size="14" lengthAdjust="spacingAndGlyphs" textLength="75" x="186.5" y="136.5352">Descriptive</text><text fill="#000000" font-family="sans-serif" font-size="14" lengthAdjust="spacingAndGlyphs" textLength="63" x="186.5" y="153.0234">Metadata</text><text fill="#000000" font-family="sans-serif" font-size="14" lengthAdjust="spacingAndGlyphs" textLength="53" x="186.5" y="169.5117">Storage</text><!--MD5=[f2df6e8b62a9930dbf353422601b0eae]
entity SipityBE--><rect fill="#FEFECE" filter="url(#fw9c16rjlgqlg)" height="36.4883" style="stroke: #A80036; stroke-width: 1.5;" width="121" x="282.5" y="365.5"/><rect fill="#FEFECE" height="5" style="stroke: #A80036; stroke-width: 1.5;" width="10" x="277.5" y="370.5"/><rect fill="#FEFECE" height="5" style="stroke: #A80036; stroke-width: 1.5;" width="10" x="277.5" y="391.9883"/><text fill="#000000" font-family="sans-serif" font-size="14" lengthAdjust="spacingAndGlyphs" textLength="101" x="292.5" y="389.0352">Batch Exporter</text><!--MD5=[cb4df5336486a6854d3cacb62bdca4bb]
entity SipityBL--><rect fill="#FEFECE" filter="url(#fw9c16rjlgqlg)" height="36.4883" style="stroke: #A80036; stroke-width: 1.5;" width="119" x="22.5" y="129.5"/><rect fill="#FEFECE" height="5" style="stroke: #A80036; stroke-width: 1.5;" width="10" x="17.5" y="134.5"/><rect fill="#FEFECE" height="5" style="stroke: #A80036; stroke-width: 1.5;" width="10" x="17.5" y="155.9883"/><text fill="#000000" font-family="sans-serif" font-size="14" lengthAdjust="spacingAndGlyphs" textLength="99" x="32.5" y="153.0352">Business Logic</text><!--MD5=[fcfc1b56d4b27b5666602875e12ba800]
entity SipityAPI--><ellipse cx="442" cy="147.5" fill="#FEFECE" filter="url(#fw9c16rjlgqlg)" rx="8" ry="8" style="stroke: #A80036; stroke-width: 2.0;"/><text fill="#000000" font-family="sans-serif" font-size="14" lengthAdjust="spacingAndGlyphs" textLength="22" x="431" y="178.0352">API</text><!--MD5=[2519f4b563146138a779359188ab3db5]
entity MySql--><path d="M72,371 C72,361 102,361 102,361 C102,361 132,361 132,371 L132,396.4883 C132,406.4883 102,406.4883 102,406.4883 C102,406.4883 72,406.4883 72,396.4883 L72,371 " fill="#FEFECE" filter="url(#fw9c16rjlgqlg)" style="stroke: #000000; stroke-width: 1.5;"/><path d="M72,371 C72,381 102,381 102,381 C102,381 132,381 132,371 " fill="none" style="stroke: #000000; stroke-width: 1.5;"/><text fill="#000000" font-family="sans-serif" font-size="14" lengthAdjust="spacingAndGlyphs" textLength="40" x="82" y="398.5352">MySql</text><!--MD5=[6c444dd6b145513787bf9986e8d9020c]
entity BatchAPI--><ellipse cx="496" cy="517" fill="#FEFECE" filter="url(#fw9c16rjlgqlg)" rx="8" ry="8" style="stroke: #A80036; stroke-width: 2.0;"/><text fill="#000000" font-family="sans-serif" font-size="14" lengthAdjust="spacingAndGlyphs" textLength="22" x="485" y="547.5352">API</text><!--MD5=[6c7192638421eaf134d201765ac5db29]
entity S3--><rect fill="#FEFECE" filter="url(#fw9c16rjlgqlg)" height="36.4883" style="stroke: #A80036; stroke-width: 1.5;" width="37" x="493.5" y="248"/><rect fill="#FEFECE" height="5" style="stroke: #A80036; stroke-width: 1.5;" width="10" x="488.5" y="253"/><rect fill="#FEFECE" height="5" style="stroke: #A80036; stroke-width: 1.5;" width="10" x="488.5" y="274.4883"/><text fill="#000000" font-family="sans-serif" font-size="14" lengthAdjust="spacingAndGlyphs" textLength="17" x="503.5" y="271.5352">S3</text><!--MD5=[64e29bcd0b3c7cd10fb363497c8a6b17]
entity OnBase--><polygon fill="#FEFECE" filter="url(#fw9c16rjlgqlg)" points="400,8,460,8,467,30.4883,484,30.4883,484,47.4883,400,47.4883,400,8" style="stroke: #000000; stroke-width: 1.5;"/><line style="stroke: #000000; stroke-width: 1.5;" x1="400" x2="467" y1="30.4883" y2="30.4883"/><text fill="#000000" font-family="sans-serif" font-size="14" font-weight="bold" lengthAdjust="spacingAndGlyphs" textLength="54" x="404" y="24.5352">OnBase</text><!--MD5=[fb31825af213da6fa3d981585d54d88b]
link SipityFS to S3--><path d="M383.8665,173.9986 C388.578,176.7945 393.3572,179.5187 398,182 C435.3715,201.9732 453.3083,192.8718 485,221 C491.8843,227.1102 497.5401,235.4064 501.8648,243.2115 " fill="none" id="SipityFS-S3" style="stroke: #A80036; stroke-width: 1.0;"/><polygon fill="#A80036" points="504.3845,247.9839,503.7195,238.1575,502.05,243.5624,496.6451,241.8928,504.3845,247.9839" style="stroke: #A80036; stroke-width: 1.0;"/><polygon fill="#A80036" points="379.5645,171.4157,385.2214,179.4779,383.8512,173.9895,389.3395,172.6193,379.5645,171.4157" style="stroke: #A80036; stroke-width: 1.0;"/><!--MD5=[57a474ff0dbb86bd3caa3ed6d223e2a1]
link SipityDMS to MySql--><path d="M203.6948,186.7789 C178.904,234.7349 137.6249,314.5863 116.0739,356.2751 " fill="none" id="SipityDMS-MySql" style="stroke: #A80036; stroke-width: 1.0;"/><polygon fill="#A80036" points="113.6722,360.921,121.3585,354.763,115.9683,356.4794,114.2519,351.0892,113.6722,360.921" style="stroke: #A80036; stroke-width: 1.0;"/><polygon fill="#A80036" points="206.1295,182.0692,198.4432,188.2271,203.8333,186.5108,205.5497,191.901,206.1295,182.0692" style="stroke: #A80036; stroke-width: 1.0;"/><!--MD5=[759236fd4672e0a665bfa15e299ecdaf]
link SipityBE to BatchAPI--><path d="M363.6343,401.5044 C395.5334,429.338 455.9277,482.035 482.6757,505.3739 " fill="none" id="SipityBE-&gt;BatchAPI" style="stroke: #A80036; stroke-width: 1.0; stroke-dasharray: 7.0,7.0;"/><polygon fill="#A80036" points="486.6702,508.8593,482.5186,499.9282,482.9028,505.572,477.259,505.9561,486.6702,508.8593" style="stroke: #A80036; stroke-width: 1.0;"/><text fill="#000000" font-family="sans-serif" font-size="13" lengthAdjust="spacingAndGlyphs" textLength="29" x="420" y="449.5684">uses</text><!--MD5=[c03c2e72ef4bc0306bf5c53655175255]
link SipityFS to SipityBE--><path d="M343,174.1134 C343,220.6803 343,316.1722 343,360.2545 " fill="none" id="SipityFS-&gt;SipityBE" style="stroke: #A80036; stroke-width: 1.0; stroke-dasharray: 7.0,7.0;"/><polygon fill="#A80036" points="343,365.3688,347,356.3688,343,360.3688,339,356.3688,343,365.3688" style="stroke: #A80036; stroke-width: 1.0;"/><text fill="#000000" font-family="sans-serif" font-size="13" lengthAdjust="spacingAndGlyphs" textLength="34" x="344" y="263.5684">reads</text><text fill="#000000" font-family="sans-serif" font-size="13" lengthAdjust="spacingAndGlyphs" textLength="30" x="346" y="278.8789">from</text><!--MD5=[0f128ae49dc373435f784e2f60b28feb]
link SipityDMS to SipityBE--><path d="M241.4311,182.0692 C266.1093,231.0108 310.5554,319.156 331.4948,360.6829 " fill="none" id="SipityDMS-&gt;SipityBE" style="stroke: #A80036; stroke-width: 1.0; stroke-dasharray: 7.0,7.0;"/><polygon fill="#A80036" points="333.8085,365.2715,333.3278,355.4344,331.5572,360.807,326.1846,359.0364,333.8085,365.2715" style="stroke: #A80036; stroke-width: 1.0;"/><text fill="#000000" font-family="sans-serif" font-size="13" lengthAdjust="spacingAndGlyphs" textLength="34" x="296" y="263.5684">reads</text><text fill="#000000" font-family="sans-serif" font-size="13" lengthAdjust="spacingAndGlyphs" textLength="30" x="298" y="278.8789">from</text><!--MD5=[9141b46874f4d1284305a21c03beed8e]
link Batch to SipityAPI--><path d="M566.0614,482.4584 C566.1215,482.1577 566.1818,481.8554 566.2421,481.5515 C570.1016,462.0996 574.3324,435.9993 576.5639,406.7329 C581.0269,348.2 577.4932,277.0026 547,221 C527.017,184.3 479.8474,161.8915 456.1321,152.5563 " fill="none" id="Batch-&gt;SipityAPI" style="stroke: #A80036; stroke-width: 1.0; stroke-dasharray: 7.0,7.0;"/><polygon fill="#A80036" points="451.1757,150.662,458.1545,157.6116,455.8462,152.4471,461.0107,150.1388,451.1757,150.662" style="stroke: #A80036; stroke-width: 1.0;"/><text fill="#000000" font-family="sans-serif" font-size="13" lengthAdjust="spacingAndGlyphs" textLength="48" x="577" y="327.5684">notifies</text><!--MD5=[189dbbbd6262b372cc132d4c59b03ac9]
link SipityBL to MySql--><path d="M83.9591,170.6173 C87.6579,214.2631 95.6551,308.6303 99.6416,355.6708 " fill="none" id="SipityBL-MySql" style="stroke: #A80036; stroke-width: 1.0;"/><polygon fill="#A80036" points="100.0842,360.8931,103.3098,351.5874,99.6619,355.911,95.3384,352.2631,100.0842,360.8931" style="stroke: #A80036; stroke-width: 1.0;"/><polygon fill="#A80036" points="83.5362,165.6267,80.3106,174.9324,83.9585,170.6088,88.282,174.2567,83.5362,165.6267" style="stroke: #A80036; stroke-width: 1.0;"/><!--MD5=[2c5a6ac1e2b6c0373a9ef7a8aebedb15]
link OnBase to SipityAPI--><path d="M442,47.0471 C442,71.1893 442,111.6871 442,133.146 " fill="none" id="OnBase-&gt;SipityAPI" style="stroke: #A80036; stroke-width: 1.0; stroke-dasharray: 7.0,7.0;"/><polygon fill="#A80036" points="442,138.4175,446,129.4175,442,133.4175,438,129.4175,442,138.4175" style="stroke: #A80036; stroke-width: 1.0;"/><!--MD5=[4a9f12f3186132919ca9d6f67991b558]
@startuml

package "Sipity" {
  component "File\nStorage" as SipityFS
  component "Descriptive\nMetadata\nStorage" as SipityDMS
  component "Batch Exporter" as SipityBE
  component "Business Logic" as SipityBL
  interface "API" as SipityAPI
  database "MySql"

}

package "Batch Ingest" as Batch {
  interface "API" as BatchAPI
}

package OnBase

cloud "AWS" {
  component S3
}

SipityFS <- -> S3
SipityDMS <- -> MySql
SipityBE ..> BatchAPI : uses
SipityFS ..> SipityBE : reads\nfrom
SipityDMS ..> SipityBE : reads\nfrom
Batch ..> SipityAPI : notifies
SipityBL <- -> MySql
OnBase ..> SipityAPI

@enduml

PlantUML version 1.2019.10(Fri Sep 13 16:53:03 EDT 2019)
(GPL source distribution)
Java Runtime: Java(TM) SE Runtime Environment
JVM: Java HotSpot(TM) 64-Bit Server VM
Java Version: 1.8.0_102-b14
Operating System: Mac OS X
Default Encoding: UTF-8
Language: en
Country: US
--></g></svg>