<?xml version="1.0" encoding="UTF-8" standalone="no"?><svg xmlns="http://www.w3.org/2000/svg" xmlns:xlink="http://www.w3.org/1999/xlink" contentScriptType="application/ecmascript" contentStyleType="text/css" height="492px" preserveAspectRatio="none" style="width:744px;height:492px;" version="1.1" viewBox="0 0 744 492"
    width="744px" zoomAndPan="magnify"><defs><filter height="300%" id="fskqmimmdh6e7" width="300%" x="-1" y="-1"><feGaussianBlur result="blurOut" stdDeviation="2.0"/><feColorMatrix in="blurOut" result="blurOut2" type="matrix" values="0 0 0 0 0 0 0 0 0 0 0 0 0 0 0 0 0 0 .4 0"/><feOffset dx="4.0" dy="4.0" in="blurOut2" result="blurOut3"/><feBlend in="SourceGraphic" in2="blurOut3" mode="normal"/></filter></defs><g><!--MD5=[036b8ca5bbb5aa0b6f239061697e4f2d]
cluster Sipity--><polygon fill="#FFFFFF" filter="url(#fskqmimmdh6e7)" points="14,16.5,61,16.5,68,38.9883,437,38.9883,437,340,14,340,14,16.5" style="stroke: #000000; stroke-width: 1.5;"/><line style="stroke: #000000; stroke-width: 1.5;" x1="14" x2="68" y1="38.9883" y2="38.9883"/><text fill="#000000" font-family="sans-serif" font-size="14" font-weight="bold" lengthAdjust="spacingAndGlyphs" textLength="41" x="18" y="32.0352">Sipity</text><!--MD5=[9fb29cc85e17942a91d70f73a32acee1]
cluster BI--><polygon fill="#FFFFFF" filter="url(#fskqmimmdh6e7)" points="459,387,554,387,561,409.4883,626,409.4883,626,480,459,480,459,387" style="stroke: #000000; stroke-width: 1.5;"/><line style="stroke: #000000; stroke-width: 1.5;" x1="459" x2="561" y1="409.4883" y2="409.4883"/><text fill="#000000" font-family="sans-serif" font-size="14" font-weight="bold" lengthAdjust="spacingAndGlyphs" textLength="89" x="463" y="402.5352">Batch Ingest</text><!--MD5=[88656e78e5bedad418341b6ececa151e]
cluster AWS--><path d="M454.7877,161.0225 C457.2565,155.2784 462.3434,155.5456 465.8909,159.828 C468.6128,153.4685 474.1743,153.8245 477.5566,159.1698 C480.338,153.1587 485.5853,153.7247 488.8371,158.6862 C491.8671,153.5822 496.7864,151.9993 500.5223,157.9393 C504.4167,153.3622 508.513,152.1794 512.0596,158.3139 C516.2855,154.3412 519.3363,155.4525 521.4788,160.4916 C525.0584,155.4599 530.0143,155.1293 533.0121,161.1014 C535.692,154.9844 540.8956,154.9957 544.6274,160.0031 C552.6218,163.2369 553.2323,167.981 547.1625,173.7992 C554.1522,176.5821 556.2563,182.2119 550.3539,187.9104 C556.9767,193.7239 555.3561,198.7469 547.8206,202.018 C553.3708,206.6709 552.3697,212.2994 545.4593,214.6169 C543.0444,220.6989 537.269,220.2315 533.7533,215.8483 C529.649,221.5401 525.6565,221.9398 521.87,215.5361 C519.2258,220.1906 515.8799,222.1839 511.7183,217.1212 C507.6494,221.8749 503.3497,223.2573 499.6144,216.7622 C496.108,221.4223 492.5134,222.9685 488.5136,217.292 C484.6262,223.4255 480.3108,222.0949 476.8183,216.8849 C473.523,222.7748 468.28,221.5002 465.2478,216.6027 C462.3759,221.6481 457.52,220.967 454.8462,216.3887 C447.2331,213.877 444.2294,207.8834 450.9967,201.6227 C443.5672,197.5896 444.1939,191.9459 450.5027,187.4345 C444.4828,182.7194 445.4908,178.9256 451.6696,175.3927 C445.4353,170.0429 446.4824,163.2176 454.7877,161.0225 " fill="#FFFFFF" style="stroke: #000000; stroke-width: 1.5;"/><text fill="#000000" font-family="sans-serif" font-size="14" font-weight="bold" lengthAdjust="spacingAndGlyphs" textLength="31" x="483" y="178.0352">AWS</text><!--MD5=[02b0da7e54b74cbea8f6462e138178e8]
entity FS--><rect fill="#FEFECE" filter="url(#fskqmimmdh6e7)" height="52.9766" style="stroke: #A80036; stroke-width: 1.5;" width="73" x="22.5" y="51.5"/><rect fill="#FEFECE" height="5" style="stroke: #A80036; stroke-width: 1.5;" width="10" x="17.5" y="56.5"/><rect fill="#FEFECE" height="5" style="stroke: #A80036; stroke-width: 1.5;" width="10" x="17.5" y="94.4766"/><text fill="#000000" font-family="sans-serif" font-size="14" lengthAdjust="spacingAndGlyphs" textLength="24" x="32.5" y="75.0352">File</text><text fill="#000000" font-family="sans-serif" font-size="14" lengthAdjust="spacingAndGlyphs" textLength="53" x="32.5" y="91.5234">Storage</text><!--MD5=[765522d02420a6f826548b3dddd5143a]
entity DMS--><rect fill="#FEFECE" filter="url(#fskqmimmdh6e7)" height="69.4648" style="stroke: #A80036; stroke-width: 1.5;" width="95" x="130.5" y="43.5"/><rect fill="#FEFECE" height="5" style="stroke: #A80036; stroke-width: 1.5;" width="10" x="125.5" y="48.5"/><rect fill="#FEFECE" height="5" style="stroke: #A80036; stroke-width: 1.5;" width="10" x="125.5" y="102.9648"/><text fill="#000000" font-family="sans-serif" font-size="14" lengthAdjust="spacingAndGlyphs" textLength="75" x="140.5" y="67.0352">Descriptive</text><text fill="#000000" font-family="sans-serif" font-size="14" lengthAdjust="spacingAndGlyphs" textLength="63" x="140.5" y="83.5234">Metadata</text><text fill="#000000" font-family="sans-serif" font-size="14" lengthAdjust="spacingAndGlyphs" textLength="53" x="140.5" y="100.0117">Storage</text><!--MD5=[77b0ea1454fe7a7546e2e8ed5acd0c75]
entity BE--><rect fill="#FEFECE" filter="url(#fskqmimmdh6e7)" height="36.4883" style="stroke: #A80036; stroke-width: 1.5;" width="121" x="117.5" y="296"/><rect fill="#FEFECE" height="5" style="stroke: #A80036; stroke-width: 1.5;" width="10" x="112.5" y="301"/><rect fill="#FEFECE" height="5" style="stroke: #A80036; stroke-width: 1.5;" width="10" x="112.5" y="322.4883"/><text fill="#000000" font-family="sans-serif" font-size="14" lengthAdjust="spacingAndGlyphs" textLength="101" x="127.5" y="319.5352">Batch Exporter</text><!--MD5=[0780ab315ad9a7886f8ff94304e1d4cd]
entity SW--><rect fill="#FEFECE" filter="url(#fskqmimmdh6e7)" height="36.4883" style="stroke: #A80036; stroke-width: 1.5;" width="91" x="260.5" y="60"/><rect fill="#FEFECE" height="5" style="stroke: #A80036; stroke-width: 1.5;" width="10" x="255.5" y="65"/><rect fill="#FEFECE" height="5" style="stroke: #A80036; stroke-width: 1.5;" width="10" x="255.5" y="86.4883"/><text fill="#000000" font-family="sans-serif" font-size="14" lengthAdjust="spacingAndGlyphs" textLength="71" x="270.5" y="83.5352">Workflows</text><!--MD5=[873415d40992561dfea2839a0db72c72]
entity SAPI--><rect fill="#FEFECE" filter="url(#fskqmimmdh6e7)" height="36.4883" style="stroke: #A80036; stroke-width: 1.5;" width="42" x="387" y="60"/><rect fill="#FEFECE" height="5" style="stroke: #A80036; stroke-width: 1.5;" width="10" x="382" y="65"/><rect fill="#FEFECE" height="5" style="stroke: #A80036; stroke-width: 1.5;" width="10" x="382" y="86.4883"/><text fill="#000000" font-family="sans-serif" font-size="14" lengthAdjust="spacingAndGlyphs" textLength="22" x="397" y="83.5352">API</text><!--MD5=[e53721c1064511116ef0b6a555bf123f]
entity BIHI--><ellipse cx="525" cy="443" fill="#FEFECE" filter="url(#fskqmimmdh6e7)" rx="8" ry="8" style="stroke: #A80036; stroke-width: 2.0;"/><text fill="#000000" font-family="sans-serif" font-size="14" lengthAdjust="spacingAndGlyphs" textLength="100" x="475" y="473.5352">HTTP Interface</text><!--MD5=[dc5f76b7e3a6999ba4f41f6f048f1788]
entity FSI--><ellipse cx="462" cy="196.5" fill="#FEFECE" filter="url(#fskqmimmdh6e7)" rx="8" ry="8" style="stroke: #A80036; stroke-width: 2.0;"/><text fill="#000000" font-family="sans-serif" font-size="14" lengthAdjust="spacingAndGlyphs" textLength="24" x="432" y="227.0352">File</text><text fill="#000000" font-family="sans-serif" font-size="14" lengthAdjust="spacingAndGlyphs" textLength="53" x="432" y="243.5234">Storage</text><text fill="#000000" font-family="sans-serif" font-size="14" lengthAdjust="spacingAndGlyphs" textLength="60" x="432" y="260.0117">Interface</text><!--MD5=[6c7192638421eaf134d201765ac5db29]
entity S3--><rect fill="#FEFECE" filter="url(#fskqmimmdh6e7)" height="36.4883" style="stroke: #A80036; stroke-width: 1.5;" width="37" x="506.5" y="178.5"/><rect fill="#FEFECE" height="5" style="stroke: #A80036; stroke-width: 1.5;" width="10" x="501.5" y="183.5"/><rect fill="#FEFECE" height="5" style="stroke: #A80036; stroke-width: 1.5;" width="10" x="501.5" y="204.9883"/><text fill="#000000" font-family="sans-serif" font-size="14" lengthAdjust="spacingAndGlyphs" textLength="17" x="516.5" y="202.0352">S3</text><!--MD5=[2519f4b563146138a779359188ab3db5]
entity MySql--><path d="M579,184 C579,174 609,174 609,174 C609,174 639,174 639,184 L639,209.4883 C639,219.4883 609,219.4883 609,219.4883 C609,219.4883 579,219.4883 579,209.4883 L579,184 " fill="#FEFECE" filter="url(#fskqmimmdh6e7)" style="stroke: #000000; stroke-width: 1.5;"/><path d="M579,184 C579,194 609,194 609,194 C609,194 639,194 639,184 " fill="none" style="stroke: #000000; stroke-width: 1.5;"/><text fill="#000000" font-family="sans-serif" font-size="14" lengthAdjust="spacingAndGlyphs" textLength="40" x="589" y="211.5352">MySql</text><!--MD5=[b6ffc6ed18935c002b12796335b3a2c5]
link FS to FSI--><path d="M100.1717,106.8317 C104.3824,109.0018 108.6967,110.9465 113,112.5 C217.4805,150.2174 250.5871,131.3441 361,143.5 C379.6385,145.552 430.0984,140.1182 445,151.5 C454.4949,158.7522 458.6867,171.9523 460.5373,182.1876 " fill="none" id="FS-FSI" style="stroke: #A80036; stroke-width: 1.0;"/><polygon fill="#A80036" points="461.3073,187.2225,463.9005,177.7212,460.5513,182.28,455.9925,178.9308,461.3073,187.2225" style="stroke: #A80036; stroke-width: 1.0;"/><polygon fill="#A80036" points="95.6488,104.3962,101.6765,112.1851,100.0511,106.7668,105.4694,105.1414,95.6488,104.3962" style="stroke: #A80036; stroke-width: 1.0;"/><!--MD5=[d25cd45a4f339fb6ad47a56dd0327196]
link FSI to S3--><path d="M471.3516,196.5 C482.9474,196.5 494.5433,196.5 506.1392,196.5 " fill="none" id="FSI-S3" style="stroke: #A80036; stroke-width: 1.0;"/><!--MD5=[6a10a2691541c06504592f7c7acc0354]
link DMS to MySql--><path d="M230.5981,107.925 C234.7218,109.6479 238.8836,111.2032 243,112.5 C276.8479,123.163 527.782,136.621 560,151.5 C569.5519,155.9113 578.5104,162.881 586.0882,170.0299 " fill="none" id="DMS-MySql" style="stroke: #A80036; stroke-width: 1.0;"/><polygon fill="#A80036" points="589.6939,173.5433,586.0396,164.3975,586.1129,170.0538,580.4565,170.1271,589.6939,173.5433" style="stroke: #A80036; stroke-width: 1.0;"/><polygon fill="#A80036" points="225.7799,105.8307,232.4394,113.0868,230.3655,107.8238,235.6284,105.7499,225.7799,105.8307" style="stroke: #A80036; stroke-width: 1.0;"/><!--MD5=[8f0211e257db8302bec48cc787e63340]
link BE to BIHI--><path d="M226.6142,332.0727 C307.0584,361.9785 463.7003,420.2113 511.089,437.8285 " fill="none" id="BE-&gt;BIHI" style="stroke: #A80036; stroke-width: 1.0; stroke-dasharray: 7.0,7.0;"/><polygon fill="#A80036" points="515.825,439.5891,508.7829,432.7037,511.1384,437.8468,505.9952,440.2022,515.825,439.5891" style="stroke: #A80036; stroke-width: 1.0;"/><text fill="#000000" font-family="sans-serif" font-size="13" lengthAdjust="spacingAndGlyphs" textLength="29" x="352" y="375.5684">uses</text><!--MD5=[9ee412f26ebdf2af884b74d2c1da747c]
link FS to BE--><path d="M72.4195,104.6134 C95.9957,151.3696 144.4427,247.4494 166.5485,291.2895 " fill="none" id="FS-&gt;BE" style="stroke: #A80036; stroke-width: 1.0; stroke-dasharray: 7.0,7.0;"/><polygon fill="#A80036" points="168.8576,295.8688,168.3769,286.0317,166.6063,291.4043,161.2337,289.6337,168.8576,295.8688" style="stroke: #A80036; stroke-width: 1.0;"/><text fill="#000000" font-family="sans-serif" font-size="13" lengthAdjust="spacingAndGlyphs" textLength="34" x="132" y="194.0684">reads</text><text fill="#000000" font-family="sans-serif" font-size="13" lengthAdjust="spacingAndGlyphs" textLength="30" x="134" y="209.3789">from</text><!--MD5=[84a0859af64183f922da8be921b6f476]
link DMS to BE--><path d="M178,112.5692 C178,161.3123 178,248.9415 178,290.6752 " fill="none" id="DMS-&gt;BE" style="stroke: #A80036; stroke-width: 1.0; stroke-dasharray: 7.0,7.0;"/><polygon fill="#A80036" points="178,295.7715,182,286.7715,178,290.7715,174,286.7715,178,295.7715" style="stroke: #A80036; stroke-width: 1.0;"/><text fill="#000000" font-family="sans-serif" font-size="13" lengthAdjust="spacingAndGlyphs" textLength="34" x="179" y="194.0684">reads</text><text fill="#000000" font-family="sans-serif" font-size="13" lengthAdjust="spacingAndGlyphs" textLength="30" x="181" y="209.3789">from</text><!--MD5=[0d753d584a07956eaf326d6a435770b8]
link BI to SAPI--><path d="M626.0542,429.1624 C626.1678,428.9583 626.2823,428.752 626.3977,428.5438 C626.8595,427.7108 627.336,426.8454 627.8264,425.9484 C628.8071,424.1544 629.843,422.2342 630.9252,420.1953 C633.0898,416.1174 635.4401,411.5647 637.9068,406.5966 C647.7734,386.7245 659.5013,360.2083 668.6476,330.8681 C686.94,272.1877 694.9056,202.2115 657,151.5 C629.9537,115.3165 492.5999,90.734 434.2641,81.7693 " fill="none" id="BI-&gt;SAPI" style="stroke: #A80036; stroke-width: 1.0; stroke-dasharray: 7.0,7.0;"/><polygon fill="#A80036" points="429.2034,81.0004,437.5004,86.3071,434.1467,81.7515,438.7022,78.3978,429.2034,81.0004" style="stroke: #A80036; stroke-width: 1.0;"/><text fill="#000000" font-family="sans-serif" font-size="13" lengthAdjust="spacingAndGlyphs" textLength="48" x="684" y="262.5684">notifies</text><!--MD5=[31d61e23e9de58c2e48d9f8b4d26752e]
link SW to MySql--><path d="M339.7074,98.5436 C349.2416,103.6915 359.8042,108.7964 370,112.5 C451.025,141.9323 483.2465,112.2545 560,151.5 C569.3678,156.2899 578.2731,163.3688 585.859,170.5012 " fill="none" id="SW-MySql" style="stroke: #A80036; stroke-width: 1.0;"/><polygon fill="#A80036" points="589.4732,173.9971,585.7851,164.8648,585.8793,170.5209,580.2232,170.6151,589.4732,173.9971" style="stroke: #A80036; stroke-width: 1.0;"/><polygon fill="#A80036" points="335.1157,96.0189,341.0749,103.8603,339.4971,98.428,344.9294,96.8501,335.1157,96.0189" style="stroke: #A80036; stroke-width: 1.0;"/><!--MD5=[ba8ac1a9c9322b240999d7772911edd3]
@startuml

package "Sipity" {
  component "File\nStorage" as FS
  component "Descriptive\nMetadata\nStorage" as DMS
  component "Batch Exporter" as BE
  component "Workflows" as SW
  component "API" as SAPI

}

package "Batch Ingest" as BI {
  interface "HTTP Interface" as BIHI
}

cloud "AWS" {
  interface "File\nStorage\nInterface" as FSI
  component S3
}

database "MySql"

FS <- -> FSI
FSI - S3
DMS <- -> MySql
BE ..> BIHI : uses
FS ..> BE : reads\nfrom
DMS ..> BE : reads\nfrom
BI ..> SAPI : notifies
SW <- -> MySql

@enduml

PlantUML version 1.2019.10(Fri Sep 13 16:53:03 EDT 2019)
(GPL source distribution)
Java Runtime: Java(TM) SE Runtime Environment
JVM: Java HotSpot(TM) 64-Bit Server VM
Java Version: 1.8.0_102-b14
Operating System: Mac OS X
Default Encoding: UTF-8
Language: en
Country: US
--></g></svg>