<?xml version="1.0" encoding="UTF-8" standalone="no"?><svg xmlns="http://www.w3.org/2000/svg" xmlns:xlink="http://www.w3.org/1999/xlink" contentScriptType="application/ecmascript" contentStyleType="text/css" height="580px" preserveAspectRatio="none" style="width:686px;height:580px;" version="1.1" viewBox="0 0 686 580"
    width="686px" zoomAndPan="magnify"><defs><filter height="300%" id="fcpahrfcra75q" width="300%" x="-1" y="-1"><feGaussianBlur result="blurOut" stdDeviation="2.0"/><feColorMatrix in="blurOut" result="blurOut2" type="matrix" values="0 0 0 0 0 0 0 0 0 0 0 0 0 0 0 0 0 0 .4 0"/><feOffset dx="4.0" dy="4.0" in="blurOut2" result="blurOut3"/><feBlend in="SourceGraphic" in2="blurOut3" mode="normal"/></filter></defs><g><!--MD5=[036b8ca5bbb5aa0b6f239061697e4f2d]
cluster Sipity--><polygon fill="#FFFFFF" filter="url(#fcpahrfcra75q)" points="14,86,61,86,68,108.4883,477,108.4883,477,444,14,444,14,86" style="stroke: #000000; stroke-width: 1.5;"/><line style="stroke: #000000; stroke-width: 1.5;" x1="14" x2="68" y1="108.4883" y2="108.4883"/><text fill="#000000" font-family="sans-serif" font-size="14" font-weight="bold" lengthAdjust="spacingAndGlyphs" textLength="41" x="18" y="101.5352">Sipity</text><!--MD5=[aa67b594d9c629de74c234d94f00fd81]
cluster Batch--><polygon fill="#FFFFFF" filter="url(#fcpahrfcra75q)" points="461,475,556,475,563,497.4883,566,497.4883,566,568,461,568,461,475" style="stroke: #000000; stroke-width: 1.5;"/><line style="stroke: #000000; stroke-width: 1.5;" x1="461" x2="563" y1="497.4883" y2="497.4883"/><text fill="#000000" font-family="sans-serif" font-size="14" font-weight="bold" lengthAdjust="spacingAndGlyphs" textLength="89" x="465" y="490.5352">Batch Ingest</text><!--MD5=[88656e78e5bedad418341b6ececa151e]
cluster AWS--><path d="M494.2142,229.3987 C498.2106,219.2568 506.6197,218.4377 512.7981,227.2605 C520.0291,218.0921 528.2343,221.0645 531.9456,230.8215 C538.62,232.9215 541.1897,236.5421 536.5679,242.948 C544.7793,245.2936 546.3353,252.1921 539.5576,257.5968 C544.8206,263.0835 543.9676,269.1982 535.7758,270.8437 C541.3614,276.562 539.3851,282.4655 532.2753,285.0573 C526.9053,295.5718 520.741,295.7505 512.3952,288.3616 C505.2252,297.0689 498.2758,294.3269 494.2514,285.1674 C485.8752,282.919 484.4762,277.5534 490.8642,271.615 C482.9725,270.1406 481.4699,263.5857 487.4168,258.4793 C480.3828,252.3259 482.761,246.2368 490.3964,242.8865 C486.0046,237.22 487.0733,231.8009 494.2142,229.3987 " fill="#FFFFFF" style="stroke: #000000; stroke-width: 1.5;"/><text fill="#000000" font-family="sans-serif" font-size="14" font-weight="bold" lengthAdjust="spacingAndGlyphs" textLength="31" x="496.5" y="247.5352">AWS</text><!--MD5=[086394bb65cbfff9d73f0c7d82fb6ab9]
entity SipityFS--><rect fill="#FEFECE" filter="url(#fcpahrfcra75q)" height="52.9766" style="stroke: #A80036; stroke-width: 1.5;" width="73" x="306.5" y="121"/><rect fill="#FEFECE" height="5" style="stroke: #A80036; stroke-width: 1.5;" width="10" x="301.5" y="126"/><rect fill="#FEFECE" height="5" style="stroke: #A80036; stroke-width: 1.5;" width="10" x="301.5" y="163.9766"/><text fill="#000000" font-family="sans-serif" font-size="14" lengthAdjust="spacingAndGlyphs" textLength="24" x="316.5" y="144.5352">File</text><text fill="#000000" font-family="sans-serif" font-size="14" lengthAdjust="spacingAndGlyphs" textLength="53" x="316.5" y="161.0234">Storage</text><!--MD5=[eea5bb3b07aab377378f466a3ee76eed]
entity SipityDMS--><rect fill="#FEFECE" filter="url(#fcpahrfcra75q)" height="69.4648" style="stroke: #A80036; stroke-width: 1.5;" width="95" x="176.5" y="113"/><rect fill="#FEFECE" height="5" style="stroke: #A80036; stroke-width: 1.5;" width="10" x="171.5" y="118"/><rect fill="#FEFECE" height="5" style="stroke: #A80036; stroke-width: 1.5;" width="10" x="171.5" y="172.4648"/><text fill="#000000" font-family="sans-serif" font-size="14" lengthAdjust="spacingAndGlyphs" textLength="75" x="186.5" y="136.5352">Descriptive</text><text fill="#000000" font-family="sans-serif" font-size="14" lengthAdjust="spacingAndGlyphs" textLength="63" x="186.5" y="153.0234">Metadata</text><text fill="#000000" font-family="sans-serif" font-size="14" lengthAdjust="spacingAndGlyphs" textLength="53" x="186.5" y="169.5117">Storage</text><!--MD5=[f2df6e8b62a9930dbf353422601b0eae]
entity SipityBE--><rect fill="#FEFECE" filter="url(#fcpahrfcra75q)" height="36.4883" style="stroke: #A80036; stroke-width: 1.5;" width="121" x="282.5" y="395.5"/><rect fill="#FEFECE" height="5" style="stroke: #A80036; stroke-width: 1.5;" width="10" x="277.5" y="400.5"/><rect fill="#FEFECE" height="5" style="stroke: #A80036; stroke-width: 1.5;" width="10" x="277.5" y="421.9883"/><text fill="#000000" font-family="sans-serif" font-size="14" lengthAdjust="spacingAndGlyphs" textLength="101" x="292.5" y="419.0352">Batch Exporter</text><!--MD5=[cb4df5336486a6854d3cacb62bdca4bb]
entity SipityBL--><rect fill="#FEFECE" filter="url(#fcpahrfcra75q)" height="36.4883" style="stroke: #A80036; stroke-width: 1.5;" width="119" x="22.5" y="129.5"/><rect fill="#FEFECE" height="5" style="stroke: #A80036; stroke-width: 1.5;" width="10" x="17.5" y="134.5"/><rect fill="#FEFECE" height="5" style="stroke: #A80036; stroke-width: 1.5;" width="10" x="17.5" y="155.9883"/><text fill="#000000" font-family="sans-serif" font-size="14" lengthAdjust="spacingAndGlyphs" textLength="99" x="32.5" y="153.0352">Business Logic</text><!--MD5=[fcfc1b56d4b27b5666602875e12ba800]
entity SipityAPI--><ellipse cx="442" cy="147.5" fill="#FEFECE" filter="url(#fcpahrfcra75q)" rx="8" ry="8" style="stroke: #A80036; stroke-width: 2.0;"/><text fill="#000000" font-family="sans-serif" font-size="14" lengthAdjust="spacingAndGlyphs" textLength="22" x="431" y="178.0352">API</text><!--MD5=[2519f4b563146138a779359188ab3db5]
entity MySql--><path d="M120,401 C120,391 150,391 150,391 C150,391 180,391 180,401 L180,426.4883 C180,436.4883 150,436.4883 150,436.4883 C150,436.4883 120,436.4883 120,426.4883 L120,401 " fill="#FEFECE" filter="url(#fcpahrfcra75q)" style="stroke: #000000; stroke-width: 1.5;"/><path d="M120,401 C120,411 150,411 150,411 C150,411 180,411 180,401 " fill="none" style="stroke: #000000; stroke-width: 1.5;"/><text fill="#000000" font-family="sans-serif" font-size="14" lengthAdjust="spacingAndGlyphs" textLength="40" x="130" y="428.5352">MySql</text><!--MD5=[6c444dd6b145513787bf9986e8d9020c]
entity BatchAPI--><ellipse cx="496" cy="531" fill="#FEFECE" filter="url(#fcpahrfcra75q)" rx="8" ry="8" style="stroke: #A80036; stroke-width: 2.0;"/><text fill="#000000" font-family="sans-serif" font-size="14" lengthAdjust="spacingAndGlyphs" textLength="22" x="485" y="561.5352">API</text><!--MD5=[6c7192638421eaf134d201765ac5db29]
entity S3--><rect fill="#FEFECE" filter="url(#fcpahrfcra75q)" height="36.4883" style="stroke: #A80036; stroke-width: 1.5;" width="37" x="493.5" y="248"/><rect fill="#FEFECE" height="5" style="stroke: #A80036; stroke-width: 1.5;" width="10" x="488.5" y="253"/><rect fill="#FEFECE" height="5" style="stroke: #A80036; stroke-width: 1.5;" width="10" x="488.5" y="274.4883"/><text fill="#000000" font-family="sans-serif" font-size="14" lengthAdjust="spacingAndGlyphs" textLength="17" x="503.5" y="271.5352">S3</text><!--MD5=[64e29bcd0b3c7cd10fb363497c8a6b17]
entity OnBase--><polygon fill="#FEFECE" filter="url(#fcpahrfcra75q)" points="400,8,460,8,467,30.4883,484,30.4883,484,47.4883,400,47.4883,400,8" style="stroke: #000000; stroke-width: 1.5;"/><line style="stroke: #000000; stroke-width: 1.5;" x1="400" x2="467" y1="30.4883" y2="30.4883"/><text fill="#000000" font-family="sans-serif" font-size="14" font-weight="bold" lengthAdjust="spacingAndGlyphs" textLength="54" x="404" y="24.5352">OnBase</text><!--MD5=[fb31825af213da6fa3d981585d54d88b]
link SipityFS to S3--><path d="M379.5645,171.4157 C385.6391,175.1038 391.936,178.7591 398,182 C435.3715,201.9732 453.3083,192.8718 485,221 C491.8843,227.1102 497.5401,235.4064 501.8648,243.2115 " fill="none" id="SipityFS-&gt;S3" style="stroke: #A80036; stroke-width: 1.0;"/><polygon fill="#A80036" points="504.3845,247.9839,503.7195,238.1575,502.05,243.5624,496.6451,241.8928,504.3845,247.9839" style="stroke: #A80036; stroke-width: 1.0;"/><!--MD5=[57a474ff0dbb86bd3caa3ed6d223e2a1]
link SipityDMS to MySql--><path d="M214.4017,182.0022 C199.5431,235.4128 171.2713,337.0382 157.6767,385.9056 " fill="none" id="SipityDMS-&gt;MySql" style="stroke: #A80036; stroke-width: 1.0;"/><polygon fill="#A80036" points="156.3291,390.7496,162.595,383.151,157.6692,385.9325,154.8877,381.0068,156.3291,390.7496" style="stroke: #A80036; stroke-width: 1.0;"/><!--MD5=[759236fd4672e0a665bfa15e299ecdaf]
link SipityBE to BatchAPI--><path d="M366.5709,431.6019 C399.0592,456.552 456.5279,500.6865 482.5405,520.6634 " fill="none" id="SipityBE-&gt;BatchAPI" style="stroke: #A80036; stroke-width: 1.0;"/><polygon fill="#A80036" points="486.7283,523.8796,482.0268,515.2254,482.7628,520.8341,477.154,521.5701,486.7283,523.8796" style="stroke: #A80036; stroke-width: 1.0;"/><!--MD5=[c03c2e72ef4bc0306bf5c53655175255]
link SipityFS to SipityBE--><path d="M343,174.4693 C343,226.7183 343,340.9198 343,390.1509 " fill="none" id="SipityFS-&gt;SipityBE" style="stroke: #A80036; stroke-width: 1.0;"/><polygon fill="#A80036" points="343,395.2675,347,386.2675,343,390.2675,339,386.2675,343,395.2675" style="stroke: #A80036; stroke-width: 1.0;"/><!--MD5=[0f128ae49dc373435f784e2f60b28feb]
link SipityDMS to SipityBE--><path d="M239.4352,182.0022 C264.1198,237.1796 311.8248,343.8143 332.7455,390.5781 " fill="none" id="SipityDMS-&gt;SipityBE" style="stroke: #A80036; stroke-width: 1.0;"/><polygon fill="#A80036" points="334.8042,395.1799,334.7802,385.3311,332.7624,390.6158,327.4776,388.598,334.8042,395.1799" style="stroke: #A80036; stroke-width: 1.0;"/><!--MD5=[9141b46874f4d1284305a21c03beed8e]
link Batch to SipityAPI--><path d="M566.1387,496.7007 C566.2019,496.3927 566.2651,496.0831 566.3285,495.7717 C566.4553,495.1489 566.5825,494.5192 566.7101,493.8827 C570.7941,473.5146 575.2794,446.184 577.6735,415.536 C582.4616,354.2401 578.8844,279.6746 547,221 C527.0478,184.2833 479.8638,161.8825 456.1386,152.5527 " fill="none" id="Batch-&gt;SipityAPI" style="stroke: #A80036; stroke-width: 1.0; stroke-dasharray: 7.0,7.0;"/><polygon fill="#A80036" points="451.1801,150.6596,458.1615,157.6066,455.8512,152.443,461.0149,150.1328,451.1801,150.6596" style="stroke: #A80036; stroke-width: 1.0;"/><text fill="#000000" font-family="sans-serif" font-size="13" lengthAdjust="spacingAndGlyphs" textLength="94" x="580" y="327.5684">From Webhook</text><text fill="#000000" font-family="sans-serif" font-size="13" lengthAdjust="spacingAndGlyphs" textLength="74" x="590" y="342.8789">provided by</text><text fill="#000000" font-family="sans-serif" font-size="13" lengthAdjust="spacingAndGlyphs" textLength="35" x="609.5" y="358.1895">Sipity</text><!--MD5=[189dbbbd6262b372cc132d4c59b03ac9]
link SipityBL to MySql--><path d="M86.6739,165.7833 C98.3594,211.4942 128.9053,330.9826 142.8599,385.5695 " fill="none" id="SipityBL-&gt;MySql" style="stroke: #A80036; stroke-width: 1.0;"/><polygon fill="#A80036" points="144.1573,390.6448,145.8035,380.9345,142.9189,385.8006,138.0528,382.916,144.1573,390.6448" style="stroke: #A80036; stroke-width: 1.0;"/><!--MD5=[2c5a6ac1e2b6c0373a9ef7a8aebedb15]
link OnBase to SipityAPI--><path d="M442,47.0471 C442,71.1893 442,111.6871 442,133.146 " fill="none" id="OnBase-&gt;SipityAPI" style="stroke: #A80036; stroke-width: 1.0;"/><polygon fill="#A80036" points="442,138.4175,446,129.4175,442,133.4175,438,129.4175,442,138.4175" style="stroke: #A80036; stroke-width: 1.0;"/><!--MD5=[58f190b2e6ba872aa9d0b2561309d499]
@startuml

package "Sipity" {
  component "File\nStorage" as SipityFS
  component "Descriptive\nMetadata\nStorage" as SipityDMS
  component "Batch Exporter" as SipityBE
  component "Business Logic" as SipityBL
  interface "API" as SipityAPI
  database "MySql"

}

package "Batch Ingest" as Batch {
  interface "API" as BatchAPI
}

package OnBase

cloud "AWS" {
  component S3
}

SipityFS - -> S3
SipityDMS - -> MySql
SipityBE - -> BatchAPI
SipityFS - -> SipityBE
SipityDMS - -> SipityBE
Batch ..> SipityAPI : "From Webhook\nprovided by\nSipity"
SipityBL - -> MySql
OnBase - -> SipityAPI

@enduml

PlantUML version 1.2019.10(Fri Sep 13 16:53:03 EDT 2019)
(GPL source distribution)
Java Runtime: Java(TM) SE Runtime Environment
JVM: Java HotSpot(TM) 64-Bit Server VM
Java Version: 1.8.0_102-b14
Operating System: Mac OS X
Default Encoding: UTF-8
Language: en
Country: US
--></g></svg>