<?xml version="1.0" encoding="UTF-8" standalone="no"?><svg xmlns="http://www.w3.org/2000/svg" xmlns:xlink="http://www.w3.org/1999/xlink" contentScriptType="application/ecmascript" contentStyleType="text/css" height="635px" preserveAspectRatio="none" style="width:959px;height:635px;" version="1.1" viewBox="0 0 959 635"
    width="959px" zoomAndPan="magnify"><defs><filter height="300%" id="fp5qsmc1tgs9d" width="300%" x="-1" y="-1"><feGaussianBlur result="blurOut" stdDeviation="2.0"/><feColorMatrix in="blurOut" result="blurOut2" type="matrix" values="0 0 0 0 0 0 0 0 0 0 0 0 0 0 0 0 0 0 .4 0"/><feOffset dx="4.0" dy="4.0" in="blurOut2" result="blurOut3"/><feBlend in="SourceGraphic" in2="blurOut3" mode="normal"/></filter></defs><g><!--MD5=[036b8ca5bbb5aa0b6f239061697e4f2d]
cluster Sipity--><polygon fill="#FFFFFF" filter="url(#fp5qsmc1tgs9d)" points="14,86,61,86,68,108.4883,477,108.4883,477,499,14,499,14,86" style="stroke: #000000; stroke-width: 1.5;"/><line style="stroke: #000000; stroke-width: 1.5;" x1="14" x2="68" y1="108.4883" y2="108.4883"/><text fill="#000000" font-family="sans-serif" font-size="14" font-weight="bold" lengthAdjust="spacingAndGlyphs" textLength="41" x="18" y="101.5352">Sipity</text><!--MD5=[aa67b594d9c629de74c234d94f00fd81]
cluster Batch--><polygon fill="#FFFFFF" filter="url(#fp5qsmc1tgs9d)" points="738,530,833,530,840,552.4883,843,552.4883,843,623,738,623,738,530" style="stroke: #000000; stroke-width: 1.5;"/><line style="stroke: #000000; stroke-width: 1.5;" x1="738" x2="840" y1="552.4883" y2="552.4883"/><text fill="#000000" font-family="sans-serif" font-size="14" font-weight="bold" lengthAdjust="spacingAndGlyphs" textLength="89" x="742" y="545.5352">Batch Ingest</text><!--MD5=[2e3431030c33690ec4f191940759a30e]
cluster Noids--><polygon fill="#FFFFFF" filter="url(#fp5qsmc1tgs9d)" points="699,267,747,267,754,289.4883,816,289.4883,816,347,699,347,699,267" style="stroke: #000000; stroke-width: 1.5;"/><line style="stroke: #000000; stroke-width: 1.5;" x1="699" x2="754" y1="289.4883" y2="289.4883"/><text fill="#000000" font-family="sans-serif" font-size="14" font-weight="bold" lengthAdjust="spacingAndGlyphs" textLength="42" x="703" y="282.5352">Noids</text><!--MD5=[88656e78e5bedad418341b6ececa151e]
cluster AWS--><path d="M494.2142,279.8987 C498.2106,269.7568 506.6197,268.9377 512.7981,277.7605 C520.0291,268.5921 528.2343,271.5645 531.9456,281.3215 C538.62,283.4215 541.1897,287.0421 536.5679,293.448 C544.7793,295.7936 546.3353,302.6921 539.5576,308.0968 C544.8206,313.5835 543.9676,319.6982 535.7758,321.3437 C541.3614,327.062 539.3851,332.9655 532.2753,335.5573 C526.9053,346.0718 520.741,346.2505 512.3952,338.8616 C505.2252,347.5689 498.2758,344.8269 494.2514,335.6674 C485.8752,333.419 484.4762,328.0534 490.8642,322.115 C482.9725,320.6406 481.4699,314.0857 487.4168,308.9793 C480.3828,302.8259 482.761,296.7368 490.3964,293.3865 C486.0046,287.72 487.0733,282.3009 494.2142,279.8987 " fill="#FFFFFF" style="stroke: #000000; stroke-width: 1.5;"/><text fill="#000000" font-family="sans-serif" font-size="14" font-weight="bold" lengthAdjust="spacingAndGlyphs" textLength="31" x="496.5" y="298.0352">AWS</text><!--MD5=[086394bb65cbfff9d73f0c7d82fb6ab9]
entity SipityFS--><rect fill="#FEFECE" filter="url(#fp5qsmc1tgs9d)" height="52.9766" style="stroke: #A80036; stroke-width: 1.5;" width="73" x="22.5" y="121"/><rect fill="#FEFECE" height="5" style="stroke: #A80036; stroke-width: 1.5;" width="10" x="17.5" y="126"/><rect fill="#FEFECE" height="5" style="stroke: #A80036; stroke-width: 1.5;" width="10" x="17.5" y="163.9766"/><text fill="#000000" font-family="sans-serif" font-size="14" lengthAdjust="spacingAndGlyphs" textLength="24" x="32.5" y="144.5352">File</text><text fill="#000000" font-family="sans-serif" font-size="14" lengthAdjust="spacingAndGlyphs" textLength="53" x="32.5" y="161.0234">Storage</text><!--MD5=[eea5bb3b07aab377378f466a3ee76eed]
entity SipityDMS--><rect fill="#FEFECE" filter="url(#fp5qsmc1tgs9d)" height="69.4648" style="stroke: #A80036; stroke-width: 1.5;" width="95" x="130.5" y="113"/><rect fill="#FEFECE" height="5" style="stroke: #A80036; stroke-width: 1.5;" width="10" x="125.5" y="118"/><rect fill="#FEFECE" height="5" style="stroke: #A80036; stroke-width: 1.5;" width="10" x="125.5" y="172.4648"/><text fill="#000000" font-family="sans-serif" font-size="14" lengthAdjust="spacingAndGlyphs" textLength="75" x="140.5" y="136.5352">Descriptive</text><text fill="#000000" font-family="sans-serif" font-size="14" lengthAdjust="spacingAndGlyphs" textLength="63" x="140.5" y="153.0234">Metadata</text><text fill="#000000" font-family="sans-serif" font-size="14" lengthAdjust="spacingAndGlyphs" textLength="53" x="140.5" y="169.5117">Storage</text><!--MD5=[f2df6e8b62a9930dbf353422601b0eae]
entity SipityBE--><rect fill="#FEFECE" filter="url(#fp5qsmc1tgs9d)" height="36.4883" style="stroke: #A80036; stroke-width: 1.5;" width="121" x="117.5" y="450.5"/><rect fill="#FEFECE" height="5" style="stroke: #A80036; stroke-width: 1.5;" width="10" x="112.5" y="455.5"/><rect fill="#FEFECE" height="5" style="stroke: #A80036; stroke-width: 1.5;" width="10" x="112.5" y="476.9883"/><text fill="#000000" font-family="sans-serif" font-size="14" lengthAdjust="spacingAndGlyphs" textLength="101" x="127.5" y="474.0352">Batch Exporter</text><!--MD5=[cb4df5336486a6854d3cacb62bdca4bb]
entity SipityBL--><rect fill="#FEFECE" filter="url(#fp5qsmc1tgs9d)" height="36.4883" style="stroke: #A80036; stroke-width: 1.5;" width="119" x="260.5" y="129.5"/><rect fill="#FEFECE" height="5" style="stroke: #A80036; stroke-width: 1.5;" width="10" x="255.5" y="134.5"/><rect fill="#FEFECE" height="5" style="stroke: #A80036; stroke-width: 1.5;" width="10" x="255.5" y="155.9883"/><text fill="#000000" font-family="sans-serif" font-size="14" lengthAdjust="spacingAndGlyphs" textLength="99" x="270.5" y="153.0352">Business Logic</text><!--MD5=[fcfc1b56d4b27b5666602875e12ba800]
entity SipityAPI--><ellipse cx="442" cy="147.5" fill="#FEFECE" filter="url(#fp5qsmc1tgs9d)" rx="8" ry="8" style="stroke: #A80036; stroke-width: 2.0;"/><text fill="#000000" font-family="sans-serif" font-size="14" lengthAdjust="spacingAndGlyphs" textLength="22" x="431" y="178.0352">API</text><!--MD5=[2519f4b563146138a779359188ab3db5]
entity MySql--><path d="M278,456 C278,446 308,446 308,446 C308,446 338,446 338,456 L338,481.4883 C338,491.4883 308,491.4883 308,491.4883 C308,491.4883 278,491.4883 278,481.4883 L278,456 " fill="#FEFECE" filter="url(#fp5qsmc1tgs9d)" style="stroke: #000000; stroke-width: 1.5;"/><path d="M278,456 C278,466 308,466 308,466 C308,466 338,466 338,456 " fill="none" style="stroke: #000000; stroke-width: 1.5;"/><text fill="#000000" font-family="sans-serif" font-size="14" lengthAdjust="spacingAndGlyphs" textLength="40" x="288" y="483.5352">MySql</text><!--MD5=[6c444dd6b145513787bf9986e8d9020c]
entity BatchAPI--><ellipse cx="773" cy="586" fill="#FEFECE" filter="url(#fp5qsmc1tgs9d)" rx="8" ry="8" style="stroke: #A80036; stroke-width: 2.0;"/><text fill="#000000" font-family="sans-serif" font-size="14" lengthAdjust="spacingAndGlyphs" textLength="22" x="762" y="616.5352">API</text><!--MD5=[ee1469d2788bbe71c2eb3dceba3841a6]
entity MySQLNoids--><path d="M707.5,304 C707.5,294 740,294 740,294 C740,294 772.5,294 772.5,304 L772.5,329.4883 C772.5,339.4883 740,339.4883 740,339.4883 C740,339.4883 707.5,339.4883 707.5,329.4883 L707.5,304 " fill="#FEFECE" filter="url(#fp5qsmc1tgs9d)" style="stroke: #000000; stroke-width: 1.5;"/><path d="M707.5,304 C707.5,314 740,314 740,314 C740,314 772.5,314 772.5,304 " fill="none" style="stroke: #000000; stroke-width: 1.5;"/><text fill="#000000" font-family="sans-serif" font-size="14" lengthAdjust="spacingAndGlyphs" textLength="45" x="717.5" y="331.5352">MySQL</text><!--MD5=[6c7192638421eaf134d201765ac5db29]
entity S3--><rect fill="#FEFECE" filter="url(#fp5qsmc1tgs9d)" height="36.4883" style="stroke: #A80036; stroke-width: 1.5;" width="37" x="493.5" y="298.5"/><rect fill="#FEFECE" height="5" style="stroke: #A80036; stroke-width: 1.5;" width="10" x="488.5" y="303.5"/><rect fill="#FEFECE" height="5" style="stroke: #A80036; stroke-width: 1.5;" width="10" x="488.5" y="324.9883"/><text fill="#000000" font-family="sans-serif" font-size="14" lengthAdjust="spacingAndGlyphs" textLength="17" x="503.5" y="322.0352">S3</text><!--MD5=[64e29bcd0b3c7cd10fb363497c8a6b17]
entity OnBase--><polygon fill="#FEFECE" filter="url(#fp5qsmc1tgs9d)" points="400,8,460,8,467,30.4883,484,30.4883,484,47.4883,400,47.4883,400,8" style="stroke: #000000; stroke-width: 1.5;"/><line style="stroke: #000000; stroke-width: 1.5;" x1="400" x2="467" y1="30.4883" y2="30.4883"/><text fill="#000000" font-family="sans-serif" font-size="14" font-weight="bold" lengthAdjust="spacingAndGlyphs" textLength="54" x="404" y="24.5352">OnBase</text><!--MD5=[49416190580e7e978633a2ba0bec8388]
entity Locabulary--><polygon fill="#FEFECE" filter="url(#fp5qsmc1tgs9d)" points="565.5,297,648.5,297,655.5,319.4883,672.5,319.4883,672.5,336.4883,565.5,336.4883,565.5,297" style="stroke: #000000; stroke-width: 1.5;"/><line style="stroke: #000000; stroke-width: 1.5;" x1="565.5" x2="655.5" y1="319.4883" y2="319.4883"/><text fill="#000000" font-family="sans-serif" font-size="14" font-weight="bold" lengthAdjust="spacingAndGlyphs" textLength="77" x="569.5" y="313.5352">Locabulary</text><!--MD5=[fef7c7187f058e0044b218b358792476]
link SipityDMS to Locabulary--><path d="M225.8194,175.2078 C231.4899,177.7908 237.2926,180.1343 243,182 C331.36,210.8842 362.0508,181.8883 450,212 C496.8871,228.053 504.9858,240.7149 547,267 C560.5178,275.4571 575.0739,285.3149 587.5365,293.9972 " fill="none" id="SipityDMS-&gt;Locabulary" style="stroke: #A80036; stroke-width: 1.0; stroke-dasharray: 7.0,7.0;"/><polygon fill="#A80036" points="591.6781,296.8928,586.5942,288.4575,587.5803,294.0278,582.0101,295.014,591.6781,296.8928" style="stroke: #A80036; stroke-width: 1.0;"/><text fill="#000000" font-family="sans-serif" font-size="13" lengthAdjust="spacingAndGlyphs" textLength="18" x="559" y="225.5684">for</text><text fill="#000000" font-family="sans-serif" font-size="13" lengthAdjust="spacingAndGlyphs" textLength="64" x="536" y="240.8789">controlled</text><text fill="#000000" font-family="sans-serif" font-size="13" lengthAdjust="spacingAndGlyphs" textLength="68" x="534" y="256.1895">vocabulary</text><!--MD5=[fb31825af213da6fa3d981585d54d88b]
link SipityFS to S3--><path d="M95.5635,173.1765 C101.2344,176.4697 107.1541,179.543 113,182 C253.0389,240.858 297.5852,226.6242 446,259 C463.2877,262.7712 470.7747,256.4773 485,267 C493.9274,273.6037 500.2446,284.0744 504.5118,293.6884 " fill="none" id="SipityFS-&gt;S3" style="stroke: #A80036; stroke-width: 1.0;"/><polygon fill="#A80036" points="506.4445,298.3185,506.669,288.4722,504.5185,293.7043,499.2864,291.5538,506.4445,298.3185" style="stroke: #A80036; stroke-width: 1.0;"/><!--MD5=[57a474ff0dbb86bd3caa3ed6d223e2a1]
link SipityDMS to MySql--><path d="M192.0358,182.1576 C218.0265,246.3348 273.1512,382.4503 296.8203,440.8946 " fill="none" id="SipityDMS-&gt;MySql" style="stroke: #A80036; stroke-width: 1.0;"/><polygon fill="#A80036" points="298.7405,445.6362,299.0696,435.7928,296.8636,441.0018,291.6546,438.7959,298.7405,445.6362" style="stroke: #A80036; stroke-width: 1.0;"/><!--MD5=[759236fd4672e0a665bfa15e299ecdaf]
link SipityBE to BatchAPI--><path d="M222.7468,486.6512 C235.0039,491.152 248.3903,495.6424 261,499 C454.676,550.5704 698.0462,578.178 758.7801,584.5544 " fill="none" id="SipityBE-&gt;BatchAPI" style="stroke: #A80036; stroke-width: 1.0;"/><polygon fill="#A80036" points="763.7736,585.0738,755.2357,580.1641,758.8004,584.5565,754.4081,588.1212,763.7736,585.0738" style="stroke: #A80036; stroke-width: 1.0;"/><!--MD5=[c03c2e72ef4bc0306bf5c53655175255]
link SipityFS to SipityBE--><path d="M68.8395,174.0419 C91.6503,235.5734 147.8358,387.1327 169.3902,445.2751 " fill="none" id="SipityFS-&gt;SipityBE" style="stroke: #A80036; stroke-width: 1.0;"/><polygon fill="#A80036" points="171.2452,450.2792,171.8674,440.45,169.5072,445.591,164.3663,443.2308,171.2452,450.2792" style="stroke: #A80036; stroke-width: 1.0;"/><!--MD5=[0f128ae49dc373435f784e2f60b28feb]
link SipityDMS to SipityBE--><path d="M178,182.1576 C178,247.9616 178,389.3975 178,445.1871 " fill="none" id="SipityDMS-&gt;SipityBE" style="stroke: #A80036; stroke-width: 1.0;"/><polygon fill="#A80036" points="178,450.3133,182,441.3133,178,445.3133,174,441.3133,178,450.3133" style="stroke: #A80036; stroke-width: 1.0;"/><!--MD5=[9141b46874f4d1284305a21c03beed8e]
link Batch to SipityAPI--><path d="M843.0354,544.6714 C843.2529,543.3308 843.4711,541.9634 843.6895,540.5699 C844.1263,537.783 844.5639,534.8918 844.998,531.9033 C845.8662,525.9263 846.7205,519.5601 847.5276,512.86 C849.1417,499.4598 850.5664,484.724 851.5334,469.0951 C855.4017,406.5795 851.9476,329.7743 824,267 C809.6819,234.8395 798.1974,228.3104 767,212 C710.9384,182.6904 511.3056,156.1327 456.187,149.2336 " fill="none" id="Batch-&gt;SipityAPI" style="stroke: #A80036; stroke-width: 1.0; stroke-dasharray: 7.0,7.0;"/><polygon fill="#A80036" points="451.0312,148.593,459.4693,153.6723,455.993,149.2096,460.4558,145.7334,451.0312,148.593" style="stroke: #A80036; stroke-width: 1.0;"/><text fill="#000000" font-family="sans-serif" font-size="13" lengthAdjust="spacingAndGlyphs" textLength="94" x="853" y="382.5684">From Webhook</text><text fill="#000000" font-family="sans-serif" font-size="13" lengthAdjust="spacingAndGlyphs" textLength="74" x="863" y="397.8789">provided by</text><text fill="#000000" font-family="sans-serif" font-size="13" lengthAdjust="spacingAndGlyphs" textLength="35" x="882.5" y="413.1895">Sipity</text><!--MD5=[189dbbbd6262b372cc132d4c59b03ac9]
link SipityBL to MySql--><path d="M319.3204,165.6781 C317.3191,219.2137 311.4372,376.5546 309.0374,440.7491 " fill="none" id="SipityBL-&gt;MySql" style="stroke: #A80036; stroke-width: 1.0;"/><polygon fill="#A80036" points="308.8434,445.9379,313.1769,437.0937,309.0303,440.9414,305.1825,436.7947,308.8434,445.9379" style="stroke: #A80036; stroke-width: 1.0;"/><!--MD5=[aa4d4d5f7fc23a16a7275978fc3e17b6]
link SipityBL to Noids--><path d="M355.3417,165.6105 C368.4453,171.6568 383.6197,177.8932 398,182 C483.7088,206.4773 549.4065,197.0215 609.8282,196.7993 C640.039,196.6882 668.9308,198.8854 698.3455,208.787 C713.0528,213.7377 727.8909,220.6145 743.0899,230.0919 C750.6894,234.8305 758.3791,240.2193 766.1879,246.3426 C770.0923,249.4042 774.0264,252.6495 777.9939,256.0889 C779.9776,257.8085 781.9697,259.5768 783.9706,261.3949 C784.971,262.3039 785.9736,263.2254 786.9785,264.1595 C787.481,264.6266 787.984,283.0149 788.4876,283.4883 " fill="none" id="SipityBL-&gt;Noids" style="stroke: #A80036; stroke-width: 1.0;"/><polygon fill="#A80036" points="788.4876,265.5702,784.6699,256.4914,784.8446,262.1455,779.1904,262.3202,788.4876,265.5702" style="stroke: #A80036; stroke-width: 1.0;"/><!--MD5=[2c5a6ac1e2b6c0373a9ef7a8aebedb15]
link OnBase to SipityAPI--><path d="M442,47.0471 C442,71.1893 442,111.6871 442,133.146 " fill="none" id="OnBase-&gt;SipityAPI" style="stroke: #A80036; stroke-width: 1.0;"/><polygon fill="#A80036" points="442,138.4175,446,129.4175,442,133.4175,438,129.4175,442,138.4175" style="stroke: #A80036; stroke-width: 1.0;"/><!--MD5=[dcf5d8d6954bd876336a0eae71f06abf]
@startuml

package "Sipity" {
  component "File\nStorage" as SipityFS
  component "Descriptive\nMetadata\nStorage" as SipityDMS
  component "Batch Exporter" as SipityBE
  component "Business Logic" as SipityBL
  interface "API" as SipityAPI
  database "MySql"

}

package "Batch Ingest" as Batch {
  interface "API" as BatchAPI
}

package Noids {
  database MySQL as MySQLNoids
}

package OnBase

package Locabulary
SipityDMS ..> Locabulary : "for\ncontrolled\nvocabulary"

cloud "AWS" {
  component S3
}

SipityFS - -> S3
SipityDMS - -> MySql
SipityBE - -> BatchAPI
SipityFS - -> SipityBE
SipityDMS - -> SipityBE
Batch ..> SipityAPI : "From Webhook\nprovided by\nSipity"
SipityBL - -> MySql
SipityBL - -> Noids
OnBase - -> SipityAPI

@enduml

PlantUML version 1.2019.10(Fri Sep 13 16:53:03 EDT 2019)
(GPL source distribution)
Java Runtime: Java(TM) SE Runtime Environment
JVM: Java HotSpot(TM) 64-Bit Server VM
Java Version: 1.8.0_102-b14
Operating System: Mac OS X
Default Encoding: UTF-8
Language: en
Country: US
--></g></svg>