<?xml version="1.0" encoding="UTF-8" standalone="no"?><svg xmlns="http://www.w3.org/2000/svg" xmlns:xlink="http://www.w3.org/1999/xlink" contentScriptType="application/ecmascript" contentStyleType="text/css" height="492px" preserveAspectRatio="none" style="width:772px;height:492px;" version="1.1" viewBox="0 0 772 492"
    width="772px" zoomAndPan="magnify"><defs><filter height="300%" id="f189t26v5ts3qz" width="300%" x="-1" y="-1"><feGaussianBlur result="blurOut" stdDeviation="2.0"/><feColorMatrix in="blurOut" result="blurOut2" type="matrix" values="0 0 0 0 0 0 0 0 0 0 0 0 0 0 0 0 0 0 .4 0"/><feOffset dx="4.0" dy="4.0" in="blurOut2" result="blurOut3"/><feBlend in="SourceGraphic" in2="blurOut3" mode="normal"/></filter></defs><g><!--MD5=[036b8ca5bbb5aa0b6f239061697e4f2d]
cluster Sipity--><polygon fill="#FFFFFF" filter="url(#f189t26v5ts3qz)" points="14,16.5,61,16.5,68,38.9883,465,38.9883,465,340,14,340,14,16.5" style="stroke: #000000; stroke-width: 1.5;"/><line style="stroke: #000000; stroke-width: 1.5;" x1="14" x2="68" y1="38.9883" y2="38.9883"/><text fill="#000000" font-family="sans-serif" font-size="14" font-weight="bold" lengthAdjust="spacingAndGlyphs" textLength="41" x="18" y="32.0352">Sipity</text><!--MD5=[9fb29cc85e17942a91d70f73a32acee1]
cluster BI--><polygon fill="#FFFFFF" filter="url(#f189t26v5ts3qz)" points="487,387,582,387,589,409.4883,654,409.4883,654,480,487,480,487,387" style="stroke: #000000; stroke-width: 1.5;"/><line style="stroke: #000000; stroke-width: 1.5;" x1="487" x2="589" y1="409.4883" y2="409.4883"/><text fill="#000000" font-family="sans-serif" font-size="14" font-weight="bold" lengthAdjust="spacingAndGlyphs" textLength="89" x="491" y="402.5352">Batch Ingest</text><!--MD5=[88656e78e5bedad418341b6ececa151e]
cluster AWS--><path d="M482.7877,161.0225 C485.2565,155.2784 490.3434,155.5456 493.8909,159.828 C496.6128,153.4685 502.1743,153.8245 505.5566,159.1698 C508.338,153.1587 513.5853,153.7247 516.8371,158.6862 C519.8671,153.5822 524.7864,151.9993 528.5223,157.9393 C532.4167,153.3622 536.513,152.1794 540.0596,158.3139 C544.2855,154.3412 547.3363,155.4525 549.4788,160.4916 C553.0584,155.4599 558.0143,155.1293 561.0121,161.1014 C563.692,154.9844 568.8956,154.9957 572.6274,160.0031 C580.6218,163.2369 581.2323,167.981 575.1625,173.7992 C582.1522,176.5821 584.2563,182.2119 578.3539,187.9104 C584.9767,193.7239 583.3561,198.7469 575.8206,202.018 C581.3708,206.6709 580.3697,212.2994 573.4593,214.6169 C571.0444,220.6989 565.269,220.2315 561.7533,215.8483 C557.649,221.5401 553.6565,221.9398 549.87,215.5361 C547.2258,220.1906 543.8799,222.1839 539.7183,217.1212 C535.6494,221.8749 531.3497,223.2573 527.6144,216.7622 C524.108,221.4223 520.5134,222.9685 516.5136,217.292 C512.6262,223.4255 508.3108,222.0949 504.8183,216.8849 C501.523,222.7748 496.28,221.5002 493.2478,216.6027 C490.3759,221.6481 485.52,220.967 482.8462,216.3887 C475.2331,213.877 472.2294,207.8834 478.9967,201.6227 C471.5672,197.5896 472.1939,191.9459 478.5027,187.4345 C472.4828,182.7194 473.4908,178.9256 479.6696,175.3927 C473.4353,170.0429 474.4824,163.2176 482.7877,161.0225 " fill="#FFFFFF" style="stroke: #000000; stroke-width: 1.5;"/><text fill="#000000" font-family="sans-serif" font-size="14" font-weight="bold" lengthAdjust="spacingAndGlyphs" textLength="31" x="511" y="178.0352">AWS</text><!--MD5=[02b0da7e54b74cbea8f6462e138178e8]
entity FS--><rect fill="#FEFECE" filter="url(#f189t26v5ts3qz)" height="52.9766" style="stroke: #A80036; stroke-width: 1.5;" width="73" x="22.5" y="51.5"/><rect fill="#FEFECE" height="5" style="stroke: #A80036; stroke-width: 1.5;" width="10" x="17.5" y="56.5"/><rect fill="#FEFECE" height="5" style="stroke: #A80036; stroke-width: 1.5;" width="10" x="17.5" y="94.4766"/><text fill="#000000" font-family="sans-serif" font-size="14" lengthAdjust="spacingAndGlyphs" textLength="24" x="32.5" y="75.0352">File</text><text fill="#000000" font-family="sans-serif" font-size="14" lengthAdjust="spacingAndGlyphs" textLength="53" x="32.5" y="91.5234">Storage</text><!--MD5=[765522d02420a6f826548b3dddd5143a]
entity DMS--><rect fill="#FEFECE" filter="url(#f189t26v5ts3qz)" height="69.4648" style="stroke: #A80036; stroke-width: 1.5;" width="95" x="130.5" y="43.5"/><rect fill="#FEFECE" height="5" style="stroke: #A80036; stroke-width: 1.5;" width="10" x="125.5" y="48.5"/><rect fill="#FEFECE" height="5" style="stroke: #A80036; stroke-width: 1.5;" width="10" x="125.5" y="102.9648"/><text fill="#000000" font-family="sans-serif" font-size="14" lengthAdjust="spacingAndGlyphs" textLength="75" x="140.5" y="67.0352">Descriptive</text><text fill="#000000" font-family="sans-serif" font-size="14" lengthAdjust="spacingAndGlyphs" textLength="63" x="140.5" y="83.5234">Metadata</text><text fill="#000000" font-family="sans-serif" font-size="14" lengthAdjust="spacingAndGlyphs" textLength="53" x="140.5" y="100.0117">Storage</text><!--MD5=[77b0ea1454fe7a7546e2e8ed5acd0c75]
entity BE--><rect fill="#FEFECE" filter="url(#f189t26v5ts3qz)" height="36.4883" style="stroke: #A80036; stroke-width: 1.5;" width="121" x="117.5" y="296"/><rect fill="#FEFECE" height="5" style="stroke: #A80036; stroke-width: 1.5;" width="10" x="112.5" y="301"/><rect fill="#FEFECE" height="5" style="stroke: #A80036; stroke-width: 1.5;" width="10" x="112.5" y="322.4883"/><text fill="#000000" font-family="sans-serif" font-size="14" lengthAdjust="spacingAndGlyphs" textLength="101" x="127.5" y="319.5352">Batch Exporter</text><!--MD5=[bbb7415d05517ac2e28dc8eb5f6fc116]
entity SBL--><rect fill="#FEFECE" filter="url(#f189t26v5ts3qz)" height="36.4883" style="stroke: #A80036; stroke-width: 1.5;" width="119" x="260.5" y="60"/><rect fill="#FEFECE" height="5" style="stroke: #A80036; stroke-width: 1.5;" width="10" x="255.5" y="65"/><rect fill="#FEFECE" height="5" style="stroke: #A80036; stroke-width: 1.5;" width="10" x="255.5" y="86.4883"/><text fill="#000000" font-family="sans-serif" font-size="14" lengthAdjust="spacingAndGlyphs" textLength="99" x="270.5" y="83.5352">Business Logic</text><!--MD5=[873415d40992561dfea2839a0db72c72]
entity SAPI--><rect fill="#FEFECE" filter="url(#f189t26v5ts3qz)" height="36.4883" style="stroke: #A80036; stroke-width: 1.5;" width="42" x="415" y="60"/><rect fill="#FEFECE" height="5" style="stroke: #A80036; stroke-width: 1.5;" width="10" x="410" y="65"/><rect fill="#FEFECE" height="5" style="stroke: #A80036; stroke-width: 1.5;" width="10" x="410" y="86.4883"/><text fill="#000000" font-family="sans-serif" font-size="14" lengthAdjust="spacingAndGlyphs" textLength="22" x="425" y="83.5352">API</text><!--MD5=[e53721c1064511116ef0b6a555bf123f]
entity BIHI--><ellipse cx="553" cy="443" fill="#FEFECE" filter="url(#f189t26v5ts3qz)" rx="8" ry="8" style="stroke: #A80036; stroke-width: 2.0;"/><text fill="#000000" font-family="sans-serif" font-size="14" lengthAdjust="spacingAndGlyphs" textLength="100" x="503" y="473.5352">HTTP Interface</text><!--MD5=[dc5f76b7e3a6999ba4f41f6f048f1788]
entity FSI--><ellipse cx="490" cy="196.5" fill="#FEFECE" filter="url(#f189t26v5ts3qz)" rx="8" ry="8" style="stroke: #A80036; stroke-width: 2.0;"/><text fill="#000000" font-family="sans-serif" font-size="14" lengthAdjust="spacingAndGlyphs" textLength="24" x="460" y="227.0352">File</text><text fill="#000000" font-family="sans-serif" font-size="14" lengthAdjust="spacingAndGlyphs" textLength="53" x="460" y="243.5234">Storage</text><text fill="#000000" font-family="sans-serif" font-size="14" lengthAdjust="spacingAndGlyphs" textLength="60" x="460" y="260.0117">Interface</text><!--MD5=[6c7192638421eaf134d201765ac5db29]
entity S3--><rect fill="#FEFECE" filter="url(#f189t26v5ts3qz)" height="36.4883" style="stroke: #A80036; stroke-width: 1.5;" width="37" x="534.5" y="178.5"/><rect fill="#FEFECE" height="5" style="stroke: #A80036; stroke-width: 1.5;" width="10" x="529.5" y="183.5"/><rect fill="#FEFECE" height="5" style="stroke: #A80036; stroke-width: 1.5;" width="10" x="529.5" y="204.9883"/><text fill="#000000" font-family="sans-serif" font-size="14" lengthAdjust="spacingAndGlyphs" textLength="17" x="544.5" y="202.0352">S3</text><!--MD5=[2519f4b563146138a779359188ab3db5]
entity MySql--><path d="M607,184 C607,174 637,174 637,174 C637,174 667,174 667,184 L667,209.4883 C667,219.4883 637,219.4883 637,219.4883 C637,219.4883 607,219.4883 607,209.4883 L607,184 " fill="#FEFECE" filter="url(#f189t26v5ts3qz)" style="stroke: #000000; stroke-width: 1.5;"/><path d="M607,184 C607,194 637,194 637,194 C637,194 667,194 667,184 " fill="none" style="stroke: #000000; stroke-width: 1.5;"/><text fill="#000000" font-family="sans-serif" font-size="14" lengthAdjust="spacingAndGlyphs" textLength="40" x="617" y="211.5352">MySql</text><!--MD5=[b6ffc6ed18935c002b12796335b3a2c5]
link FS to FSI--><path d="M100.1554,106.8774 C104.3694,109.0381 108.6889,110.9681 113,112.5 C226.8165,152.9429 262.8331,131.2628 383,143.5 C402.9755,145.5342 457.0049,139.3626 473,151.5 C482.5177,158.7223 486.7068,171.9259 488.5506,182.1701 " fill="none" id="FS-FSI" style="stroke: #A80036; stroke-width: 1.0;"/><polygon fill="#A80036" points="489.3168,187.2101,491.9185,177.7111,488.5652,182.2669,484.0094,178.9136,489.3168,187.2101" style="stroke: #A80036; stroke-width: 1.0;"/><polygon fill="#A80036" points="95.6295,104.4501,101.6703,112.2288,100.0358,106.8133,105.4514,105.1787,95.6295,104.4501" style="stroke: #A80036; stroke-width: 1.0;"/><!--MD5=[d25cd45a4f339fb6ad47a56dd0327196]
link FSI to S3--><path d="M499.3516,196.5 C510.9474,196.5 522.5433,196.5 534.1392,196.5 " fill="none" id="FSI-S3" style="stroke: #A80036; stroke-width: 1.0;"/><!--MD5=[6a10a2691541c06504592f7c7acc0354]
link DMS to MySql--><path d="M230.5838,107.9708 C234.7108,109.6832 238.8773,111.2235 243,112.5 C279.8515,123.9101 552.8978,135.4982 588,151.5 C597.7542,155.9466 606.8763,163.0838 614.5425,170.3763 " fill="none" id="DMS-MySql" style="stroke: #A80036; stroke-width: 1.0;"/><polygon fill="#A80036" points="618.1853,173.9575,614.5715,164.7956,614.6198,170.4522,608.9631,170.5005,618.1853,173.9575" style="stroke: #A80036; stroke-width: 1.0;"/><polygon fill="#A80036" points="225.7623,105.8872,232.4369,113.1294,230.352,107.8708,235.6106,105.7859,225.7623,105.8872" style="stroke: #A80036; stroke-width: 1.0;"/><!--MD5=[8f0211e257db8302bec48cc787e63340]
link BE to BIHI--><path d="M230.537,332.0727 C318.0558,362.1792 489.0298,420.9943 538.9816,438.1777 " fill="none" id="BE-&gt;BIHI" style="stroke: #A80036; stroke-width: 1.0; stroke-dasharray: 7.0,7.0;"/><polygon fill="#A80036" points="543.95,439.8868,536.7406,433.1767,539.2219,438.2603,534.1383,440.7416,543.95,439.8868" style="stroke: #A80036; stroke-width: 1.0;"/><text fill="#000000" font-family="sans-serif" font-size="13" lengthAdjust="spacingAndGlyphs" textLength="29" x="366" y="375.5684">uses</text><!--MD5=[9ee412f26ebdf2af884b74d2c1da747c]
link FS to BE--><path d="M72.4195,104.6134 C95.9957,151.3696 144.4427,247.4494 166.5485,291.2895 " fill="none" id="FS-&gt;BE" style="stroke: #A80036; stroke-width: 1.0; stroke-dasharray: 7.0,7.0;"/><polygon fill="#A80036" points="168.8576,295.8688,168.3769,286.0317,166.6063,291.4043,161.2337,289.6337,168.8576,295.8688" style="stroke: #A80036; stroke-width: 1.0;"/><text fill="#000000" font-family="sans-serif" font-size="13" lengthAdjust="spacingAndGlyphs" textLength="34" x="132" y="194.0684">reads</text><text fill="#000000" font-family="sans-serif" font-size="13" lengthAdjust="spacingAndGlyphs" textLength="30" x="134" y="209.3789">from</text><!--MD5=[84a0859af64183f922da8be921b6f476]
link DMS to BE--><path d="M178,112.5692 C178,161.3123 178,248.9415 178,290.6752 " fill="none" id="DMS-&gt;BE" style="stroke: #A80036; stroke-width: 1.0; stroke-dasharray: 7.0,7.0;"/><polygon fill="#A80036" points="178,295.7715,182,286.7715,178,290.7715,174,286.7715,178,295.7715" style="stroke: #A80036; stroke-width: 1.0;"/><text fill="#000000" font-family="sans-serif" font-size="13" lengthAdjust="spacingAndGlyphs" textLength="34" x="179" y="194.0684">reads</text><text fill="#000000" font-family="sans-serif" font-size="13" lengthAdjust="spacingAndGlyphs" textLength="30" x="181" y="209.3789">from</text><!--MD5=[0d753d584a07956eaf326d6a435770b8]
link BI to SAPI--><path d="M654.0542,429.1624 C654.1678,428.9583 654.2823,428.752 654.3977,428.5438 C654.8595,427.7108 655.336,426.8454 655.8264,425.9484 C656.8071,424.1544 657.843,422.2342 658.9252,420.1953 C661.0898,416.1174 663.4401,411.5647 665.9068,406.5966 C675.7734,386.7245 687.5013,360.2083 696.6476,330.8681 C714.94,272.1877 722.9056,202.2115 685,151.5 C657.9537,115.3165 520.5999,90.734 462.2641,81.7693 " fill="none" id="BI-&gt;SAPI" style="stroke: #A80036; stroke-width: 1.0; stroke-dasharray: 7.0,7.0;"/><polygon fill="#A80036" points="457.2034,81.0004,465.5004,86.3071,462.1467,81.7515,466.7022,78.3978,457.2034,81.0004" style="stroke: #A80036; stroke-width: 1.0;"/><text fill="#000000" font-family="sans-serif" font-size="13" lengthAdjust="spacingAndGlyphs" textLength="48" x="712" y="262.5684">notifies</text><!--MD5=[1d28859dd0e9a2f27daceb87b425bd3c]
link SBL to MySql--><path d="M361.2511,98.2126 C372.9348,103.3942 385.798,108.5988 398,112.5 C480.1105,138.752 511.2465,112.2545 588,151.5 C597.3678,156.2899 606.2731,163.3688 613.859,170.5012 " fill="none" id="SBL-MySql" style="stroke: #A80036; stroke-width: 1.0;"/><polygon fill="#A80036" points="617.4732,173.9971,613.7851,164.8648,613.8793,170.5209,608.2232,170.6151,617.4732,173.9971" style="stroke: #A80036; stroke-width: 1.0;"/><polygon fill="#A80036" points="356.6649,96.1535,363.2369,103.489,361.2262,98.2015,366.5137,96.1909,356.6649,96.1535" style="stroke: #A80036; stroke-width: 1.0;"/><!--MD5=[90bec6bc39a9e8760cf96b2cc7f72010]
@startuml

package "Sipity" {
  component "File\nStorage" as FS
  component "Descriptive\nMetadata\nStorage" as DMS
  component "Batch Exporter" as BE
  component "Business Logic" as SBL
  component "API" as SAPI

}

package "Batch Ingest" as BI {
  interface "HTTP Interface" as BIHI
}

cloud "AWS" {
  interface "File\nStorage\nInterface" as FSI
  component S3
}

database "MySql"

FS <- -> FSI
FSI - S3
DMS <- -> MySql
BE ..> BIHI : uses
FS ..> BE : reads\nfrom
DMS ..> BE : reads\nfrom
BI ..> SAPI : notifies
SBL <- -> MySql

@enduml

PlantUML version 1.2019.10(Fri Sep 13 16:53:03 EDT 2019)
(GPL source distribution)
Java Runtime: Java(TM) SE Runtime Environment
JVM: Java HotSpot(TM) 64-Bit Server VM
Java Version: 1.8.0_102-b14
Operating System: Mac OS X
Default Encoding: UTF-8
Language: en
Country: US
--></g></svg>