<?xml version="1.0" encoding="UTF-8" standalone="no"?><svg xmlns="http://www.w3.org/2000/svg" xmlns:xlink="http://www.w3.org/1999/xlink" contentScriptType="application/ecmascript" contentStyleType="text/css" height="635px" preserveAspectRatio="none" style="width:1180px;height:635px;" version="1.1" viewBox="0 0 1180 635"
    width="1180px" zoomAndPan="magnify"><defs><filter height="300%" id="f1fs7zgyzd7yei" width="300%" x="-1" y="-1"><feGaussianBlur result="blurOut" stdDeviation="2.0"/><feColorMatrix in="blurOut" result="blurOut2" type="matrix" values="0 0 0 0 0 0 0 0 0 0 0 0 0 0 0 0 0 0 .4 0"/><feOffset dx="4.0" dy="4.0" in="blurOut2" result="blurOut3"/><feBlend in="SourceGraphic" in2="blurOut3" mode="normal"/></filter></defs><g><!--MD5=[036b8ca5bbb5aa0b6f239061697e4f2d]
cluster Sipity--><polygon fill="#FFFFFF" filter="url(#f1fs7zgyzd7yei)" points="14,86,61,86,68,108.4883,477,108.4883,477,499,14,499,14,86" style="stroke: #000000; stroke-width: 1.5;"/><line style="stroke: #000000; stroke-width: 1.5;" x1="14" x2="68" y1="108.4883" y2="108.4883"/><text fill="#000000" font-family="sans-serif" font-size="14" font-weight="bold" lengthAdjust="spacingAndGlyphs" textLength="41" x="18" y="101.5352">Sipity</text><!--MD5=[aa67b594d9c629de74c234d94f00fd81]
cluster Batch--><polygon fill="#FFFFFF" filter="url(#f1fs7zgyzd7yei)" points="950,530,1045,530,1052,552.4883,1055,552.4883,1055,623,950,623,950,530" style="stroke: #000000; stroke-width: 1.5;"/><line style="stroke: #000000; stroke-width: 1.5;" x1="950" x2="1052" y1="552.4883" y2="552.4883"/><text fill="#000000" font-family="sans-serif" font-size="14" font-weight="bold" lengthAdjust="spacingAndGlyphs" textLength="89" x="954" y="545.5352">Batch Ingest</text><!--MD5=[2e3431030c33690ec4f191940759a30e]
cluster Noids--><polygon fill="#FFFFFF" filter="url(#f1fs7zgyzd7yei)" points="911,267,959,267,966,289.4883,1028,289.4883,1028,347,911,347,911,267" style="stroke: #000000; stroke-width: 1.5;"/><line style="stroke: #000000; stroke-width: 1.5;" x1="911" x2="966" y1="289.4883" y2="289.4883"/><text fill="#000000" font-family="sans-serif" font-size="14" font-weight="bold" lengthAdjust="spacingAndGlyphs" textLength="42" x="915" y="282.5352">Noids</text><!--MD5=[88656e78e5bedad418341b6ececa151e]
cluster AWS--><path d="M494.2142,279.8987 C498.2106,269.7568 506.6197,268.9377 512.7981,277.7605 C520.0291,268.5921 528.2343,271.5645 531.9456,281.3215 C538.62,283.4215 541.1897,287.0421 536.5679,293.448 C544.7793,295.7936 546.3353,302.6921 539.5576,308.0968 C544.8206,313.5835 543.9676,319.6982 535.7758,321.3437 C541.3614,327.062 539.3851,332.9655 532.2753,335.5573 C526.9053,346.0718 520.741,346.2505 512.3952,338.8616 C505.2252,347.5689 498.2758,344.8269 494.2514,335.6674 C485.8752,333.419 484.4762,328.0534 490.8642,322.115 C482.9725,320.6406 481.4699,314.0857 487.4168,308.9793 C480.3828,302.8259 482.761,296.7368 490.3964,293.3865 C486.0046,287.72 487.0733,282.3009 494.2142,279.8987 " fill="#FFFFFF" style="stroke: #000000; stroke-width: 1.5;"/><text fill="#000000" font-family="sans-serif" font-size="14" font-weight="bold" lengthAdjust="spacingAndGlyphs" textLength="31" x="496.5" y="298.0352">AWS</text><!--MD5=[086394bb65cbfff9d73f0c7d82fb6ab9]
entity SipityFS--><rect fill="#FEFECE" filter="url(#f1fs7zgyzd7yei)" height="52.9766" style="stroke: #A80036; stroke-width: 1.5;" width="73" x="22.5" y="121"/><rect fill="#FEFECE" height="5" style="stroke: #A80036; stroke-width: 1.5;" width="10" x="17.5" y="126"/><rect fill="#FEFECE" height="5" style="stroke: #A80036; stroke-width: 1.5;" width="10" x="17.5" y="163.9766"/><text fill="#000000" font-family="sans-serif" font-size="14" lengthAdjust="spacingAndGlyphs" textLength="24" x="32.5" y="144.5352">File</text><text fill="#000000" font-family="sans-serif" font-size="14" lengthAdjust="spacingAndGlyphs" textLength="53" x="32.5" y="161.0234">Storage</text><!--MD5=[eea5bb3b07aab377378f466a3ee76eed]
entity SipityDMS--><rect fill="#FEFECE" filter="url(#f1fs7zgyzd7yei)" height="69.4648" style="stroke: #A80036; stroke-width: 1.5;" width="95" x="130.5" y="113"/><rect fill="#FEFECE" height="5" style="stroke: #A80036; stroke-width: 1.5;" width="10" x="125.5" y="118"/><rect fill="#FEFECE" height="5" style="stroke: #A80036; stroke-width: 1.5;" width="10" x="125.5" y="172.4648"/><text fill="#000000" font-family="sans-serif" font-size="14" lengthAdjust="spacingAndGlyphs" textLength="75" x="140.5" y="136.5352">Descriptive</text><text fill="#000000" font-family="sans-serif" font-size="14" lengthAdjust="spacingAndGlyphs" textLength="63" x="140.5" y="153.0234">Metadata</text><text fill="#000000" font-family="sans-serif" font-size="14" lengthAdjust="spacingAndGlyphs" textLength="53" x="140.5" y="169.5117">Storage</text><!--MD5=[f2df6e8b62a9930dbf353422601b0eae]
entity SipityBE--><rect fill="#FEFECE" filter="url(#f1fs7zgyzd7yei)" height="36.4883" style="stroke: #A80036; stroke-width: 1.5;" width="121" x="117.5" y="450.5"/><rect fill="#FEFECE" height="5" style="stroke: #A80036; stroke-width: 1.5;" width="10" x="112.5" y="455.5"/><rect fill="#FEFECE" height="5" style="stroke: #A80036; stroke-width: 1.5;" width="10" x="112.5" y="476.9883"/><text fill="#000000" font-family="sans-serif" font-size="14" lengthAdjust="spacingAndGlyphs" textLength="101" x="127.5" y="474.0352">Batch Exporter</text><!--MD5=[cb4df5336486a6854d3cacb62bdca4bb]
entity SipityBL--><rect fill="#FEFECE" filter="url(#f1fs7zgyzd7yei)" height="36.4883" style="stroke: #A80036; stroke-width: 1.5;" width="119" x="260.5" y="129.5"/><rect fill="#FEFECE" height="5" style="stroke: #A80036; stroke-width: 1.5;" width="10" x="255.5" y="134.5"/><rect fill="#FEFECE" height="5" style="stroke: #A80036; stroke-width: 1.5;" width="10" x="255.5" y="155.9883"/><text fill="#000000" font-family="sans-serif" font-size="14" lengthAdjust="spacingAndGlyphs" textLength="99" x="270.5" y="153.0352">Business Logic</text><!--MD5=[fcfc1b56d4b27b5666602875e12ba800]
entity SipityAPI--><ellipse cx="442" cy="147.5" fill="#FEFECE" filter="url(#f1fs7zgyzd7yei)" rx="8" ry="8" style="stroke: #A80036; stroke-width: 2.0;"/><text fill="#000000" font-family="sans-serif" font-size="14" lengthAdjust="spacingAndGlyphs" textLength="22" x="431" y="178.0352">API</text><!--MD5=[2519f4b563146138a779359188ab3db5]
entity MySql--><path d="M278,456 C278,446 308,446 308,446 C308,446 338,446 338,456 L338,481.4883 C338,491.4883 308,491.4883 308,491.4883 C308,491.4883 278,491.4883 278,481.4883 L278,456 " fill="#FEFECE" filter="url(#f1fs7zgyzd7yei)" style="stroke: #000000; stroke-width: 1.5;"/><path d="M278,456 C278,466 308,466 308,466 C308,466 338,466 338,456 " fill="none" style="stroke: #000000; stroke-width: 1.5;"/><text fill="#000000" font-family="sans-serif" font-size="14" lengthAdjust="spacingAndGlyphs" textLength="40" x="288" y="483.5352">MySql</text><!--MD5=[6c444dd6b145513787bf9986e8d9020c]
entity BatchAPI--><ellipse cx="985" cy="586" fill="#FEFECE" filter="url(#f1fs7zgyzd7yei)" rx="8" ry="8" style="stroke: #A80036; stroke-width: 2.0;"/><text fill="#000000" font-family="sans-serif" font-size="14" lengthAdjust="spacingAndGlyphs" textLength="22" x="974" y="616.5352">API</text><!--MD5=[ee1469d2788bbe71c2eb3dceba3841a6]
entity MySQLNoids--><path d="M919.5,304 C919.5,294 952,294 952,294 C952,294 984.5,294 984.5,304 L984.5,329.4883 C984.5,339.4883 952,339.4883 952,339.4883 C952,339.4883 919.5,339.4883 919.5,329.4883 L919.5,304 " fill="#FEFECE" filter="url(#f1fs7zgyzd7yei)" style="stroke: #000000; stroke-width: 1.5;"/><path d="M919.5,304 C919.5,314 952,314 952,314 C952,314 984.5,314 984.5,304 " fill="none" style="stroke: #000000; stroke-width: 1.5;"/><text fill="#000000" font-family="sans-serif" font-size="14" lengthAdjust="spacingAndGlyphs" textLength="45" x="929.5" y="331.5352">MySQL</text><!--MD5=[6c7192638421eaf134d201765ac5db29]
entity S3--><rect fill="#FEFECE" filter="url(#f1fs7zgyzd7yei)" height="36.4883" style="stroke: #A80036; stroke-width: 1.5;" width="37" x="493.5" y="298.5"/><rect fill="#FEFECE" height="5" style="stroke: #A80036; stroke-width: 1.5;" width="10" x="488.5" y="303.5"/><rect fill="#FEFECE" height="5" style="stroke: #A80036; stroke-width: 1.5;" width="10" x="488.5" y="324.9883"/><text fill="#000000" font-family="sans-serif" font-size="14" lengthAdjust="spacingAndGlyphs" textLength="17" x="503.5" y="322.0352">S3</text><!--MD5=[ac8f20b59aaeffa7d07bee14fd87b870]
entity OCLC--><polygon fill="#FEFECE" filter="url(#f1fs7zgyzd7yei)" points="708,297,754,297,761,319.4883,778,319.4883,778,336.4883,708,336.4883,708,297" style="stroke: #000000; stroke-width: 1.5;"/><line style="stroke: #000000; stroke-width: 1.5;" x1="708" x2="761" y1="319.4883" y2="319.4883"/><text fill="#000000" font-family="sans-serif" font-size="14" font-weight="bold" lengthAdjust="spacingAndGlyphs" textLength="40" x="712" y="313.5352">OCLC</text><!--MD5=[fa8019ea18872dd8c4c2f138e2281076]
entity Aleph--><polygon fill="#FEFECE" filter="url(#f1fs7zgyzd7yei)" points="813.5,297,860.5,297,867.5,319.4883,884.5,319.4883,884.5,336.4883,813.5,336.4883,813.5,297" style="stroke: #000000; stroke-width: 1.5;"/><line style="stroke: #000000; stroke-width: 1.5;" x1="813.5" x2="867.5" y1="319.4883" y2="319.4883"/><text fill="#000000" font-family="sans-serif" font-size="14" font-weight="bold" lengthAdjust="spacingAndGlyphs" textLength="41" x="817.5" y="313.5352">Aleph</text><!--MD5=[64e29bcd0b3c7cd10fb363497c8a6b17]
entity OnBase--><polygon fill="#FEFECE" filter="url(#f1fs7zgyzd7yei)" points="400,8,460,8,467,30.4883,484,30.4883,484,47.4883,400,47.4883,400,8" style="stroke: #000000; stroke-width: 1.5;"/><line style="stroke: #000000; stroke-width: 1.5;" x1="400" x2="467" y1="30.4883" y2="30.4883"/><text fill="#000000" font-family="sans-serif" font-size="14" font-weight="bold" lengthAdjust="spacingAndGlyphs" textLength="54" x="404" y="24.5352">OnBase</text><!--MD5=[49416190580e7e978633a2ba0bec8388]
entity Locabulary--><polygon fill="#FEFECE" filter="url(#f1fs7zgyzd7yei)" points="565.5,297,648.5,297,655.5,319.4883,672.5,319.4883,672.5,336.4883,565.5,336.4883,565.5,297" style="stroke: #000000; stroke-width: 1.5;"/><line style="stroke: #000000; stroke-width: 1.5;" x1="565.5" x2="655.5" y1="319.4883" y2="319.4883"/><text fill="#000000" font-family="sans-serif" font-size="14" font-weight="bold" lengthAdjust="spacingAndGlyphs" textLength="77" x="569.5" y="313.5352">Locabulary</text><!--MD5=[fef7c7187f058e0044b218b358792476]
link SipityDMS to Locabulary--><path d="M225.8144,175.2231 C231.4859,177.8033 237.2901,180.142 243,182 C333.0721,211.3097 364.6275,180.6216 454,212 C499.3091,227.9079 506.5243,241.1602 547,267 C560.3252,275.5068 574.7337,285.2912 587.1351,293.903 " fill="none" id="SipityDMS-&gt;Locabulary" style="stroke: #A80036; stroke-width: 1.0; stroke-dasharray: 7.0,7.0;"/><polygon fill="#A80036" points="591.2594,296.775,586.1594,288.3494,587.1562,293.9178,581.5879,294.9146,591.2594,296.775" style="stroke: #A80036; stroke-width: 1.0;"/><text fill="#000000" font-family="sans-serif" font-size="13" lengthAdjust="spacingAndGlyphs" textLength="18" x="559" y="225.5684">for</text><text fill="#000000" font-family="sans-serif" font-size="13" lengthAdjust="spacingAndGlyphs" textLength="64" x="536" y="240.8789">controlled</text><text fill="#000000" font-family="sans-serif" font-size="13" lengthAdjust="spacingAndGlyphs" textLength="68" x="534" y="256.1895">vocabulary</text><!--MD5=[fb31825af213da6fa3d981585d54d88b]
link SipityFS to S3--><path d="M95.5577,173.1903 C101.2294,176.4816 107.1509,179.5506 113,182 C113,182 485,267 485,267 C493.8532,273.7029 500.1619,284.1849 504.4428,293.7807 " fill="none" id="SipityFS-&gt;S3" style="stroke: #A80036; stroke-width: 1.0;"/><polygon fill="#A80036" points="506.3837,298.3997,506.5848,288.5529,504.4467,293.7901,499.2095,291.6521,506.3837,298.3997" style="stroke: #A80036; stroke-width: 1.0;"/><!--MD5=[57a474ff0dbb86bd3caa3ed6d223e2a1]
link SipityDMS to MySql--><path d="M192.0358,182.1576 C218.0265,246.3348 273.1512,382.4503 296.8203,440.8946 " fill="none" id="SipityDMS-&gt;MySql" style="stroke: #A80036; stroke-width: 1.0;"/><polygon fill="#A80036" points="298.7405,445.6362,299.0696,435.7928,296.8636,441.0018,291.6546,438.7959,298.7405,445.6362" style="stroke: #A80036; stroke-width: 1.0;"/><!--MD5=[759236fd4672e0a665bfa15e299ecdaf]
link SipityBE to BatchAPI--><path d="M220.8098,486.5984 C233.2608,491.2641 247.0097,495.8519 260,499 C540.3785,566.9486 895.1906,582.8416 970.5365,585.5335 " fill="none" id="SipityBE-&gt;BatchAPI" style="stroke: #A80036; stroke-width: 1.0;"/><polygon fill="#A80036" points="975.8499,585.7177,966.9939,581.4082,970.8529,585.5444,966.7167,589.4034,975.8499,585.7177" style="stroke: #A80036; stroke-width: 1.0;"/><!--MD5=[c03c2e72ef4bc0306bf5c53655175255]
link SipityFS to SipityBE--><path d="M68.8395,174.0419 C91.6503,235.5734 147.8358,387.1327 169.3902,445.2751 " fill="none" id="SipityFS-&gt;SipityBE" style="stroke: #A80036; stroke-width: 1.0;"/><polygon fill="#A80036" points="171.2452,450.2792,171.8674,440.45,169.5072,445.591,164.3663,443.2308,171.2452,450.2792" style="stroke: #A80036; stroke-width: 1.0;"/><!--MD5=[0f128ae49dc373435f784e2f60b28feb]
link SipityDMS to SipityBE--><path d="M178,182.1576 C178,247.9616 178,389.3975 178,445.1871 " fill="none" id="SipityDMS-&gt;SipityBE" style="stroke: #A80036; stroke-width: 1.0;"/><polygon fill="#A80036" points="178,450.3133,182,441.3133,178,445.3133,174,441.3133,178,450.3133" style="stroke: #A80036; stroke-width: 1.0;"/><!--MD5=[9141b46874f4d1284305a21c03beed8e]
link Batch to SipityAPI--><path d="M1055.1952,557.1726 C1055.27,556.8781 1055.345,556.5816 1055.4203,556.2832 C1055.5708,555.6865 1055.7223,555.082 1055.8747,554.47 C1056.4843,552.0219 1057.1081,549.453 1057.7403,546.7712 C1062.7974,525.3161 1068.3873,496.6296 1071.4862,464.7328 C1077.6841,400.9394 1073.9184,324.3051 1036,267 C970.2469,167.6289 555.6743,150.5497 461.1628,147.9353 " fill="none" id="Batch-&gt;SipityAPI" style="stroke: #A80036; stroke-width: 1.0; stroke-dasharray: 7.0,7.0;"/><path d="M453.9183,156.2113 A9,9 0 0 0 454.3477 139.3023" fill="none" style="stroke: #A80036; stroke-width: 1.5;"/><text fill="#000000" font-family="sans-serif" font-size="13" lengthAdjust="spacingAndGlyphs" textLength="94" x="1074" y="382.5684">From Webhook</text><text fill="#000000" font-family="sans-serif" font-size="13" lengthAdjust="spacingAndGlyphs" textLength="74" x="1084" y="397.8789">provided by</text><text fill="#000000" font-family="sans-serif" font-size="13" lengthAdjust="spacingAndGlyphs" textLength="35" x="1103.5" y="413.1895">Sipity</text><!--MD5=[189dbbbd6262b372cc132d4c59b03ac9]
link SipityBL to MySql--><path d="M319.3204,165.6781 C317.3191,219.2137 311.4372,376.5546 309.0374,440.7491 " fill="none" id="SipityBL-&gt;MySql" style="stroke: #A80036; stroke-width: 1.0;"/><polygon fill="#A80036" points="308.8434,445.9379,313.1769,437.0937,309.0303,440.9414,305.1825,436.7947,308.8434,445.9379" style="stroke: #A80036; stroke-width: 1.0;"/><!--MD5=[aa4d4d5f7fc23a16a7275978fc3e17b6]
link SipityBL to Noids--><path d="M353.5825,165.5875 C366.7551,171.863 382.2321,178.2584 397,182 C569.387,225.6762 620.6691,182.2685 796,212 C842.7144,219.9216 876.743,217.6716 907.8287,221.4413 C923.3716,223.3261 938.1787,226.7158 953.468,233.6343 C961.1126,237.0936 968.8778,241.435 976.9157,246.9116 C980.9347,249.6499 985.0218,252.672 989.1962,256.0096 C991.2834,257.6783 993.3924,259.4259 995.5255,261.2564 C996.5921,262.1716 997.6648,263.1075 998.7437,264.0646 C999.2832,264.5431 999.8243,265.027 1000.367,265.5162 C1000.6384,265.7608 1000.9101,283.241 1001.1823,283.4883 " fill="none" id="SipityBL-&gt;Noids" style="stroke: #A80036; stroke-width: 1.0;"/><polygon fill="#A80036" points="1001.1823,266.2541,997.2112,257.2413,997.4817,262.8916,991.8313,263.1622,1001.1823,266.2541" style="stroke: #A80036; stroke-width: 1.0;"/><!--MD5=[2c5a6ac1e2b6c0373a9ef7a8aebedb15]
link OnBase to SipityAPI--><path d="M442,47.0471 C442,71.1893 442,111.6871 442,133.146 " fill="none" id="OnBase-&gt;SipityAPI" style="stroke: #A80036; stroke-width: 1.0;"/><polygon fill="#A80036" points="442,138.4175,446,129.4175,442,133.4175,438,129.4175,442,138.4175" style="stroke: #A80036; stroke-width: 1.0;"/><!--MD5=[e96f9f2c2642c91a22e340b36b33ca02]
link SipityBL to Aleph--><path d="M353.9881,165.6711 C367.0806,171.877 382.3975,178.2034 397,182 C544.6741,220.3946 599.9042,149.2772 739,212 C778.2699,229.7081 812.2573,267.4376 831.6855,292.3815 " fill="none" id="SipityBL-&gt;Aleph" style="stroke: #A80036; stroke-width: 1.0; stroke-dasharray: 7.0,7.0;"/><polygon fill="#A80036" points="834.9093,296.5759,832.5963,287.0025,831.8624,292.6115,826.2533,291.8776,834.9093,296.5759" style="stroke: #A80036; stroke-width: 1.0;"/><ellipse cx="571.2169" cy="187.8769" fill="#FFFFFF" rx="10" ry="10" style="stroke: #FFFFFF; stroke-width: 1.0;"/><path d="M578.9784,194.1824 A10,10 0 0 0 577.5223 180.1154" fill="#FFFFFF" style="stroke: #A80036; stroke-width: 1.5;"/><path d="M563.4553,181.5715 A10,10 0 0 0 564.9114 195.6385" fill="#FFFFFF" style="stroke: #A80036; stroke-width: 1.5;"/><ellipse cx="571.2169" cy="187.8769" fill="#FFFFFF" rx="6" ry="6" style="stroke: #A80036; stroke-width: 1.5;"/><!--MD5=[998e701c1932e72f43407f6ab84ae3b8]
link SipityBL to OCLC--><path d="M354.0132,165.5759 C367.1086,171.7709 382.4209,178.1146 397,182 C461.7396,199.2534 642.78,172.6416 697,212 C722.7591,230.6986 734.3018,267.0553 739.3278,291.5607 " fill="none" id="SipityBL-&gt;OCLC" style="stroke: #A80036; stroke-width: 1.0; stroke-dasharray: 7.0,7.0;"/><polygon fill="#A80036" points="740.3042,296.5994,742.5188,287.0028,739.3529,291.6907,734.665,288.5248,740.3042,296.5994" style="stroke: #A80036; stroke-width: 1.0;"/><ellipse cx="550.9449" cy="188.7106" fill="#FFFFFF" rx="10" ry="10" style="stroke: #FFFFFF; stroke-width: 1.0;"/><path d="M557.9659,195.8313 A10,10 0 0 0 558.0655 181.6895" fill="#FFFFFF" style="stroke: #A80036; stroke-width: 1.5;"/><path d="M543.9238,181.5899 A10,10 0 0 0 543.8242 195.7317" fill="#FFFFFF" style="stroke: #A80036; stroke-width: 1.5;"/><ellipse cx="550.9449" cy="188.7106" fill="#FFFFFF" rx="6" ry="6" style="stroke: #A80036; stroke-width: 1.5;"/><!--MD5=[ab5d417642377e04f18e5325babf1288]
@startuml

package "Sipity" {
  component "File\nStorage" as SipityFS
  component "Descriptive\nMetadata\nStorage" as SipityDMS
  component "Batch Exporter" as SipityBE
  component "Business Logic" as SipityBL
  interface "API" as SipityAPI
  database "MySql"

}

package "Batch Ingest" as Batch {
  interface "API" as BatchAPI
}

package Noids {
  database MySQL as MySQLNoids
}

package OCLC
package Aleph

package OnBase

package Locabulary
SipityDMS ..> Locabulary : "for\ncontrolled\nvocabulary"

cloud "AWS" {
  component S3
}

SipityFS - -> S3
SipityDMS - -> MySql
SipityBE - -> BatchAPI
SipityFS - -> SipityBE
SipityDMS - -> SipityBE
Batch ..( SipityAPI : "From Webhook\nprovided by\nSipity"
SipityBL - -> MySql
SipityBL - -> Noids
OnBase - -> SipityAPI
SipityBL .(0).> Aleph
SipityBL .(0).> OCLC

@enduml

PlantUML version 1.2019.10(Fri Sep 13 16:53:03 EDT 2019)
(GPL source distribution)
Java Runtime: Java(TM) SE Runtime Environment
JVM: Java HotSpot(TM) 64-Bit Server VM
Java Version: 1.8.0_102-b14
Operating System: Mac OS X
Default Encoding: UTF-8
Language: en
Country: US
--></g></svg>