<?xml version="1.0" encoding="UTF-8" standalone="no"?><svg xmlns="http://www.w3.org/2000/svg" xmlns:xlink="http://www.w3.org/1999/xlink" contentScriptType="application/ecmascript" contentStyleType="text/css" height="821px" preserveAspectRatio="none" style="width:1077px;height:821px;" version="1.1" viewBox="0 0 1077 821"
    width="1077px" zoomAndPan="magnify"><defs><filter height="300%" id="fkotewi558p3j" width="300%" x="-1" y="-1"><feGaussianBlur result="blurOut" stdDeviation="2.0"/><feColorMatrix in="blurOut" result="blurOut2" type="matrix" values="0 0 0 0 0 0 0 0 0 0 0 0 0 0 0 0 0 0 .4 0"/><feOffset dx="4.0" dy="4.0" in="blurOut2" result="blurOut3"/><feBlend in="SourceGraphic" in2="blurOut3" mode="normal"/></filter></defs><g><!--MD5=[036b8ca5bbb5aa0b6f239061697e4f2d]
cluster Sipity--><polygon fill="#FFFFFF" filter="url(#fkotewi558p3j)" points="14,265,61,265,68,287.4883,512,287.4883,512,685,14,685,14,265" style="stroke: #000000; stroke-width: 1.5;"/><line style="stroke: #000000; stroke-width: 1.5;" x1="14" x2="68" y1="287.4883" y2="287.4883"/><text fill="#000000" font-family="sans-serif" font-size="14" font-weight="bold" lengthAdjust="spacingAndGlyphs" textLength="41" x="18" y="280.5352">Sipity</text><!--MD5=[aa67b594d9c629de74c234d94f00fd81]
cluster Batch--><polygon fill="#FFFFFF" filter="url(#fkotewi558p3j)" points="67,716,162,716,169,738.4883,172,738.4883,172,809,67,809,67,716" style="stroke: #000000; stroke-width: 1.5;"/><line style="stroke: #000000; stroke-width: 1.5;" x1="67" x2="169" y1="738.4883" y2="738.4883"/><text fill="#000000" font-family="sans-serif" font-size="14" font-weight="bold" lengthAdjust="spacingAndGlyphs" textLength="89" x="71" y="731.5352">Batch Ingest</text><!--MD5=[2e3431030c33690ec4f191940759a30e]
cluster Noids--><polygon fill="#FFFFFF" filter="url(#fkotewi558p3j)" points="734,453,782,453,789,475.4883,851,475.4883,851,533,734,533,734,453" style="stroke: #000000; stroke-width: 1.5;"/><line style="stroke: #000000; stroke-width: 1.5;" x1="734" x2="789" y1="475.4883" y2="475.4883"/><text fill="#000000" font-family="sans-serif" font-size="14" font-weight="bold" lengthAdjust="spacingAndGlyphs" textLength="42" x="738" y="468.5352">Noids</text><!--MD5=[88656e78e5bedad418341b6ececa151e]
cluster AWS--><path d="M529.2142,465.8987 C533.2106,455.7568 541.6197,454.9377 547.7981,463.7605 C555.0291,454.5921 563.2343,457.5645 566.9456,467.3215 C573.62,469.4215 576.1897,473.0421 571.5679,479.448 C579.7793,481.7936 581.3353,488.6921 574.5576,494.0968 C579.8206,499.5835 578.9676,505.6982 570.7758,507.3437 C576.3614,513.062 574.3851,518.9655 567.2753,521.5573 C561.9053,532.0718 555.741,532.2505 547.3952,524.8616 C540.2252,533.5689 533.2758,530.8269 529.2514,521.6674 C520.8752,519.419 519.4762,514.0534 525.8642,508.115 C517.9725,506.6406 516.4699,500.0857 522.4168,494.9793 C515.3828,488.8259 517.761,482.7368 525.3964,479.3865 C521.0046,473.72 522.0733,468.3009 529.2142,465.8987 " fill="#FFFFFF" style="stroke: #000000; stroke-width: 1.5;"/><text fill="#000000" font-family="sans-serif" font-size="14" font-weight="bold" lengthAdjust="spacingAndGlyphs" textLength="31" x="531.5" y="484.0352">AWS</text><!--MD5=[086394bb65cbfff9d73f0c7d82fb6ab9]
entity SipityFS--><rect fill="#FEFECE" filter="url(#fkotewi558p3j)" height="52.9766" style="stroke: #A80036; stroke-width: 1.5;" width="73" x="111.5" y="300"/><rect fill="#FEFECE" height="5" style="stroke: #A80036; stroke-width: 1.5;" width="10" x="106.5" y="305"/><rect fill="#FEFECE" height="5" style="stroke: #A80036; stroke-width: 1.5;" width="10" x="106.5" y="342.9766"/><text fill="#000000" font-family="sans-serif" font-size="14" lengthAdjust="spacingAndGlyphs" textLength="24" x="121.5" y="323.5352">File</text><text fill="#000000" font-family="sans-serif" font-size="14" lengthAdjust="spacingAndGlyphs" textLength="53" x="121.5" y="340.0234">Storage</text><!--MD5=[eea5bb3b07aab377378f466a3ee76eed]
entity SipityDMS--><rect fill="#FEFECE" filter="url(#fkotewi558p3j)" height="69.4648" style="stroke: #A80036; stroke-width: 1.5;" width="95" x="219.5" y="292"/><rect fill="#FEFECE" height="5" style="stroke: #A80036; stroke-width: 1.5;" width="10" x="214.5" y="297"/><rect fill="#FEFECE" height="5" style="stroke: #A80036; stroke-width: 1.5;" width="10" x="214.5" y="351.4648"/><text fill="#000000" font-family="sans-serif" font-size="14" lengthAdjust="spacingAndGlyphs" textLength="75" x="229.5" y="315.5352">Descriptive</text><text fill="#000000" font-family="sans-serif" font-size="14" lengthAdjust="spacingAndGlyphs" textLength="63" x="229.5" y="332.0234">Metadata</text><text fill="#000000" font-family="sans-serif" font-size="14" lengthAdjust="spacingAndGlyphs" textLength="53" x="229.5" y="348.5117">Storage</text><!--MD5=[f2df6e8b62a9930dbf353422601b0eae]
entity SipityBE--><rect fill="#FEFECE" filter="url(#fkotewi558p3j)" height="36.4883" style="stroke: #A80036; stroke-width: 1.5;" width="121" x="102.5" y="636.5"/><rect fill="#FEFECE" height="5" style="stroke: #A80036; stroke-width: 1.5;" width="10" x="97.5" y="641.5"/><rect fill="#FEFECE" height="5" style="stroke: #A80036; stroke-width: 1.5;" width="10" x="97.5" y="662.9883"/><text fill="#000000" font-family="sans-serif" font-size="14" lengthAdjust="spacingAndGlyphs" textLength="101" x="112.5" y="660.0352">Batch Exporter</text><!--MD5=[cb4df5336486a6854d3cacb62bdca4bb]
entity SipityBL--><rect fill="#FEFECE" filter="url(#fkotewi558p3j)" height="36.4883" style="stroke: #A80036; stroke-width: 1.5;" width="119" x="349.5" y="308.5"/><rect fill="#FEFECE" height="5" style="stroke: #A80036; stroke-width: 1.5;" width="10" x="344.5" y="313.5"/><rect fill="#FEFECE" height="5" style="stroke: #A80036; stroke-width: 1.5;" width="10" x="344.5" y="334.9883"/><text fill="#000000" font-family="sans-serif" font-size="14" lengthAdjust="spacingAndGlyphs" textLength="99" x="359.5" y="332.0352">Business Logic</text><!--MD5=[fcfc1b56d4b27b5666602875e12ba800]
entity SipityAPI--><ellipse cx="49" cy="326.5" fill="#FEFECE" filter="url(#fkotewi558p3j)" rx="8" ry="8" style="stroke: #A80036; stroke-width: 2.0;"/><text fill="#000000" font-family="sans-serif" font-size="14" lengthAdjust="spacingAndGlyphs" textLength="22" x="38" y="357.0352">API</text><!--MD5=[2519f4b563146138a779359188ab3db5]
entity MySql--><path d="M319,642 C319,632 349,632 349,632 C349,632 379,632 379,642 L379,667.4883 C379,677.4883 349,677.4883 349,677.4883 C349,677.4883 319,677.4883 319,667.4883 L319,642 " fill="#FEFECE" filter="url(#fkotewi558p3j)" style="stroke: #000000; stroke-width: 1.5;"/><path d="M319,642 C319,652 349,652 349,652 C349,652 379,652 379,642 " fill="none" style="stroke: #000000; stroke-width: 1.5;"/><text fill="#000000" font-family="sans-serif" font-size="14" lengthAdjust="spacingAndGlyphs" textLength="40" x="329" y="669.5352">MySql</text><!--MD5=[6c444dd6b145513787bf9986e8d9020c]
entity BatchAPI--><ellipse cx="137" cy="772" fill="#FEFECE" filter="url(#fkotewi558p3j)" rx="8" ry="8" style="stroke: #A80036; stroke-width: 2.0;"/><text fill="#000000" font-family="sans-serif" font-size="14" lengthAdjust="spacingAndGlyphs" textLength="22" x="126" y="802.5352">API</text><!--MD5=[ee1469d2788bbe71c2eb3dceba3841a6]
entity MySQLNoids--><path d="M742.5,490 C742.5,480 775,480 775,480 C775,480 807.5,480 807.5,490 L807.5,515.4883 C807.5,525.4883 775,525.4883 775,525.4883 C775,525.4883 742.5,525.4883 742.5,515.4883 L742.5,490 " fill="#FEFECE" filter="url(#fkotewi558p3j)" style="stroke: #000000; stroke-width: 1.5;"/><path d="M742.5,490 C742.5,500 775,500 775,500 C775,500 807.5,500 807.5,490 " fill="none" style="stroke: #000000; stroke-width: 1.5;"/><text fill="#000000" font-family="sans-serif" font-size="14" lengthAdjust="spacingAndGlyphs" textLength="45" x="752.5" y="517.5352">MySQL</text><!--MD5=[6c7192638421eaf134d201765ac5db29]
entity S3--><rect fill="#FEFECE" filter="url(#fkotewi558p3j)" height="36.4883" style="stroke: #A80036; stroke-width: 1.5;" width="37" x="528.5" y="484.5"/><rect fill="#FEFECE" height="5" style="stroke: #A80036; stroke-width: 1.5;" width="10" x="523.5" y="489.5"/><rect fill="#FEFECE" height="5" style="stroke: #A80036; stroke-width: 1.5;" width="10" x="523.5" y="510.9883"/><text fill="#000000" font-family="sans-serif" font-size="14" lengthAdjust="spacingAndGlyphs" textLength="17" x="538.5" y="508.0352">S3</text><!--MD5=[6ff5f3ea8ca38fd1a79325f1dce286f9]
entity Cataloger--><ellipse cx="914" cy="295" fill="#FEFECE" filter="url(#fkotewi558p3j)" rx="8" ry="8" style="stroke: #A80036; stroke-width: 2.0;"/><path d="M914,303 L914,330 M901,311 L927,311 M914,330 L901,345 M914,330 L927,345 " fill="none" filter="url(#fkotewi558p3j)" style="stroke: #A80036; stroke-width: 2.0;"/><text fill="#000000" font-family="sans-serif" font-size="14" lengthAdjust="spacingAndGlyphs" textLength="67" x="880.5" y="365.5352">Cataloger</text><!--MD5=[f140f9ff745fe2a669ea6aa62d41f9f1]
entity GradSchoolEditor--><ellipse cx="411" cy="18" fill="#FEFECE" filter="url(#fkotewi558p3j)" rx="8" ry="8" style="stroke: #A80036; stroke-width: 2.0;"/><path d="M411,26 L411,53 M398,34 L424,34 M411,53 L398,68 M411,53 L424,68 " fill="none" filter="url(#fkotewi558p3j)" style="stroke: #A80036; stroke-width: 2.0;"/><text fill="#000000" font-family="sans-serif" font-size="14" lengthAdjust="spacingAndGlyphs" textLength="33" x="388" y="88.5352">Grad</text><text fill="#000000" font-family="sans-serif" font-size="14" lengthAdjust="spacingAndGlyphs" textLength="46" x="388" y="105.0234">School</text><text fill="#000000" font-family="sans-serif" font-size="14" lengthAdjust="spacingAndGlyphs" textLength="41" x="388" y="121.5117">Editor</text><!--MD5=[ac8f20b59aaeffa7d07bee14fd87b870]
entity OCLC--><polygon fill="#FEFECE" filter="url(#fkotewi558p3j)" points="985,483,1031,483,1038,505.4883,1055,505.4883,1055,522.4883,985,522.4883,985,483" style="stroke: #000000; stroke-width: 1.5;"/><line style="stroke: #000000; stroke-width: 1.5;" x1="985" x2="1038" y1="505.4883" y2="505.4883"/><text fill="#000000" font-family="sans-serif" font-size="14" font-weight="bold" lengthAdjust="spacingAndGlyphs" textLength="40" x="989" y="499.5352">OCLC</text><!--MD5=[fa8019ea18872dd8c4c2f138e2281076]
entity Aleph--><polygon fill="#FEFECE" filter="url(#fkotewi558p3j)" points="878.5,483,925.5,483,932.5,505.4883,949.5,505.4883,949.5,522.4883,878.5,522.4883,878.5,483" style="stroke: #000000; stroke-width: 1.5;"/><line style="stroke: #000000; stroke-width: 1.5;" x1="878.5" x2="932.5" y1="505.4883" y2="505.4883"/><text fill="#000000" font-family="sans-serif" font-size="14" font-weight="bold" lengthAdjust="spacingAndGlyphs" textLength="41" x="882.5" y="499.5352">Aleph</text><!--MD5=[64e29bcd0b3c7cd10fb363497c8a6b17]
entity OnBase--><polygon fill="#FEFECE" filter="url(#fkotewi558p3j)" points="277,185,337,185,344,207.4883,361,207.4883,361,224.4883,277,224.4883,277,185" style="stroke: #000000; stroke-width: 1.5;"/><line style="stroke: #000000; stroke-width: 1.5;" x1="277" x2="344" y1="207.4883" y2="207.4883"/><text fill="#000000" font-family="sans-serif" font-size="14" font-weight="bold" lengthAdjust="spacingAndGlyphs" textLength="54" x="281" y="201.5352">OnBase</text><!--MD5=[49416190580e7e978633a2ba0bec8388]
entity Locabulary--><polygon fill="#FEFECE" filter="url(#fkotewi558p3j)" points="600.5,483,683.5,483,690.5,505.4883,707.5,505.4883,707.5,522.4883,600.5,522.4883,600.5,483" style="stroke: #000000; stroke-width: 1.5;"/><line style="stroke: #000000; stroke-width: 1.5;" x1="600.5" x2="690.5" y1="505.4883" y2="505.4883"/><text fill="#000000" font-family="sans-serif" font-size="14" font-weight="bold" lengthAdjust="spacingAndGlyphs" textLength="77" x="604.5" y="499.5352">Locabulary</text><!--MD5=[fef7c7187f058e0044b218b358792476]
link SipityDMS to Locabulary--><path d="M314.6222,359.4654 C320.3289,362.6393 326.194,365.5736 332,368 C387.5103,391.1982 407.08,378.5149 464,398 C518.7428,416.7397 531.7644,424.2887 582,453 C596.0805,461.0475 610.9581,471.0068 623.5111,479.8775 " fill="none" id="SipityDMS-&gt;Locabulary" style="stroke: #A80036; stroke-width: 1.0; stroke-dasharray: 7.0,7.0;"/><polygon fill="#A80036" points="627.6746,482.8397,622.6604,474.3628,623.6006,479.941,618.0224,480.8812,627.6746,482.8397" style="stroke: #A80036; stroke-width: 1.0;"/><text fill="#000000" font-family="sans-serif" font-size="13" lengthAdjust="spacingAndGlyphs" textLength="18" x="593" y="411.5684">for</text><text fill="#000000" font-family="sans-serif" font-size="13" lengthAdjust="spacingAndGlyphs" textLength="64" x="570" y="426.8789">controlled</text><text fill="#000000" font-family="sans-serif" font-size="13" lengthAdjust="spacingAndGlyphs" textLength="68" x="568" y="442.1895">vocabulary</text><!--MD5=[fb31825af213da6fa3d981585d54d88b]
link SipityFS to S3--><path d="M178.6814,353.1316 C185.9895,358.5897 193.9991,363.9092 202,368 C308.5456,422.476 342.9967,419.9035 460,445 C486.3044,450.6421 497.8267,437.7652 520,453 C529.1523,459.2884 535.4951,469.7232 539.7211,479.395 " fill="none" id="SipityFS-&gt;S3" style="stroke: #A80036; stroke-width: 1.0;"/><polygon fill="#A80036" points="541.6287,484.0602,541.9245,474.2158,539.7361,479.4322,534.5197,477.2439,541.6287,484.0602" style="stroke: #A80036; stroke-width: 1.0;"/><!--MD5=[57a474ff0dbb86bd3caa3ed6d223e2a1]
link SipityDMS to MySql--><path d="M275.6978,361.2912 C292.0621,426.7485 327.1233,566.9931 342.0457,626.6827 " fill="none" id="SipityDMS-&gt;MySql" style="stroke: #A80036; stroke-width: 1.0;"/><polygon fill="#A80036" points="343.3407,631.8628,345.0384,622.1614,342.128,627.0121,337.2773,624.1017,343.3407,631.8628" style="stroke: #A80036; stroke-width: 1.0;"/><!--MD5=[759236fd4672e0a665bfa15e299ecdaf]
link SipityBE to BatchAPI--><path d="M158.9945,672.6019 C153.7943,696.1026 144.828,736.6234 140.1099,757.9458 " fill="none" id="SipityBE-&gt;BatchAPI" style="stroke: #A80036; stroke-width: 1.0;"/><polygon fill="#A80036" points="139.0068,762.931,144.8568,755.0078,140.0871,758.0491,137.0458,753.2794,139.0068,762.931" style="stroke: #A80036; stroke-width: 1.0;"/><!--MD5=[c03c2e72ef4bc0306bf5c53655175255]
link SipityFS to SipityBE--><path d="M149.2148,353.0638 C152.0786,415.6858 159.215,571.7355 161.9292,631.0854 " fill="none" id="SipityFS-&gt;SipityBE" style="stroke: #A80036; stroke-width: 1.0;"/><polygon fill="#A80036" points="162.1626,636.1897,165.747,627.0162,161.934,631.1949,157.7553,627.382,162.1626,636.1897" style="stroke: #A80036; stroke-width: 1.0;"/><!--MD5=[0f128ae49dc373435f784e2f60b28feb]
link SipityDMS to SipityBE--><path d="M255.9686,361.2912 C234.6557,428.509 188.337,574.5909 170.3495,631.3209 " fill="none" id="SipityDMS-&gt;SipityBE" style="stroke: #A80036; stroke-width: 1.0;"/><polygon fill="#A80036" points="168.7997,636.2086,175.3329,628.8385,170.3109,631.4425,167.707,626.4205,168.7997,636.2086" style="stroke: #A80036; stroke-width: 1.0;"/><!--MD5=[9141b46874f4d1284305a21c03beed8e]
link Batch to SipityAPI--><path d="M66.9905,718.9113 C66.9568,718.6706 66.923,718.4294 66.8892,718.1876 C66.8216,717.7039 66.7538,717.2182 66.6859,716.7302 C66.4141,714.7784 66.1399,712.7924 65.8637,710.7749 C61.4459,678.4959 56.5567,638.1905 54,602 C46.9635,502.3944 48.0775,382.0598 48.7288,341.0201 " fill="none" id="Batch-&gt;SipityAPI" style="stroke: #A80036; stroke-width: 1.0; stroke-dasharray: 7.0,7.0;"/><polygon fill="#A80036" points="48.8205,335.5524,44.6699,344.4839,48.7365,340.5517,52.6687,344.6183,48.8205,335.5524" style="stroke: #A80036; stroke-width: 1.0;"/><text fill="#000000" font-family="sans-serif" font-size="13" lengthAdjust="spacingAndGlyphs" textLength="94" x="55" y="568.5684">From Webhook</text><text fill="#000000" font-family="sans-serif" font-size="13" lengthAdjust="spacingAndGlyphs" textLength="74" x="65" y="583.8789">provided by</text><text fill="#000000" font-family="sans-serif" font-size="13" lengthAdjust="spacingAndGlyphs" textLength="35" x="84.5" y="599.1895">Sipity</text><!--MD5=[189dbbbd6262b372cc132d4c59b03ac9]
link SipityBL to MySql--><path d="M405.6887,344.6019 C395.7482,398.943 366.1145,560.9405 354.1224,626.4977 " fill="none" id="SipityBL-&gt;MySql" style="stroke: #A80036; stroke-width: 1.0;"/><polygon fill="#A80036" points="353.1536,631.7934,358.708,623.6602,354.0534,626.875,350.8386,622.2205,353.1536,631.7934" style="stroke: #A80036; stroke-width: 1.0;"/><!--MD5=[aa4d4d5f7fc23a16a7275978fc3e17b6]
link SipityBL to Noids--><path d="M437.6379,344.6716 C451.729,352.8897 469.2519,362.0679 486,368 C553.787,392.0099 575.3215,380.2104 645,398 C710.6398,414.7585 724.6924,426.9902 790,445 C797.6913,447.121 803.451,446.4805 808.7831,446.63 C811.4491,446.7048 814.0083,446.977 816.6484,447.8907 C817.9685,448.3475 819.3088,448.9647 820.6929,449.7978 C821.385,450.2143 822.088,450.6848 822.8048,451.2162 C823.1633,451.4819 823.5252,451.7628 823.8909,452.0598 C824.0738,452.2083 824.2576,452.3609 824.4424,452.5175 C824.5349,452.5958 824.6275,452.6752 824.7204,452.7556 C824.7669,452.7958 824.8134,469.4476 824.86,469.4883 " fill="none" id="SipityBL-&gt;Noids" style="stroke: #A80036; stroke-width: 1.0;"/><polygon fill="#A80036" points="824.86,452.877,820.7167,443.9421,821.0956,449.5862,815.4515,449.9651,824.86,452.877" style="stroke: #A80036; stroke-width: 1.0;"/><!--MD5=[2c5a6ac1e2b6c0373a9ef7a8aebedb15]
link OnBase to SipityAPI--><path d="M276.9589,207.458 C228.9631,212.6144 149.8855,226.6936 94,265 C76.3113,277.1246 62.9817,298.5514 55.5826,312.6396 " fill="none" id="OnBase-&gt;SipityAPI" style="stroke: #A80036; stroke-width: 1.0;"/><polygon fill="#A80036" points="53.1279,317.4671,60.7728,311.2577,55.3942,313.0102,53.6417,307.6317,53.1279,317.4671" style="stroke: #A80036; stroke-width: 1.0;"/><!--MD5=[e96f9f2c2642c91a22e340b36b33ca02]
link SipityBL to Aleph--><path d="M436.3888,344.5556 C450.6141,353.0621 468.6193,362.5231 486,368 C595.6811,402.5623 632.472,366.2502 743,398 C789.8136,411.4475 797.9646,424.1859 842,445 C849.5495,448.5684 852.0443,448.3797 859,453 C870.2358,460.4634 881.5072,470.1317 890.8949,478.9408 " fill="none" id="SipityBL-&gt;Aleph" style="stroke: #A80036; stroke-width: 1.0; stroke-dasharray: 7.0,7.0;"/><polygon fill="#A80036" points="894.7973,482.6545,891.0352,473.5525,891.1753,479.2076,885.5202,479.3477,894.7973,482.6545" style="stroke: #A80036; stroke-width: 1.0;"/><!--MD5=[998e701c1932e72f43407f6ab84ae3b8]
link SipityBL to OCLC--><path d="M435.9751,344.5342 C450.2395,353.1457 468.4039,362.7065 486,368 C627.8758,410.6812 673.4747,365.3983 818,398 C826.6074,399.9416 959.4888,448.3696 967,453 C978.441,460.053 989.5561,469.8311 998.6278,478.8352 " fill="none" id="SipityBL-&gt;OCLC" style="stroke: #A80036; stroke-width: 1.0; stroke-dasharray: 7.0,7.0;"/><polygon fill="#A80036" points="1002.3855,482.6365,998.903,473.4239,998.8704,479.0807,993.2136,479.0481,1002.3855,482.6365" style="stroke: #A80036; stroke-width: 1.0;"/><!--MD5=[6f222f5364a42a975522dba4e1355269]
link GradSchoolEditor to OnBase--><path d="M387.7845,100.9494 C371.2164,125.8916 349.3725,158.7762 334.79,180.7291 " fill="none" id="GradSchoolEditor-&gt;OnBase" style="stroke: #A80036; stroke-width: 1.0;"/><polygon fill="#A80036" points="331.9741,184.9684,340.2858,179.6849,334.7407,180.8035,333.622,175.2584,331.9741,184.9684" style="stroke: #A80036; stroke-width: 1.0;"/><!--MD5=[0488e9dfd56e8d8a9d2d1dd5f80cd874]
link GradSchoolEditor to Sipity--><path d="M434.157,123.9254 C441.8851,143.6669 450.8371,166.9424 459.8615,191.2791 C464.3736,203.4474 468.9039,215.8811 473.3083,228.2709 C475.5105,234.4658 477.6813,240.6498 479.8025,246.7842 C480.8632,249.8514 481.9115,252.9062 482.9451,255.9438 C483.4619,257.4626 483.9751,258.9771 484.4844,260.4866 C484.739,261.2414 484.9926,261.995 485.2452,262.7472 C485.3715,263.1233 485.4976,263.4991 485.6234,263.8746 C485.6863,264.0623 485.7491,281.3007 485.8119,281.4883 " fill="none" id="GradSchoolEditor-&gt;Sipity" style="stroke: #A80036; stroke-width: 1.0;"/><polygon fill="#A80036" points="485.8119,264.4376,486.749,254.6334,484.2252,259.696,479.1625,257.1722,485.8119,264.4376" style="stroke: #A80036; stroke-width: 1.0;"/><!--MD5=[f7fce330c96e5e8a04a87052118a8ef2]
link Cataloger to Sipity--><path d="M880.4,326.5 C817.7334,326.5 755.0668,326.5 692.4002,326.5 C661.0669,326.5 629.7336,326.5 598.4003,326.5 C582.7337,326.5 567.067,326.5 551.4004,326.5 C543.567,326.5 535.7337,326.5 527.9004,326.5 C523.9837,326.5 520.067,326.5 516.1504,326.5 C515.1712,326.5 514.1921,326.5 513.2129,326.5 " fill="none" id="Cataloger-&gt;Sipity" style="stroke: #A80036; stroke-width: 1.0;"/><polygon fill="#A80036" points="513.2129,326.5,522.2129,330.5,518.2129,326.5,522.2129,322.5,513.2129,326.5" style="stroke: #A80036; stroke-width: 1.0;"/><!--MD5=[fa201d4f512a386777704a105f10fe36]
link Cataloger to Aleph--><path d="M914,368.2095 C914,402.2771 914,449.284 914,477.694 " fill="none" id="Cataloger-&gt;Aleph" style="stroke: #A80036; stroke-width: 1.0;"/><polygon fill="#A80036" points="914,482.7751,918,473.7751,914,477.7751,910,473.7751,914,482.7751" style="stroke: #A80036; stroke-width: 1.0;"/><!--MD5=[c1b93b89f513351868ded9e5a6502de0]
link Cataloger to OCLC--><path d="M939.1205,368.2095 C959.8088,402.5598 988.4199,450.0651 1005.4837,478.3975 " fill="none" id="Cataloger-&gt;OCLC" style="stroke: #A80036; stroke-width: 1.0;"/><polygon fill="#A80036" points="1008.1202,482.7751,1006.9032,473.0017,1005.5405,478.492,1000.0502,477.1292,1008.1202,482.7751" style="stroke: #A80036; stroke-width: 1.0;"/><!--MD5=[f74b0766b8541e59fc98eec3d42fa2b6]
@startuml

package "Sipity" {
  component "File\nStorage" as SipityFS
  component "Descriptive\nMetadata\nStorage" as SipityDMS
  component "Batch Exporter" as SipityBE
  component "Business Logic" as SipityBL
  interface "API" as SipityAPI
  database "MySql"

}
actor "Cataloger"
actor "Grad\nSchool\nEditor" as GradSchoolEditor

package "Batch Ingest" as Batch {
  interface "API" as BatchAPI
}

package Noids {
  database MySQL as MySQLNoids
}

package OCLC
package Aleph

package OnBase

package Locabulary
SipityDMS ..> Locabulary : "for\ncontrolled\nvocabulary"

cloud "AWS" {
  component S3
}

SipityFS - -> S3
SipityDMS - -> MySql
SipityBE - -> BatchAPI
SipityFS - -> SipityBE
SipityDMS - -> SipityBE
Batch ..> SipityAPI : "From Webhook\nprovided by\nSipity"
SipityBL - -> MySql
SipityBL - -> Noids
OnBase - -> SipityAPI
SipityBL ..> Aleph
SipityBL ..> OCLC


GradSchoolEditor - -> OnBase
GradSchoolEditor - -> Sipity
Cataloger - -> Sipity
Cataloger - -> Aleph
Cataloger - -> OCLC


@enduml

PlantUML version 1.2019.10(Fri Sep 13 16:53:03 EDT 2019)
(GPL source distribution)
Java Runtime: Java(TM) SE Runtime Environment
JVM: Java HotSpot(TM) 64-Bit Server VM
Java Version: 1.8.0_102-b14
Operating System: Mac OS X
Default Encoding: UTF-8
Language: en
Country: US
--></g></svg>