<?xml version="1.0" encoding="UTF-8" standalone="no"?><svg xmlns="http://www.w3.org/2000/svg" xmlns:xlink="http://www.w3.org/1999/xlink" contentScriptType="application/ecmascript" contentStyleType="text/css" height="405px" preserveAspectRatio="none" style="width:918px;height:405px;" version="1.1" viewBox="0 0 918 405"
    width="918px" zoomAndPan="magnify"><defs><filter height="300%" id="f1f7qgr6wnydny" width="300%" x="-1" y="-1"><feGaussianBlur result="blurOut" stdDeviation="2.0"/><feColorMatrix in="blurOut" result="blurOut2" type="matrix" values="0 0 0 0 0 0 0 0 0 0 0 0 0 0 0 0 0 0 .4 0"/><feOffset dx="4.0" dy="4.0" in="blurOut2" result="blurOut3"/><feBlend in="SourceGraphic" in2="blurOut3" mode="normal"/></filter></defs><g><text fill="#888888" font-family="sans-serif" font-size="10" lengthAdjust="spacingAndGlyphs" textLength="20" x="886" y="9.668">VRC</text><!--MD5=[7483698f67f6b2921a7cf52bec9b9c93]
entity FileMakerPro--><polygon fill="#FEFECE" filter="url(#f1f7qgr6wnydny)" points="172,183.2773,272,183.2773,279,205.7656,296,205.7656,296,222.7656,172,222.7656,172,183.2773" style="stroke: #000000; stroke-width: 1.5;"/><line style="stroke: #000000; stroke-width: 1.5;" x1="172" x2="279" y1="205.7656" y2="205.7656"/><text fill="#000000" font-family="sans-serif" font-size="14" font-weight="bold" lengthAdjust="spacingAndGlyphs" textLength="94" x="176" y="199.8125">FileMakerPro</text><!--MD5=[14cc6840e33a70f5e66434e88e5e85ee]
entity curate.nd.edu--><ellipse cx="61" cy="361.7773" fill="#FEFECE" filter="url(#f1f7qgr6wnydny)" rx="8" ry="8" style="stroke: #A80036; stroke-width: 2.0;"/><text fill="#000000" font-family="sans-serif" font-size="14" lengthAdjust="spacingAndGlyphs" textLength="95" x="13.5" y="392.3125">curate.nd.edu</text><!--MD5=[5832b04387d6d292f6f43f23dd6aafd7]
entity CorpFS--><polygon fill="#FEFECE" filter="url(#f1f7qgr6wnydny)" points="272,333.7773,318,333.7773,325,354.7773,352,354.7773,352,389.7539,272,389.7539,272,333.7773" style="stroke: #000000; stroke-width: 1.5;"/><line style="stroke: #000000; stroke-width: 1.5;" x1="272" x2="325" y1="354.7773" y2="354.7773"/><text fill="#000000" font-family="sans-serif" font-size="14" lengthAdjust="spacingAndGlyphs" textLength="50" x="282" y="375.3125">CorpFS</text><!--MD5=[a59b687cb35fdfab55634fb65dbea243]
entity Handler--><ellipse cx="625" cy="29.7773" fill="#FEFECE" filter="url(#f1f7qgr6wnydny)" rx="8" ry="8" style="stroke: #A80036; stroke-width: 2.0;"/><path d="M625,37.7773 L625,64.7773 M612,45.7773 L638,45.7773 M625,64.7773 L612,79.7773 M625,64.7773 L638,79.7773 " fill="none" filter="url(#f1f7qgr6wnydny)" style="stroke: #A80036; stroke-width: 2.0;"/><text fill="#000000" font-family="sans-serif" font-size="14" lengthAdjust="spacingAndGlyphs" textLength="165" x="542.5" y="100.3125">Faculty Request Handler</text><!--MD5=[810d3db0f669efce0419c4627c04176f]
entity GoogleDrive--><path d="M576.8807,188.2615 C581.199,183.1616 584.8071,182.3644 588.8077,188.596 C591.9728,181.3527 597.5243,180.656 601.9713,187.3887 C605.3474,182.4193 610.578,180.7061 614.0281,187.3117 C616.3307,179.999 621.9861,178.3742 626.9942,184.7488 C630.7089,180.3732 635.9729,180.0868 638.2959,186.2422 C642.6626,181.1098 646.2693,180.5112 649.7937,187.0706 C655.1044,182.1199 660.0403,182.4235 663.5663,189.1717 C667.3006,183.9311 672.5011,182.7751 675.902,189.5149 C685.701,190.1986 689.0652,194.6757 685.0967,204.0615 C687.8715,213.4203 685.5492,219.831 674.4146,219.6713 C671.321,225.7601 667.2045,226.471 663.1449,220.58 C660.7277,227.7269 655.886,227.3902 651.3264,222.7232 C647.6424,229.5563 643.4276,229.3928 638.167,224.4913 C634.9893,229.2353 630.6405,230.018 626.8973,225.1547 C622.4374,230.977 618.2239,231.216 613.6091,225.3306 C608.4467,231.0299 603.5233,229.9102 601.0396,222.7186 C596.1807,227.2063 592.5768,226.2569 590.173,220.1908 C585.6112,224.9425 581.5832,225.1736 577.8268,219.2585 C570.0522,217.464 567.2201,211.7311 572.1615,204.9144 C566.7566,197.6218 567.7219,191.4269 576.8807,188.2615 " fill="#FEFECE" style="stroke: #000000; stroke-width: 1.5;"/><text fill="#000000" font-family="sans-serif" font-size="14" lengthAdjust="spacingAndGlyphs" textLength="84" x="583" y="208.3125">GoogleDrive</text><!--MD5=[05246e38ea0abb0c8ec71a427895d0b8]
entity Box--><path d="M726.9548,189.673 C730.6698,178.6221 739.5405,177.514 746.6547,186.2966 C753.0048,178.4436 762.3081,177.5458 766.4711,188.5902 C776.6019,187.5093 781.4997,194.4988 775.7628,203.3841 C780.1658,212.7251 776.5722,217.3506 767.026,218.7714 C762.2949,229.9068 754.6063,232.4912 745.379,223.6415 C738.9898,231.9734 729.6109,229.6023 726.2221,220.3691 C716.3751,218.5271 713.4749,212.2844 718.4631,203.5844 C714.6134,195.1778 717.4836,189.9483 726.9548,189.673 " fill="#FEFECE" style="stroke: #000000; stroke-width: 1.5;"/><text fill="#000000" font-family="sans-serif" font-size="14" lengthAdjust="spacingAndGlyphs" textLength="26" x="732" y="208.3125">Box</text><!--MD5=[c64b233501178c997e71b8533419e088]
entity Email--><path d="M828.5139,188.1438 C832.1049,180.7539 837.749,180.8747 842.2474,187.2377 C845.4876,180.5874 851.017,179.5988 855.1215,186.4112 C859.0016,180.2574 863.9676,181.9133 867.0449,187.2446 C870.8846,180.7812 877.4436,182.2774 880.368,188.227 C889.3293,191.458 891.7156,198.1864 884.1647,205.1271 C888.7925,211.765 888.686,216.2501 879.825,218.5157 C878.4847,224.6008 873.28,226.8849 868.7717,221.594 C864.7666,229.0394 860.0366,229.5044 854.1699,223.6357 C849.5832,228.4989 844.4291,226.763 842.0225,221.116 C837.5995,226.7294 832.5362,226.6839 829.4474,219.7761 C820.1747,218.9017 817.1741,212.6292 822.4525,204.9087 C816.3317,196.3444 818.3312,190.8136 828.5139,188.1438 " fill="#FEFECE" style="stroke: #000000; stroke-width: 1.5;"/><text fill="#000000" font-family="sans-serif" font-size="14" lengthAdjust="spacingAndGlyphs" textLength="37" x="835.5" y="208.3125">Email</text><!--MD5=[b44a01a9a243fc568d88c3442fc57443]
link CorpFS to FileMakerPro--><path d="M303.9581,333.397 C297.1912,311.4987 286.4681,280.8179 273,255.7773 C267.6055,245.7476 260.4985,235.4924 253.8307,226.7082 " fill="none" id="CorpFS-&gt;FileMakerPro" style="stroke: #A80036; stroke-width: 1.0; stroke-dasharray: 7.0,7.0;"/><polygon fill="#A80036" points="250.6021,222.5216,252.9305,232.0913,253.6554,226.4811,259.2656,227.206,250.6021,222.5216" style="stroke: #A80036; stroke-width: 1.0;"/><text fill="#000000" font-family="sans-serif" font-size="13" lengthAdjust="spacingAndGlyphs" textLength="94" x="296" y="269.3457">Digital Objects</text><text fill="#000000" font-family="sans-serif" font-size="13" lengthAdjust="spacingAndGlyphs" textLength="63" x="311.5" y="284.6563">Named by</text><text fill="#000000" font-family="sans-serif" font-size="13" lengthAdjust="spacingAndGlyphs" textLength="98" x="294" y="299.9668">FileMakerPro ID</text><ellipse cx="290.992" cy="295.7656" fill="#FFFFFF" rx="10" ry="10" style="stroke: #FFFFFF; stroke-width: 1.0;"/><path d="M295.0514,286.6266 A10,10 0 0 0 281.853 291.7062" fill="#FFFFFF" style="stroke: #A80036; stroke-width: 1.5;"/><path d="M286.9326,304.9046 A10,10 0 0 0 300.131 299.8249" fill="#FFFFFF" style="stroke: #A80036; stroke-width: 1.5;"/><ellipse cx="290.992" cy="295.7656" fill="#FFFFFF" rx="6" ry="6" style="stroke: #A80036; stroke-width: 1.5;"/><!--MD5=[fb3e8375c510edbda06f5b705c6df083]
link FileMakerPro to CorpFS--><path d="M191.2188,222.4517 C178.1391,230.7586 165.2925,241.8012 158,255.7773 C148.3369,274.2968 146.1628,285.5661 158,302.7773 C170.7844,321.3658 226.1891,339.427 266.8951,350.5657 " fill="none" id="FileMakerPro-&gt;CorpFS" style="stroke: #A80036; stroke-width: 1.0; stroke-dasharray: 7.0,7.0;"/><polygon fill="#A80036" points="271.7825,351.8894,264.1412,345.6757,266.9564,350.5823,262.0498,353.3975,271.7825,351.8894" style="stroke: #A80036; stroke-width: 1.0;"/><text fill="#000000" font-family="sans-serif" font-size="13" lengthAdjust="spacingAndGlyphs" textLength="57" x="183" y="269.3457">Metadata</text><text fill="#000000" font-family="sans-serif" font-size="13" lengthAdjust="spacingAndGlyphs" textLength="61" x="181" y="284.6563">Includeds</text><text fill="#000000" font-family="sans-serif" font-size="13" lengthAdjust="spacingAndGlyphs" textLength="105" x="159" y="299.9668">Storage Location</text><ellipse cx="201.977" cy="329.4652" fill="#FFFFFF" rx="10" ry="10" style="stroke: #FFFFFF; stroke-width: 1.0;"/><path d="M205.9099,338.6593 A10,10 0 0 0 211.1711 325.5323" fill="#FFFFFF" style="stroke: #A80036; stroke-width: 1.5;"/><path d="M198.044,320.2711 A10,10 0 0 0 192.7828 333.3982" fill="#FFFFFF" style="stroke: #A80036; stroke-width: 1.5;"/><ellipse cx="201.977" cy="329.4652" fill="#FFFFFF" rx="6" ry="6" style="stroke: #A80036; stroke-width: 1.5;"/><!--MD5=[ff58234f27c2ffa03f4cf259b1466a6a]
link FileMakerPro to curate.nd.edu--><path d="M171.9906,216.8905 C134.1091,226.7829 90.5937,240.8606 78,255.7773 C55.9428,281.9032 56.7685,325.0195 59.0078,347.3585 " fill="none" id="FileMakerPro-&gt;curate.nd.edu" style="stroke: #A80036; stroke-width: 1.0; stroke-dasharray: 7.0,7.0;"/><polygon fill="#A80036" points="59.5945,352.5673,62.5619,343.1761,59.0348,347.5988,54.6122,344.0717,59.5945,352.5673" style="stroke: #A80036; stroke-width: 1.0;"/><text fill="#000000" font-family="sans-serif" font-size="13" lengthAdjust="spacingAndGlyphs" textLength="55" x="82.5" y="269.3457">For links</text><text fill="#000000" font-family="sans-serif" font-size="13" lengthAdjust="spacingAndGlyphs" textLength="57" x="81.5" y="284.6563">to digital</text><text fill="#000000" font-family="sans-serif" font-size="13" lengthAdjust="spacingAndGlyphs" textLength="62" x="79" y="299.9668">collection</text><ellipse cx="78" cy="255.7773" fill="#FFFFFF" rx="10" ry="10" style="stroke: #FFFFFF; stroke-width: 1.0;"/><path d="M68.0355,256.6188 A10,10 0 0 0 78.8414 265.7419" fill="#FFFFFF" style="stroke: #A80036; stroke-width: 1.5;"/><path d="M87.9645,254.9359 A10,10 0 0 0 77.1586 245.8128" fill="#FFFFFF" style="stroke: #A80036; stroke-width: 1.5;"/><ellipse cx="78" cy="255.7773" fill="#FFFFFF" rx="6" ry="6" style="stroke: #A80036; stroke-width: 1.5;"/><!--MD5=[a4b917bf01b9aed59311015e2634624d]
link Handler to FileMakerPro--><path d="M542.3303,68.451 C476.585,76.8303 383.8668,94.7631 311,132.7773 C288.8505,144.3326 268.163,163.8286 253.8207,179.3153 " fill="none" id="Handler-&gt;FileMakerPro" style="stroke: #A80036; stroke-width: 1.0; stroke-dasharray: 7.0,7.0;"/><polygon fill="#A80036" points="250.3141,183.1589,259.3349,179.2061,253.684,179.4652,253.4249,173.8143,250.3141,183.1589" style="stroke: #A80036; stroke-width: 1.0;"/><text fill="#000000" font-family="sans-serif" font-size="13" lengthAdjust="spacingAndGlyphs" textLength="96" x="312" y="146.3457">For assembling</text><!--MD5=[e06b06d0b6a29202f1df2edcf2ea720e]
link Handler to CorpFS--><path d="M544.554,102.8703 C512.3985,122.6673 477.1168,148.8217 452,179.7773 C414.7127,225.7325 438.6346,257.1061 401,302.7773 C388.9308,317.4238 372.2816,329.7913 356.6456,339.3603 " fill="none" id="Handler-&gt;CorpFS" style="stroke: #A80036; stroke-width: 1.0; stroke-dasharray: 7.0,7.0;"/><polygon fill="#A80036" points="352.2669,341.9846,362.0429,340.7888,356.5556,339.4142,357.9302,333.9269,352.2669,341.9846" style="stroke: #A80036; stroke-width: 1.0;"/><text fill="#000000" font-family="sans-serif" font-size="13" lengthAdjust="spacingAndGlyphs" textLength="96" x="453" y="207.8457">For assembling</text><!--MD5=[36adf2d6b67d8d5ccab4b6a34fa27c8c]
link Handler to GoogleDrive--><path d="M625,102.9666 C625,125.9633 625,153.918 625,174.3864 " fill="none" id="Handler-&gt;GoogleDrive" style="stroke: #A80036; stroke-width: 1.0; stroke-dasharray: 7.0,7.0;"/><polygon fill="#A80036" points="625,179.4214,629,170.4214,625,174.4214,621,170.4214,625,179.4214" style="stroke: #A80036; stroke-width: 1.0;"/><text fill="#000000" font-family="sans-serif" font-size="13" lengthAdjust="spacingAndGlyphs" textLength="71" x="626" y="146.3457">For sharing</text><!--MD5=[71a1803a12122d46dc9b8e4d2cec6ed1]
link Handler to Box--><path d="M673.8453,102.8625 C683.669,112.2387 693.5578,122.4781 702,132.7773 C712.7228,145.8587 722.7389,161.8424 730.4018,175.2322 " fill="none" id="Handler-&gt;Box" style="stroke: #A80036; stroke-width: 1.0; stroke-dasharray: 7.0,7.0;"/><polygon fill="#A80036" points="732.908,179.6656,731.9612,169.8624,730.4475,175.313,724.9969,173.7993,732.908,179.6656" style="stroke: #A80036; stroke-width: 1.0;"/><text fill="#000000" font-family="sans-serif" font-size="13" lengthAdjust="spacingAndGlyphs" textLength="71" x="716" y="146.3457">For sharing</text><!--MD5=[966a9e64715b17ac20022dd38a7bef05]
link Handler to Email--><path d="M707.5579,86.5634 C737.1197,97.9247 769.624,113.2434 796,132.7773 C811.6317,144.3541 825.6556,161.009 835.9965,175.1689 " fill="none" id="Handler-&gt;Email" style="stroke: #A80036; stroke-width: 1.0; stroke-dasharray: 7.0,7.0;"/><polygon fill="#A80036" points="839.0853,179.4749,837.0896,169.8304,836.1709,175.4121,830.5892,174.4934,839.0853,179.4749" style="stroke: #A80036; stroke-width: 1.0;"/><text fill="#000000" font-family="sans-serif" font-size="13" lengthAdjust="spacingAndGlyphs" textLength="71" x="815" y="146.3457">For sharing</text><!--MD5=[5e070694d429465898f23b428af6d3bc]
@startuml

header VRC

package "FileMakerPro"
interface "curate.nd.edu"
folder "CorpFS"

CorpFS .(0).> FileMakerPro : "Digital Objects\nNamed by\nFileMakerPro ID"
FileMakerPro .(0).> CorpFS : "Metadata\nIncludeds\nStorage Location"

actor "Faculty Request Handler" as Handler

FileMakerPro .(0).> curate.nd.edu : "For links\nto digital\ncollection"

cloud GoogleDrive
cloud Box
cloud Email

Handler ..> FileMakerPro : "For assembling"
Handler ..> CorpFS : "For assembling"
Handler ..> GoogleDrive : "For sharing"
Handler ..> Box : "For sharing"
Handler ..> Email : "For sharing"

@enduml

PlantUML version 1.2019.10(Fri Sep 13 16:53:03 EDT 2019)
(GPL source distribution)
Java Runtime: Java(TM) SE Runtime Environment
JVM: Java HotSpot(TM) 64-Bit Server VM
Java Version: 1.8.0_102-b14
Operating System: Mac OS X
Default Encoding: UTF-8
Language: en
Country: US
--></g></svg>